<?xml version="1.0" standalone="no"?>
<!DOCTYPE svg PUBLIC "-//W3C//DTD SVG 1.1//EN" "http://www.w3.org/Graphics/SVG/1.1/DTD/svg11.dtd" >
<svg>
<metadata>
Created by FontForge 20110222 at Mon Jun 16 15:27:14 2014
 By Orthosie Webhosting
Copyright (c) 2012 by Process Type Foundry, LLC. All rights reserved.
</metadata>
<defs>
<font id="ColfaxWebMedium" horiz-adv-x="276" >
  <font-face 
    font-family="ColfaxWebMedium"
    font-weight="500"
    font-stretch="normal"
    units-per-em="1000"
    panose-1="2 11 3 4 0 0 0 1 0 2"
    ascent="750"
    descent="-250"
    x-height="520"
    cap-height="700"
    bbox="-61 -250 1237 965"
    underline-thickness="72"
    underline-position="-28"
    unicode-range="U+0020-FB02"
  />
<missing-glyph horiz-adv-x="686" 
d="M213 264l87 86l-87 88l43 43l87 -87l89 87l43 -43l-88 -88l88 -86l-44 -44l-88 87l-86 -87zM579 16v668h-472v-668h472zM90 700h506v-700h-506v700z" />
    <glyph glyph-name=".notdef" horiz-adv-x="686" 
d="M213 264l87 86l-87 88l43 43l87 -87l89 87l43 -43l-88 -88l88 -86l-44 -44l-88 87l-86 -87zM579 16v668h-472v-668h472zM90 700h506v-700h-506v700z" />
    <glyph glyph-name=".null" horiz-adv-x="0" 
 />
    <glyph glyph-name="nonmarkingreturn" horiz-adv-x="220" 
 />
    <glyph glyph-name="space" unicode=" " horiz-adv-x="220" 
 />
    <glyph glyph-name="exclam" unicode="!" horiz-adv-x="296" 
d="M77 423v277h142v-277l-33 -221h-76zM70 70q0 35 21.5 56.5t56.5 21.5t56.5 -21.5t21.5 -56.5t-21.5 -56.5t-56.5 -21.5t-56.5 21.5t-21.5 56.5z" />
    <glyph glyph-name="quotedbl" unicode="&#x22;" horiz-adv-x="487" 
d="M297 700h118v-280h-118v280zM72 700h118v-280h-118v280z" />
    <glyph glyph-name="numbersign" unicode="#" horiz-adv-x="677" 
d="M406 192h-162l-21 -192h-104l21 192h-100v92h110l16 143h-105v92h115l20 181h104l-20 -181h162l20 181h104l-20 -181h96v-92h-106l-16 -143h101v-92h-111l-21 -192h-104zM254 284h162l16 143h-162z" />
    <glyph glyph-name="dollar" unicode="$" horiz-adv-x="590" 
d="M233 6q-85 15 -132.5 68t-47.5 134v16h130v-16q0 -51 31 -76.5t86 -25.5q51 0 81.5 24.5t30.5 67.5q0 32 -16 50.5t-49 30.5l-133 48q-36 13 -65 28t-49.5 35.5t-31 48.5t-10.5 67q0 40 13 72t35.5 55t54 38.5t68.5 22.5v116h134v-117q75 -16 119.5 -64t44.5 -125v-21
h-129v18q0 43 -27 67t-78 24q-47 0 -74.5 -20t-27.5 -59q0 -31 18 -46t47 -26l128 -46q34 -13 63.5 -28.5t51.5 -37.5t34 -51.5t12 -69.5q0 -39 -13 -72.5t-37 -59.5t-56.5 -44t-71.5 -26v-116h-134v116z" />
    <glyph glyph-name="percent" unicode="%" horiz-adv-x="884" 
d="M574 700h101l-360 -700h-101zM373 472q0 -70 -43.5 -113.5t-120.5 -43.5t-120.5 43.5t-43.5 113.5v81q0 70 43.5 113.5t120.5 43.5t120.5 -43.5t43.5 -113.5v-81zM277 561q0 31 -17.5 49.5t-50.5 18.5t-50.5 -18.5t-17.5 -49.5v-97q0 -31 17.5 -49.5t50.5 -18.5
t50.5 18.5t17.5 49.5v97zM844 147q0 -70 -43.5 -113.5t-120.5 -43.5t-120.5 43.5t-43.5 113.5v81q0 70 43.5 113.5t120.5 43.5t120.5 -43.5t43.5 -113.5v-81zM748 236q0 31 -17.5 49.5t-50.5 18.5t-50.5 -18.5t-17.5 -49.5v-97q0 -31 17.5 -49.5t50.5 -18.5t50.5 18.5
t17.5 49.5v97z" />
    <glyph glyph-name="ampersand" unicode="&#x26;" horiz-adv-x="688" 
d="M593 -14l-70 69q-35 -32 -85.5 -50.5t-115.5 -18.5q-61 0 -111 15.5t-86 44.5t-55.5 70.5t-19.5 92.5q0 39 10 70t27 54.5t39.5 41t47.5 30.5q-24 26 -42.5 58.5t-18.5 79.5q0 38 14 69.5t40 54t62.5 35t81.5 12.5q46 0 82.5 -12.5t62 -35t39 -53.5t13.5 -68v-41h-113v40
q0 32 -20.5 54.5t-62.5 22.5q-37 0 -60 -19.5t-23 -55.5q0 -25 14.5 -44.5t34.5 -38.5l221 -221q1 8 1 14v15v80h108v-85q0 -60 -20 -114l85 -84zM328 81q82 0 125 45l-211 211q-29 -20 -50.5 -50t-21.5 -77q0 -31 12 -55t33.5 -40.5t50.5 -25t62 -8.5z" />
    <glyph glyph-name="quotesingle" unicode="'" horiz-adv-x="262" 
d="M72 700h118v-280h-118v280z" />
    <glyph glyph-name="parenleft" unicode="(" horiz-adv-x="333" 
d="M318 782q-28 -66 -49.5 -125t-35.5 -114.5t-21.5 -109.5t-7.5 -109t7.5 -109t21.5 -109.5t35.5 -114.5t49.5 -125h-131q-60 113 -91 225t-31 233t31 233t91 225h131z" />
    <glyph glyph-name="parenright" unicode=")" horiz-adv-x="333" 
d="M146 782q60 -113 91 -225t31 -233t-31 -233t-91 -225h-131q28 66 49.5 125t35.5 114.5t21.5 109.5t7.5 109t-7.5 109t-21.5 109.5t-35.5 114.5t-49.5 125h131z" />
    <glyph glyph-name="asterisk" unicode="*" horiz-adv-x="442" 
d="M55 463l108 62l-108 63l29 50l109 -63v125h57v-125l108 63l29 -50l-108 -63l108 -62l-29 -50l-108 62v-124h-57v125l-109 -63z" />
    <glyph glyph-name="plus" unicode="+" horiz-adv-x="602" 
d="M238 303h-168v114h168v185h126v-185h168v-114h-168v-185h-126v185z" />
    <glyph glyph-name="comma" unicode="," horiz-adv-x="250" 
d="M65 136h145l-90 -265h-105z" />
    <glyph glyph-name="hyphen" unicode="-" horiz-adv-x="409" 
d="M55 381h299v-122h-299v122z" />
    <glyph glyph-name="period" unicode="." horiz-adv-x="256" 
d="M50 70q0 35 21.5 56.5t56.5 21.5t56.5 -21.5t21.5 -56.5t-21.5 -56.5t-56.5 -21.5t-56.5 21.5t-21.5 56.5z" />
    <glyph glyph-name="slash" unicode="/" horiz-adv-x="474" 
d="M312 750h132l-282 -855h-132z" />
    <glyph glyph-name="zero" unicode="0" horiz-adv-x="640" 
d="M320 -14q-60 0 -109 18t-83.5 50.5t-53 77t-18.5 98.5v240q0 54 18.5 98.5t53 77t83.5 50.5t109 18t109 -18t83.5 -50.5t53 -77t18.5 -98.5v-240q0 -54 -18.5 -98.5t-53 -77t-83.5 -50.5t-109 -18zM446 472q0 64 -33.5 96.5t-92.5 32.5t-92.5 -32.5t-33.5 -96.5v-244
q0 -64 33.5 -96.5t92.5 -32.5t92.5 32.5t33.5 96.5v244z" />
    <glyph glyph-name="one" unicode="1" horiz-adv-x="394" 
d="M174 560l-149 -55v122l173 73h114v-700h-138v560z" />
    <glyph glyph-name="two" unicode="2" horiz-adv-x="602" 
d="M52 105l285 280q29 29 47 57t18 65q0 45 -28.5 69.5t-73.5 24.5q-51 0 -77.5 -28t-26.5 -79v-14h-131v20q0 52 16.5 92t47 67t73.5 41t97 14t98 -14.5t76 -41.5t49.5 -65t17.5 -85q0 -38 -12 -70t-31.5 -59.5t-44 -52t-49.5 -46.5l-182 -167h315v-113h-484v105z" />
    <glyph glyph-name="three" unicode="3" horiz-adv-x="611" 
d="M88 700h440v-111l-179 -179q43 -2 80.5 -15.5t65.5 -39t44.5 -62.5t16.5 -86q0 -48 -20.5 -89t-56 -70t-82.5 -45.5t-100 -16.5q-51 0 -96 14t-79.5 41.5t-55 68.5t-21.5 95h128q4 -50 37.5 -79t87.5 -29q57 0 89.5 31t32.5 76q0 47 -31 74t-90 27h-103v111l164 174h-272
v110z" />
    <glyph glyph-name="four" unicode="4" horiz-adv-x="618" 
d="M365 150h-320v102l211 448h125l-202 -444h186v145h127v-145h89v-106h-89v-150h-127v150z" />
    <glyph glyph-name="five" unicode="5" horiz-adv-x="624" 
d="M307 -14q-46 0 -88.5 12.5t-76.5 37.5t-56.5 62.5t-29.5 87.5h131q9 -39 40 -63.5t80 -24.5q62 0 97 36.5t35 93.5q0 27 -9 50t-25.5 40t-40 27t-53.5 10q-42 0 -71 -17t-45 -44h-127l66 406h375v-110h-266l-29 -168q47 44 132 44q49 0 90.5 -16.5t72 -47t48 -73.5
t17.5 -97q0 -51 -19.5 -96t-55 -78.5t-84.5 -52.5t-108 -19z" />
    <glyph glyph-name="six" unicode="6" horiz-adv-x="614" 
d="M445 700l-195 -268q18 17 44 24.5t59 7.5q45 0 85 -16t70 -46.5t47.5 -74t17.5 -97.5q0 -51 -20.5 -95.5t-55.5 -77.5t-83.5 -52t-103.5 -19q-61 0 -109.5 18.5t-82.5 51t-52 77.5t-18 98q0 70 21 120t53 95l176 254h147zM184 227q0 -56 32.5 -94t94.5 -38
q28 0 51.5 10.5t40.5 28.5t26 42.5t9 51.5q0 57 -33 94t-93 37q-58 0 -93 -37t-35 -95z" />
    <glyph glyph-name="seven" unicode="7" horiz-adv-x="548" 
d="M366 587h-316v113h458v-98l-290 -602h-141z" />
    <glyph glyph-name="eight" unicode="8" horiz-adv-x="634" 
d="M317 -14q-57 0 -105 15t-82 43t-53 66.5t-19 85.5q0 66 32.5 106.5t83.5 62.5q-39 21 -63.5 59.5t-24.5 95.5q0 46 17.5 82.5t48.5 61t73.5 37.5t91.5 13t91.5 -13t73.5 -37.5t48.5 -61t17.5 -82.5q0 -57 -24.5 -95.5t-63.5 -59.5q51 -22 83.5 -62.5t32.5 -106.5
q0 -47 -19 -85.5t-53 -66.5t-82 -43t-105 -15zM317 91q57 0 91 26.5t34 78.5q0 53 -34 80.5t-91 27.5t-91 -27.5t-34 -80.5q0 -52 34 -78.5t91 -26.5zM217 510q0 -44 27 -72t73 -28t73 28t27 72q0 47 -26 73.5t-74 26.5t-74 -26.5t-26 -73.5z" />
    <glyph glyph-name="nine" unicode="9" horiz-adv-x="614" 
d="M172 0l181 264q-13 -13 -39.5 -20.5t-52.5 -7.5q-45 0 -85 16.5t-70 46.5t-47.5 73.5t-17.5 97.5q0 53 19 98t53 77.5t82 50.5t107 18t108 -17.5t83.5 -49.5t53.5 -76.5t19 -99.5q0 -58 -16.5 -107.5t-41.5 -86.5l-186 -277h-150zM430 473q0 28 -8.5 52t-24.5 42t-40 28
t-54 10q-58 0 -92.5 -37t-34.5 -96q0 -58 33 -94.5t93 -36.5q30 0 53.5 10.5t40 28.5t25.5 42t9 51z" />
    <glyph glyph-name="colon" unicode=":" horiz-adv-x="256" 
d="M50 382q0 35 21.5 56.5t56.5 21.5t56.5 -21.5t21.5 -56.5t-21.5 -56.5t-56.5 -21.5t-56.5 21.5t-21.5 56.5zM50 70q0 35 21.5 56.5t56.5 21.5t56.5 -21.5t21.5 -56.5t-21.5 -56.5t-56.5 -21.5t-56.5 21.5t-21.5 56.5z" />
    <glyph glyph-name="semicolon" unicode=";" horiz-adv-x="256" 
d="M48 136h145l-90 -265h-105zM45 382q0 35 21.5 56.5t56.5 21.5t56.5 -21.5t21.5 -56.5t-21.5 -56.5t-56.5 -21.5t-56.5 21.5t-21.5 56.5z" />
    <glyph glyph-name="less" unicode="&#x3c;" horiz-adv-x="577" 
d="M512 612v-124l-300 -128l300 -128v-124l-462 208v88z" />
    <glyph glyph-name="equal" unicode="=" horiz-adv-x="618" 
d="M80 291h458v-110h-458v110zM80 539h458v-110h-458v110z" />
    <glyph glyph-name="greater" unicode="&#x3e;" horiz-adv-x="577" 
d="M527 404v-88l-462 -208v124l300 128l-300 128v124z" />
    <glyph glyph-name="question" unicode="?" horiz-adv-x="504" 
d="M177 256q0 56 14 92.5t49 62.5l46 34q27 20 43.5 37.5t16.5 47.5q0 35 -26 54.5t-71 19.5q-48 0 -73.5 -21.5t-25.5 -65.5v-23h-125v25q0 50 17 87t47 61t71.5 35.5t91.5 11.5q51 0 93.5 -13t72.5 -37t47 -58t17 -76q0 -52 -21 -87t-57 -61l-51 -37q-14 -11 -24.5 -20
t-17.5 -21t-10 -27.5t-3 -37.5v-29h-121v46zM162 70q0 35 21.5 56.5t56.5 21.5t56.5 -21.5t21.5 -56.5t-21.5 -56.5t-56.5 -21.5t-56.5 21.5t-21.5 56.5z" />
    <glyph glyph-name="at" unicode="@" horiz-adv-x="932" 
d="M666 494l-39 -222q-3 -15 -3 -28q0 -36 18.5 -55t48.5 -19t50 19t32.5 48t17.5 63t5 64q0 61 -21 111.5t-60 86.5t-95.5 56t-128.5 20q-82 0 -147 -27.5t-110 -77t-68.5 -117.5t-23.5 -149q0 -67 21 -123.5t62 -98t100.5 -64.5t137.5 -23q45 0 87 4.5t87 16.5l-10 -76
q-36 -11 -84.5 -17t-90.5 -6q-94 0 -168.5 30t-126 82.5t-78.5 123t-27 151.5q0 92 29.5 173.5t86 142t139 96t189.5 35.5q91 0 163 -26.5t122 -73t77 -109.5t27 -136q0 -52 -11.5 -101t-35.5 -87t-61.5 -61t-89.5 -23q-50 0 -88 21t-49 62q-6 -13 -18.5 -25.5t-29.5 -22.5
t-38.5 -16t-45.5 -6q-34 0 -62.5 12t-49 33t-32 50t-11.5 64q0 11 0.5 19.5t2.5 18.5l6 33q14 75 57 116.5t115 41.5q40 0 69 -16t44 -41l9 53h100zM368 300q-1 -5 -2 -12t-1 -15q0 -35 18.5 -57.5t53.5 -22.5q33 0 56.5 23t31.5 68l5 28q2 10 2 24q0 33 -19 56t-57 23
q-35 0 -55.5 -24t-27.5 -62z" />
    <glyph glyph-name="A" unicode="A" horiz-adv-x="690" 
d="M667 0h-139l-47 147h-272l-47 -147h-139l251 700h142zM244 258h201l-100 316z" />
    <glyph glyph-name="B" unicode="B" horiz-adv-x="663" 
d="M77 700h314q46 0 83 -13t63 -36t40 -56t14 -72q0 -60 -25.5 -100t-62.5 -61q54 -11 92 -52.5t38 -112.5q0 -44 -17.5 -80t-48.5 -62t-75 -40.5t-96 -14.5h-319v700zM389 110q51 0 77.5 25.5t26.5 70.5q0 44 -27.5 69.5t-77.5 25.5h-175v-191h176zM360 410q45 0 68 26
t23 67q0 40 -24 63.5t-68 23.5h-146v-180h147z" />
    <glyph glyph-name="C" unicode="C" horiz-adv-x="706" 
d="M362 -14q-79 0 -137 24t-95.5 66t-55.5 99.5t-18 124.5v100q0 67 18 124.5t55.5 99.5t95.5 66t137 24q66 0 119.5 -21t91 -57t58.5 -83.5t24 -101.5h-130q-3 30 -14.5 56.5t-31.5 47t-49 32.5t-68 12q-44 0 -75.5 -14.5t-52 -40t-30 -60.5t-9.5 -77v-114q0 -42 9.5 -77.5
t30 -61t52 -39.5t75.5 -14q39 0 68 12t49 32.5t31.5 47t14.5 56.5h130q-3 -54 -24 -101.5t-58.5 -83.5t-91 -57t-119.5 -21z" />
    <glyph glyph-name="D" unicode="D" horiz-adv-x="703" 
d="M361 700q70 0 124 -20.5t90 -57.5t54.5 -87t18.5 -110v-150q0 -60 -18.5 -110t-54.5 -87t-90 -57.5t-124 -20.5h-284v700h284zM509 426q0 77 -43.5 118.5t-128.5 41.5h-121v-472h121q85 0 128.5 41.5t43.5 118.5v152z" />
    <glyph glyph-name="E" unicode="E" horiz-adv-x="618" 
d="M77 700h490v-116h-350v-171h320v-117h-320v-180h351v-116h-491v700z" />
    <glyph glyph-name="F" unicode="F" horiz-adv-x="591" 
d="M77 700h479v-116h-339v-185h309v-116h-309v-283h-140v700z" />
    <glyph glyph-name="G" unicode="G" horiz-adv-x="715" 
d="M519 462q-1 27 -11.5 52t-30 44t-48.5 30t-66 11q-86 0 -127 -52t-41 -140v-110q0 -44 9.5 -80.5t29.5 -63t52.5 -41t77.5 -14.5q38 0 67.5 11t49.5 30t30.5 44.5t10.5 54.5v10h-157v114h294v-91q0 -63 -21 -115.5t-60 -90t-94 -58.5t-122 -21q-78 0 -135.5 24.5
t-95.5 67t-56.5 100t-18.5 122.5v102q0 70 20.5 128t59.5 98.5t95 63t128 22.5q68 0 121.5 -19t91 -52.5t58 -80t22.5 -100.5h-133z" />
    <glyph glyph-name="H" unicode="H" horiz-adv-x="721" 
d="M77 700h140v-287h287v287h140v-700h-140v289h-287v-289h-140v700z" />
    <glyph glyph-name="I" unicode="I" horiz-adv-x="304" 
d="M82 700h140v-700h-140v700z" />
    <glyph glyph-name="J" unicode="J" horiz-adv-x="608" 
d="M283 -14q-57 0 -103 15.5t-78 44t-49 69t-17 90.5v10h133v-9q0 -48 29.5 -76t84.5 -28q56 0 83.5 28.5t27.5 75.5v494h140v-494q0 -49 -18.5 -89.5t-51.5 -69.5t-79 -45t-102 -16z" />
    <glyph glyph-name="K" unicode="K" horiz-adv-x="651" 
d="M77 700h140v-336l247 336h163l-263 -347l271 -353h-165l-253 343v-343h-140v700z" />
    <glyph glyph-name="L" unicode="L" horiz-adv-x="580" 
d="M77 700h140v-584h322v-116h-462v700z" />
    <glyph glyph-name="M" unicode="M" horiz-adv-x="808" 
d="M731 0h-134v430l-131 -260h-124l-131 260v-430h-134v700h129l198 -400l198 400h129v-700z" />
    <glyph glyph-name="N" unicode="N" horiz-adv-x="729" 
d="M77 700h133l305 -466v466h137v-700h-133l-305 466v-466h-137v700z" />
    <glyph glyph-name="O" unicode="O" horiz-adv-x="736" 
d="M680 299q0 -67 -20 -124t-59 -99t-97.5 -66t-135.5 -24t-135.5 24t-97.5 66t-59 99t-20 124v102q0 67 20 124t59 99t97.5 66t135.5 24t135.5 -24t97.5 -66t59 -99t20 -124v-102zM368 102q44 0 76.5 14t53.5 39.5t31.5 60t10.5 76.5v116q0 42 -10.5 76.5t-31.5 60
t-53.5 39.5t-76.5 14t-76.5 -14t-53.5 -39.5t-31.5 -60t-10.5 -76.5v-116q0 -42 10.5 -76.5t31.5 -60t53.5 -39.5t76.5 -14z" />
    <glyph glyph-name="P" unicode="P" horiz-adv-x="652" 
d="M77 700h291q60 0 108.5 -17t82 -48t51.5 -74.5t18 -95.5q0 -53 -18.5 -96.5t-52.5 -75.5t-82 -49.5t-107 -17.5h-151v-226h-140v700zM359 341q33 0 57.5 9.5t40.5 26.5t23.5 39.5t7.5 48.5q0 52 -31 86t-98 34h-142v-244h142z" />
    <glyph glyph-name="Q" unicode="Q" horiz-adv-x="736" 
d="M680 299q0 -76 -25 -139t-75 -105l52 -78l-98 -64l-57 87q-51 -14 -109 -14q-77 0 -135.5 24t-97.5 66t-59 99t-20 124v102q0 67 20 124t59 99t97.5 66t135.5 24t135.5 -24t97.5 -66t59 -99t20 -124v-102zM368 102q22 0 40 3l-55 85l97 60l56 -84q17 24 25.5 56t8.5 70
v116q0 42 -10.5 76.5t-31.5 60t-53.5 39.5t-76.5 14t-76.5 -14t-53.5 -39.5t-31.5 -60t-10.5 -76.5v-116q0 -42 10.5 -76.5t31.5 -60t53.5 -39.5t76.5 -14z" />
    <glyph glyph-name="R" unicode="R" horiz-adv-x="698" 
d="M364 224h-147v-224h-140v700h316q62 0 109 -18t79 -50t48.5 -75.5t16.5 -94.5q0 -75 -36.5 -131.5t-101.5 -84.5l146 -246h-162zM376 337q65 0 97.5 35.5t32.5 90.5q0 57 -33 90t-97 33h-159v-249h159z" />
    <glyph glyph-name="S" unicode="S" horiz-adv-x="654" 
d="M329 -14q-62 0 -112.5 14.5t-86.5 42.5t-55.5 68.5t-19.5 91.5v18h134v-15q0 -49 37 -80.5t108 -31.5q63 0 100 26.5t37 75.5q0 29 -15.5 49.5t-50.5 29.5l-183 47q-80 20 -118 61t-38 120q0 49 18 88.5t51.5 66.5t81 41.5t106.5 14.5q58 0 105 -15.5t80 -43t50.5 -66
t17.5 -84.5v-17h-129v14q0 45 -29.5 74.5t-94.5 29.5q-56 0 -89 -22.5t-33 -68.5q0 -59 60 -74l192 -51q153 -40 153 -183q0 -50 -21 -90.5t-58 -69.5t-88 -45t-110 -16z" />
    <glyph glyph-name="T" unicode="T" horiz-adv-x="588" 
d="M224 584h-198v116h536v-116h-198v-584h-140v584z" />
    <glyph glyph-name="U" unicode="U" horiz-adv-x="720" 
d="M360 -14q-68 0 -121.5 19.5t-90.5 54.5t-56.5 84t-19.5 108v448h139v-454q0 -69 40.5 -106.5t108.5 -37.5t108 37.5t40 106.5v454h140v-448q0 -59 -19.5 -108t-56.5 -84t-90.5 -54.5t-121.5 -19.5z" />
    <glyph glyph-name="V" unicode="V" horiz-adv-x="666" 
d="M412 0h-158l-232 700h143l168 -547l168 547h143z" />
    <glyph glyph-name="W" unicode="W" horiz-adv-x="966" 
d="M697 194l101 506h138l-165 -700h-135l-153 539l-153 -539h-135l-165 700h138l101 -506l146 506h136z" />
    <glyph glyph-name="X" unicode="X" horiz-adv-x="668" 
d="M638 0h-147l-157 245l-157 -245h-147l232 357l-222 343h144l150 -233l150 233h144l-222 -343z" />
    <glyph glyph-name="Y" unicode="Y" horiz-adv-x="636" 
d="M388 0h-140v252l-240 448h152l158 -312l158 312h152l-240 -448v-252z" />
    <glyph glyph-name="Z" unicode="Z" horiz-adv-x="624" 
d="M55 116l351 468h-336v116h493v-116l-351 -468h360v-116h-517v116z" />
    <glyph glyph-name="bracketleft" unicode="[" horiz-adv-x="382" 
d="M75 782h282v-112h-146v-692h146v-112h-282v916z" />
    <glyph glyph-name="backslash" unicode="\" horiz-adv-x="474" 
d="M444 -105h-132l-282 855h132z" />
    <glyph glyph-name="bracketright" unicode="]" horiz-adv-x="382" 
d="M307 -134h-282v112h146v692h-146v112h282v-916z" />
    <glyph glyph-name="asciicircum" unicode="^" horiz-adv-x="532" 
d="M492 414h-131l-95 175l-95 -175h-131l168 286h116z" />
    <glyph glyph-name="underscore" unicode="_" horiz-adv-x="518" 
d="M-1 -64h520v-72h-520v72z" />
    <glyph glyph-name="grave" unicode="`" horiz-adv-x="395" 
d="M77 733h168l73 -154h-137z" />
    <glyph glyph-name="a" unicode="a" horiz-adv-x="585" 
d="M242 -12q-44 0 -80 11t-62 32t-40.5 51t-14.5 68q0 42 15 73.5t43 51.5t66.5 30t85.5 10t80.5 -14.5t51.5 -29.5v71q0 36 -24 60t-66 24q-35 0 -57 -14t-33 -35h-126q23 76 80.5 115.5t142.5 39.5q49 0 89 -14t69 -40.5t45 -63.5t16 -82v-332h-131v48q-9 -13 -25 -24
t-36.5 -19t-43.5 -12.5t-45 -4.5zM277 78q22 0 42 6t35 16t24 24t9 31q0 35 -30 54t-76 19q-48 0 -76 -19t-28 -55t28.5 -56t71.5 -20z" />
    <glyph glyph-name="b" unicode="b" horiz-adv-x="614" 
d="M351 -12q-57 0 -96.5 21t-57.5 53v-62h-130v730h136v-268q21 29 59 49.5t90 20.5t93 -18t68.5 -49.5t42 -73t14.5 -88.5v-86q0 -46 -14.5 -87.5t-42.5 -73t-69 -50t-93 -18.5zM318 98q59 0 87.5 36.5t28.5 88.5v74q0 55 -29.5 90t-87.5 35q-23 0 -44 -8t-36.5 -24
t-24.5 -38.5t-9 -52.5v-76q0 -55 31.5 -90t83.5 -35z" />
    <glyph glyph-name="c" unicode="c" horiz-adv-x="571" 
d="M290 -12q-59 0 -104.5 17.5t-77 49t-48 74.5t-16.5 94v74q0 51 16.5 94t48 74.5t77 49t104.5 17.5q52 0 95 -15.5t74 -43t48.5 -65t19.5 -82.5h-124q-2 19 -9.5 36.5t-21 30.5t-33 21t-46.5 8q-58 0 -85.5 -33.5t-27.5 -86.5v-84q0 -53 27.5 -86.5t85.5 -33.5
q27 0 46.5 8t33 21t21 30.5t9.5 36.5h124q-2 -45 -19.5 -82.5t-48.5 -65t-74 -43t-95 -15.5z" />
    <glyph glyph-name="d" unicode="d" horiz-adv-x="614" 
d="M263 -12q-53 0 -93.5 18.5t-68.5 50t-42.5 73t-14.5 87.5v86q0 47 14.5 88.5t42 73t68 49.5t93.5 18q52 0 89.5 -19.5t59.5 -48.5v266h136v-730h-130v62q-20 -30 -58.5 -52t-95.5 -22zM296 98q52 0 83.5 35t31.5 90v76q0 30 -9 52.5t-24.5 38.5t-36.5 24t-44 8
q-58 0 -87.5 -35t-29.5 -90v-74q0 -52 28.5 -88.5t87.5 -36.5z" />
    <glyph glyph-name="e" unicode="e" horiz-adv-x="560" 
d="M286 -12q-55 0 -100 15.5t-76.5 45.5t-48.5 73t-17 98v71q0 53 15.5 97t46 76t75 50t103.5 18q58 0 101.5 -18t72.5 -49t43.5 -72.5t14.5 -88.5v-91h-340v-13q0 -23 6 -43.5t19.5 -36.5t34 -25t50.5 -9q44 0 70.5 19.5t36.5 46.5h119q-7 -36 -27 -66t-50 -51.5t-68 -34
t-81 -12.5zM176 309h215v13q0 49 -26 81.5t-81 32.5q-29 0 -49.5 -9t-33.5 -25.5t-19 -39t-6 -48.5v-5z" />
    <glyph glyph-name="f" unicode="f" horiz-adv-x="363" 
d="M97 410h-66v110h66v48q0 86 40 124t121 38h90v-108h-59q-29 0 -42.5 -11t-13.5 -42v-49h105v-110h-105v-410h-136v410z" />
    <glyph glyph-name="g" unicode="g" horiz-adv-x="610" 
d="M294 -186q-46 0 -87 10.5t-73 30.5t-54 48.5t-30 65.5h132q14 -27 43 -39.5t69 -12.5q52 0 82.5 26t30.5 70v82q-17 -27 -57.5 -49t-91.5 -22q-53 0 -93 17.5t-67 47.5t-40.5 69t-13.5 82v76q0 43 13.5 82.5t40.5 69t67.5 47t93.5 17.5q30 0 55.5 -7t45 -17.5t33 -24
t20.5 -26.5v63h130v-509q0 -42 -18.5 -78t-51.5 -62.5t-79 -41.5t-100 -15zM290 133q48 0 82.5 29.5t34.5 84.5v60q0 53 -32 84.5t-81 31.5q-57 0 -86 -31t-29 -85v-60q0 -50 27.5 -82t83.5 -32z" />
    <glyph glyph-name="h" unicode="h" horiz-adv-x="596" 
d="M67 730h136v-272q20 34 58 54t89 20q85 0 134.5 -53t49.5 -146v-333h-136v311q0 45 -22.5 74t-72.5 29q-46 0 -73 -26.5t-27 -79.5v-308h-136v730z" />
    <glyph glyph-name="i" unicode="i" 
d="M70 520h136v-520h-136v520zM59 656q0 34 22 56.5t57 22.5t57 -22.5t22 -56.5t-22 -56.5t-57 -22.5t-57 22.5t-22 56.5z" />
    <glyph glyph-name="j" unicode="j" 
d="M-1 -69h31q21 0 30.5 7.5t9.5 26.5v555h136v-567q0 -61 -33 -94t-102 -33h-72v105zM59 656q0 34 22 56.5t57 22.5t57 -22.5t22 -56.5t-22 -56.5t-57 -22.5t-57 22.5t-22 56.5z" />
    <glyph glyph-name="k" unicode="k" horiz-adv-x="544" 
d="M67 730h136v-452l165 242h155l-179 -254l185 -266h-155l-171 254v-254h-136v730z" />
    <glyph glyph-name="l" unicode="l" 
d="M70 730h136v-730h-136v730z" />
    <glyph glyph-name="m" unicode="m" horiz-adv-x="917" 
d="M67 520h130v-62q40 74 150 74q51 0 89 -19.5t61 -54.5q57 74 172 74q41 0 75 -13.5t59 -39t38.5 -62.5t13.5 -84v-333h-136v311q0 45 -21.5 74t-71.5 29q-45 0 -71 -26.5t-26 -79.5v-308h-136v311q0 45 -21.5 74t-71.5 29q-46 0 -71.5 -26.5t-25.5 -79.5v-308h-136v520z
" />
    <glyph glyph-name="n" unicode="n" horiz-adv-x="596" 
d="M67 520h130v-62q40 74 153 74q85 0 134.5 -52.5t49.5 -146.5v-333h-136v311q0 45 -22.5 74t-72.5 29q-46 0 -73 -26.5t-27 -79.5v-308h-136v520z" />
    <glyph glyph-name="o" unicode="o" horiz-adv-x="578" 
d="M289 -12q-59 0 -104.5 18t-76.5 49.5t-47.5 74.5t-16.5 93v74q0 50 16.5 93t47.5 74.5t76.5 49.5t104.5 18q58 0 104 -18t77 -49.5t47.5 -74.5t16.5 -93v-74q0 -50 -16.5 -93t-47.5 -74.5t-77 -49.5t-104 -18zM402 306q0 51 -27.5 85t-85.5 34t-85.5 -34t-27.5 -85v-92
q0 -51 27.5 -85t85.5 -34t85.5 34t27.5 85v92z" />
    <glyph glyph-name="p" unicode="p" horiz-adv-x="614" 
d="M351 532q54 0 94.5 -18.5t68.5 -50t42 -73t14 -87.5v-86q0 -47 -14.5 -88.5t-42 -73t-68.5 -49.5t-93 -18t-90.5 19t-58.5 49v-230h-136v694h130v-62q20 30 58.5 52t95.5 22zM318 422q-52 0 -83.5 -35t-31.5 -90v-76q0 -30 9 -52.5t24.5 -38.5t36.5 -24t44 -8
q58 0 87.5 35t29.5 90v74q0 52 -28.5 88.5t-87.5 36.5z" />
    <glyph glyph-name="q" unicode="q" horiz-adv-x="614" 
d="M263 532q57 0 96.5 -21t57.5 -53v62h130v-694h-136v229q-17 -27 -57 -47t-92 -20q-53 0 -93.5 18t-68 49.5t-42 73t-14.5 88.5v86q0 46 14.5 88t42.5 73t68.5 49.5t93.5 18.5zM296 422q-59 0 -87.5 -36.5t-28.5 -88.5v-74q0 -55 29.5 -90t87.5 -35q23 0 44 8t36.5 24
t24.5 38.5t9 52.5v76q0 55 -31.5 90t-83.5 35z" />
    <glyph glyph-name="r" unicode="r" horiz-adv-x="394" 
d="M67 520h129v-101q13 59 55 82t101 23h16v-135h-28q-67 0 -102 -35t-35 -114v-240h-136v520z" />
    <glyph glyph-name="s" unicode="s" horiz-adv-x="531" 
d="M269 -12q-50 0 -91 10.5t-70.5 31t-46 51.5t-16.5 73v9h120v-7q0 -34 28.5 -53t76.5 -19q43 0 71 16.5t28 46.5q0 37 -43 47l-154 35q-59 14 -89 45.5t-30 91.5q0 40 15.5 71t43.5 52t66.5 32t84.5 11q94 0 150 -44t56 -122v-8h-119v9q0 30 -20 49t-65 19q-85 0 -85 -57
q0 -20 10 -29.5t30 -14.5l158 -39q58 -14 87 -46t29 -87q0 -38 -17 -70t-47 -55t-71.5 -36t-89.5 -13z" />
    <glyph glyph-name="t" unicode="t" horiz-adv-x="384" 
d="M248 0q-75 0 -111 39.5t-36 108.5v262h-74v110h74v142h137v-142h111v-110h-111v-252q0 -26 11 -37t38 -11h55v-110h-94z" />
    <glyph glyph-name="u" unicode="u" horiz-adv-x="592" 
d="M525 0h-130v62q-18 -33 -59 -53.5t-92 -20.5q-44 0 -78 14.5t-57 40.5t-35 63t-12 81v333h136v-314q0 -50 23 -77t69 -27q48 0 73.5 28t25.5 77v313h136v-520z" />
    <glyph glyph-name="v" unicode="v" horiz-adv-x="518" 
d="M330 0h-142l-177 520h136l112 -381l112 381h136z" />
    <glyph glyph-name="w" unicode="w" horiz-adv-x="788" 
d="M635 0h-127l-114 358l-114 -358h-127l-135 520h132l76 -349l106 349h124l106 -349l76 349h132z" />
    <glyph glyph-name="x" unicode="x" horiz-adv-x="540" 
d="M521 0h-143l-108 162l-108 -162h-143l182 264l-175 256h141l103 -154l103 154h141l-175 -256z" />
    <glyph glyph-name="y" unicode="y" horiz-adv-x="511" 
d="M139 -174l52 176l-180 518h136l112 -373l106 373h135l-227 -694h-134z" />
    <glyph glyph-name="z" unicode="z" horiz-adv-x="505" 
d="M45 98l257 317h-245v105h402v-98l-257 -317h263v-105h-420v98z" />
    <glyph glyph-name="braceleft" unicode="{" horiz-adv-x="422" 
d="M56 379q44 0 63.5 21t19.5 60v142q0 89 44 134t143 45h76v-112h-49q-42 0 -60 -17t-18 -59v-145q0 -51 -23 -84t-79 -41q56 -8 79 -41t23 -84v-145q0 -42 18 -59t60 -17h49v-112h-76q-99 0 -143 45t-44 134v142q0 39 -19.5 60t-63.5 21h-31v112h31z" />
    <glyph glyph-name="bar" unicode="|" horiz-adv-x="330" 
d="M107 800h116v-950h-116v950z" />
    <glyph glyph-name="braceright" unicode="}" horiz-adv-x="422" 
d="M397 379v-112h-31q-44 0 -63.5 -21t-19.5 -60v-142q0 -89 -44 -134t-143 -45h-76v112h49q42 0 60 17t18 59v145q0 51 23 84t79 41q-56 8 -79 41t-23 84v145q0 42 -18 59t-60 17h-49v112h76q99 0 143 -45t44 -134v-142q0 -39 19.5 -60t63.5 -21h31z" />
    <glyph glyph-name="asciitilde" unicode="~" horiz-adv-x="642" 
d="M50 280q14 85 51 133t111 48q27 0 57 -11t59 -24.5t53.5 -24.5t40.5 -11q14 0 22.5 6t14.5 16t10.5 22.5t9.5 26.5l116 -40q-8 -31 -20 -60t-29.5 -51.5t-42.5 -36.5t-59 -14q-25 0 -54 11t-58 24.5t-55 24.5t-45 11q-16 0 -26 -5.5t-17 -16t-11.5 -25t-8.5 -31.5z" />
    <glyph glyph-name="uni00A0" unicode="&#xa0;" horiz-adv-x="220" 
 />
    <glyph glyph-name="exclamdown" unicode="&#xa1;" horiz-adv-x="296" 
d="M219 277v-277h-142v277l33 221h76zM226 630q0 -35 -21.5 -56.5t-56.5 -21.5t-56.5 21.5t-21.5 56.5t21.5 56.5t56.5 21.5t56.5 -21.5t21.5 -56.5z" />
    <glyph glyph-name="cent" unicode="&#xa2;" horiz-adv-x="580" 
d="M189 321q0 -53 27 -82.5t78 -29.5q48 0 73 24t29 57h126q-2 -33 -13.5 -62.5t-32.5 -53.5t-50.5 -41.5t-65.5 -26.5v-106h-136v106q-78 18 -122.5 74t-44.5 141v58q0 84 44.5 141.5t122.5 72.5v107h136v-107q36 -7 65.5 -24t50.5 -41.5t32.5 -54.5t13.5 -63h-126
q-4 33 -29 57t-73 24q-51 0 -78 -29.5t-27 -82.5v-58z" />
    <glyph glyph-name="sterling" unicode="&#xa3;" horiz-adv-x="672" 
d="M64 110h115v168h-101v110h101v118q0 52 16.5 91t46 65t70.5 39t91 13q106 0 164 -55t58 -147v-20h-126v21q0 38 -22 63.5t-69 25.5q-45 0 -69 -22.5t-24 -71.5v-120h188v-110h-188v-168h267v-110h-518v110z" />
    <glyph glyph-name="currency" unicode="&#xa4;" horiz-adv-x="622" 
d="M511 323q0 -30 -8.5 -57t-24.5 -49l84 -132h-136l-41 67q-36 -11 -74 -11q-39 0 -74 11l-41 -67h-136l84 132q-16 22 -24.5 49t-8.5 57v49q0 59 33 106l-84 132h136l41 -67q35 11 74 11q38 0 74 -11l41 67h136l-84 -132q33 -47 33 -106v-49zM395 379q0 34 -21 57t-63 23
t-63 -23t-21 -57v-63q0 -34 21 -57t63 -23t63 23t21 57v63z" />
    <glyph glyph-name="yen" unicode="&#xa5;" horiz-adv-x="608" 
d="M70 428h90l-120 272h147l117 -309l117 309h147l-120 -272h90v-101h-135l-31 -71v-19h166v-101h-166v-136h-136v136h-166v101h166v19l-32 71h-134v101z" />
    <glyph glyph-name="brokenbar" unicode="&#xa6;" horiz-adv-x="330" 
d="M107 238h116v-388h-116v388zM107 800h116v-388h-116v388z" />
    <glyph glyph-name="section" unicode="&#xa7;" horiz-adv-x="618" 
d="M306 -136q-50 0 -91 12t-71 35t-46.5 56.5t-16.5 76.5v14h119v-9q0 -38 27 -62t79 -24q42 0 70.5 17t28.5 52q0 27 -15 40t-41 22l-163 57q-58 20 -92 56t-34 98q0 45 21 79.5t48 57.5q-17 17 -25.5 40.5t-8.5 56.5q0 42 16 74.5t44.5 55t68.5 34t89 11.5q108 0 165 -48
t57 -133v-12h-117v13q0 36 -24 58.5t-78 22.5q-46 0 -71.5 -17t-25.5 -51q0 -26 14 -39t42 -24l159 -58q64 -23 96.5 -58t32.5 -95q0 -42 -19 -78t-45 -63q14 -17 22 -39.5t8 -53.5q0 -37 -16 -69t-45 -55.5t-70 -37t-92 -13.5zM409 188q13 15 21.5 33.5t8.5 38.5
q0 45 -56 67l-165 61q-14 -14 -24 -31t-10 -39q0 -26 12.5 -41.5t41.5 -26.5z" />
    <glyph glyph-name="dieresis" unicode="&#xa8;" horiz-adv-x="504" 
d="M74 655q0 32 20.5 52.5t52.5 20.5t52.5 -20.5t20.5 -52.5t-20.5 -52.5t-52.5 -20.5t-52.5 20.5t-20.5 52.5zM284 655q0 32 20.5 52.5t52.5 20.5t52.5 -20.5t20.5 -52.5t-20.5 -52.5t-52.5 -20.5t-52.5 20.5t-20.5 52.5z" />
    <glyph glyph-name="copyright" unicode="&#xa9;" horiz-adv-x="826" 
d="M413 24q75 0 134.5 26.5t101 71.5t64 104t22.5 124q0 64 -22.5 123t-64 104t-101 72t-134.5 27q-74 0 -133.5 -27t-101.5 -72t-64.5 -104t-22.5 -123q0 -65 22.5 -124t64.5 -104t101.5 -71.5t133.5 -26.5zM413 -12q-81 0 -148 28.5t-115 78t-74 115t-26 140.5t26 140.5
t74 115t115 78t148 28.5q82 0 149 -28.5t114.5 -78t73.5 -115t26 -140.5t-26 -140.5t-73.5 -115t-114.5 -78t-149 -28.5zM415 169q-39 0 -68.5 12.5t-48.5 34t-28.5 49.5t-9.5 59v52q0 31 9.5 59t28.5 49.5t48.5 34t68.5 12.5q32 0 58.5 -10.5t46 -28.5t31 -42t13.5 -51h-72
q-5 28 -22 47.5t-55 19.5q-43 0 -61 -26t-18 -64v-52q0 -38 18 -64t61 -26q38 0 55 19.5t22 47.5h72q-2 -27 -13.5 -51t-31 -42t-46 -28.5t-58.5 -10.5z" />
    <glyph glyph-name="ordfeminine" unicode="&#xaa;" horiz-adv-x="428" 
d="M56 309h316v-80h-316v80zM277 370v30q-11 -13 -38 -25.5t-64 -12.5q-25 0 -46.5 8t-37.5 22.5t-25 34t-9 42.5q0 51 35 78t89 27q32 0 55.5 -9t35.5 -21v41q0 20 -13 34.5t-39 14.5q-21 0 -34 -8t-20 -22h-88q14 53 51.5 79.5t94.5 26.5q31 0 57 -10t44.5 -27.5t28.5 -42
t10 -53.5v-207h-87zM208 426q26 0 45 11t19 33t-18.5 33t-42.5 11q-29 0 -46.5 -11t-17.5 -33t17.5 -33t43.5 -11z" />
    <glyph glyph-name="guillemotleft" unicode="&#xab;" horiz-adv-x="635" 
d="M10 276l163 216h153l-162 -216l162 -216h-153zM289 276l163 216h153l-162 -216l162 -216h-153z" />
    <glyph glyph-name="logicalnot" unicode="&#xac;" horiz-adv-x="582" 
d="M385 303h-335v114h462v-299h-127v185z" />
    <glyph glyph-name="registered" unicode="&#xae;" horiz-adv-x="534" 
d="M267 280q-52 0 -93.5 18t-70 48t-43.5 69t-15 81q0 43 15 82t43.5 69t70 47.5t93.5 17.5t93.5 -17.5t70 -47.5t43.5 -69t15 -82q0 -42 -15 -81t-43.5 -69t-70 -48t-93.5 -18zM267 310q42 0 76.5 14.5t59 40t38 59t13.5 72.5t-13.5 73t-38 59t-59 39.5t-76.5 14.5
t-76.5 -14.5t-59 -39.5t-38 -59t-13.5 -73t13.5 -72.5t38 -59t59 -40t76.5 -14.5zM274 467h-34v-60h-44v192h88q34 0 51.5 -18.5t17.5 -47.5q0 -20 -9 -35.5t-26 -23.5l38 -67h-51zM275 502q34 0 34 31q0 14 -8.5 22t-25.5 8h-35v-61h35z" />
    <glyph glyph-name="macron" unicode="&#xaf;" horiz-adv-x="494" 
d="M77 706h340v-107h-340v107z" />
    <glyph glyph-name="degree" unicode="&#xb0;" horiz-adv-x="404" 
d="M202 460q44 0 66 27.5t22 66.5t-22 66.5t-66 27.5t-66 -27.5t-22 -66.5t22 -66.5t66 -27.5zM202 398q-36 0 -65.5 12.5t-49.5 33.5t-31 49.5t-11 60.5t11 60.5t31 49.5t49.5 33.5t65.5 12.5t65.5 -12.5t49.5 -33.5t31 -49.5t11 -60.5t-11 -60.5t-31 -49.5t-49.5 -33.5
t-65.5 -12.5z" />
    <glyph glyph-name="plusminus" unicode="&#xb1;" horiz-adv-x="612" 
d="M75 107h168v180h-168v114h168v185h126v-185h168v-114h-168v-180h168v-107h-462v107z" />
    <glyph glyph-name="twosuperior" unicode="&#xb2;" horiz-adv-x="403" 
d="M55 531l165 140q14 11 23 23t9 29q0 20 -14 31.5t-37 11.5q-53 0 -53 -48v-5h-88v8q0 60 39 92.5t103 32.5q32 0 58.5 -9t46 -24.5t30.5 -38t11 -49.5q0 -41 -23 -68.5t-53 -50.5l-88 -68h161v-78h-290v71z" />
    <glyph glyph-name="threesuperior" unicode="&#xb3;" horiz-adv-x="403" 
d="M78 837h250v-72l-89 -78q49 -2 79 -30.5t30 -76.5q0 -28 -12 -51.5t-33 -40t-49 -26t-59 -9.5q-30 0 -56 8.5t-45.5 24t-31 38.5t-12.5 53h84q2 -22 18 -37t44 -15q29 0 45 14t16 37q0 45 -61 45h-62v67l79 77h-135v72z" />
    <glyph glyph-name="acute" unicode="&#xb4;" horiz-adv-x="395" 
d="M150 733h168l-106 -154h-135z" />
    <glyph glyph-name="mu" unicode="&#xb5;" horiz-adv-x="592" 
d="M525 0h-130v62q-22 -34 -60.5 -54t-89.5 -20q-13 0 -26 2t-21 7v-171h-136v694h136v-314q0 -104 92 -104q48 0 73.5 28t25.5 77v313h136v-520z" />
    <glyph glyph-name="paragraph" unicode="&#xb6;" horiz-adv-x="613" 
d="M437 618h-105v-457q-62 0 -113.5 17.5t-89.5 51.5t-59 84t-21 115t19.5 115.5t56.5 85t89 52.5t118 18h198v-874h-93v792z" />
    <glyph glyph-name="periodcentered" unicode="&#xb7;" horiz-adv-x="256" 
d="M50 286q0 35 21.5 56.5t56.5 21.5t56.5 -21.5t21.5 -56.5t-21.5 -56.5t-56.5 -21.5t-56.5 21.5t-21.5 56.5z" />
    <glyph glyph-name="cedilla" unicode="&#xb8;" horiz-adv-x="338" 
d="M148 -186q-17 0 -37 1.5t-34 4.5v55q11 -2 23.5 -3.5t23.5 -1.5q40 0 40 22q0 20 -37 23l-36 3l19 82h65l-7 -36l16 -2q35 -5 56 -21t21 -48q0 -35 -29.5 -57t-83.5 -22z" />
    <glyph glyph-name="onesuperior" unicode="&#xb9;" horiz-adv-x="311" 
d="M130 742l-90 -25v83l106 37h80v-377h-96v282z" />
    <glyph glyph-name="ordmasculine" unicode="&#xba;" horiz-adv-x="432" 
d="M67 309h300v-80h-300v80zM216 710q77 0 118.5 -42.5t41.5 -109.5v-44q0 -67 -41.5 -109.5t-118.5 -42.5t-118.5 42.5t-41.5 109.5v44q0 67 41.5 109.5t118.5 42.5zM288 560q0 33 -16 55t-56 22t-56 -22t-16 -55v-48q0 -33 16 -55t56 -22t56 22t16 55v48z" />
    <glyph glyph-name="guillemotright" unicode="&#xbb;" horiz-adv-x="635" 
d="M462 60h-153l162 216l-162 216h153l163 -216zM183 60h-153l162 216l-162 216h153l163 -216z" />
    <glyph glyph-name="onequarter" unicode="&#xbc;" horiz-adv-x="833" 
d="M640 73h-189v69l120 235h90l-114 -231h93v73h89v-73h49v-73h-49v-73h-89v73zM145 605l-90 -25v83l106 37h80v-377h-96v282zM525 700h101l-360 -700h-101z" />
    <glyph glyph-name="onehalf" unicode="&#xbd;" horiz-adv-x="844" 
d="M496 71l165 140q14 11 23 23t9 29q0 20 -14 31.5t-37 11.5q-53 0 -53 -48v-5h-88v8q0 60 39 92.5t103 32.5q32 0 58.5 -9t46 -24.5t30.5 -38t11 -49.5q0 -41 -23 -68.5t-53 -50.5l-88 -68h161v-78h-290v71zM145 605l-90 -25v83l106 37h80v-377h-96v282zM525 700h101
l-360 -700h-101z" />
    <glyph glyph-name="threequarters" unicode="&#xbe;" horiz-adv-x="880" 
d="M83 700h250v-72l-89 -78q49 -2 79 -30.5t30 -76.5q0 -28 -12 -51.5t-33 -40t-49 -26t-59 -9.5q-30 0 -56 8.5t-45.5 24t-31 38.5t-12.5 53h84q2 -22 18 -37t44 -15q29 0 45 14t16 37q0 45 -61 45h-62v67l79 77h-135v72zM687 73h-189v69l120 235h90l-114 -231h93v73h89
v-73h49v-73h-49v-73h-89v73zM572 700h101l-360 -700h-101z" />
    <glyph glyph-name="questiondown" unicode="&#xbf;" horiz-adv-x="504" 
d="M327 444q0 -56 -14 -92.5t-49 -62.5l-46 -34q-27 -20 -43.5 -37.5t-16.5 -47.5q0 -35 26 -54.5t71 -19.5q48 0 73.5 21.5t25.5 65.5v23h125v-25q0 -50 -17 -87t-47 -61t-71.5 -35.5t-91.5 -11.5q-51 0 -93.5 13t-72.5 37t-47 58t-17 76q0 52 21 87t57 61l51 37
q14 10 24.5 19.5t17 21.5t10 27t3.5 38v29h121v-46zM342 630q0 -35 -21.5 -56.5t-56.5 -21.5t-56.5 21.5t-21.5 56.5t21.5 56.5t56.5 21.5t56.5 -21.5t21.5 -56.5z" />
    <glyph glyph-name="Agrave" unicode="&#xc0;" horiz-adv-x="690" 
d="M667 0h-139l-47 147h-272l-47 -147h-139l251 700h142zM244 258h201l-100 316zM173 894h167l69 -141h-138z" />
    <glyph glyph-name="Aacute" unicode="&#xc1;" horiz-adv-x="690" 
d="M667 0h-139l-47 147h-272l-47 -147h-139l251 700h142zM244 258h201l-100 316zM355 894h167l-98 -141h-138z" />
    <glyph glyph-name="Acircumflex" unicode="&#xc2;" horiz-adv-x="690" 
d="M667 0h-139l-47 147h-272l-47 -147h-139l251 700h142zM244 258h201l-100 316zM530 753h-131l-54 67l-54 -67h-131l118 141h134z" />
    <glyph glyph-name="Atilde" unicode="&#xc3;" horiz-adv-x="690" 
d="M667 0h-139l-47 147h-272l-47 -147h-139l251 700h142zM244 258h201l-100 316zM133 769q6 31 14 55.5t21.5 41t34 25t50.5 8.5q24 0 51.5 -6.5t53 -14.5t47 -14.5t32.5 -6.5q22 0 29.5 15t13.5 32l89 -25q-9 -29 -17.5 -52.5t-21.5 -39.5t-32 -24.5t-47 -8.5
q-18 0 -42.5 6.5t-50.5 14.5t-50 14.5t-42 6.5q-20 0 -29 -13t-14 -34z" />
    <glyph glyph-name="Adieresis" unicode="&#xc4;" horiz-adv-x="690" 
d="M667 0h-139l-47 147h-272l-47 -147h-139l251 700h142zM244 258h201l-100 316zM160 826q0 32 20.5 52.5t52.5 20.5t52.5 -20.5t20.5 -52.5t-20.5 -52.5t-52.5 -20.5t-52.5 20.5t-20.5 52.5zM384 826q0 32 20.5 52.5t52.5 20.5t52.5 -20.5t20.5 -52.5t-20.5 -52.5
t-52.5 -20.5t-52.5 20.5t-20.5 52.5z" />
    <glyph glyph-name="Aring" unicode="&#xc5;" horiz-adv-x="690" 
d="M23 0l243 678q-27 25 -27 65q0 38 28.5 65t77.5 27q50 0 78 -27t28 -65t-27 -65l243 -678h-139l-47 147h-272l-47 -147h-139zM244 258h201l-100 316zM345 700q21 0 33.5 12t12.5 31q0 20 -12.5 31t-33.5 11t-33.5 -11t-12.5 -31q0 -19 12.5 -31t33.5 -12z" />
    <glyph glyph-name="AE" unicode="&#xc6;" horiz-adv-x="1068" 
d="M527 148h-282l-95 -148h-150l469 700h548v-116h-350v-171h320v-117h-320v-180h351v-116h-491v148zM527 260v326l-210 -326h210z" />
    <glyph glyph-name="Ccedilla" unicode="&#xc7;" horiz-adv-x="706" 
d="M359 -186q-17 0 -37 1.5t-34 4.5v55q11 -2 23.5 -3.5t23.5 -1.5q40 0 40 22q0 20 -37 23l-36 3l16 70q-68 6 -117 32.5t-81.5 67.5t-48 95.5t-15.5 116.5v100q0 67 18 124.5t55.5 99.5t95.5 66t137 24q66 0 119.5 -21t91 -57t58.5 -83.5t24 -101.5h-130q-3 30 -14.5 56.5
t-31.5 47t-49 32.5t-68 12q-44 0 -75.5 -14.5t-52 -40t-30 -60.5t-9.5 -77v-114q0 -42 9.5 -77.5t30 -61t52 -39.5t75.5 -14q39 0 68 12t49 32.5t31.5 47t14.5 56.5h130q-3 -51 -22.5 -97.5t-54.5 -81.5t-84.5 -57.5t-110.5 -25.5l-4 -23l16 -2q35 -5 56 -21t21 -48
q0 -35 -29.5 -57t-83.5 -22z" />
    <glyph glyph-name="Egrave" unicode="&#xc8;" horiz-adv-x="618" 
d="M77 700h490v-116h-350v-171h320v-117h-320v-180h351v-116h-491v700zM172 894h167l69 -141h-138z" />
    <glyph glyph-name="Eacute" unicode="&#xc9;" horiz-adv-x="618" 
d="M77 700h490v-116h-350v-171h320v-117h-320v-180h351v-116h-491v700zM316 894h167l-98 -141h-138z" />
    <glyph glyph-name="Ecircumflex" unicode="&#xca;" horiz-adv-x="618" 
d="M77 700h490v-116h-350v-171h320v-117h-320v-180h351v-116h-491v700zM512 753h-131l-54 67l-54 -67h-131l118 141h134z" />
    <glyph glyph-name="Edieresis" unicode="&#xcb;" horiz-adv-x="618" 
d="M77 700h490v-116h-350v-171h320v-117h-320v-180h351v-116h-491v700zM144 826q0 32 20.5 52.5t52.5 20.5t52.5 -20.5t20.5 -52.5t-20.5 -52.5t-52.5 -20.5t-52.5 20.5t-20.5 52.5zM368 826q0 32 20.5 52.5t52.5 20.5t52.5 -20.5t20.5 -52.5t-20.5 -52.5t-52.5 -20.5
t-52.5 20.5t-20.5 52.5z" />
    <glyph glyph-name="Igrave" unicode="&#xcc;" horiz-adv-x="304" 
d="M82 700h140v-700h-140v700zM-13 894h167l69 -141h-138z" />
    <glyph glyph-name="Iacute" unicode="&#xcd;" horiz-adv-x="304" 
d="M82 700h140v-700h-140v700zM159 894h167l-98 -141h-138z" />
    <glyph glyph-name="Icircumflex" unicode="&#xce;" horiz-adv-x="304" 
d="M82 700h140v-700h-140v700zM338 753h-131l-54 67l-54 -67h-131l118 141h134z" />
    <glyph glyph-name="Idieresis" unicode="&#xcf;" horiz-adv-x="304" 
d="M82 700h140v-700h-140v700zM-32 826q0 32 20.5 52.5t52.5 20.5t52.5 -20.5t20.5 -52.5t-20.5 -52.5t-52.5 -20.5t-52.5 20.5t-20.5 52.5zM192 826q0 32 20.5 52.5t52.5 20.5t52.5 -20.5t20.5 -52.5t-20.5 -52.5t-52.5 -20.5t-52.5 20.5t-20.5 52.5z" />
    <glyph glyph-name="Eth" unicode="&#xd0;" horiz-adv-x="739" 
d="M33 408h75v292h284q70 0 124 -20.5t90 -57.5t54.5 -87t18.5 -110v-150q0 -60 -18.5 -110t-54.5 -87t-90 -57.5t-124 -20.5h-284v292h-75v116zM540 426q0 77 -43.5 118.5t-128.5 41.5h-121v-178h152v-116h-152v-178h121q85 0 128.5 41.5t43.5 118.5v152z" />
    <glyph glyph-name="Ntilde" unicode="&#xd1;" horiz-adv-x="729" 
d="M77 700h133l305 -466v466h137v-700h-133l-305 466v-466h-137v700zM147 769q6 31 14 55.5t21.5 41t34 25t50.5 8.5q24 0 51.5 -6.5t53 -14.5t47 -14.5t32.5 -6.5q22 0 29.5 15t13.5 32l89 -25q-9 -29 -17.5 -52.5t-21.5 -39.5t-32 -24.5t-47 -8.5q-18 0 -42.5 6.5
t-50.5 14.5t-50 14.5t-42 6.5q-20 0 -29 -13t-14 -34z" />
    <glyph glyph-name="Ograve" unicode="&#xd2;" horiz-adv-x="736" 
d="M680 299q0 -67 -20 -124t-59 -99t-97.5 -66t-135.5 -24t-135.5 24t-97.5 66t-59 99t-20 124v102q0 67 20 124t59 99t97.5 66t135.5 24t135.5 -24t97.5 -66t59 -99t20 -124v-102zM368 102q44 0 76.5 14t53.5 39.5t31.5 60t10.5 76.5v116q0 42 -10.5 76.5t-31.5 60
t-53.5 39.5t-76.5 14t-76.5 -14t-53.5 -39.5t-31.5 -60t-10.5 -76.5v-116q0 -42 10.5 -76.5t31.5 -60t53.5 -39.5t76.5 -14zM206 894h167l69 -141h-138z" />
    <glyph glyph-name="Oacute" unicode="&#xd3;" horiz-adv-x="736" 
d="M680 299q0 -67 -20 -124t-59 -99t-97.5 -66t-135.5 -24t-135.5 24t-97.5 66t-59 99t-20 124v102q0 67 20 124t59 99t97.5 66t135.5 24t135.5 -24t97.5 -66t59 -99t20 -124v-102zM368 102q44 0 76.5 14t53.5 39.5t31.5 60t10.5 76.5v116q0 42 -10.5 76.5t-31.5 60
t-53.5 39.5t-76.5 14t-76.5 -14t-53.5 -39.5t-31.5 -60t-10.5 -76.5v-116q0 -42 10.5 -76.5t31.5 -60t53.5 -39.5t76.5 -14zM372 894h167l-98 -141h-138z" />
    <glyph glyph-name="Ocircumflex" unicode="&#xd4;" horiz-adv-x="736" 
d="M680 299q0 -67 -20 -124t-59 -99t-97.5 -66t-135.5 -24t-135.5 24t-97.5 66t-59 99t-20 124v102q0 67 20 124t59 99t97.5 66t135.5 24t135.5 -24t97.5 -66t59 -99t20 -124v-102zM368 102q44 0 76.5 14t53.5 39.5t31.5 60t10.5 76.5v116q0 42 -10.5 76.5t-31.5 60
t-53.5 39.5t-76.5 14t-76.5 -14t-53.5 -39.5t-31.5 -60t-10.5 -76.5v-116q0 -42 10.5 -76.5t31.5 -60t53.5 -39.5t76.5 -14zM553 753h-131l-54 67l-54 -67h-131l118 141h134z" />
    <glyph glyph-name="Otilde" unicode="&#xd5;" horiz-adv-x="736" 
d="M680 299q0 -67 -20 -124t-59 -99t-97.5 -66t-135.5 -24t-135.5 24t-97.5 66t-59 99t-20 124v102q0 67 20 124t59 99t97.5 66t135.5 24t135.5 -24t97.5 -66t59 -99t20 -124v-102zM368 102q44 0 76.5 14t53.5 39.5t31.5 60t10.5 76.5v116q0 42 -10.5 76.5t-31.5 60
t-53.5 39.5t-76.5 14t-76.5 -14t-53.5 -39.5t-31.5 -60t-10.5 -76.5v-116q0 -42 10.5 -76.5t31.5 -60t53.5 -39.5t76.5 -14zM156 769q6 31 14 55.5t21.5 41t34 25t50.5 8.5q24 0 51.5 -6.5t53 -14.5t47 -14.5t32.5 -6.5q22 0 29.5 15t13.5 32l89 -25q-9 -29 -17.5 -52.5
t-21.5 -39.5t-32 -24.5t-47 -8.5q-18 0 -42.5 6.5t-50.5 14.5t-50 14.5t-42 6.5q-20 0 -29 -13t-14 -34z" />
    <glyph glyph-name="Odieresis" unicode="&#xd6;" horiz-adv-x="736" 
d="M680 299q0 -67 -20 -124t-59 -99t-97.5 -66t-135.5 -24t-135.5 24t-97.5 66t-59 99t-20 124v102q0 67 20 124t59 99t97.5 66t135.5 24t135.5 -24t97.5 -66t59 -99t20 -124v-102zM368 102q44 0 76.5 14t53.5 39.5t31.5 60t10.5 76.5v116q0 42 -10.5 76.5t-31.5 60
t-53.5 39.5t-76.5 14t-76.5 -14t-53.5 -39.5t-31.5 -60t-10.5 -76.5v-116q0 -42 10.5 -76.5t31.5 -60t53.5 -39.5t76.5 -14zM183 826q0 32 20.5 52.5t52.5 20.5t52.5 -20.5t20.5 -52.5t-20.5 -52.5t-52.5 -20.5t-52.5 20.5t-20.5 52.5zM407 826q0 32 20.5 52.5t52.5 20.5
t52.5 -20.5t20.5 -52.5t-20.5 -52.5t-52.5 -20.5t-52.5 20.5t-20.5 52.5z" />
    <glyph glyph-name="multiply" unicode="&#xd7;" horiz-adv-x="598" 
d="M148 589l151 -151l151 151l78 -78l-151 -151l151 -151l-78 -78l-151 151l-151 -151l-78 78l151 151l-151 151z" />
    <glyph glyph-name="Oslash" unicode="&#xd8;" horiz-adv-x="736" 
d="M680 299q0 -67 -20 -124t-59 -99t-97.5 -66t-135.5 -24q-50 0 -91.5 10t-76.5 29l-49 -75h-95l81 123q-41 42 -61 99.5t-20 126.5v102q0 67 20 124t59 99t97.5 66t135.5 24q50 0 91.5 -10t75.5 -29l50 75h95l-81 -123q41 -42 61 -100t20 -126v-102zM196 292
q0 -59 19 -101l252 381q-20 12 -44.5 19t-54.5 7q-44 0 -76.5 -14t-53.5 -39.5t-31.5 -60t-10.5 -76.5v-116zM368 102q44 0 76.5 14t53.5 39.5t31.5 60t10.5 76.5v116q0 29 -5 55.5t-15 44.5l-251 -380q17 -13 43 -19.5t56 -6.5z" />
    <glyph glyph-name="Ugrave" unicode="&#xd9;" horiz-adv-x="720" 
d="M360 -14q-68 0 -121.5 19.5t-90.5 54.5t-56.5 84t-19.5 108v448h139v-454q0 -69 40.5 -106.5t108.5 -37.5t108 37.5t40 106.5v454h140v-448q0 -59 -19.5 -108t-56.5 -84t-90.5 -54.5t-121.5 -19.5zM208 894h167l69 -141h-138z" />
    <glyph glyph-name="Uacute" unicode="&#xda;" horiz-adv-x="720" 
d="M360 -14q-68 0 -121.5 19.5t-90.5 54.5t-56.5 84t-19.5 108v448h139v-454q0 -69 40.5 -106.5t108.5 -37.5t108 37.5t40 106.5v454h140v-448q0 -59 -19.5 -108t-56.5 -84t-90.5 -54.5t-121.5 -19.5zM352 894h167l-98 -141h-138z" />
    <glyph glyph-name="Ucircumflex" unicode="&#xdb;" horiz-adv-x="720" 
d="M360 -14q-68 0 -121.5 19.5t-90.5 54.5t-56.5 84t-19.5 108v448h139v-454q0 -69 40.5 -106.5t108.5 -37.5t108 37.5t40 106.5v454h140v-448q0 -59 -19.5 -108t-56.5 -84t-90.5 -54.5t-121.5 -19.5zM545 753h-131l-54 67l-54 -67h-131l118 141h134z" />
    <glyph glyph-name="Udieresis" unicode="&#xdc;" horiz-adv-x="720" 
d="M360 -14q-68 0 -121.5 19.5t-90.5 54.5t-56.5 84t-19.5 108v448h139v-454q0 -69 40.5 -106.5t108.5 -37.5t108 37.5t40 106.5v454h140v-448q0 -59 -19.5 -108t-56.5 -84t-90.5 -54.5t-121.5 -19.5zM175 826q0 32 20.5 52.5t52.5 20.5t52.5 -20.5t20.5 -52.5t-20.5 -52.5
t-52.5 -20.5t-52.5 20.5t-20.5 52.5zM399 826q0 32 20.5 52.5t52.5 20.5t52.5 -20.5t20.5 -52.5t-20.5 -52.5t-52.5 -20.5t-52.5 20.5t-20.5 52.5z" />
    <glyph glyph-name="Yacute" unicode="&#xdd;" horiz-adv-x="636" 
d="M388 0h-140v252l-240 448h152l158 -312l158 312h152l-240 -448v-252zM320 894h167l-98 -141h-138z" />
    <glyph glyph-name="Thorn" unicode="&#xde;" horiz-adv-x="652" 
d="M77 700h140v-105h151q60 0 108.5 -17t82 -48t51.5 -74.5t18 -95.5q0 -53 -18.5 -96.5t-52.5 -75.5t-82 -49.5t-107 -17.5h-151v-121h-140v700zM359 236q33 0 57.5 9.5t40.5 26.5t23.5 39.5t7.5 48.5q0 52 -31 86t-98 34h-142v-244h142z" />
    <glyph glyph-name="germandbls" unicode="&#xdf;" horiz-adv-x="616" 
d="M67 518q0 55 17.5 95.5t49 67.5t75 40t94.5 13q53 0 97.5 -14.5t76.5 -40.5t49.5 -62t17.5 -80q0 -57 -24.5 -100t-69.5 -66q63 -18 98.5 -57.5t35.5 -112.5q0 -48 -17.5 -85.5t-50 -63t-77.5 -39t-99 -13.5h-34v108h28q53 0 83.5 25.5t30.5 76.5q0 45 -30 70.5t-85 25.5
h-28v106q49 3 76 34.5t27 75.5q0 46 -26 74.5t-78 28.5q-46 0 -73.5 -24t-27.5 -77v-524h-136v518z" />
    <glyph glyph-name="agrave" unicode="&#xe0;" horiz-adv-x="585" 
d="M242 -12q-44 0 -80 11t-62 32t-40.5 51t-14.5 68q0 42 15 73.5t43 51.5t66.5 30t85.5 10t80.5 -14.5t51.5 -29.5v71q0 36 -24 60t-66 24q-35 0 -57 -14t-33 -35h-126q23 76 80.5 115.5t142.5 39.5q49 0 89 -14t69 -40.5t45 -63.5t16 -82v-332h-131v48q-9 -13 -25 -24
t-36.5 -19t-43.5 -12.5t-45 -4.5zM277 78q22 0 42 6t35 16t24 24t9 31q0 35 -30 54t-76 19q-48 0 -76 -19t-28 -55t28.5 -56t71.5 -20zM139 733h168l73 -154h-137z" />
    <glyph glyph-name="aacute" unicode="&#xe1;" horiz-adv-x="585" 
d="M242 -12q-44 0 -80 11t-62 32t-40.5 51t-14.5 68q0 42 15 73.5t43 51.5t66.5 30t85.5 10t80.5 -14.5t51.5 -29.5v71q0 36 -24 60t-66 24q-35 0 -57 -14t-33 -35h-126q23 76 80.5 115.5t142.5 39.5q49 0 89 -14t69 -40.5t45 -63.5t16 -82v-332h-131v48q-9 -13 -25 -24
t-36.5 -19t-43.5 -12.5t-45 -4.5zM277 78q22 0 42 6t35 16t24 24t9 31q0 35 -30 54t-76 19q-48 0 -76 -19t-28 -55t28.5 -56t71.5 -20zM312 733h168l-106 -154h-135z" />
    <glyph glyph-name="acircumflex" unicode="&#xe2;" horiz-adv-x="585" 
d="M242 -12q-44 0 -80 11t-62 32t-40.5 51t-14.5 68q0 42 15 73.5t43 51.5t66.5 30t85.5 10t80.5 -14.5t51.5 -29.5v71q0 36 -24 60t-66 24q-35 0 -57 -14t-33 -35h-126q23 76 80.5 115.5t142.5 39.5q49 0 89 -14t69 -40.5t45 -63.5t16 -82v-332h-131v48q-9 -13 -25 -24
t-36.5 -19t-43.5 -12.5t-45 -4.5zM277 78q22 0 42 6t35 16t24 24t9 31q0 35 -30 54t-76 19q-48 0 -76 -19t-28 -55t28.5 -56t71.5 -20zM493 579h-124l-54 77l-54 -77h-124l112 154h132z" />
    <glyph glyph-name="atilde" unicode="&#xe3;" horiz-adv-x="585" 
d="M242 -12q-44 0 -80 11t-62 32t-40.5 51t-14.5 68q0 42 15 73.5t43 51.5t66.5 30t85.5 10t80.5 -14.5t51.5 -29.5v71q0 36 -24 60t-66 24q-35 0 -57 -14t-33 -35h-126q23 76 80.5 115.5t142.5 39.5q49 0 89 -14t69 -40.5t45 -63.5t16 -82v-332h-131v48q-9 -13 -25 -24
t-36.5 -19t-43.5 -12.5t-45 -4.5zM277 78q22 0 42 6t35 16t24 24t9 31q0 35 -30 54t-76 19q-48 0 -76 -19t-28 -55t28.5 -56t71.5 -20zM109 598q4 28 11.5 51.5t20.5 40.5t33 27t49 10q19 0 42 -6.5t45 -15t41 -15t31 -6.5q21 0 28.5 15t13.5 32l84 -26q-7 -24 -15 -46.5
t-20.5 -39.5t-31 -27t-45.5 -10q-18 0 -39 6.5t-43 15t-42.5 15t-36.5 6.5q-20 0 -27 -13.5t-14 -34.5z" />
    <glyph glyph-name="adieresis" unicode="&#xe4;" horiz-adv-x="585" 
d="M242 -12q-44 0 -80 11t-62 32t-40.5 51t-14.5 68q0 42 15 73.5t43 51.5t66.5 30t85.5 10t80.5 -14.5t51.5 -29.5v71q0 36 -24 60t-66 24q-35 0 -57 -14t-33 -35h-126q23 76 80.5 115.5t142.5 39.5q49 0 89 -14t69 -40.5t45 -63.5t16 -82v-332h-131v48q-9 -13 -25 -24
t-36.5 -19t-43.5 -12.5t-45 -4.5zM277 78q22 0 42 6t35 16t24 24t9 31q0 35 -30 54t-76 19q-48 0 -76 -19t-28 -55t28.5 -56t71.5 -20zM139 655q0 32 20.5 52.5t52.5 20.5t52.5 -20.5t20.5 -52.5t-20.5 -52.5t-52.5 -20.5t-52.5 20.5t-20.5 52.5zM349 655q0 32 20.5 52.5
t52.5 20.5t52.5 -20.5t20.5 -52.5t-20.5 -52.5t-52.5 -20.5t-52.5 20.5t-20.5 52.5z" />
    <glyph glyph-name="aring" unicode="&#xe5;" horiz-adv-x="585" 
d="M242 -12q-44 0 -80 11t-62 32t-40.5 51t-14.5 68q0 42 15 73.5t43 51.5t66.5 30t85.5 10t80.5 -14.5t51.5 -29.5v71q0 36 -24 60t-66 24q-35 0 -57 -14t-33 -35h-126q23 76 80.5 115.5t142.5 39.5q49 0 89 -14t69 -40.5t45 -63.5t16 -82v-332h-131v48q-9 -13 -25 -24
t-36.5 -19t-43.5 -12.5t-45 -4.5zM277 78q22 0 42 6t35 16t24 24t9 31q0 35 -30 54t-76 19q-48 0 -76 -19t-28 -55t28.5 -56t71.5 -20zM311 629q21 0 33.5 12t12.5 31q0 20 -12.5 31t-33.5 11t-33.5 -11t-12.5 -31q0 -19 12.5 -31t33.5 -12zM311 579q-51 0 -78.5 27.5
t-27.5 65.5t28.5 65t77.5 27q50 0 78 -27t28 -65t-27.5 -65.5t-78.5 -27.5z" />
    <glyph glyph-name="ae" unicode="&#xe6;" horiz-adv-x="915" 
d="M633 -12q-63 0 -110 20.5t-76 56.5q-26 -29 -75 -53t-118 -24q-47 0 -85.5 12t-66 34.5t-42.5 53.5t-15 69q0 41 16 71.5t44.5 50t67 29t82.5 9.5q46 0 79.5 -13.5t52.5 -31.5v63q0 37 -22 63.5t-67 26.5q-37 0 -57.5 -12.5t-33.5 -35.5h-126q19 78 76.5 116.5
t141.5 38.5q57 0 95.5 -17.5t64.5 -46.5q26 29 71 46.5t101 17.5q58 0 101.5 -18t72.5 -49t43.5 -72.5t14.5 -88.5v-91h-340v-13q0 -23 6 -43.5t19.5 -36.5t34 -25t50.5 -9q44 0 70.5 19.5t36.5 46.5h119q-7 -36 -27 -66t-50 -51.5t-68 -34t-81 -12.5zM277 79
q45 0 77.5 21.5t32.5 54.5q0 35 -30 55t-76 20q-49 0 -76.5 -19t-27.5 -55t28.5 -56.5t71.5 -20.5zM738 309v13q0 49 -26 81.5t-81 32.5q-56 0 -82 -31.5t-26 -80.5v-15h215z" />
    <glyph glyph-name="ccedilla" unicode="&#xe7;" horiz-adv-x="571" 
d="M297 -186q-17 0 -37 1.5t-34 4.5v55q11 -2 23.5 -3.5t23.5 -1.5q40 0 40 22q0 20 -37 23l-36 3l16 72q-51 4 -90.5 23.5t-66.5 50t-41 71.5t-14 88v74q0 51 16.5 94t48 74.5t77 49t104.5 17.5q52 0 95 -15.5t74 -43t48.5 -65t19.5 -82.5h-124q-2 19 -9.5 36.5t-21 30.5
t-33 21t-46.5 8q-58 0 -85.5 -33.5t-27.5 -86.5v-84q0 -53 27.5 -86.5t85.5 -33.5q27 0 46.5 8t33 21t21 30.5t9.5 36.5h124q-2 -41 -17 -76.5t-41.5 -62.5t-64 -44t-82.5 -21l-5 -26l16 -2q35 -5 56 -21t21 -48q0 -35 -29.5 -57t-83.5 -22z" />
    <glyph glyph-name="egrave" unicode="&#xe8;" horiz-adv-x="560" 
d="M286 -12q-55 0 -100 15.5t-76.5 45.5t-48.5 73t-17 98v71q0 53 15.5 97t46 76t75 50t103.5 18q58 0 101.5 -18t72.5 -49t43.5 -72.5t14.5 -88.5v-91h-340v-13q0 -23 6 -43.5t19.5 -36.5t34 -25t50.5 -9q44 0 70.5 19.5t36.5 46.5h119q-7 -36 -27 -66t-50 -51.5t-68 -34
t-81 -12.5zM176 309h215v13q0 49 -26 81.5t-81 32.5q-29 0 -49.5 -9t-33.5 -25.5t-19 -39t-6 -48.5v-5zM115 733h168l73 -154h-137z" />
    <glyph glyph-name="eacute" unicode="&#xe9;" horiz-adv-x="560" 
d="M286 -12q-55 0 -100 15.5t-76.5 45.5t-48.5 73t-17 98v71q0 53 15.5 97t46 76t75 50t103.5 18q58 0 101.5 -18t72.5 -49t43.5 -72.5t14.5 -88.5v-91h-340v-13q0 -23 6 -43.5t19.5 -36.5t34 -25t50.5 -9q44 0 70.5 19.5t36.5 46.5h119q-7 -36 -27 -66t-50 -51.5t-68 -34
t-81 -12.5zM176 309h215v13q0 49 -26 81.5t-81 32.5q-29 0 -49.5 -9t-33.5 -25.5t-19 -39t-6 -48.5v-5zM289 733h168l-106 -154h-135z" />
    <glyph glyph-name="ecircumflex" unicode="&#xea;" horiz-adv-x="560" 
d="M286 -12q-55 0 -100 15.5t-76.5 45.5t-48.5 73t-17 98v71q0 53 15.5 97t46 76t75 50t103.5 18q58 0 101.5 -18t72.5 -49t43.5 -72.5t14.5 -88.5v-91h-340v-13q0 -23 6 -43.5t19.5 -36.5t34 -25t50.5 -9q44 0 70.5 19.5t36.5 46.5h119q-7 -36 -27 -66t-50 -51.5t-68 -34
t-81 -12.5zM176 309h215v13q0 49 -26 81.5t-81 32.5q-29 0 -49.5 -9t-33.5 -25.5t-19 -39t-6 -48.5v-5zM464 579h-124l-54 77l-54 -77h-124l112 154h132z" />
    <glyph glyph-name="edieresis" unicode="&#xeb;" horiz-adv-x="560" 
d="M286 -12q-55 0 -100 15.5t-76.5 45.5t-48.5 73t-17 98v71q0 53 15.5 97t46 76t75 50t103.5 18q58 0 101.5 -18t72.5 -49t43.5 -72.5t14.5 -88.5v-91h-340v-13q0 -23 6 -43.5t19.5 -36.5t34 -25t50.5 -9q44 0 70.5 19.5t36.5 46.5h119q-7 -36 -27 -66t-50 -51.5t-68 -34
t-81 -12.5zM176 309h215v13q0 49 -26 81.5t-81 32.5q-29 0 -49.5 -9t-33.5 -25.5t-19 -39t-6 -48.5v-5zM105 655q0 32 20.5 52.5t52.5 20.5t52.5 -20.5t20.5 -52.5t-20.5 -52.5t-52.5 -20.5t-52.5 20.5t-20.5 52.5zM315 655q0 32 20.5 52.5t52.5 20.5t52.5 -20.5t20.5 -52.5
t-20.5 -52.5t-52.5 -20.5t-52.5 20.5t-20.5 52.5z" />
    <glyph glyph-name="igrave" unicode="&#xec;" 
d="M70 520h136v-520h-136v520zM-35 733h168l73 -154h-137z" />
    <glyph glyph-name="iacute" unicode="&#xed;" 
d="M70 520h136v-520h-136v520zM150 733h168l-106 -154h-135z" />
    <glyph glyph-name="icircumflex" unicode="&#xee;" 
d="M70 520h136v-520h-136v520zM317 579h-124l-54 77l-54 -77h-124l112 154h132z" />
    <glyph glyph-name="idieresis" unicode="&#xef;" 
d="M70 520h136v-520h-136v520zM-39 655q0 32 20.5 52.5t52.5 20.5t52.5 -20.5t20.5 -52.5t-20.5 -52.5t-52.5 -20.5t-52.5 20.5t-20.5 52.5zM171 655q0 32 20.5 52.5t52.5 20.5t52.5 -20.5t20.5 -52.5t-20.5 -52.5t-52.5 -20.5t-52.5 20.5t-20.5 52.5z" />
    <glyph glyph-name="eth" unicode="&#xf0;" horiz-adv-x="579" 
d="M126 613l93 33q-28 21 -60 41.5t-68 42.5h162q18 -10 36 -21t36 -25l113 41l29 -78l-70 -26q60 -63 99 -143.5t39 -176.5v-78q0 -51 -17.5 -94.5t-50 -75t-78.5 -49.5t-104 -18q-54 0 -98.5 17.5t-76 48t-49 72.5t-17.5 92v63q0 49 14.5 91t41.5 73t66 48t89 17
q42 0 72.5 -11.5t50.5 -31.5q-38 70 -86 118l-136 -49zM288 92q56 0 85 32t29 83v75q0 57 -29.5 90.5t-82.5 33.5q-57 0 -85 -33t-28 -93v-76q0 -50 30 -81t81 -31z" />
    <glyph glyph-name="ntilde" unicode="&#xf1;" horiz-adv-x="596" 
d="M67 520h130v-62q40 74 153 74q85 0 134.5 -52.5t49.5 -146.5v-333h-136v311q0 45 -22.5 74t-72.5 29q-46 0 -73 -26.5t-27 -79.5v-308h-136v520zM105 598q4 28 11.5 51.5t20.5 40.5t33 27t49 10q19 0 42 -6.5t45 -15t41 -15t31 -6.5q21 0 28.5 15t13.5 32l84 -26
q-7 -24 -15 -46.5t-20.5 -39.5t-31 -27t-45.5 -10q-18 0 -39 6.5t-43 15t-42.5 15t-36.5 6.5q-20 0 -27 -13.5t-14 -34.5z" />
    <glyph glyph-name="ograve" unicode="&#xf2;" horiz-adv-x="578" 
d="M289 -12q-59 0 -104.5 18t-76.5 49.5t-47.5 74.5t-16.5 93v74q0 50 16.5 93t47.5 74.5t76.5 49.5t104.5 18q58 0 104 -18t77 -49.5t47.5 -74.5t16.5 -93v-74q0 -50 -16.5 -93t-47.5 -74.5t-77 -49.5t-104 -18zM402 306q0 51 -27.5 85t-85.5 34t-85.5 -34t-27.5 -85v-92
q0 -51 27.5 -85t85.5 -34t85.5 34t27.5 85v92zM115 733h168l73 -154h-137z" />
    <glyph glyph-name="oacute" unicode="&#xf3;" horiz-adv-x="578" 
d="M289 -12q-59 0 -104.5 18t-76.5 49.5t-47.5 74.5t-16.5 93v74q0 50 16.5 93t47.5 74.5t76.5 49.5t104.5 18q58 0 104 -18t77 -49.5t47.5 -74.5t16.5 -93v-74q0 -50 -16.5 -93t-47.5 -74.5t-77 -49.5t-104 -18zM402 306q0 51 -27.5 85t-85.5 34t-85.5 -34t-27.5 -85v-92
q0 -51 27.5 -85t85.5 -34t85.5 34t27.5 85v92zM295 733h168l-106 -154h-135z" />
    <glyph glyph-name="ocircumflex" unicode="&#xf4;" horiz-adv-x="578" 
d="M289 -12q-59 0 -104.5 18t-76.5 49.5t-47.5 74.5t-16.5 93v74q0 50 16.5 93t47.5 74.5t76.5 49.5t104.5 18q58 0 104 -18t77 -49.5t47.5 -74.5t16.5 -93v-74q0 -50 -16.5 -93t-47.5 -74.5t-77 -49.5t-104 -18zM402 306q0 51 -27.5 85t-85.5 34t-85.5 -34t-27.5 -85v-92
q0 -51 27.5 -85t85.5 -34t85.5 34t27.5 85v92zM467 579h-124l-54 77l-54 -77h-124l112 154h132z" />
    <glyph glyph-name="otilde" unicode="&#xf5;" horiz-adv-x="578" 
d="M289 -12q-59 0 -104.5 18t-76.5 49.5t-47.5 74.5t-16.5 93v74q0 50 16.5 93t47.5 74.5t76.5 49.5t104.5 18q58 0 104 -18t77 -49.5t47.5 -74.5t16.5 -93v-74q0 -50 -16.5 -93t-47.5 -74.5t-77 -49.5t-104 -18zM402 306q0 51 -27.5 85t-85.5 34t-85.5 -34t-27.5 -85v-92
q0 -51 27.5 -85t85.5 -34t85.5 34t27.5 85v92zM95 598q4 28 11.5 51.5t20.5 40.5t33 27t49 10q19 0 42 -6.5t45 -15t41 -15t31 -6.5q21 0 28.5 15t13.5 32l84 -26q-7 -24 -15 -46.5t-20.5 -39.5t-31 -27t-45.5 -10q-18 0 -39 6.5t-43 15t-42.5 15t-36.5 6.5q-20 0 -27 -13.5
t-14 -34.5z" />
    <glyph glyph-name="odieresis" unicode="&#xf6;" horiz-adv-x="578" 
d="M289 -12q-59 0 -104.5 18t-76.5 49.5t-47.5 74.5t-16.5 93v74q0 50 16.5 93t47.5 74.5t76.5 49.5t104.5 18q58 0 104 -18t77 -49.5t47.5 -74.5t16.5 -93v-74q0 -50 -16.5 -93t-47.5 -74.5t-77 -49.5t-104 -18zM402 306q0 51 -27.5 85t-85.5 34t-85.5 -34t-27.5 -85v-92
q0 -51 27.5 -85t85.5 -34t85.5 34t27.5 85v92zM111 655q0 32 20.5 52.5t52.5 20.5t52.5 -20.5t20.5 -52.5t-20.5 -52.5t-52.5 -20.5t-52.5 20.5t-20.5 52.5zM321 655q0 32 20.5 52.5t52.5 20.5t52.5 -20.5t20.5 -52.5t-20.5 -52.5t-52.5 -20.5t-52.5 20.5t-20.5 52.5z" />
    <glyph glyph-name="divide" unicode="&#xf7;" horiz-adv-x="598" 
d="M70 418h458v-116h-458v116zM223 160q0 34 20.5 55t55.5 21t55.5 -21t20.5 -55t-20.5 -55t-55.5 -21t-55.5 21t-20.5 55zM223 560q0 34 20.5 55t55.5 21t55.5 -21t20.5 -55t-20.5 -55t-55.5 -21t-55.5 21t-20.5 55z" />
    <glyph glyph-name="oslash" unicode="&#xf8;" horiz-adv-x="578" 
d="M289 -12q-73 0 -127 28l-44 -66h-74l68 101q-34 32 -51 76t-17 96v74q0 50 16.5 93t47.5 74.5t76.5 49.5t104.5 18q72 0 126 -28l45 66h74l-68 -102q33 -32 50.5 -76t17.5 -95v-74q0 -50 -16.5 -93t-47.5 -74.5t-77 -49.5t-104 -18zM176 214q0 -30 9 -54l167 249
q-27 16 -63 16q-58 0 -85.5 -34t-27.5 -85v-92zM402 306q0 29 -9 53l-167 -249q24 -15 63 -15q58 0 85.5 34t27.5 85v92z" />
    <glyph glyph-name="ugrave" unicode="&#xf9;" horiz-adv-x="592" 
d="M525 0h-130v62q-18 -33 -59 -53.5t-92 -20.5q-44 0 -78 14.5t-57 40.5t-35 63t-12 81v333h136v-314q0 -50 23 -77t69 -27q48 0 73.5 28t25.5 77v313h136v-520zM140 733h168l73 -154h-137z" />
    <glyph glyph-name="uacute" unicode="&#xfa;" horiz-adv-x="592" 
d="M525 0h-130v62q-18 -33 -59 -53.5t-92 -20.5q-44 0 -78 14.5t-57 40.5t-35 63t-12 81v333h136v-314q0 -50 23 -77t69 -27q48 0 73.5 28t25.5 77v313h136v-520zM290 733h168l-106 -154h-135z" />
    <glyph glyph-name="ucircumflex" unicode="&#xfb;" horiz-adv-x="592" 
d="M525 0h-130v62q-18 -33 -59 -53.5t-92 -20.5q-44 0 -78 14.5t-57 40.5t-35 63t-12 81v333h136v-314q0 -50 23 -77t69 -27q48 0 73.5 28t25.5 77v313h136v-520zM480 579h-124l-54 77l-54 -77h-124l112 154h132z" />
    <glyph glyph-name="udieresis" unicode="&#xfc;" horiz-adv-x="592" 
d="M525 0h-130v62q-18 -33 -59 -53.5t-92 -20.5q-44 0 -78 14.5t-57 40.5t-35 63t-12 81v333h136v-314q0 -50 23 -77t69 -27q48 0 73.5 28t25.5 77v313h136v-520zM126 655q0 32 20.5 52.5t52.5 20.5t52.5 -20.5t20.5 -52.5t-20.5 -52.5t-52.5 -20.5t-52.5 20.5t-20.5 52.5z
M336 655q0 32 20.5 52.5t52.5 20.5t52.5 -20.5t20.5 -52.5t-20.5 -52.5t-52.5 -20.5t-52.5 20.5t-20.5 52.5z" />
    <glyph glyph-name="yacute" unicode="&#xfd;" horiz-adv-x="511" 
d="M139 -174l52 176l-180 518h136l112 -373l106 373h135l-227 -694h-134zM264 733h168l-106 -154h-135z" />
    <glyph glyph-name="thorn" unicode="&#xfe;" horiz-adv-x="614" 
d="M351 532q54 0 94.5 -18.5t68.5 -50t42 -73t14 -87.5v-86q0 -47 -14.5 -88.5t-42 -73t-68.5 -49.5t-93 -18t-90.5 19t-58.5 49v-230h-136v904h136v-264q20 27 57.5 46.5t90.5 19.5zM318 422q-52 0 -83.5 -35t-31.5 -90v-76q0 -30 9 -52.5t24.5 -38.5t36.5 -24t44 -8
q58 0 87.5 35t29.5 90v74q0 52 -28.5 88.5t-87.5 36.5z" />
    <glyph glyph-name="ydieresis" unicode="&#xff;" horiz-adv-x="511" 
d="M139 -174l52 176l-180 518h136l112 -373l106 373h135l-227 -694h-134zM86 655q0 32 20.5 52.5t52.5 20.5t52.5 -20.5t20.5 -52.5t-20.5 -52.5t-52.5 -20.5t-52.5 20.5t-20.5 52.5zM296 655q0 32 20.5 52.5t52.5 20.5t52.5 -20.5t20.5 -52.5t-20.5 -52.5t-52.5 -20.5
t-52.5 20.5t-20.5 52.5z" />
    <glyph glyph-name="Amacron" unicode="&#x100;" horiz-adv-x="690" 
d="M667 0h-139l-47 147h-272l-47 -147h-139l251 700h142zM244 258h201l-100 316zM157 881h376v-109h-376v109z" />
    <glyph glyph-name="amacron" unicode="&#x101;" horiz-adv-x="585" 
d="M242 -12q-44 0 -80 11t-62 32t-40.5 51t-14.5 68q0 42 15 73.5t43 51.5t66.5 30t85.5 10t80.5 -14.5t51.5 -29.5v71q0 36 -24 60t-66 24q-35 0 -57 -14t-33 -35h-126q23 76 80.5 115.5t142.5 39.5q49 0 89 -14t69 -40.5t45 -63.5t16 -82v-332h-131v48q-9 -13 -25 -24
t-36.5 -19t-43.5 -12.5t-45 -4.5zM277 78q22 0 42 6t35 16t24 24t9 31q0 35 -30 54t-76 19q-48 0 -76 -19t-28 -55t28.5 -56t71.5 -20zM137 706h340v-107h-340v107z" />
    <glyph glyph-name="Abreve" unicode="&#x102;" horiz-adv-x="690" 
d="M667 0h-139l-47 147h-272l-47 -147h-139l251 700h142zM244 258h201l-100 316zM345 753q-38 0 -70.5 9t-57 27t-38.5 44.5t-14 60.5h106q0 -27 19.5 -44t54.5 -17t54.5 17t19.5 44h106q0 -34 -14 -60.5t-38.5 -44.5t-57.5 -27t-70 -9z" />
    <glyph glyph-name="abreve" unicode="&#x103;" horiz-adv-x="585" 
d="M242 -12q-44 0 -80 11t-62 32t-40.5 51t-14.5 68q0 42 15 73.5t43 51.5t66.5 30t85.5 10t80.5 -14.5t51.5 -29.5v71q0 36 -24 60t-66 24q-35 0 -57 -14t-33 -35h-126q23 76 80.5 115.5t142.5 39.5q49 0 89 -14t69 -40.5t45 -63.5t16 -82v-332h-131v48q-9 -13 -25 -24
t-36.5 -19t-43.5 -12.5t-45 -4.5zM277 78q22 0 42 6t35 16t24 24t9 31q0 35 -30 54t-76 19q-48 0 -76 -19t-28 -55t28.5 -56t71.5 -20zM316 579q-39 0 -71.5 10.5t-56 30t-36.5 48t-13 65.5h100q0 -33 20 -53t57 -20t57 20t20 53h100q0 -37 -13 -65.5t-36.5 -48t-56 -30
t-71.5 -10.5z" />
    <glyph glyph-name="Aogonek" unicode="&#x104;" horiz-adv-x="692" 
d="M584 -186q-47 0 -75 24t-28 68q0 32 15 55.5t32 38.5l-47 147h-272l-47 -147h-139l251 700h142l251 -700q-23 -14 -43.5 -33t-20.5 -46q0 -28 34 -28q14 0 25 3v-72q-14 -4 -34.5 -7t-43.5 -3zM244 258h201l-100 316z" />
    <glyph glyph-name="aogonek" unicode="&#x105;" horiz-adv-x="585" 
d="M242 -12q-44 0 -80 11t-62 32t-40.5 51t-14.5 68q0 42 15 73.5t43 51.5t66.5 30t85.5 10t80.5 -14.5t51.5 -29.5v71q0 36 -24 60t-66 24q-35 0 -57 -14t-33 -35h-126q23 76 80.5 115.5t142.5 39.5q49 0 89 -14t69 -40.5t45 -63.5t16 -82v-332q-10 -7 -20.5 -15.5
t-19.5 -18.5t-15 -21t-6 -24q0 -28 34 -28q14 0 25 3v-72q-14 -4 -34.5 -7t-43.5 -3q-47 0 -75 22.5t-28 67.5q0 34 18 58t34 38v48q-9 -13 -25 -24t-36.5 -19t-43.5 -12.5t-45 -4.5zM277 78q22 0 42 6t35 16t24 24t9 31q0 35 -30 54t-76 19q-48 0 -76 -19t-28 -55t28.5 -56
t71.5 -20z" />
    <glyph glyph-name="Cacute" unicode="&#x106;" horiz-adv-x="706" 
d="M362 -14q-79 0 -137 24t-95.5 66t-55.5 99.5t-18 124.5v100q0 67 18 124.5t55.5 99.5t95.5 66t137 24q66 0 119.5 -21t91 -57t58.5 -83.5t24 -101.5h-130q-3 30 -14.5 56.5t-31.5 47t-49 32.5t-68 12q-44 0 -75.5 -14.5t-52 -40t-30 -60.5t-9.5 -77v-114q0 -42 9.5 -77.5
t30 -61t52 -39.5t75.5 -14q39 0 68 12t49 32.5t31.5 47t14.5 56.5h130q-3 -54 -24 -101.5t-58.5 -83.5t-91 -57t-119.5 -21zM354 894h167l-98 -141h-138z" />
    <glyph glyph-name="cacute" unicode="&#x107;" horiz-adv-x="571" 
d="M290 -12q-59 0 -104.5 17.5t-77 49t-48 74.5t-16.5 94v74q0 51 16.5 94t48 74.5t77 49t104.5 17.5q52 0 95 -15.5t74 -43t48.5 -65t19.5 -82.5h-124q-2 19 -9.5 36.5t-21 30.5t-33 21t-46.5 8q-58 0 -85.5 -33.5t-27.5 -86.5v-84q0 -53 27.5 -86.5t85.5 -33.5
q27 0 46.5 8t33 21t21 30.5t9.5 36.5h124q-2 -45 -19.5 -82.5t-48.5 -65t-74 -43t-95 -15.5zM297 733h168l-106 -154h-135z" />
    <glyph glyph-name="Ccircumflex" unicode="&#x108;" horiz-adv-x="706" 
d="M362 -14q-79 0 -137 24t-95.5 66t-55.5 99.5t-18 124.5v100q0 67 18 124.5t55.5 99.5t95.5 66t137 24q66 0 119.5 -21t91 -57t58.5 -83.5t24 -101.5h-130q-3 30 -14.5 56.5t-31.5 47t-49 32.5t-68 12q-44 0 -75.5 -14.5t-52 -40t-30 -60.5t-9.5 -77v-114q0 -42 9.5 -77.5
t30 -61t52 -39.5t75.5 -14q39 0 68 12t49 32.5t31.5 47t14.5 56.5h130q-3 -54 -24 -101.5t-58.5 -83.5t-91 -57t-119.5 -21zM553 753h-131l-54 67l-54 -67h-131l118 141h134z" />
    <glyph glyph-name="ccircumflex" unicode="&#x109;" horiz-adv-x="571" 
d="M290 -12q-59 0 -104.5 17.5t-77 49t-48 74.5t-16.5 94v74q0 51 16.5 94t48 74.5t77 49t104.5 17.5q52 0 95 -15.5t74 -43t48.5 -65t19.5 -82.5h-124q-2 19 -9.5 36.5t-21 30.5t-33 21t-46.5 8q-58 0 -85.5 -33.5t-27.5 -86.5v-84q0 -53 27.5 -86.5t85.5 -33.5
q27 0 46.5 8t33 21t21 30.5t9.5 36.5h124q-2 -45 -19.5 -82.5t-48.5 -65t-74 -43t-95 -15.5zM469 579h-124l-54 77l-54 -77h-124l112 154h132z" />
    <glyph glyph-name="Cdotaccent" unicode="&#x10a;" horiz-adv-x="706" 
d="M362 -14q-79 0 -137 24t-95.5 66t-55.5 99.5t-18 124.5v100q0 67 18 124.5t55.5 99.5t95.5 66t137 24q66 0 119.5 -21t91 -57t58.5 -83.5t24 -101.5h-130q-3 30 -14.5 56.5t-31.5 47t-49 32.5t-68 12q-44 0 -75.5 -14.5t-52 -40t-30 -60.5t-9.5 -77v-114q0 -42 9.5 -77.5
t30 -61t52 -39.5t75.5 -14q39 0 68 12t49 32.5t31.5 47t14.5 56.5h130q-3 -54 -24 -101.5t-58.5 -83.5t-91 -57t-119.5 -21zM284 832q0 34 22 56.5t57 22.5t57 -22.5t22 -56.5t-22 -56.5t-57 -22.5t-57 22.5t-22 56.5z" />
    <glyph glyph-name="cdotaccent" unicode="&#x10b;" horiz-adv-x="571" 
d="M290 -12q-59 0 -104.5 17.5t-77 49t-48 74.5t-16.5 94v74q0 51 16.5 94t48 74.5t77 49t104.5 17.5q52 0 95 -15.5t74 -43t48.5 -65t19.5 -82.5h-124q-2 19 -9.5 36.5t-21 30.5t-33 21t-46.5 8q-58 0 -85.5 -33.5t-27.5 -86.5v-84q0 -53 27.5 -86.5t85.5 -33.5
q27 0 46.5 8t33 21t21 30.5t9.5 36.5h124q-2 -45 -19.5 -82.5t-48.5 -65t-74 -43t-95 -15.5zM212 658q0 34 22 56.5t57 22.5t57 -22.5t22 -56.5t-22 -56.5t-57 -22.5t-57 22.5t-22 56.5z" />
    <glyph glyph-name="Ccaron" unicode="&#x10c;" horiz-adv-x="706" 
d="M362 -14q-79 0 -137 24t-95.5 66t-55.5 99.5t-18 124.5v100q0 67 18 124.5t55.5 99.5t95.5 66t137 24q66 0 119.5 -21t91 -57t58.5 -83.5t24 -101.5h-130q-3 30 -14.5 56.5t-31.5 47t-49 32.5t-68 12q-44 0 -75.5 -14.5t-52 -40t-30 -60.5t-9.5 -77v-114q0 -42 9.5 -77.5
t30 -61t52 -39.5t75.5 -14q39 0 68 12t49 32.5t31.5 47t14.5 56.5h130q-3 -54 -24 -101.5t-58.5 -83.5t-91 -57t-119.5 -21zM434 753h-134l-118 141h131l54 -67l54 67h131z" />
    <glyph glyph-name="ccaron" unicode="&#x10d;" horiz-adv-x="571" 
d="M290 -12q-59 0 -104.5 17.5t-77 49t-48 74.5t-16.5 94v74q0 51 16.5 94t48 74.5t77 49t104.5 17.5q52 0 95 -15.5t74 -43t48.5 -65t19.5 -82.5h-124q-2 19 -9.5 36.5t-21 30.5t-33 21t-46.5 8q-58 0 -85.5 -33.5t-27.5 -86.5v-84q0 -53 27.5 -86.5t85.5 -33.5
q27 0 46.5 8t33 21t21 30.5t9.5 36.5h124q-2 -45 -19.5 -82.5t-48.5 -65t-74 -43t-95 -15.5zM363 579h-132l-112 154h124l54 -77l54 77h124z" />
    <glyph glyph-name="Dcaron" unicode="&#x10e;" horiz-adv-x="703" 
d="M361 700q70 0 124 -20.5t90 -57.5t54.5 -87t18.5 -110v-150q0 -60 -18.5 -110t-54.5 -87t-90 -57.5t-124 -20.5h-284v700h284zM509 426q0 77 -43.5 118.5t-128.5 41.5h-121v-472h121q85 0 128.5 41.5t43.5 118.5v152zM415 753h-134l-118 141h131l54 -67l54 67h131z" />
    <glyph glyph-name="dcaron" unicode="&#x10f;" horiz-adv-x="794" 
d="M661 730h148l-78 -223h-110zM263 -12q-53 0 -93.5 18.5t-68.5 50t-42.5 73t-14.5 87.5v86q0 47 14.5 88.5t42 73t68 49.5t93.5 18q52 0 89.5 -19.5t59.5 -48.5v266h136v-730h-130v62q-20 -30 -58.5 -52t-95.5 -22zM296 98q52 0 83.5 35t31.5 90v76q0 30 -9 52.5
t-24.5 38.5t-36.5 24t-44 8q-58 0 -87.5 -35t-29.5 -90v-74q0 -52 28.5 -88.5t87.5 -36.5z" />
    <glyph glyph-name="Dcroat" unicode="&#x110;" horiz-adv-x="739" 
d="M33 408h75v292h284q70 0 124 -20.5t90 -57.5t54.5 -87t18.5 -110v-150q0 -60 -18.5 -110t-54.5 -87t-90 -57.5t-124 -20.5h-284v292h-75v116zM540 426q0 77 -43.5 118.5t-128.5 41.5h-121v-178h152v-116h-152v-178h121q85 0 128.5 41.5t43.5 118.5v152z" />
    <glyph glyph-name="dcroat" unicode="&#x111;" horiz-adv-x="621" 
d="M263 -12q-53 0 -93.5 18.5t-68.5 50t-42.5 73t-14.5 87.5v86q0 47 14.5 88.5t42 73t68 49.5t93.5 18q52 0 89.5 -19.5t59.5 -48.5v102h-100v93h100v71h136v-71h59v-93h-59v-566h-130v62q-20 -30 -58.5 -52t-95.5 -22zM296 98q52 0 83.5 35t31.5 90v76q0 30 -9 52.5
t-24.5 38.5t-36.5 24t-44 8q-58 0 -87.5 -35t-29.5 -90v-74q0 -52 28.5 -88.5t87.5 -36.5z" />
    <glyph glyph-name="Emacron" unicode="&#x112;" horiz-adv-x="618" 
d="M77 700h490v-116h-350v-171h320v-117h-320v-180h351v-116h-491v700zM136 881h376v-109h-376v109z" />
    <glyph glyph-name="emacron" unicode="&#x113;" horiz-adv-x="560" 
d="M286 -12q-55 0 -100 15.5t-76.5 45.5t-48.5 73t-17 98v71q0 53 15.5 97t46 76t75 50t103.5 18q58 0 101.5 -18t72.5 -49t43.5 -72.5t14.5 -88.5v-91h-340v-13q0 -23 6 -43.5t19.5 -36.5t34 -25t50.5 -9q44 0 70.5 19.5t36.5 46.5h119q-7 -36 -27 -66t-50 -51.5t-68 -34
t-81 -12.5zM176 309h215v13q0 49 -26 81.5t-81 32.5q-29 0 -49.5 -9t-33.5 -25.5t-19 -39t-6 -48.5v-5zM116 706h340v-107h-340v107z" />
    <glyph glyph-name="Ebreve" unicode="&#x114;" horiz-adv-x="618" 
d="M77 700h490v-116h-350v-171h320v-117h-320v-180h351v-116h-491v700zM336 753q-38 0 -70.5 9t-57 27t-38.5 44.5t-14 60.5h106q0 -27 19.5 -44t54.5 -17t54.5 17t19.5 44h106q0 -34 -14 -60.5t-38.5 -44.5t-57.5 -27t-70 -9z" />
    <glyph glyph-name="ebreve" unicode="&#x115;" horiz-adv-x="560" 
d="M286 -12q-55 0 -100 15.5t-76.5 45.5t-48.5 73t-17 98v71q0 53 15.5 97t46 76t75 50t103.5 18q58 0 101.5 -18t72.5 -49t43.5 -72.5t14.5 -88.5v-91h-340v-13q0 -23 6 -43.5t19.5 -36.5t34 -25t50.5 -9q44 0 70.5 19.5t36.5 46.5h119q-7 -36 -27 -66t-50 -51.5t-68 -34
t-81 -12.5zM176 309h215v13q0 49 -26 81.5t-81 32.5q-29 0 -49.5 -9t-33.5 -25.5t-19 -39t-6 -48.5v-5zM292 579q-39 0 -71.5 10.5t-56 30t-36.5 48t-13 65.5h100q0 -33 20 -53t57 -20t57 20t20 53h100q0 -37 -13 -65.5t-36.5 -48t-56 -30t-71.5 -10.5z" />
    <glyph glyph-name="Edotaccent" unicode="&#x116;" horiz-adv-x="618" 
d="M77 700h490v-116h-350v-171h320v-117h-320v-180h351v-116h-491v700zM250 832q0 34 22 56.5t57 22.5t57 -22.5t22 -56.5t-22 -56.5t-57 -22.5t-57 22.5t-22 56.5z" />
    <glyph glyph-name="edotaccent" unicode="&#x117;" horiz-adv-x="560" 
d="M286 -12q-55 0 -100 15.5t-76.5 45.5t-48.5 73t-17 98v71q0 53 15.5 97t46 76t75 50t103.5 18q58 0 101.5 -18t72.5 -49t43.5 -72.5t14.5 -88.5v-91h-340v-13q0 -23 6 -43.5t19.5 -36.5t34 -25t50.5 -9q44 0 70.5 19.5t36.5 46.5h119q-7 -36 -27 -66t-50 -51.5t-68 -34
t-81 -12.5zM176 309h215v13q0 49 -26 81.5t-81 32.5q-29 0 -49.5 -9t-33.5 -25.5t-19 -39t-6 -48.5v-5zM202 658q0 34 22 56.5t57 22.5t57 -22.5t22 -56.5t-22 -56.5t-57 -22.5t-57 22.5t-22 56.5z" />
    <glyph glyph-name="Eogonek" unicode="&#x118;" horiz-adv-x="618" 
d="M77 700h490v-116h-350v-171h320v-117h-320v-180h351v-116q-8 -5 -18.5 -13t-20 -18t-16 -22.5t-6.5 -25.5q0 -28 34 -28q14 0 25 3v-72q-14 -4 -34.5 -7t-43.5 -3q-49 0 -76 23t-27 65q0 38 17.5 62t34.5 36h-360v700z" />
    <glyph glyph-name="eogonek" unicode="&#x119;" horiz-adv-x="560" 
d="M286 -12q-55 0 -100 15.5t-76.5 45.5t-48.5 73t-17 98v71q0 53 15.5 97t46 76t75 50t103.5 18q58 0 101.5 -18t72.5 -49t43.5 -72.5t14.5 -88.5v-91h-340v-13q0 -23 6 -43.5t19.5 -36.5t34 -25t50.5 -9q44 0 70.5 19.5t36.5 46.5h119q-6 -31 -22.5 -56.5t-38.5 -48.5
q-44 -45 -61.5 -73.5t-17.5 -52.5q0 -28 34 -28q14 0 25 3v-72q-14 -4 -34.5 -7t-43.5 -3q-49 0 -76 21.5t-27 63.5q0 29 19 52.5t40 37.5q-5 -1 -11 -1h-12zM176 309h215v13q0 49 -26 81.5t-81 32.5q-29 0 -49.5 -9t-33.5 -25.5t-19 -39t-6 -48.5v-5z" />
    <glyph glyph-name="Ecaron" unicode="&#x11a;" horiz-adv-x="618" 
d="M77 700h490v-116h-350v-171h320v-117h-320v-180h351v-116h-491v700zM404 753h-134l-118 141h131l54 -67l54 67h131z" />
    <glyph glyph-name="ecaron" unicode="&#x11b;" horiz-adv-x="560" 
d="M286 -12q-55 0 -100 15.5t-76.5 45.5t-48.5 73t-17 98v71q0 53 15.5 97t46 76t75 50t103.5 18q58 0 101.5 -18t72.5 -49t43.5 -72.5t14.5 -88.5v-91h-340v-13q0 -23 6 -43.5t19.5 -36.5t34 -25t50.5 -9q44 0 70.5 19.5t36.5 46.5h119q-7 -36 -27 -66t-50 -51.5t-68 -34
t-81 -12.5zM176 309h215v13q0 49 -26 81.5t-81 32.5q-29 0 -49.5 -9t-33.5 -25.5t-19 -39t-6 -48.5v-5zM355 579h-132l-112 154h124l54 -77l54 77h124z" />
    <glyph glyph-name="Gcircumflex" unicode="&#x11c;" horiz-adv-x="715" 
d="M519 462q-1 27 -11.5 52t-30 44t-48.5 30t-66 11q-86 0 -127 -52t-41 -140v-110q0 -44 9.5 -80.5t29.5 -63t52.5 -41t77.5 -14.5q38 0 67.5 11t49.5 30t30.5 44.5t10.5 54.5v10h-157v114h294v-91q0 -63 -21 -115.5t-60 -90t-94 -58.5t-122 -21q-78 0 -135.5 24.5
t-95.5 67t-56.5 100t-18.5 122.5v102q0 70 20.5 128t59.5 98.5t95 63t128 22.5q68 0 121.5 -19t91 -52.5t58 -80t22.5 -100.5h-133zM549 753h-131l-54 67l-54 -67h-131l118 141h134z" />
    <glyph glyph-name="gcircumflex" unicode="&#x11d;" horiz-adv-x="610" 
d="M294 -186q-46 0 -87 10.5t-73 30.5t-54 48.5t-30 65.5h132q14 -27 43 -39.5t69 -12.5q52 0 82.5 26t30.5 70v82q-17 -27 -57.5 -49t-91.5 -22q-53 0 -93 17.5t-67 47.5t-40.5 69t-13.5 82v76q0 43 13.5 82.5t40.5 69t67.5 47t93.5 17.5q30 0 55.5 -7t45 -17.5t33 -24
t20.5 -26.5v63h130v-509q0 -42 -18.5 -78t-51.5 -62.5t-79 -41.5t-100 -15zM290 133q48 0 82.5 29.5t34.5 84.5v60q0 53 -32 84.5t-81 31.5q-57 0 -86 -31t-29 -85v-60q0 -50 27.5 -82t83.5 -32zM492 579h-124l-54 77l-54 -77h-124l112 154h132z" />
    <glyph glyph-name="Gbreve" unicode="&#x11e;" horiz-adv-x="715" 
d="M519 462q-1 27 -11.5 52t-30 44t-48.5 30t-66 11q-86 0 -127 -52t-41 -140v-110q0 -44 9.5 -80.5t29.5 -63t52.5 -41t77.5 -14.5q38 0 67.5 11t49.5 30t30.5 44.5t10.5 54.5v10h-157v114h294v-91q0 -63 -21 -115.5t-60 -90t-94 -58.5t-122 -21q-78 0 -135.5 24.5
t-95.5 67t-56.5 100t-18.5 122.5v102q0 70 20.5 128t59.5 98.5t95 63t128 22.5q68 0 121.5 -19t91 -52.5t58 -80t22.5 -100.5h-133zM365 753q-38 0 -70.5 9t-57 27t-38.5 44.5t-14 60.5h106q0 -27 19.5 -44t54.5 -17t54.5 17t19.5 44h106q0 -34 -14 -60.5t-38.5 -44.5
t-57.5 -27t-70 -9z" />
    <glyph glyph-name="gbreve" unicode="&#x11f;" horiz-adv-x="610" 
d="M294 -186q-46 0 -87 10.5t-73 30.5t-54 48.5t-30 65.5h132q14 -27 43 -39.5t69 -12.5q52 0 82.5 26t30.5 70v82q-17 -27 -57.5 -49t-91.5 -22q-53 0 -93 17.5t-67 47.5t-40.5 69t-13.5 82v76q0 43 13.5 82.5t40.5 69t67.5 47t93.5 17.5q30 0 55.5 -7t45 -17.5t33 -24
t20.5 -26.5v63h130v-509q0 -42 -18.5 -78t-51.5 -62.5t-79 -41.5t-100 -15zM290 133q48 0 82.5 29.5t34.5 84.5v60q0 53 -32 84.5t-81 31.5q-57 0 -86 -31t-29 -85v-60q0 -50 27.5 -82t83.5 -32zM304 579q-39 0 -71.5 10.5t-56 30t-36.5 48t-13 65.5h100q0 -33 20 -53
t57 -20t57 20t20 53h100q0 -37 -13 -65.5t-36.5 -48t-56 -30t-71.5 -10.5z" />
    <glyph glyph-name="Gdotaccent" unicode="&#x120;" horiz-adv-x="715" 
d="M519 462q-1 27 -11.5 52t-30 44t-48.5 30t-66 11q-86 0 -127 -52t-41 -140v-110q0 -44 9.5 -80.5t29.5 -63t52.5 -41t77.5 -14.5q38 0 67.5 11t49.5 30t30.5 44.5t10.5 54.5v10h-157v114h294v-91q0 -63 -21 -115.5t-60 -90t-94 -58.5t-122 -21q-78 0 -135.5 24.5
t-95.5 67t-56.5 100t-18.5 122.5v102q0 70 20.5 128t59.5 98.5t95 63t128 22.5q68 0 121.5 -19t91 -52.5t58 -80t22.5 -100.5h-133zM280 832q0 34 22 56.5t57 22.5t57 -22.5t22 -56.5t-22 -56.5t-57 -22.5t-57 22.5t-22 56.5z" />
    <glyph glyph-name="gdotaccent" unicode="&#x121;" horiz-adv-x="610" 
d="M294 -186q-46 0 -87 10.5t-73 30.5t-54 48.5t-30 65.5h132q14 -27 43 -39.5t69 -12.5q52 0 82.5 26t30.5 70v82q-17 -27 -57.5 -49t-91.5 -22q-53 0 -93 17.5t-67 47.5t-40.5 69t-13.5 82v76q0 43 13.5 82.5t40.5 69t67.5 47t93.5 17.5q30 0 55.5 -7t45 -17.5t33 -24
t20.5 -26.5v63h130v-509q0 -42 -18.5 -78t-51.5 -62.5t-79 -41.5t-100 -15zM290 133q48 0 82.5 29.5t34.5 84.5v60q0 53 -32 84.5t-81 31.5q-57 0 -86 -31t-29 -85v-60q0 -50 27.5 -82t83.5 -32zM222 658q0 34 22 56.5t57 22.5t57 -22.5t22 -56.5t-22 -56.5t-57 -22.5
t-57 22.5t-22 56.5z" />
    <glyph glyph-name="Gcommaaccent" unicode="&#x122;" horiz-adv-x="715" 
d="M519 462q-1 27 -11.5 52t-30 44t-48.5 30t-66 11q-86 0 -127 -52t-41 -140v-110q0 -44 9.5 -80.5t29.5 -63t52.5 -41t77.5 -14.5q38 0 67.5 11t49.5 30t30.5 44.5t10.5 54.5v10h-157v114h294v-91q0 -63 -21 -115.5t-60 -90t-94 -58.5t-122 -21q-78 0 -135.5 24.5
t-95.5 67t-56.5 100t-18.5 122.5v102q0 70 20.5 128t59.5 98.5t95 63t128 22.5q68 0 121.5 -19t91 -52.5t58 -80t22.5 -100.5h-133zM290 -73h154l-70 -177h-115z" />
    <glyph glyph-name="gcommaaccent" unicode="&#x123;" horiz-adv-x="610" 
d="M294 -186q-46 0 -87 10.5t-73 30.5t-54 48.5t-30 65.5h132q14 -27 43 -39.5t69 -12.5q52 0 82.5 26t30.5 70v82q-17 -27 -57.5 -49t-91.5 -22q-53 0 -93 17.5t-67 47.5t-40.5 69t-13.5 82v76q0 43 13.5 82.5t40.5 69t67.5 47t93.5 17.5q30 0 55.5 -7t45 -17.5t33 -24
t20.5 -26.5v63h130v-509q0 -42 -18.5 -78t-51.5 -62.5t-79 -41.5t-100 -15zM290 133q48 0 82.5 29.5t34.5 84.5v60q0 53 -32 84.5t-81 31.5q-57 0 -86 -31t-29 -85v-60q0 -50 27.5 -82t83.5 -32zM298 733h134l-40 -154h-168z" />
    <glyph glyph-name="Hcircumflex" unicode="&#x124;" horiz-adv-x="721" 
d="M77 700h140v-287h287v287h140v-700h-140v289h-287v-289h-140v700zM545 753h-131l-54 67l-54 -67h-131l118 141h134z" />
    <glyph glyph-name="hcircumflex" unicode="&#x125;" horiz-adv-x="596" 
d="M67 730h136v-272q20 34 58 54t89 20q85 0 134.5 -53t49.5 -146v-333h-136v311q0 45 -22.5 74t-72.5 29q-46 0 -73 -26.5t-27 -79.5v-308h-136v730zM324 783h-131l-54 67l-54 -67h-131l118 141h134z" />
    <glyph glyph-name="Hbar" unicode="&#x126;" horiz-adv-x="787" 
d="M34 591h76v109h140v-109h287v109h140v-109h76v-85h-76v-506h-140v289h-287v-289h-140v506h-76v85zM537 413v93h-287v-93h287z" />
    <glyph glyph-name="hbar" unicode="&#x127;" horiz-adv-x="603" 
d="M15 659h59v71h136v-71h100v-93h-100v-108q20 34 58 54t89 20q85 0 134.5 -53t49.5 -146v-333h-136v311q0 45 -22.5 74t-72.5 29q-46 0 -73 -26.5t-27 -79.5v-308h-136v566h-59v93z" />
    <glyph glyph-name="Itilde" unicode="&#x128;" horiz-adv-x="304" 
d="M82 700h140v-700h-140v700zM-61 769q6 31 14 55.5t21.5 41t34 25t50.5 8.5q24 0 51.5 -6.5t53 -14.5t47 -14.5t32.5 -6.5q22 0 29.5 15t13.5 32l89 -25q-9 -29 -17.5 -52.5t-21.5 -39.5t-32 -24.5t-47 -8.5q-18 0 -42.5 6.5t-50.5 14.5t-50 14.5t-42 6.5q-20 0 -29 -13
t-14 -34z" />
    <glyph glyph-name="itilde" unicode="&#x129;" 
d="M70 520h136v-520h-136v520zM-61 598q4 28 11.5 51.5t20.5 40.5t33 27t49 10q19 0 42 -6.5t45 -15t41 -15t31 -6.5q21 0 28.5 15t13.5 32l84 -26q-7 -24 -15 -46.5t-20.5 -39.5t-31 -27t-45.5 -10q-18 0 -39 6.5t-43 15t-42.5 15t-36.5 6.5q-20 0 -27 -13.5t-14 -34.5z
" />
    <glyph glyph-name="uni012A" unicode="&#x12a;" horiz-adv-x="304" 
d="M82 700h140v-700h-140v700zM-35 881h376v-109h-376v109z" />
    <glyph glyph-name="imacron" unicode="&#x12b;" 
d="M70 520h136v-520h-136v520zM-31 706h340v-107h-340v107z" />
    <glyph glyph-name="Ibreve" unicode="&#x12c;" horiz-adv-x="304" 
d="M82 700h140v-700h-140v700zM153 753q-38 0 -70.5 9t-57 27t-38.5 44.5t-14 60.5h106q0 -27 19.5 -44t54.5 -17t54.5 17t19.5 44h106q0 -34 -14 -60.5t-38.5 -44.5t-57.5 -27t-70 -9z" />
    <glyph glyph-name="uni012D" unicode="&#x12d;" 
d="M70 520h136v-520h-136v520zM139 579q-39 0 -71.5 10.5t-56 30t-36.5 48t-13 65.5h100q0 -33 20 -53t57 -20t57 20t20 53h100q0 -37 -13 -65.5t-36.5 -48t-56 -30t-71.5 -10.5z" />
    <glyph glyph-name="Iogonek" unicode="&#x12e;" horiz-adv-x="304" 
d="M157 -186q-51 0 -79.5 26t-28.5 73q0 31 10 50.5t23 36.5v700h140v-700q-7 -6 -16 -14t-16.5 -18t-13 -21.5t-5.5 -23.5q0 -30 32 -30q5 0 8.5 0.5t7.5 1.5v-74q-8 -2 -26 -4.5t-36 -2.5z" />
    <glyph glyph-name="iogonek" unicode="&#x12f;" 
d="M142 -186q-51 0 -79.5 24t-28.5 68q0 33 11 55t25 39v520h136v-520q-15 -14 -32.5 -33t-17.5 -44q0 -30 31 -30q5 0 9 0.5t8 1.5v-74q-10 -2 -27 -4.5t-35 -2.5zM59 656q0 34 22 56.5t57 22.5t57 -22.5t22 -56.5t-22 -56.5t-57 -22.5t-57 22.5t-22 56.5z" />
    <glyph glyph-name="Idotaccent" unicode="&#x130;" horiz-adv-x="304" 
d="M82 700h140v-700h-140v700zM74 832q0 34 22 56.5t57 22.5t57 -22.5t22 -56.5t-22 -56.5t-57 -22.5t-57 22.5t-22 56.5z" />
    <glyph glyph-name="dotlessi" unicode="&#x131;" 
d="M70 520h136v-520h-136v520z" />
    <glyph glyph-name="IJ" unicode="&#x132;" horiz-adv-x="912" 
d="M82 700h140v-700h-140v700zM587 -14q-57 0 -103 15.5t-78 44t-49 69t-17 90.5v10h133v-9q0 -48 29.5 -76t84.5 -28q56 0 83.5 28.5t27.5 75.5v494h140v-494q0 -49 -18.5 -89.5t-51.5 -69.5t-79 -45t-102 -16z" />
    <glyph glyph-name="ij" unicode="&#x133;" horiz-adv-x="552" 
d="M70 520h136v-520h-136v520zM59 656q0 34 22 56.5t57 22.5t57 -22.5t22 -56.5t-22 -56.5t-57 -22.5t-57 22.5t-22 56.5zM275 -69h31q21 0 30.5 7.5t9.5 26.5v555h136v-567q0 -61 -33 -94t-102 -33h-72v105zM335 656q0 34 22 56.5t57 22.5t57 -22.5t22 -56.5t-22 -56.5
t-57 -22.5t-57 22.5t-22 56.5z" />
    <glyph glyph-name="Jcircumflex" unicode="&#x134;" horiz-adv-x="608" 
d="M283 -14q-57 0 -103 15.5t-78 44t-49 69t-17 90.5v10h133v-9q0 -48 29.5 -76t84.5 -28q56 0 83.5 28.5t27.5 75.5v494h140v-494q0 -49 -18.5 -89.5t-51.5 -69.5t-79 -45t-102 -16zM647 753h-131l-54 67l-54 -67h-131l118 141h134z" />
    <glyph glyph-name="jcircumflex" unicode="&#x135;" 
d="M-1 -69h31q21 0 30.5 7.5t9.5 26.5v555h136v-567q0 -61 -33 -94t-102 -33h-72v105zM316 579h-124l-54 77l-54 -77h-124l112 154h132z" />
    <glyph glyph-name="Kcommaaccent" unicode="&#x136;" horiz-adv-x="651" 
d="M77 700h140v-336l247 336h163l-263 -347l271 -353h-165l-253 343v-343h-140v700zM262 -73h154l-70 -177h-115z" />
    <glyph glyph-name="kcommaaccent" unicode="&#x137;" horiz-adv-x="544" 
d="M67 730h136v-452l165 242h155l-179 -254l185 -266h-155l-171 254v-254h-136v730zM213 -73h154l-70 -177h-115z" />
    <glyph glyph-name="kgreenlandic" unicode="&#x138;" horiz-adv-x="544" 
d="M67 520h136v-242l165 242h155l-179 -254l185 -266h-155l-171 254v-254h-136v520z" />
    <glyph glyph-name="Lacute" unicode="&#x139;" horiz-adv-x="580" 
d="M77 700h140v-584h322v-116h-462v700zM154 894h167l-98 -141h-138z" />
    <glyph glyph-name="lacute" unicode="&#x13a;" 
d="M70 730h136v-730h-136v730zM144 924h167l-98 -141h-138z" />
    <glyph glyph-name="Lcommaaccent" unicode="&#x13b;" horiz-adv-x="580" 
d="M77 700h140v-584h322v-116h-462v700zM238 -73h154l-70 -177h-115z" />
    <glyph glyph-name="lcommaaccent" unicode="&#x13c;" 
d="M70 730h136v-730h-136v730zM59 -73h154l-70 -177h-115z" />
    <glyph glyph-name="Lcaron" unicode="&#x13d;" horiz-adv-x="580" 
d="M366 701h148l-78 -223h-110zM77 700h140v-584h322v-116h-462v700z" />
    <glyph glyph-name="lcaron" unicode="&#x13e;" horiz-adv-x="455" 
d="M322 730h148l-78 -223h-110zM72 730h136v-730h-136v730z" />
    <glyph glyph-name="Ldot" unicode="&#x13f;" horiz-adv-x="580" 
d="M77 700h140v-584h322v-116h-462v700zM307 346q0 35 21.5 56.5t56.5 21.5t56.5 -21.5t21.5 -56.5t-21.5 -56.5t-56.5 -21.5t-56.5 21.5t-21.5 56.5z" />
    <glyph glyph-name="ldot" unicode="&#x140;" horiz-adv-x="454" 
d="M72 730h136v-730h-136v730zM273 293q0 35 21.5 56.5t56.5 21.5t56.5 -21.5t21.5 -56.5t-21.5 -56.5t-56.5 -21.5t-56.5 21.5t-21.5 56.5z" />
    <glyph glyph-name="Lslash" unicode="&#x141;" horiz-adv-x="594" 
d="M20 322l71 42v336h140v-251l135 81v-124l-135 -81v-209h322v-116h-462v240l-71 -42v124z" />
    <glyph glyph-name="lslash" unicode="&#x142;" horiz-adv-x="293" 
d="M24 330l49 40v360h136v-249l60 49v-133l-60 -49v-348h-136v237l-49 -40v133z" />
    <glyph glyph-name="Nacute" unicode="&#x143;" horiz-adv-x="729" 
d="M77 700h133l305 -466v466h137v-700h-133l-305 466v-466h-137v700zM356 894h167l-98 -141h-138z" />
    <glyph glyph-name="nacute" unicode="&#x144;" horiz-adv-x="596" 
d="M67 520h130v-62q40 74 153 74q85 0 134.5 -52.5t49.5 -146.5v-333h-136v311q0 45 -22.5 74t-72.5 29q-46 0 -73 -26.5t-27 -79.5v-308h-136v520zM306 733h168l-106 -154h-135z" />
    <glyph glyph-name="Ncommaaccent" unicode="&#x145;" horiz-adv-x="729" 
d="M77 700h133l305 -466v466h137v-700h-133l-305 466v-466h-137v700zM295 -73h154l-70 -177h-115z" />
    <glyph glyph-name="ncommaaccent" unicode="&#x146;" horiz-adv-x="596" 
d="M67 520h130v-62q40 74 153 74q85 0 134.5 -52.5t49.5 -146.5v-333h-136v311q0 45 -22.5 74t-72.5 29q-46 0 -73 -26.5t-27 -79.5v-308h-136v520zM229 -73h154l-70 -177h-115z" />
    <glyph glyph-name="Ncaron" unicode="&#x147;" horiz-adv-x="729" 
d="M77 700h133l305 -466v466h137v-700h-133l-305 466v-466h-137v700zM432 753h-134l-118 141h131l54 -67l54 67h131z" />
    <glyph glyph-name="ncaron" unicode="&#x148;" horiz-adv-x="596" 
d="M67 520h130v-62q40 74 153 74q85 0 134.5 -52.5t49.5 -146.5v-333h-136v311q0 45 -22.5 74t-72.5 29q-46 0 -73 -26.5t-27 -79.5v-308h-136v520zM366 579h-132l-112 154h124l54 -77l54 77h124z" />
    <glyph glyph-name="napostrophe" unicode="&#x149;" horiz-adv-x="732" 
d="M41 730h148l-78 -223h-110zM203 520h130v-62q40 74 153 74q85 0 134.5 -52.5t49.5 -146.5v-333h-136v311q0 45 -22.5 74t-72.5 29q-46 0 -73 -26.5t-27 -79.5v-308h-136v520z" />
    <glyph glyph-name="Eng" unicode="&#x14a;" horiz-adv-x="729" 
d="M77 700h133l305 -466v466h137v-703q0 -85 -42 -128t-147 -43h-57v108h42q36 0 51.5 14t15.5 46v12l-301 460v-466h-137v700z" />
    <glyph glyph-name="eng" unicode="&#x14b;" horiz-adv-x="596" 
d="M67 520h130v-62q40 74 153 74q85 0 134.5 -52.5t49.5 -146.5v-345q0 -78 -42.5 -120t-142.5 -42h-52v105h37q64 0 64 62v318q0 45 -22.5 74t-72.5 29q-46 0 -73 -26.5t-27 -79.5v-308h-136v520z" />
    <glyph glyph-name="Omacron" unicode="&#x14c;" horiz-adv-x="736" 
d="M680 299q0 -67 -20 -124t-59 -99t-97.5 -66t-135.5 -24t-135.5 24t-97.5 66t-59 99t-20 124v102q0 67 20 124t59 99t97.5 66t135.5 24t135.5 -24t97.5 -66t59 -99t20 -124v-102zM368 102q44 0 76.5 14t53.5 39.5t31.5 60t10.5 76.5v116q0 42 -10.5 76.5t-31.5 60
t-53.5 39.5t-76.5 14t-76.5 -14t-53.5 -39.5t-31.5 -60t-10.5 -76.5v-116q0 -42 10.5 -76.5t31.5 -60t53.5 -39.5t76.5 -14zM180 881h376v-109h-376v109z" />
    <glyph glyph-name="omacron" unicode="&#x14d;" horiz-adv-x="578" 
d="M119 706h340v-107h-340v107zM289 -12q-59 0 -104.5 18t-76.5 49.5t-47.5 74.5t-16.5 93v74q0 50 16.5 93t47.5 74.5t76.5 49.5t104.5 18q58 0 104 -18t77 -49.5t47.5 -74.5t16.5 -93v-74q0 -50 -16.5 -93t-47.5 -74.5t-77 -49.5t-104 -18zM402 306q0 51 -27.5 85
t-85.5 34t-85.5 -34t-27.5 -85v-92q0 -51 27.5 -85t85.5 -34t85.5 34t27.5 85v92z" />
    <glyph glyph-name="Obreve" unicode="&#x14e;" horiz-adv-x="736" 
d="M680 299q0 -67 -20 -124t-59 -99t-97.5 -66t-135.5 -24t-135.5 24t-97.5 66t-59 99t-20 124v102q0 67 20 124t59 99t97.5 66t135.5 24t135.5 -24t97.5 -66t59 -99t20 -124v-102zM368 102q44 0 76.5 14t53.5 39.5t31.5 60t10.5 76.5v116q0 42 -10.5 76.5t-31.5 60
t-53.5 39.5t-76.5 14t-76.5 -14t-53.5 -39.5t-31.5 -60t-10.5 -76.5v-116q0 -42 10.5 -76.5t31.5 -60t53.5 -39.5t76.5 -14zM369 753q-38 0 -70.5 9t-57 27t-38.5 44.5t-14 60.5h106q0 -27 19.5 -44t54.5 -17t54.5 17t19.5 44h106q0 -34 -14 -60.5t-38.5 -44.5t-57.5 -27
t-70 -9z" />
    <glyph glyph-name="obreve" unicode="&#x14f;" horiz-adv-x="578" 
d="M289 -12q-59 0 -104.5 18t-76.5 49.5t-47.5 74.5t-16.5 93v74q0 50 16.5 93t47.5 74.5t76.5 49.5t104.5 18q58 0 104 -18t77 -49.5t47.5 -74.5t16.5 -93v-74q0 -50 -16.5 -93t-47.5 -74.5t-77 -49.5t-104 -18zM402 306q0 51 -27.5 85t-85.5 34t-85.5 -34t-27.5 -85v-92
q0 -51 27.5 -85t85.5 -34t85.5 34t27.5 85v92zM289 579q-39 0 -71.5 10.5t-56 30t-36.5 48t-13 65.5h100q0 -33 20 -53t57 -20t57 20t20 53h100q0 -37 -13 -65.5t-36.5 -48t-56 -30t-71.5 -10.5z" />
    <glyph glyph-name="Ohungarumlaut" unicode="&#x150;" horiz-adv-x="736" 
d="M259 894h144l-64 -141h-123zM468 894h144l-64 -141h-123zM680 299q0 -67 -20 -124t-59 -99t-97.5 -66t-135.5 -24t-135.5 24t-97.5 66t-59 99t-20 124v102q0 67 20 124t59 99t97.5 66t135.5 24t135.5 -24t97.5 -66t59 -99t20 -124v-102zM368 102q44 0 76.5 14t53.5 39.5
t31.5 60t10.5 76.5v116q0 42 -10.5 76.5t-31.5 60t-53.5 39.5t-76.5 14t-76.5 -14t-53.5 -39.5t-31.5 -60t-10.5 -76.5v-116q0 -42 10.5 -76.5t31.5 -60t53.5 -39.5t76.5 -14z" />
    <glyph glyph-name="ohungarumlaut" unicode="&#x151;" horiz-adv-x="578" 
d="M186 733h147l-73 -154h-124zM387 733h147l-73 -154h-124zM289 -12q-59 0 -104.5 18t-76.5 49.5t-47.5 74.5t-16.5 93v74q0 50 16.5 93t47.5 74.5t76.5 49.5t104.5 18q58 0 104 -18t77 -49.5t47.5 -74.5t16.5 -93v-74q0 -50 -16.5 -93t-47.5 -74.5t-77 -49.5t-104 -18z
M402 306q0 51 -27.5 85t-85.5 34t-85.5 -34t-27.5 -85v-92q0 -51 27.5 -85t85.5 -34t85.5 34t27.5 85v92z" />
    <glyph glyph-name="OE" unicode="&#x152;" horiz-adv-x="1064" 
d="M381 0q-81 0 -142 22.5t-101.5 64t-61 100t-20.5 130.5v66q0 72 20.5 130.5t61 100t101.5 64t142 22.5h632v-116h-350v-171h320v-117h-320v-180h351v-116h-633zM195 311q0 -88 45 -141.5t142 -53.5h141v468h-141q-97 0 -142 -53.5t-45 -141.5v-78z" />
    <glyph glyph-name="oe" unicode="&#x153;" horiz-adv-x="926" 
d="M289 -12q-60 0 -105.5 18t-76.5 49.5t-47 74.5t-16 93v74q0 50 16.5 93t47.5 74.5t76.5 49.5t104.5 18q57 0 99 -17.5t78 -50.5q30 32 73.5 50t102.5 18q58 0 101.5 -18t72.5 -49t43.5 -72.5t14.5 -88.5v-91h-340v-13q0 -23 6 -43.5t19.5 -36.5t34 -25t50.5 -9
q44 0 70.5 19.5t36.5 46.5h119q-7 -36 -27 -66t-50 -51.5t-68 -34t-81 -12.5q-57 0 -104 17.5t-75 49.5q-25 -27 -72 -47t-104 -20zM402 306q0 51 -27.5 85t-85.5 34t-85.5 -34t-27.5 -85v-92q0 -51 27.5 -85t85.5 -34t85.5 34t27.5 85v92zM534 309h215v13q0 49 -26 81.5
t-81 32.5q-29 0 -49.5 -9t-33.5 -25.5t-19 -39t-6 -48.5v-5z" />
    <glyph glyph-name="Racute" unicode="&#x154;" horiz-adv-x="698" 
d="M364 224h-147v-224h-140v700h316q62 0 109 -18t79 -50t48.5 -75.5t16.5 -94.5q0 -75 -36.5 -131.5t-101.5 -84.5l146 -246h-162zM376 337q65 0 97.5 35.5t32.5 90.5q0 57 -33 90t-97 33h-159v-249h159zM318 894h167l-98 -141h-138z" />
    <glyph glyph-name="racute" unicode="&#x155;" horiz-adv-x="394" 
d="M67 520h129v-101q13 59 55 82t101 23h16v-135h-28q-67 0 -102 -35t-35 -114v-240h-136v520zM214 733h168l-106 -154h-135z" />
    <glyph glyph-name="Rcommaaccent" unicode="&#x156;" horiz-adv-x="698" 
d="M364 224h-147v-224h-140v700h316q62 0 109 -18t79 -50t48.5 -75.5t16.5 -94.5q0 -75 -36.5 -131.5t-101.5 -84.5l146 -246h-162zM376 337q65 0 97.5 35.5t32.5 90.5q0 57 -33 90t-97 33h-159v-249h159zM275 -73h154l-70 -177h-115z" />
    <glyph glyph-name="rcommaaccent" unicode="&#x157;" horiz-adv-x="394" 
d="M67 520h129v-101q13 59 55 82t101 23h16v-135h-28q-67 0 -102 -35t-35 -114v-240h-136v520zM55 -73h154l-70 -177h-115z" />
    <glyph glyph-name="Rcaron" unicode="&#x158;" horiz-adv-x="698" 
d="M364 224h-147v-224h-140v700h316q62 0 109 -18t79 -50t48.5 -75.5t16.5 -94.5q0 -75 -36.5 -131.5t-101.5 -84.5l146 -246h-162zM376 337q65 0 97.5 35.5t32.5 90.5q0 57 -33 90t-97 33h-159v-249h159zM401 753h-134l-118 141h131l54 -67l54 67h131z" />
    <glyph glyph-name="rcaron" unicode="&#x159;" horiz-adv-x="394" 
d="M67 520h129v-101q13 59 55 82t101 23h16v-135h-28q-67 0 -102 -35t-35 -114v-240h-136v520zM296 579h-132l-112 154h124l54 -77l54 77h124z" />
    <glyph glyph-name="Sacute" unicode="&#x15a;" horiz-adv-x="654" 
d="M329 -14q-62 0 -112.5 14.5t-86.5 42.5t-55.5 68.5t-19.5 91.5v18h134v-15q0 -49 37 -80.5t108 -31.5q63 0 100 26.5t37 75.5q0 29 -15.5 49.5t-50.5 29.5l-183 47q-80 20 -118 61t-38 120q0 49 18 88.5t51.5 66.5t81 41.5t106.5 14.5q58 0 105 -15.5t80 -43t50.5 -66
t17.5 -84.5v-17h-129v14q0 45 -29.5 74.5t-94.5 29.5q-56 0 -89 -22.5t-33 -68.5q0 -59 60 -74l192 -51q153 -40 153 -183q0 -50 -21 -90.5t-58 -69.5t-88 -45t-110 -16zM321 894h167l-98 -141h-138z" />
    <glyph glyph-name="sacute" unicode="&#x15b;" horiz-adv-x="531" 
d="M269 -12q-50 0 -91 10.5t-70.5 31t-46 51.5t-16.5 73v9h120v-7q0 -34 28.5 -53t76.5 -19q43 0 71 16.5t28 46.5q0 37 -43 47l-154 35q-59 14 -89 45.5t-30 91.5q0 40 15.5 71t43.5 52t66.5 32t84.5 11q94 0 150 -44t56 -122v-8h-119v9q0 30 -20 49t-65 19q-85 0 -85 -57
q0 -20 10 -29.5t30 -14.5l158 -39q58 -14 87 -46t29 -87q0 -38 -17 -70t-47 -55t-71.5 -36t-89.5 -13zM269 733h168l-106 -154h-135z" />
    <glyph glyph-name="Scircumflex" unicode="&#x15c;" horiz-adv-x="654" 
d="M329 -14q-62 0 -112.5 14.5t-86.5 42.5t-55.5 68.5t-19.5 91.5v18h134v-15q0 -49 37 -80.5t108 -31.5q63 0 100 26.5t37 75.5q0 29 -15.5 49.5t-50.5 29.5l-183 47q-80 20 -118 61t-38 120q0 49 18 88.5t51.5 66.5t81 41.5t106.5 14.5q58 0 105 -15.5t80 -43t50.5 -66
t17.5 -84.5v-17h-129v14q0 45 -29.5 74.5t-94.5 29.5q-56 0 -89 -22.5t-33 -68.5q0 -59 60 -74l192 -51q153 -40 153 -183q0 -50 -21 -90.5t-58 -69.5t-88 -45t-110 -16zM518 753h-131l-54 67l-54 -67h-131l118 141h134z" />
    <glyph glyph-name="scircumflex" unicode="&#x15d;" horiz-adv-x="531" 
d="M269 -12q-50 0 -91 10.5t-70.5 31t-46 51.5t-16.5 73v9h120v-7q0 -34 28.5 -53t76.5 -19q43 0 71 16.5t28 46.5q0 37 -43 47l-154 35q-59 14 -89 45.5t-30 91.5q0 40 15.5 71t43.5 52t66.5 32t84.5 11q94 0 150 -44t56 -122v-8h-119v9q0 30 -20 49t-65 19q-85 0 -85 -57
q0 -20 10 -29.5t30 -14.5l158 -39q58 -14 87 -46t29 -87q0 -38 -17 -70t-47 -55t-71.5 -36t-89.5 -13zM450 579h-124l-54 77l-54 -77h-124l112 154h132z" />
    <glyph glyph-name="Scedilla" unicode="&#x15e;" horiz-adv-x="654" 
d="M332 -186q-17 0 -37 1.5t-34 4.5v55q11 -2 23.5 -3.5t23.5 -1.5q40 0 40 22q0 20 -37 23l-36 3l16 70q-54 4 -97.5 20.5t-74.5 44t-47.5 65.5t-16.5 85v18h134v-15q0 -49 37 -80.5t108 -31.5q63 0 100 26.5t37 75.5q0 29 -15.5 49.5t-50.5 29.5l-183 47q-80 20 -118 61
t-38 120q0 49 18 88.5t51.5 66.5t81 41.5t106.5 14.5q58 0 105 -15.5t80 -43t50.5 -66t17.5 -84.5v-17h-129v14q0 45 -29.5 74.5t-94.5 29.5q-56 0 -89 -22.5t-33 -68.5q0 -59 60 -74l192 -51q153 -40 153 -183q0 -47 -19 -86t-52 -67.5t-79 -45.5t-100 -21l-4 -23l16 -2
q35 -5 56 -21t21 -48q0 -35 -29.5 -57t-83.5 -22z" />
    <glyph glyph-name="scedilla" unicode="&#x15f;" horiz-adv-x="531" 
d="M274 -186q-17 0 -37 1.5t-34 4.5v55q11 -2 23.5 -3.5t23.5 -1.5q40 0 40 22q0 20 -37 23l-36 3l16 72q-84 7 -136 47.5t-52 116.5v9h120v-7q0 -34 28.5 -53t76.5 -19q43 0 71 16.5t28 46.5q0 37 -43 47l-154 35q-59 14 -89 45.5t-30 91.5q0 40 15.5 71t43.5 52t66.5 32
t84.5 11q94 0 150 -44t56 -122v-8h-119v9q0 30 -20 49t-65 19q-85 0 -85 -57q0 -20 10 -29.5t30 -14.5l158 -39q58 -14 87 -46t29 -87q0 -35 -14.5 -65t-40.5 -52.5t-62 -37t-78 -18.5l-5 -25l16 -2q35 -5 56 -21t21 -48q0 -35 -29.5 -57t-83.5 -22z" />
    <glyph glyph-name="Scaron" unicode="&#x160;" horiz-adv-x="654" 
d="M329 -14q-62 0 -112.5 14.5t-86.5 42.5t-55.5 68.5t-19.5 91.5v18h134v-15q0 -49 37 -80.5t108 -31.5q63 0 100 26.5t37 75.5q0 29 -15.5 49.5t-50.5 29.5l-183 47q-80 20 -118 61t-38 120q0 49 18 88.5t51.5 66.5t81 41.5t106.5 14.5q58 0 105 -15.5t80 -43t50.5 -66
t17.5 -84.5v-17h-129v14q0 45 -29.5 74.5t-94.5 29.5q-56 0 -89 -22.5t-33 -68.5q0 -59 60 -74l192 -51q153 -40 153 -183q0 -50 -21 -90.5t-58 -69.5t-88 -45t-110 -16zM397 753h-134l-118 141h131l54 -67l54 67h131z" />
    <glyph glyph-name="scaron" unicode="&#x161;" horiz-adv-x="531" 
d="M269 -12q-50 0 -91 10.5t-70.5 31t-46 51.5t-16.5 73v9h120v-7q0 -34 28.5 -53t76.5 -19q43 0 71 16.5t28 46.5q0 37 -43 47l-154 35q-59 14 -89 45.5t-30 91.5q0 40 15.5 71t43.5 52t66.5 32t84.5 11q94 0 150 -44t56 -122v-8h-119v9q0 30 -20 49t-65 19q-85 0 -85 -57
q0 -20 10 -29.5t30 -14.5l158 -39q58 -14 87 -46t29 -87q0 -38 -17 -70t-47 -55t-71.5 -36t-89.5 -13zM331 579h-132l-112 154h124l54 -77l54 77h124z" />
    <glyph glyph-name="Tcommaaccent" unicode="&#x162;" horiz-adv-x="588" 
d="M224 584h-198v116h536v-116h-198v-584h-140v584zM215 -73h154l-70 -177h-115z" />
    <glyph glyph-name="tcommaaccent" unicode="&#x163;" horiz-adv-x="384" 
d="M248 0q-75 0 -111 39.5t-36 108.5v262h-74v110h74v142h137v-142h111v-110h-111v-252q0 -26 11 -37t38 -11h55v-110h-94zM153 -73h154l-70 -177h-115z" />
    <glyph glyph-name="Tcaron" unicode="&#x164;" horiz-adv-x="588" 
d="M224 584h-198v116h536v-116h-198v-584h-140v584zM361 753h-134l-118 141h131l54 -67l54 67h131z" />
    <glyph glyph-name="tcaron" unicode="&#x165;" horiz-adv-x="434" 
d="M304 730h145l-56 -153h-107zM248 0q-75 0 -111 39.5t-36 108.5v262h-74v110h74v142h137v-142h111v-110h-111v-252q0 -26 11 -37t38 -11h55v-110h-94z" />
    <glyph glyph-name="Tbar" unicode="&#x166;" horiz-adv-x="588" 
d="M96 383h128v201h-198v116h536v-116h-198v-201h128v-112h-128v-271h-140v271h-128v112z" />
    <glyph glyph-name="tbar" unicode="&#x167;" horiz-adv-x="384" 
d="M28 317h73v93h-74v110h74v142h137v-142h111v-110h-111v-93h95v-103h-95v-56q0 -26 11 -37t38 -11h55v-110h-94q-75 0 -111 39.5t-36 108.5v66h-73v103z" />
    <glyph glyph-name="Utilde" unicode="&#x168;" horiz-adv-x="720" 
d="M360 -14q-68 0 -121.5 19.5t-90.5 54.5t-56.5 84t-19.5 108v448h139v-454q0 -69 40.5 -106.5t108.5 -37.5t108 37.5t40 106.5v454h140v-448q0 -59 -19.5 -108t-56.5 -84t-90.5 -54.5t-121.5 -19.5zM145 769q6 31 14 55.5t21.5 41t34 25t50.5 8.5q24 0 51.5 -6.5t53 -14.5
t47 -14.5t32.5 -6.5q22 0 29.5 15t13.5 32l89 -25q-9 -29 -17.5 -52.5t-21.5 -39.5t-32 -24.5t-47 -8.5q-18 0 -42.5 6.5t-50.5 14.5t-50 14.5t-42 6.5q-20 0 -29 -13t-14 -34z" />
    <glyph glyph-name="utilde" unicode="&#x169;" horiz-adv-x="592" 
d="M525 0h-130v62q-18 -33 -59 -53.5t-92 -20.5q-44 0 -78 14.5t-57 40.5t-35 63t-12 81v333h136v-314q0 -50 23 -77t69 -27q48 0 73.5 28t25.5 77v313h136v-520zM106 598q4 28 11.5 51.5t20.5 40.5t33 27t49 10q19 0 42 -6.5t45 -15t41 -15t31 -6.5q21 0 28.5 15t13.5 32
l84 -26q-7 -24 -15 -46.5t-20.5 -39.5t-31 -27t-45.5 -10q-18 0 -39 6.5t-43 15t-42.5 15t-36.5 6.5q-20 0 -27 -13.5t-14 -34.5z" />
    <glyph glyph-name="Umacron" unicode="&#x16a;" horiz-adv-x="720" 
d="M360 -14q-68 0 -121.5 19.5t-90.5 54.5t-56.5 84t-19.5 108v448h139v-454q0 -69 40.5 -106.5t108.5 -37.5t108 37.5t40 106.5v454h140v-448q0 -59 -19.5 -108t-56.5 -84t-90.5 -54.5t-121.5 -19.5zM172 881h376v-109h-376v109z" />
    <glyph glyph-name="umacron" unicode="&#x16b;" horiz-adv-x="592" 
d="M525 0h-130v62q-18 -33 -59 -53.5t-92 -20.5q-44 0 -78 14.5t-57 40.5t-35 63t-12 81v333h136v-314q0 -50 23 -77t69 -27q48 0 73.5 28t25.5 77v313h136v-520zM134 706h340v-107h-340v107z" />
    <glyph glyph-name="Ubreve" unicode="&#x16c;" horiz-adv-x="720" 
d="M360 -14q-68 0 -121.5 19.5t-90.5 54.5t-56.5 84t-19.5 108v448h139v-454q0 -69 40.5 -106.5t108.5 -37.5t108 37.5t40 106.5v454h140v-448q0 -59 -19.5 -108t-56.5 -84t-90.5 -54.5t-121.5 -19.5zM360 753q-38 0 -70.5 9t-57 27t-38.5 44.5t-14 60.5h106q0 -27 19.5 -44
t54.5 -17t54.5 17t19.5 44h106q0 -34 -14 -60.5t-38.5 -44.5t-57.5 -27t-70 -9z" />
    <glyph glyph-name="ubreve" unicode="&#x16d;" horiz-adv-x="592" 
d="M525 0h-130v62q-18 -33 -59 -53.5t-92 -20.5q-44 0 -78 14.5t-57 40.5t-35 63t-12 81v333h136v-314q0 -50 23 -77t69 -27q48 0 73.5 28t25.5 77v313h136v-520zM312 579q-39 0 -71.5 10.5t-56 30t-36.5 48t-13 65.5h100q0 -33 20 -53t57 -20t57 20t20 53h100
q0 -37 -13 -65.5t-36.5 -48t-56 -30t-71.5 -10.5z" />
    <glyph glyph-name="Uring" unicode="&#x16e;" horiz-adv-x="720" 
d="M360 -14q-68 0 -121.5 19.5t-90.5 54.5t-56.5 84t-19.5 108v448h139v-454q0 -69 40.5 -106.5t108.5 -37.5t108 37.5t40 106.5v454h140v-448q0 -59 -19.5 -108t-56.5 -84t-90.5 -54.5t-121.5 -19.5zM360 803q21 0 33.5 12t12.5 31q0 20 -12.5 31t-33.5 11t-33.5 -11
t-12.5 -31q0 -19 12.5 -31t33.5 -12zM360 753q-51 0 -78.5 27.5t-27.5 65.5t28.5 65t77.5 27q50 0 78 -27t28 -65t-27.5 -65.5t-78.5 -27.5z" />
    <glyph glyph-name="uring" unicode="&#x16f;" horiz-adv-x="592" 
d="M525 0h-130v62q-18 -33 -59 -53.5t-92 -20.5q-44 0 -78 14.5t-57 40.5t-35 63t-12 81v333h136v-314q0 -50 23 -77t69 -27q48 0 73.5 28t25.5 77v313h136v-520zM300 629q21 0 33.5 12t12.5 31q0 20 -12.5 31t-33.5 11t-33.5 -11t-12.5 -31q0 -19 12.5 -31t33.5 -12z
M300 579q-51 0 -78.5 27.5t-27.5 65.5t28.5 65t77.5 27q50 0 78 -27t28 -65t-27.5 -65.5t-78.5 -27.5z" />
    <glyph glyph-name="Uhungarumlaut" unicode="&#x170;" horiz-adv-x="720" 
d="M360 -14q-68 0 -121.5 19.5t-90.5 54.5t-56.5 84t-19.5 108v448h139v-454q0 -69 40.5 -106.5t108.5 -37.5t108 37.5t40 106.5v454h140v-448q0 -59 -19.5 -108t-56.5 -84t-90.5 -54.5t-121.5 -19.5zM240 894h144l-64 -141h-123zM449 894h144l-64 -141h-123z" />
    <glyph glyph-name="uhungarumlaut" unicode="&#x171;" horiz-adv-x="592" 
d="M525 0h-130v62q-18 -33 -59 -53.5t-92 -20.5q-44 0 -78 14.5t-57 40.5t-35 63t-12 81v333h136v-314q0 -50 23 -77t69 -27q48 0 73.5 28t25.5 77v313h136v-520zM186 733h147l-73 -154h-124zM387 733h147l-73 -154h-124z" />
    <glyph glyph-name="Uogonek" unicode="&#x172;" horiz-adv-x="720" 
d="M404 -186q-49 0 -76 23t-27 65q0 29 14.5 49.5t37.5 34.5q-66 1 -118.5 21t-88.5 55t-55 83t-19 107v448h139v-454q0 -69 40.5 -106.5t108.5 -37.5t108 37.5t40 106.5v454h140v-448q0 -81 -35 -138.5t-98 -94.5q-17 -10 -33 -21t-29.5 -23t-21.5 -25.5t-8 -28.5
q0 -28 34 -28q14 0 25 3v-72q-14 -4 -34.5 -7t-43.5 -3z" />
    <glyph glyph-name="uogonek" unicode="&#x173;" horiz-adv-x="592" 
d="M525 0q-9 -6 -19.5 -14.5t-20 -18.5t-15.5 -21.5t-6 -24.5q0 -28 34 -28q14 0 25 3v-72q-14 -4 -34.5 -7t-43.5 -3q-45 0 -74 23t-29 68q0 37 16.5 58.5t36.5 36.5v62q-18 -33 -59 -53.5t-92 -20.5q-44 0 -78 14.5t-57 40.5t-35 63t-12 81v333h136v-314q0 -50 23 -77
t69 -27q48 0 73.5 28t25.5 77v313h136v-520z" />
    <glyph glyph-name="Wcircumflex" unicode="&#x174;" horiz-adv-x="966" 
d="M697 194l101 506h138l-165 -700h-135l-153 539l-153 -539h-135l-165 700h138l101 -506l146 506h136zM668 753h-131l-54 67l-54 -67h-131l118 141h134z" />
    <glyph glyph-name="wcircumflex" unicode="&#x175;" horiz-adv-x="788" 
d="M635 0h-127l-114 358l-114 -358h-127l-135 520h132l76 -349l106 349h124l106 -349l76 349h132zM572 579h-124l-54 77l-54 -77h-124l112 154h132z" />
    <glyph glyph-name="Ycircumflex" unicode="&#x176;" horiz-adv-x="636" 
d="M388 0h-140v252l-240 448h152l158 -312l158 312h152l-240 -448v-252zM503 753h-131l-54 67l-54 -67h-131l118 141h134z" />
    <glyph glyph-name="ycircumflex" unicode="&#x177;" horiz-adv-x="511" 
d="M139 -174l52 176l-180 518h136l112 -373l106 373h135l-227 -694h-134zM443 579h-124l-54 77l-54 -77h-124l112 154h132z" />
    <glyph glyph-name="Ydieresis" unicode="&#x178;" horiz-adv-x="636" 
d="M388 0h-140v252l-240 448h152l158 -312l158 312h152l-240 -448v-252zM133 826q0 32 20.5 52.5t52.5 20.5t52.5 -20.5t20.5 -52.5t-20.5 -52.5t-52.5 -20.5t-52.5 20.5t-20.5 52.5zM357 826q0 32 20.5 52.5t52.5 20.5t52.5 -20.5t20.5 -52.5t-20.5 -52.5t-52.5 -20.5
t-52.5 20.5t-20.5 52.5z" />
    <glyph glyph-name="Zacute" unicode="&#x179;" horiz-adv-x="624" 
d="M55 116l351 468h-336v116h493v-116l-351 -468h360v-116h-517v116zM312 894h167l-98 -141h-138z" />
    <glyph glyph-name="zacute" unicode="&#x17a;" horiz-adv-x="505" 
d="M45 98l257 317h-245v105h402v-98l-257 -317h263v-105h-420v98zM258 733h168l-106 -154h-135z" />
    <glyph glyph-name="Zdotaccent" unicode="&#x17b;" horiz-adv-x="624" 
d="M55 116l351 468h-336v116h493v-116l-351 -468h360v-116h-517v116zM243 832q0 34 22 56.5t57 22.5t57 -22.5t22 -56.5t-22 -56.5t-57 -22.5t-57 22.5t-22 56.5z" />
    <glyph glyph-name="zdotaccent" unicode="&#x17c;" horiz-adv-x="505" 
d="M45 98l257 317h-245v105h402v-98l-257 -317h263v-105h-420v98zM185 658q0 34 22 56.5t57 22.5t57 -22.5t22 -56.5t-22 -56.5t-57 -22.5t-57 22.5t-22 56.5z" />
    <glyph glyph-name="Zcaron" unicode="&#x17d;" horiz-adv-x="624" 
d="M55 116l351 468h-336v116h493v-116l-351 -468h360v-116h-517v116zM399 753h-134l-118 141h131l54 -67l54 67h131z" />
    <glyph glyph-name="zcaron" unicode="&#x17e;" horiz-adv-x="505" 
d="M45 98l257 317h-245v105h402v-98l-257 -317h263v-105h-420v98zM336 579h-132l-112 154h124l54 -77l54 77h124z" />
    <glyph glyph-name="florin" unicode="&#x192;" horiz-adv-x="464" 
d="M25 -63h50q28 0 40 11.5t14 37.5l29 340h-75v111h85l10 113q7 76 43.5 113t107.5 37h100v-111h-64q-27 0 -38 -12.5t-13 -38.5l-9 -101h93v-111h-103l-31 -355q-7 -78 -44.5 -111.5t-112.5 -33.5h-82v111z" />
    <glyph glyph-name="Aringacute" unicode="&#x1fa;" horiz-adv-x="690" 
d="M450 740q0 -35 -27 -60l244 -680h-139l-47 147h-272l-47 -147h-139l243 679q-26 24 -26 61q0 38 27 63.5t78 25.5t78 -25.5t27 -63.5zM244 258h201l-100 316zM335 965h166l-75 -110h-138zM345 700q22 0 34.5 11.5t12.5 28.5q0 19 -12 30t-35 11t-35 -11t-12 -30
q0 -17 12 -28.5t35 -11.5z" />
    <glyph glyph-name="aringacute" unicode="&#x1fb;" horiz-adv-x="585" 
d="M318 615q23 0 36 12.5t13 29.5q0 19 -13 31t-36 12t-36 -12t-13 -31q0 -17 13 -29.5t36 -12.5zM318 569q-51 0 -78 25t-27 63t27 63.5t78 25.5t78 -25.5t27 -63.5t-27 -63t-78 -25zM309 887h166l-75 -110h-138zM242 -12q-44 0 -80 11t-62 32t-40.5 51t-14.5 68
q0 42 15 73.5t43 51.5t66.5 30t85.5 10t80.5 -14.5t51.5 -29.5v71q0 36 -24 60t-66 24q-35 0 -57 -14t-33 -35h-126q23 76 80.5 115.5t142.5 39.5q49 0 89 -14t69 -40.5t45 -63.5t16 -82v-332h-131v48q-9 -13 -25 -24t-36.5 -19t-43.5 -12.5t-45 -4.5zM277 78q22 0 42 6
t35 16t24 24t9 31q0 35 -30 54t-76 19q-48 0 -76 -19t-28 -55t28.5 -56t71.5 -20z" />
    <glyph glyph-name="AEacute" unicode="&#x1fc;" horiz-adv-x="1068" 
d="M582 894h167l-98 -141h-138zM527 148h-282l-95 -148h-150l469 700h548v-116h-350v-171h320v-117h-320v-180h351v-116h-491v148zM527 260v326l-210 -326h210z" />
    <glyph glyph-name="aeacute" unicode="&#x1fd;" horiz-adv-x="915" 
d="M469 733h168l-106 -154h-135zM633 -12q-63 0 -110 20.5t-76 56.5q-26 -29 -75 -53t-118 -24q-47 0 -85.5 12t-66 34.5t-42.5 53.5t-15 69q0 41 16 71.5t44.5 50t67 29t82.5 9.5q46 0 79.5 -13.5t52.5 -31.5v63q0 37 -22 63.5t-67 26.5q-37 0 -57.5 -12.5t-33.5 -35.5
h-126q19 78 76.5 116.5t141.5 38.5q57 0 95.5 -17.5t64.5 -46.5q26 29 71 46.5t101 17.5q58 0 101.5 -18t72.5 -49t43.5 -72.5t14.5 -88.5v-91h-340v-13q0 -23 6 -43.5t19.5 -36.5t34 -25t50.5 -9q44 0 70.5 19.5t36.5 46.5h119q-7 -36 -27 -66t-50 -51.5t-68 -34t-81 -12.5
zM277 79q45 0 77.5 21.5t32.5 54.5q0 35 -30 55t-76 20q-49 0 -76.5 -19t-27.5 -55t28.5 -56.5t71.5 -20.5zM738 309v13q0 49 -26 81.5t-81 32.5q-56 0 -82 -31.5t-26 -80.5v-15h215z" />
    <glyph glyph-name="Oslashacute" unicode="&#x1fe;" horiz-adv-x="736" 
d="M368 894h167l-98 -141h-138zM680 299q0 -67 -20 -124t-59 -99t-97.5 -66t-135.5 -24q-50 0 -91.5 10t-76.5 29l-49 -75h-95l81 123q-41 42 -61 99.5t-20 126.5v102q0 67 20 124t59 99t97.5 66t135.5 24q50 0 91.5 -10t75.5 -29l50 75h95l-81 -123q41 -42 61 -100t20 -126
v-102zM196 292q0 -59 19 -101l252 381q-20 12 -44.5 19t-54.5 7q-44 0 -76.5 -14t-53.5 -39.5t-31.5 -60t-10.5 -76.5v-116zM368 102q44 0 76.5 14t53.5 39.5t31.5 60t10.5 76.5v116q0 29 -5 55.5t-15 44.5l-251 -380q17 -13 43 -19.5t56 -6.5z" />
    <glyph glyph-name="oslashacute" unicode="&#x1ff;" horiz-adv-x="578" 
d="M289 733h168l-106 -154h-135zM289 -12q-73 0 -127 28l-44 -66h-74l68 101q-34 32 -51 76t-17 96v74q0 50 16.5 93t47.5 74.5t76.5 49.5t104.5 18q72 0 126 -28l45 66h74l-68 -102q33 -32 50.5 -76t17.5 -95v-74q0 -50 -16.5 -93t-47.5 -74.5t-77 -49.5t-104 -18zM176 214
q0 -30 9 -54l167 249q-27 16 -63 16q-58 0 -85.5 -34t-27.5 -85v-92zM402 306q0 29 -9 53l-167 -249q24 -15 63 -15q58 0 85.5 34t27.5 85v92z" />
    <glyph glyph-name="Scommaaccent" unicode="&#x218;" horiz-adv-x="654" 
d="M329 -14q-62 0 -112.5 14.5t-86.5 42.5t-55.5 68.5t-19.5 91.5v18h134v-15q0 -49 37 -80.5t108 -31.5q63 0 100 26.5t37 75.5q0 29 -15.5 49.5t-50.5 29.5l-183 47q-80 20 -118 61t-38 120q0 49 18 88.5t51.5 66.5t81 41.5t106.5 14.5q58 0 105 -15.5t80 -43t50.5 -66
t17.5 -84.5v-17h-129v14q0 45 -29.5 74.5t-94.5 29.5q-56 0 -89 -22.5t-33 -68.5q0 -59 60 -74l192 -51q153 -40 153 -183q0 -50 -21 -90.5t-58 -69.5t-88 -45t-110 -16zM256 -73h154l-70 -177h-115z" />
    <glyph glyph-name="scommaaccent" unicode="&#x219;" horiz-adv-x="531" 
d="M269 -12q-50 0 -91 10.5t-70.5 31t-46 51.5t-16.5 73v9h120v-7q0 -34 28.5 -53t76.5 -19q43 0 71 16.5t28 46.5q0 37 -43 47l-154 35q-59 14 -89 45.5t-30 91.5q0 40 15.5 71t43.5 52t66.5 32t84.5 11q94 0 150 -44t56 -122v-8h-119v9q0 30 -20 49t-65 19q-85 0 -85 -57
q0 -20 10 -29.5t30 -14.5l158 -39q58 -14 87 -46t29 -87q0 -38 -17 -70t-47 -55t-71.5 -36t-89.5 -13zM198 -73h154l-70 -177h-115z" />
    <glyph glyph-name="circumflex" unicode="&#x2c6;" horiz-adv-x="510" 
d="M433 579h-124l-54 77l-54 -77h-124l112 154h132z" />
    <glyph glyph-name="caron" unicode="&#x2c7;" horiz-adv-x="510" 
d="M321 579h-132l-112 154h124l54 -77l54 77h124z" />
    <glyph glyph-name="breve" unicode="&#x2d8;" horiz-adv-x="508" 
d="M254 579q-39 0 -71.5 10.5t-56 30t-36.5 48t-13 65.5h100q0 -33 20 -53t57 -20t57 20t20 53h100q0 -37 -13 -65.5t-36.5 -48t-56 -30t-71.5 -10.5z" />
    <glyph glyph-name="dotaccent" unicode="&#x2d9;" horiz-adv-x="312" 
d="M77 658q0 34 22 56.5t57 22.5t57 -22.5t22 -56.5t-22 -56.5t-57 -22.5t-57 22.5t-22 56.5z" />
    <glyph glyph-name="ring" unicode="&#x2da;" horiz-adv-x="366" 
d="M183 629q21 0 33.5 12t12.5 31q0 20 -12.5 31t-33.5 11t-33.5 -11t-12.5 -31q0 -19 12.5 -31t33.5 -12zM183 579q-51 0 -78.5 27.5t-27.5 65.5t28.5 65t77.5 27q50 0 78 -27t28 -65t-27.5 -65.5t-78.5 -27.5z" />
    <glyph glyph-name="ogonek" unicode="&#x2db;" horiz-adv-x="337" 
d="M180 -186q-49 0 -76 23t-27 65q0 38 17.5 62t34.5 36h131q-8 -5 -18.5 -13t-20 -18t-16 -22.5t-6.5 -25.5q0 -28 34 -28q14 0 25 3v-72q-14 -4 -34.5 -7t-43.5 -3z" />
    <glyph glyph-name="tilde" unicode="&#x2dc;" horiz-adv-x="553" 
d="M77 598q4 28 11.5 51.5t20.5 40.5t33 27t49 10q19 0 42 -6.5t45 -15t41 -15t31 -6.5q21 0 28.5 15t13.5 32l84 -26q-7 -24 -15 -46.5t-20.5 -39.5t-31 -27t-45.5 -10q-18 0 -39 6.5t-43 15t-42.5 15t-36.5 6.5q-20 0 -27 -13.5t-14 -34.5z" />
    <glyph glyph-name="hungarumlaut" unicode="&#x2dd;" horiz-adv-x="552" 
d="M127 733h147l-73 -154h-124zM328 733h147l-73 -154h-124z" />
    <glyph glyph-name="uni0312" unicode="&#x312;" horiz-adv-x="363" 
d="M151 733h134l-40 -154h-168z" />
    <glyph glyph-name="uni0315" unicode="&#x315;" horiz-adv-x="342" 
d="M117 730h148l-78 -223h-110z" />
    <glyph glyph-name="uni0326" unicode="&#x326;" horiz-adv-x="340" 
d="M108 -73h154l-70 -177h-115z" />
    <glyph glyph-name="Omega" unicode="&#x3a9;" horiz-adv-x="742" 
d="M677 0h-228v111q19 21 36.5 48t30.5 58.5t20.5 66.5t7.5 71v35q0 47 -10 85.5t-31 65.5t-53.5 42t-78.5 15t-78.5 -15t-53.5 -42t-31 -65.5t-10 -85.5v-35q0 -36 7.5 -71t20.5 -66.5t30.5 -58.5t36.5 -48v-111h-228v111h88q-42 51 -67.5 114t-25.5 135v38q0 68 20 126
t59 100t97 66t135 24t135 -24t97 -66t59 -100t20 -126v-38q0 -72 -25.5 -135t-67.5 -114h88v-111z" />
    <glyph glyph-name="pi" unicode="&#x3c0;" horiz-adv-x="728" 
d="M142 412h-100v108h644v-108h-120v-247q0 -27 12.5 -40.5t43.5 -13.5h58v-111h-94q-80 0 -118 41t-38 114v257h-152v-412h-136v412z" />
    <glyph glyph-name="Wgrave" unicode="&#x1e80;" horiz-adv-x="966" 
d="M697 194l101 506h138l-165 -700h-135l-153 539l-153 -539h-135l-165 700h138l101 -506l146 506h136zM312 894h167l69 -141h-138z" />
    <glyph glyph-name="wgrave" unicode="&#x1e81;" horiz-adv-x="788" 
d="M635 0h-127l-114 358l-114 -358h-127l-135 520h132l76 -349l106 349h124l106 -349l76 349h132zM215 733h168l73 -154h-137z" />
    <glyph glyph-name="Wacute" unicode="&#x1e82;" horiz-adv-x="966" 
d="M697 194l101 506h138l-165 -700h-135l-153 539l-153 -539h-135l-165 700h138l101 -506l146 506h136zM491 894h167l-98 -141h-138z" />
    <glyph glyph-name="wacute" unicode="&#x1e83;" horiz-adv-x="788" 
d="M635 0h-127l-114 358l-114 -358h-127l-135 520h132l76 -349l106 349h124l106 -349l76 349h132zM410 733h168l-106 -154h-135z" />
    <glyph glyph-name="Wdieresis" unicode="&#x1e84;" horiz-adv-x="966" 
d="M697 194l101 506h138l-165 -700h-135l-153 539l-153 -539h-135l-165 700h138l101 -506l146 506h136zM298 826q0 32 20.5 52.5t52.5 20.5t52.5 -20.5t20.5 -52.5t-20.5 -52.5t-52.5 -20.5t-52.5 20.5t-20.5 52.5zM522 826q0 32 20.5 52.5t52.5 20.5t52.5 -20.5t20.5 -52.5
t-20.5 -52.5t-52.5 -20.5t-52.5 20.5t-20.5 52.5z" />
    <glyph glyph-name="wdieresis" unicode="&#x1e85;" horiz-adv-x="788" 
d="M635 0h-127l-114 358l-114 -358h-127l-135 520h132l76 -349l106 349h124l106 -349l76 349h132zM216 655q0 32 20.5 52.5t52.5 20.5t52.5 -20.5t20.5 -52.5t-20.5 -52.5t-52.5 -20.5t-52.5 20.5t-20.5 52.5zM426 655q0 32 20.5 52.5t52.5 20.5t52.5 -20.5t20.5 -52.5
t-20.5 -52.5t-52.5 -20.5t-52.5 20.5t-20.5 52.5z" />
    <glyph glyph-name="Ygrave" unicode="&#x1ef2;" horiz-adv-x="636" 
d="M388 0h-140v252l-240 448h152l158 -312l158 312h152l-240 -448v-252zM154 894h167l69 -141h-138z" />
    <glyph glyph-name="ygrave" unicode="&#x1ef3;" horiz-adv-x="511" 
d="M139 -174l52 176l-180 518h136l112 -373l106 373h135l-227 -694h-134zM91 733h168l73 -154h-137z" />
    <glyph glyph-name="endash" unicode="&#x2013;" horiz-adv-x="614" 
d="M55 381h504v-122h-504v122z" />
    <glyph glyph-name="emdash" unicode="&#x2014;" horiz-adv-x="913" 
d="M55 381h803v-122h-803v122z" />
    <glyph glyph-name="quoteleft" unicode="&#x2018;" horiz-adv-x="237" 
d="M160 435h-150l90 265h111z" />
    <glyph glyph-name="quoteright" unicode="&#x2019;" horiz-adv-x="237" 
d="M77 700h150l-90 -265h-111z" />
    <glyph glyph-name="quotesinglbase" unicode="&#x201a;" horiz-adv-x="256" 
d="M66 136h150l-90 -265h-111z" />
    <glyph glyph-name="quotedblleft" unicode="&#x201c;" horiz-adv-x="467" 
d="M390 435h-150l90 265h111zM160 435h-150l90 265h111z" />
    <glyph glyph-name="quotedblright" unicode="&#x201d;" horiz-adv-x="467" 
d="M77 700h150l-90 -265h-111zM307 700h150l-90 -265h-111z" />
    <glyph glyph-name="quotedblbase" unicode="&#x201e;" horiz-adv-x="486" 
d="M66 136h150l-90 -265h-111zM296 136h150l-90 -265h-111z" />
    <glyph glyph-name="dagger" unicode="&#x2020;" horiz-adv-x="484" 
d="M187 440h-131v93h131v167h110v-167h131v-93h-131v-540h-110v540z" />
    <glyph glyph-name="daggerdbl" unicode="&#x2021;" horiz-adv-x="494" 
d="M192 440h-131v93h131v167h110v-167h131v-93h-131v-280h131v-93h-131v-167h-110v167h-131v93h131v280z" />
    <glyph glyph-name="bullet" unicode="&#x2022;" horiz-adv-x="414" 
d="M207 222q-32 0 -57 10.5t-43 28.5t-27.5 42.5t-9.5 52.5t9.5 52.5t27.5 42.5t43 28.5t57 10.5q64 0 100.5 -38.5t36.5 -95.5q0 -28 -9.5 -52.5t-27 -42.5t-43 -28.5t-57.5 -10.5z" />
    <glyph glyph-name="ellipsis" unicode="&#x2026;" horiz-adv-x="768" 
d="M562 70q0 35 21.5 56.5t56.5 21.5t56.5 -21.5t21.5 -56.5t-21.5 -56.5t-56.5 -21.5t-56.5 21.5t-21.5 56.5zM306 70q0 35 21.5 56.5t56.5 21.5t56.5 -21.5t21.5 -56.5t-21.5 -56.5t-56.5 -21.5t-56.5 21.5t-21.5 56.5zM50 70q0 35 21.5 56.5t56.5 21.5t56.5 -21.5
t21.5 -56.5t-21.5 -56.5t-56.5 -21.5t-56.5 21.5t-21.5 56.5z" />
    <glyph glyph-name="perthousand" unicode="&#x2030;" horiz-adv-x="1277" 
d="M574 700h101l-360 -700h-101zM373 472q0 -70 -43.5 -113.5t-120.5 -43.5t-120.5 43.5t-43.5 113.5v81q0 70 43.5 113.5t120.5 43.5t120.5 -43.5t43.5 -113.5v-81zM277 561q0 31 -17.5 49.5t-50.5 18.5t-50.5 -18.5t-17.5 -49.5v-97q0 -31 17.5 -49.5t50.5 -18.5
t50.5 18.5t17.5 49.5v97zM844 147q0 -70 -43.5 -113.5t-120.5 -43.5t-120.5 43.5t-43.5 113.5v81q0 70 43.5 113.5t120.5 43.5t120.5 -43.5t43.5 -113.5v-81zM748 236q0 31 -17.5 49.5t-50.5 18.5t-50.5 -18.5t-17.5 -49.5v-97q0 -31 17.5 -49.5t50.5 -18.5t50.5 18.5
t17.5 49.5v97zM1237 147q0 -70 -43.5 -113.5t-120.5 -43.5t-120.5 43.5t-43.5 113.5v81q0 70 43.5 113.5t120.5 43.5t120.5 -43.5t43.5 -113.5v-81zM1141 236q0 31 -17.5 49.5t-50.5 18.5t-50.5 -18.5t-17.5 -49.5v-97q0 -31 17.5 -49.5t50.5 -18.5t50.5 18.5t17.5 49.5v97z
" />
    <glyph glyph-name="guilsinglleft" unicode="&#x2039;" horiz-adv-x="356" 
d="M10 276l163 216h153l-162 -216l162 -216h-153z" />
    <glyph glyph-name="guilsinglright" unicode="&#x203a;" horiz-adv-x="356" 
d="M183 60h-153l162 216l-162 216h153l163 -216z" />
    <glyph glyph-name="fraction" unicode="&#x2044;" horiz-adv-x="401" 
d="M330 700h101l-360 -700h-101z" />
    <glyph glyph-name="Euro" unicode="&#x20ac;" horiz-adv-x="671" 
d="M45 481h73q1 48 18.5 90.5t49.5 74t79 50t108 18.5q57 0 102 -18t77 -49t49.5 -72.5t19.5 -87.5h-123q-2 51 -34 84.5t-89 33.5q-62 0 -92 -33.5t-30 -87.5v-3h150v-93h-150v-76h150v-93h-150v-3q0 -54 30 -87.5t92 -33.5q57 0 89 33.5t34 84.5h123q-2 -47 -19.5 -88
t-49.5 -72t-77 -49t-102 -18q-61 0 -108 18.5t-79 50t-49.5 74t-18.5 90.5h-73v93h73v76h-73v93z" />
    <glyph glyph-name="published" unicode="&#x2117;" horiz-adv-x="826" 
d="M413 24q75 0 134.5 26.5t101 71.5t64 104t22.5 124q0 64 -22.5 123t-64 104t-101 72t-134.5 27q-74 0 -133.5 -27t-101.5 -72t-64.5 -104t-22.5 -123q0 -65 22.5 -124t64.5 -104t101.5 -71.5t133.5 -26.5zM413 -12q-81 0 -148 28.5t-115 78t-74 115t-26 140.5t26 140.5
t74 115t115 78t148 28.5q82 0 149 -28.5t114.5 -78t73.5 -115t26 -140.5t-26 -140.5t-73.5 -115t-114.5 -78t-149 -28.5zM295 526h150q60 0 96 -33.5t36 -87.5q0 -55 -36 -89.5t-96 -34.5h-74v-109h-76v354zM436 345q32 0 48.5 17.5t16.5 42.5t-16.5 41t-48.5 16h-65v-117
h65z" />
    <glyph glyph-name="trademark" unicode="&#x2122;" horiz-adv-x="654" 
d="M118 646h-88v54h238v-54h-88v-242h-62v242zM602 404h-60v174l-52 -106h-60l-52 106v-174h-60v296h57l85 -174l85 174h57v-296z" />
    <glyph glyph-name="arrowleft" unicode="&#x2190;" horiz-adv-x="1074" 
d="M57 350l350 350h164l-350 -350l350 -350h-164zM427 407h560v-114h-560v114z" />
    <glyph glyph-name="arrowup" unicode="&#x2191;" horiz-adv-x="875" 
d="M87 364l350 350l350 -350v-164l-350 350l-350 -350v164zM374 341h126v-504h-126v504z" />
    <glyph glyph-name="arrowright" unicode="&#x2192;" horiz-adv-x="1074" 
d="M853 350l-350 350h164l350 -350l-350 -350h-164zM87 407h560v-114h-560v114z" />
    <glyph glyph-name="arrowdown" unicode="&#x2193;" horiz-adv-x="875" 
d="M87 175v164l350 -350l350 350v-164l-350 -350zM374 700h126v-502h-126v502z" />
    <glyph glyph-name="uni2196" unicode="&#x2196;" horiz-adv-x="887" 
d="M117 205v495h503l116 -116h-495v-495zM345 392l88 89l367 -368l-88 -88z" />
    <glyph glyph-name="uni2197" unicode="&#x2197;" horiz-adv-x="887" 
d="M646 584h-495l116 116h503v-495l-124 -116v495zM87 113l367 368l88 -89l-367 -367z" />
    <glyph glyph-name="uni2198" unicode="&#x2198;" horiz-adv-x="887" 
d="M151 116h495v495l124 -116v-495h-503zM87 587l88 88l367 -367l-88 -89z" />
    <glyph glyph-name="uni2199" unicode="&#x2199;" horiz-adv-x="887" 
d="M117 495l124 116v-495h495l-116 -116h-503v495zM345 308l367 367l88 -88l-367 -368z" />
    <glyph glyph-name="partialdiff" unicode="&#x2202;" horiz-adv-x="596" 
d="M292 -14q-58 0 -103.5 17.5t-77.5 48.5t-49 73t-17 91v32q0 51 15.5 92t43.5 70.5t68 45t88 15.5q50 0 89 -16.5t59 -41.5q-24 84 -92 129t-186 45h-20v113h27q102 0 178.5 -28.5t127.5 -82.5t77 -131t26 -174v-44q0 -54 -18 -100.5t-51.5 -80.5t-80.5 -53.5t-104 -19.5z
M294 95q54 0 86 32.5t32 83.5v40q0 55 -32.5 85.5t-83.5 30.5q-58 0 -87.5 -32.5t-29.5 -84.5v-38q0 -52 30.5 -84.5t84.5 -32.5z" />
    <glyph glyph-name="Delta" unicode="&#x2206;" horiz-adv-x="688" 
d="M50 108l232 592h124l232 -592v-108h-588v108zM498 116l-154 439l-155 -439h309z" />
    <glyph glyph-name="product" unicode="&#x220f;" horiz-adv-x="827" 
d="M172 589h-130v111h743v-111h-130v-763h-134v763h-215v-763h-134v763z" />
    <glyph glyph-name="summation" unicode="&#x2211;" horiz-adv-x="605" 
d="M62 -63l212 326l-212 326v111h491v-111h-340l207 -326l-207 -326h340v-111h-491v111z" />
    <glyph glyph-name="minus" unicode="&#x2212;" horiz-adv-x="589" 
d="M65 417h459v-114h-459v114z" />
    <glyph glyph-name="radical" unicode="&#x221a;" horiz-adv-x="737" 
d="M183 238h-128v117h213l112 -327l174 722h128l-220 -850h-156z" />
    <glyph glyph-name="infinity" unicode="&#x221e;" horiz-adv-x="910" 
d="M661 165q-35 0 -66.5 8.5t-58 22.5t-47.5 32.5t-34 38.5q-14 -20 -34.5 -38.5t-47 -32.5t-58 -22.5t-66.5 -8.5q-43 0 -79 13.5t-61.5 38.5t-39.5 61.5t-14 81.5t14 81.5t39.5 61.5t61.5 38.5t79 13.5q35 0 66.5 -8.5t58 -22.5t47 -32.5t34.5 -38.5q13 20 34 38.5
t47.5 32.5t58 22.5t66.5 8.5q43 0 79 -13.5t61.5 -38.5t39.5 -61.5t14 -81.5t-14 -81.5t-39.5 -61.5t-61.5 -38.5t-79 -13.5zM268 449q-42 0 -67.5 -23.5t-25.5 -65.5t25.5 -65.5t67.5 -23.5q25 0 45.5 8t36 20.5t27.5 28.5t21 32q-9 16 -21 31.5t-27.5 28.5t-36 21t-45.5 8
zM642 449q-26 0 -46 -8t-35.5 -21t-27.5 -28.5t-21 -31.5q9 -16 21 -32t27.5 -28.5t35.5 -20.5t46 -8q42 0 67.5 23.5t25.5 65.5t-25.5 65.5t-67.5 23.5z" />
    <glyph glyph-name="integral" unicode="&#x222b;" horiz-adv-x="435" 
d="M42 -62h42q32 0 45.5 12t13.5 44v544q0 85 41 123.5t122 38.5h77v-112h-46q-32 0 -45.5 -13.5t-13.5 -42.5v-544q0 -83 -40.5 -122.5t-121.5 -39.5h-74v112z" />
    <glyph glyph-name="approxequal" unicode="&#x2248;" horiz-adv-x="642" 
d="M440 164q-35 0 -63 11t-60 25q-29 13 -50 23t-44 10q-29 0 -50.5 -18t-38.5 -36l-74 67q29 42 66.5 68t100.5 26q35 0 62.5 -11t59.5 -27q27 -14 46 -22.5t43 -8.5q27 0 46 10.5t37 29.5l66 -73q-27 -33 -63 -53.5t-84 -20.5zM440 382q-35 0 -63 11t-60 25q-29 13 -50 23
t-44 10q-29 0 -50.5 -18t-38.5 -36l-74 67q29 42 66.5 68t100.5 26q35 0 62.5 -11t59.5 -27q27 -14 46 -22.5t43 -8.5q27 0 46 10.5t37 29.5l66 -73q-27 -33 -63 -53.5t-84 -20.5z" />
    <glyph glyph-name="notequal" unicode="&#x2260;" horiz-adv-x="628" 
d="M85 539h254l50 106h120l-50 -106h84v-110h-136l-65 -138h201v-110h-253l-50 -106h-120l50 106h-85v110h137l65 138h-202v110z" />
    <glyph glyph-name="lessequal" unicode="&#x2264;" horiz-adv-x="597" 
d="M60 115h462v-115h-462v115zM522 602v-120l-295 -96l295 -96v-120l-462 161v110z" />
    <glyph glyph-name="greaterequal" unicode="&#x2265;" horiz-adv-x="597" 
d="M537 0h-462v115h462v-115zM537 441v-110l-462 -161v120l295 96l-295 96v120z" />
    <glyph glyph-name="lozenge" unicode="&#x25ca;" horiz-adv-x="642" 
d="M383 0h-124l-224 350l224 350h124l224 -350zM462 350l-141 232l-141 -232l141 -232z" />
    <glyph glyph-name="acute.case" unicode="&#xe160;" horiz-adv-x="390" 
d="M146 894h167l-98 -141h-138z" />
    <glyph glyph-name="breve.case" unicode="&#xe161;" horiz-adv-x="514" 
d="M257 753q-38 0 -70.5 9t-57 27t-38.5 44.5t-14 60.5h106q0 -27 19.5 -44t54.5 -17t54.5 17t19.5 44h106q0 -34 -14 -60.5t-38.5 -44.5t-57.5 -27t-70 -9z" />
    <glyph glyph-name="caron.case" unicode="&#xe162;" horiz-adv-x="524" 
d="M329 753h-134l-118 141h131l54 -67l54 67h131z" />
    <glyph glyph-name="circumflex.case" unicode="&#xe163;" horiz-adv-x="524" 
d="M447 753h-131l-54 67l-54 -67h-131l118 141h134z" />
    <glyph glyph-name="dieresis.case" unicode="&#xe164;" horiz-adv-x="524" 
d="M77 826q0 32 20.5 52.5t52.5 20.5t52.5 -20.5t20.5 -52.5t-20.5 -52.5t-52.5 -20.5t-52.5 20.5t-20.5 52.5zM301 826q0 32 20.5 52.5t52.5 20.5t52.5 -20.5t20.5 -52.5t-20.5 -52.5t-52.5 -20.5t-52.5 20.5t-20.5 52.5z" />
    <glyph glyph-name="dotaccent.case" unicode="&#xe165;" horiz-adv-x="312" 
d="M77 832q0 34 22 56.5t57 22.5t57 -22.5t22 -56.5t-22 -56.5t-57 -22.5t-57 22.5t-22 56.5z" />
    <glyph glyph-name="grave.case" unicode="&#xe166;" horiz-adv-x="390" 
d="M77 894h167l69 -141h-138z" />
    <glyph glyph-name="hungarumlaut.case" unicode="&#xe167;" horiz-adv-x="558" 
d="M124 894h144l-64 -141h-123zM333 894h144l-64 -141h-123z" />
    <glyph glyph-name="macron.case" unicode="&#xe168;" horiz-adv-x="530" 
d="M77 881h376v-109h-376v109z" />
    <glyph glyph-name="ring.case" unicode="&#xe169;" horiz-adv-x="366" 
d="M183 803q21 0 33.5 12t12.5 31q0 20 -12.5 31t-33.5 11t-33.5 -11t-12.5 -31q0 -19 12.5 -31t33.5 -12zM183 753q-51 0 -78.5 27.5t-27.5 65.5t28.5 65t77.5 27q50 0 78 -27t28 -65t-27.5 -65.5t-78.5 -27.5z" />
    <glyph glyph-name="tilde.case" unicode="&#xe16a;" horiz-adv-x="590" 
d="M77 769q6 31 14 55.5t21.5 41t34 25t50.5 8.5q24 0 51.5 -6.5t53 -14.5t47 -14.5t32.5 -6.5q22 0 29.5 15t13.5 32l89 -25q-9 -29 -17.5 -52.5t-21.5 -39.5t-32 -24.5t-47 -8.5q-18 0 -42.5 6.5t-50.5 14.5t-50 14.5t-42 6.5q-20 0 -29 -13t-14 -34z" />
    <glyph glyph-name="J.salt" unicode="&#xe56b;" horiz-adv-x="612" 
d="M287 -14q-57 0 -103 15.5t-78 44t-49 69t-17 90.5v10h133v-9q0 -48 29.5 -76t84.5 -28q56 0 83.5 28.5t27.5 75.5v378h-297v116h437v-494q0 -49 -18.5 -89.5t-51.5 -69.5t-79 -45t-102 -16z" />
    <glyph glyph-name="IJ.salt" unicode="&#xe56c;" horiz-adv-x="916" 
d="M82 700h140v-700h-140v700zM591 -14q-57 0 -103 15.5t-78 44t-49 69t-17 90.5v10h133v-9q0 -48 29.5 -76t84.5 -28q56 0 83.5 28.5t27.5 75.5v378h-297v116h437v-494q0 -49 -18.5 -89.5t-51.5 -69.5t-79 -45t-102 -16z" />
    <glyph glyph-name="Jcircumflex.salt" unicode="&#xe57b;" horiz-adv-x="612" 
d="M520 753h-131l-54 67l-54 -67h-131l118 141h134zM287 -14q-57 0 -103 15.5t-78 44t-49 69t-17 90.5v10h133v-9q0 -48 29.5 -76t84.5 -28q56 0 83.5 28.5t27.5 75.5v378h-297v116h437v-494q0 -49 -18.5 -89.5t-51.5 -69.5t-79 -45t-102 -16z" />
    <glyph glyph-name="ornm17.ornm" unicode="&#xe610;" horiz-adv-x="746" 
d="M115 0q0 57 0.5 117t5.5 116q-13 7 -21.5 16t-13.5 25q6 8 15 12t11 16q3 12 2 23t-4.5 22t-7.5 22t-6 24q-3 28 0 59.5t-2 63.5q-2 20 -11.5 39t-11.5 36q-1 16 1 31t3 29t-0.5 26.5t-9.5 22.5q46 2 90.5 -1t84.5 -1q5 8 3.5 20t-1.5 24h21q7 -6 10.5 -16t6 -21.5
t3.5 -22.5t3 -18q9 -5 20 -7.5t22.5 -5t21.5 -6.5t17 -10q18 16 44.5 14t46.5 -10q-5 -8 -3.5 -10t13.5 -2q0 -7 2 -13t4 -10q3 1 4.5 4t3.5 6t5 5t10 -1q11 -11 25 -18.5t24 -18.5q20 0 30 10t26 15q3 -12 13.5 -13.5t23.5 -1t25 -0.5t19 -10q7 0 19.5 2t18.5 -2
q-10 -11 -21.5 -17.5t-24.5 -11t-25.5 -9.5t-23.5 -12q-23 -14 -35 -33t-29 -37q-20 -19 -41.5 -33t-32.5 -35q0 -17 3.5 -32.5t1.5 -34.5q-7 -7 -15.5 -12t-16 -11t-12.5 -13.5t-6 -19.5q6 -7 12 -12.5t8 -13.5q-7 -9 -8.5 -19t-1.5 -21t0.5 -22t-2.5 -23q26 -20 55 -38
t46 -46q6 7 13.5 7.5t14 -3.5t11.5 -10t7 -11q-3 -14 -3.5 -28.5t1.5 -29.5h-481z" />
    <glyph glyph-name="ornm18.ornm" unicode="&#xe611;" horiz-adv-x="895" 
d="M127 -2q-6 0 -10 3.5t-9 10.5q-1 1 -1 7v14q0 8 0.5 16t0.5 14q0 8 1 15t1 18q0 14 0.5 23t1.5 15q-28 -20 -58 -23q-7 -1 -8.5 4.5t3.5 8.5q18 5 35.5 14t30.5 20l16 15q10 14 16.5 26.5t11.5 25.5q5 14 9.5 26.5t6.5 23.5q-1 15 -1 26v18q0 8 -1 14q-1 9 -2 19t-1 22
q0 33 13 55.5t31 37t37 22.5t30 13q27 9 60 16t78 7q13 0 32.5 -1t36.5 -3q13 -2 24 -3t19 -1q10 -1 17 0h6q3 0 6.5 0.5t8.5 1.5q9 2 16.5 12t13 22.5t9 24t5.5 16.5q5 18 14.5 33.5t26.5 34.5q1 2 1.5 7t1 11t1.5 11.5t3 8.5q5 1 15.5 0.5t12.5 -2.5q2 0 11 -1.5t17 -3.5
q5 0 8.5 -0.5t5.5 -2.5q3 -2 4.5 -5t5.5 -6q7 -2 12 -6q1 -2 5.5 -7t7.5 -8q2 -2 5 -7.5t3 -8.5q0 -4 9.5 -10.5t15.5 -10.5q9 -7 17 -11.5t19 -11.5q17 -8 14 -18q-2 -4 -8 -7t-13.5 -5.5t-14.5 -4t-11 -1.5q-2 0 -11 1t-13 2q-12 3 -30.5 4t-24.5 -3q-3 -1 -8.5 -13
t-6.5 -17q0 -4 -1 -11t-2 -14.5t-2 -14.5t-2 -10q-8 -29 -15.5 -53t-9.5 -35q-2 -12 -4 -27.5t-7 -30.5q-8 -13 -12.5 -21t-6.5 -13q-3 -4 -6.5 -21.5t-7 -38.5t-6 -40.5t-3.5 -27.5q-2 -22 -3 -51.5t0 -57.5q0 -4 2.5 -9.5t6.5 -10.5t9 -8.5t9 -2.5q5 0 7.5 -1t4.5 -2
q2 -2 4 -3q2 -2 1.5 -8.5t-3.5 -8.5l-4 -2l-20 1l4 -4q3 -3 2 -6q-1 -1 -1.5 -2t-2.5 -2h-42q-5 2 -7.5 7t-4.5 8q0 1 -1.5 6t-3 11.5t-2.5 13t-2 9.5q-2 6 -5.5 7t-4.5 5q0 6 1.5 13t1.5 24q0 3 -2.5 4.5t-5.5 7.5q-1 3 -1 16v29v32q0 15 -1 24q0 3 -0.5 9.5t-1.5 14.5
t-2 16.5t-1 14.5q-2 11 0.5 15t2.5 9q-2 7 -11.5 5.5t-18.5 -1.5q-14 0 -41.5 7.5t-53.5 26.5q-12 9 -21.5 19.5t-18 20t-17 16t-17.5 6.5q-11 0 -22.5 -4.5t-18.5 -12.5q-8 -7 -11 -17t-5 -18q-1 -4 -1 -21q-2 -16 -5 -29t-5 -19q-2 -7 -6.5 -21t-7.5 -22q-5 -12 -14 -24
q-5 -7 -11 -14q-8 -10 -16 -17.5t-9 -12.5q-3 -4 -4.5 -8.5t-3.5 -9.5t-2 -11v-28q0 -11 -0.5 -21t0.5 -13q0 -8 1.5 -11t1.5 -5q5 -2 7 -4.5t7 -5.5q3 -1 7.5 -1.5t5.5 -4.5t0 -8.5t-4 -5.5h-26q-7 2 -14 7l-10 9q-1 1 -2 10.5t-2 21t-2 21.5t-1 12v6q-1 5 -1.5 13t-0.5 17
t1 17q0 9 -3 9q-2 0 -5 -5q-5 -7 -9 -12l-8 -10q-1 -2 -4.5 -12t-6.5 -22l-7 -24q-4 -12 -4 -16q-1 -3 -0.5 -9.5t0.5 -13.5v-18l8 -8q2 0 4 -2q4 -4 4 -8q0 -5 -3 -8l-4 -4h-19z" />
    <glyph glyph-name="apple" unicode="&#xf8ff;" horiz-adv-x="820" 
d="M265 -12q-37 0 -69 13.5t-55.5 37t-37 55.5t-13.5 69v362q0 37 13.5 69t37 55.5t55.5 37t69 13.5h350q37 0 69 -13.5t55.5 -36.5t37 -55t13.5 -69t-13.5 -69t-37 -55t-55.5 -36.5t-69 -13.5h-175v-189q0 -37 -13.5 -69t-37 -55.5t-55.5 -37t-69 -13.5z" />
    <glyph glyph-name="fi" unicode="&#xfb01;" horiz-adv-x="639" 
d="M433 520h136v-520h-136v520zM422 656q0 34 22 56.5t57 22.5t57 -22.5t22 -56.5t-22 -56.5t-57 -22.5t-57 22.5t-22 56.5zM97 410h-66v110h66v48q0 86 40 124t121 38h90v-108h-59q-29 0 -42.5 -11t-13.5 -42v-49h105v-110h-105v-410h-136v410z" />
    <glyph glyph-name="fl" unicode="&#xfb02;" horiz-adv-x="639" 
d="M433 730h136v-730h-136v730zM97 410h-66v110h66v48q0 86 40 124t121 38h90v-108h-59q-29 0 -42.5 -11t-13.5 -42v-49h105v-110h-105v-410h-136v410z" />
    </font>
</defs>
</svg>
