<?xml version="1.0" standalone="no"?>
<!DOCTYPE svg PUBLIC "-//W3C//DTD SVG 1.1//EN" "http://www.w3.org/Graphics/SVG/1.1/DTD/svg11.dtd" >
<svg>
<metadata>
Created by FontForge 20110222 at Mon Jun 16 15:27:21 2014
 By Orthosie Webhosting
Copyright (c) 2012 by Process Type Foundry, LLC. All rights reserved.
</metadata>
<defs>
<font id="ColfaxWebMediumItalic" horiz-adv-x="584" >
  <font-face 
    font-family="ColfaxWebMediumItalic"
    font-weight="500"
    font-style="italic"
    font-stretch="normal"
    units-per-em="1000"
    panose-1="2 11 3 4 0 0 0 1 0 2"
    ascent="750"
    descent="-250"
    x-height="520"
    cap-height="700"
    bbox="-77 -250 1233 965"
    underline-thickness="72"
    underline-position="-28"
    unicode-range="U+0020-FB02"
  />
<missing-glyph horiz-adv-x="686" 
d="M233 264l87 86l-87 88l43 43l87 -87l89 87l43 -43l-88 -88l88 -86l-44 -44l-88 87l-86 -87zM599 16v668h-472v-668h472zM110 700h506v-700h-506v700z" />
    <glyph glyph-name=".notdef" horiz-adv-x="686" 
d="M233 264l87 86l-87 88l43 43l87 -87l89 87l43 -43l-88 -88l88 -86l-44 -44l-88 87l-86 -87zM599 16v668h-472v-668h472zM110 700h506v-700h-506v700z" />
    <glyph glyph-name=".null" horiz-adv-x="0" 
 />
    <glyph glyph-name="nonmarkingreturn" horiz-adv-x="220" 
 />
    <glyph glyph-name="space" unicode=" " horiz-adv-x="220" 
 />
    <glyph glyph-name="exclam" unicode="!" horiz-adv-x="293" 
d="M108 437l46 263h142l-48 -274l-72 -224h-78zM39 64q0 36 22.5 60t61.5 24q30 0 50.5 -20t20.5 -51q0 -35 -23 -60t-62 -25q-31 0 -50.5 21t-19.5 51z" />
    <glyph glyph-name="quotedbl" unicode="&#x22;" horiz-adv-x="477" 
d="M145 700h117l-49 -280h-118zM360 700h117l-49 -280h-118z" />
    <glyph glyph-name="numbersign" unicode="#" horiz-adv-x="674" 
d="M388 191h-150l-54 -191h-104l54 191h-100l16 92h111l41 143h-107l17 92h116l52 182h104l-52 -182h150l52 182h104l-52 -182h95l-17 -92h-104l-41 -143h101l-17 -92h-111l-54 -191h-104zM265 283h150l41 143h-150z" />
    <glyph glyph-name="dollar" unicode="$" horiz-adv-x="588" 
d="M190 9q-69 17 -109 59.5t-40 103.5q0 9 1 17t3 20l3 15h130l-3 -14q-3 -15 -3 -22q0 -38 28 -59t83 -21q22 0 43.5 6t38 18.5t26.5 31t10 43.5q0 54 -61 77l-114 43q-59 23 -92 61t-33 94q0 45 15 82t42 64t64.5 44.5t83.5 23.5l20 114h133l-21 -121q58 -17 97 -57.5
t39 -99.5q0 -15 -3 -31l-3 -17h-129l3 15q1 5 1.5 9t0.5 9q0 36 -29.5 55.5t-71.5 19.5q-21 0 -40 -5t-33.5 -15.5t-23 -27.5t-8.5 -40t13.5 -38t41.5 -26l117 -46q60 -23 93.5 -62.5t33.5 -100.5q0 -48 -15.5 -87t-44 -68.5t-68 -48t-87.5 -24.5l-20 -113h-133z" />
    <glyph glyph-name="percent" unicode="%" horiz-adv-x="881" 
d="M237 395q59 0 71 71l15 85q1 5 1.5 9.5t0.5 8.5q0 26 -16.5 43.5t-50.5 17.5q-32 0 -48 -18t-22 -51l-16 -90q-1 -5 -1 -9v-5q0 -29 18.5 -45.5t47.5 -16.5zM233 315q-33 0 -61.5 10.5t-49.5 29.5t-33 45t-12 58q0 14 3 29l14 81q13 73 55.5 107.5t116.5 34.5
q68 0 110.5 -38t42.5 -101q0 -6 -0.5 -15t-2.5 -17l-14 -79q-12 -69 -56 -107t-113 -38zM649 700h103l-483 -700h-103zM661 70q59 0 71 71l15 85q1 5 1.5 9.5t0.5 8.5q0 26 -16.5 43.5t-50.5 17.5q-32 0 -48 -18t-22 -51l-16 -90q-1 -5 -1 -9v-5q0 -29 18.5 -45.5
t47.5 -16.5zM657 -10q-33 0 -61.5 10.5t-49.5 29.5t-33 45t-12 58q0 14 3 29l14 81q13 73 55.5 107.5t116.5 34.5q68 0 110.5 -38t42.5 -101q0 -6 -0.5 -15t-2.5 -17l-14 -79q-12 -69 -56 -107t-113 -38z" />
    <glyph glyph-name="ampersand" unicode="&#x26;" horiz-adv-x="686" 
d="M544 -14l-53 64q-38 -30 -87 -47t-111 -17q-60 0 -107.5 17.5t-79.5 46.5t-49 66.5t-17 78.5q0 43 12.5 77.5t34.5 60t51 43.5t62 30q-15 23 -27 53.5t-12 65.5q0 46 15.5 81t43 59t66.5 36.5t86 12.5q31 0 64.5 -8.5t61 -26.5t45 -45.5t17.5 -65.5q0 -6 -0.5 -11.5
t-1.5 -11.5l-7 -41h-114l6 35q1 5 1 8v6q0 30 -21 49t-54 19q-36 0 -63 -19t-27 -63q0 -23 10 -41.5t23 -34.5l182 -222q2 8 3.5 15t3.5 15l14 80h108l-15 -85q-11 -64 -38 -117l71 -85zM300 81q42 0 74 11.5t56 32.5l-174 212q-19 -12 -36 -25t-30 -29.5t-20.5 -37.5
t-7.5 -50q0 -50 37.5 -82t100.5 -32z" />
    <glyph glyph-name="quotesingle" unicode="'" horiz-adv-x="262" 
d="M145 700h117l-49 -280h-118z" />
    <glyph glyph-name="parenleft" unicode="(" horiz-adv-x="339" 
d="M112 -134q-50 170 -50 325q0 78 13.5 157.5t40.5 156t66.5 147t92.5 130.5h130q-47 -67 -85 -136.5t-64.5 -144t-41 -154t-14.5 -166.5q0 -72 10.5 -148t32.5 -167h-131z" />
    <glyph glyph-name="parenright" unicode=")" horiz-adv-x="339" 
d="M248 782q50 -170 50 -325q0 -78 -13.5 -157.5t-40.5 -156t-67 -147t-92 -130.5h-130q94 133 149.5 280.5t55.5 320.5q0 72 -10.5 148t-32.5 167h131z" />
    <glyph glyph-name="asterisk" unicode="*" horiz-adv-x="436" 
d="M86 462l121 64l-109 71l29 47l111 -72l23 128h57l-22 -127l118 63l22 -48l-122 -64l106 -68l-31 -46l-110 70l-22 -129h-57l21 124l-113 -60z" />
    <glyph glyph-name="plus" unicode="+" horiz-adv-x="599" 
d="M244 303h-168l20 114h168l33 185h127l-33 -185h166l-19 -114h-167l-32 -185h-127z" />
    <glyph glyph-name="comma" unicode="," horiz-adv-x="252" 
d="M45 136h148l-136 -265h-107z" />
    <glyph glyph-name="hyphen" unicode="-" horiz-adv-x="408" 
d="M74 380h299l-22 -122h-299z" />
    <glyph glyph-name="period" unicode="." horiz-adv-x="251" 
d="M13 64q0 36 22.5 60t61.5 24q30 0 50.5 -20t20.5 -51q0 -35 -23 -60t-62 -25q-31 0 -50.5 21t-19.5 51z" />
    <glyph glyph-name="slash" unicode="/" horiz-adv-x="465" 
d="M396 750h137l-433 -855h-137z" />
    <glyph glyph-name="zero" unicode="0" horiz-adv-x="639" 
d="M307 99q60 0 91 34t42 94l41 233q1 5 1.5 12.5t0.5 15.5q0 48 -29 80.5t-87 32.5q-60 0 -91.5 -32.5t-42.5 -92.5l-41 -233q-2 -9 -2.5 -15.5t-0.5 -14.5q0 -52 32 -83t86 -31zM303 -14q-53 0 -98.5 16.5t-79.5 46t-53.5 70.5t-19.5 91q0 22 4 45l40 227q19 112 85 172
t190 60q53 0 98.5 -16t79.5 -45t53 -70t19 -90q0 -12 -1 -22.5t-3 -21.5l-39 -223q-10 -55 -31.5 -99t-56 -75.5t-81 -48.5t-106.5 -17z" />
    <glyph glyph-name="one" unicode="1" horiz-adv-x="393" 
d="M226 557l-158 -54l22 125l184 72h115l-123 -700h-138z" />
    <glyph glyph-name="two" unicode="2" horiz-adv-x="604" 
d="M33 105l331 280q39 33 62.5 64.5t23.5 73.5q0 37 -26.5 57.5t-65.5 20.5q-51 0 -79 -27t-36 -76l-2 -13h-133l3 19q33 210 260 210q43 0 82 -13t69 -37t47.5 -58t17.5 -76q0 -40 -11.5 -72t-32.5 -61t-51.5 -57t-68.5 -58l-211 -169h302l-20 -113h-478z" />
    <glyph glyph-name="three" unicode="3" horiz-adv-x="609" 
d="M165 700h442l-20 -111l-201 -186q37 -5 68 -19t53.5 -36.5t35 -53t12.5 -67.5q0 -57 -22 -102t-60 -75.5t-89.5 -47t-109.5 -16.5q-47 0 -90.5 13.5t-76 41t-50.5 68.5t-13 96h126q-3 -52 27.5 -80.5t87.5 -28.5q27 0 51 7.5t42 22.5t28.5 36t10.5 48q0 45 -33.5 70.5
t-84.5 25.5h-85l18 106l183 177h-269z" />
    <glyph glyph-name="four" unicode="4" horiz-adv-x="614" 
d="M345 148h-317l18 100l294 452h126l-284 -448h181l26 149h127l-26 -149h88l-18 -104h-89l-26 -148h-126z" />
    <glyph glyph-name="five" unicode="5" horiz-adv-x="622" 
d="M291 -14q-45 0 -86 13t-74 38.5t-54.5 62.5t-26.5 86h131q9 -42 39 -65t78 -23q33 0 58.5 12t43 32t27 45.5t9.5 51.5q0 23 -7.5 44t-21.5 37t-36 25.5t-50 9.5q-41 0 -68.5 -17t-45.5 -44h-128l137 406h372l-19 -109h-262l-52 -157q22 17 50.5 24.5t65.5 7.5
q42 0 78.5 -15t64.5 -42.5t44 -66t16 -84.5q0 -59 -21 -108.5t-58.5 -86t-89.5 -57t-114 -20.5z" />
    <glyph glyph-name="six" unicode="6" horiz-adv-x="612" 
d="M521 700l-224 -255q13 9 34 14t42 5q41 0 77 -16t62.5 -44.5t42 -66.5t15.5 -83q0 -56 -20.5 -104.5t-58 -85t-90 -57.5t-116.5 -21q-49 0 -92.5 16.5t-76 46.5t-51.5 71.5t-19 91.5q0 39 7.5 70.5t21 59.5t32.5 53.5t42 51.5l224 253h148zM317 359q-31 0 -56.5 -11
t-43.5 -30.5t-28 -46t-10 -56.5q0 -56 33.5 -88t83.5 -32q32 0 57.5 12t43.5 32t27.5 46t9.5 55q0 50 -31.5 84.5t-85.5 34.5z" />
    <glyph glyph-name="seven" unicode="7" horiz-adv-x="550" 
d="M420 587h-310l20 113h454l-17 -98l-389 -602h-142z" />
    <glyph glyph-name="eight" unicode="8" horiz-adv-x="630" 
d="M289 -14q-44 0 -86.5 12t-75.5 36.5t-53.5 61t-20.5 85.5q0 75 41 126t109 70q-28 25 -46 53.5t-18 75.5q0 48 17.5 86.5t49.5 65.5t76.5 41.5t98.5 14.5q39 0 77 -11t68.5 -33.5t49 -56t18.5 -77.5q0 -59 -31 -106t-88 -74q17 -7 33.5 -19t30 -29.5t21.5 -39.5t8 -50
q0 -53 -21.5 -96t-59 -73t-88.5 -46.5t-110 -16.5zM298 90q58 0 97 33t39 89q0 42 -30.5 67.5t-78.5 25.5q-60 0 -100 -29.5t-40 -89.5q0 -42 30.5 -69t82.5 -27zM352 409q26 0 47 9.5t35.5 25t22 36t7.5 43.5q0 37 -24.5 62t-66.5 25q-51 0 -79.5 -30.5t-28.5 -81.5
q0 -36 23.5 -62.5t63.5 -26.5z" />
    <glyph glyph-name="nine" unicode="9" horiz-adv-x="612" 
d="M123 0l202 243q-8 -2 -24 -4.5t-32 -2.5q-40 0 -75.5 17.5t-62 46.5t-42 68t-15.5 82q0 59 19.5 107.5t56 83.5t88.5 54t116 19q51 0 95.5 -16.5t77.5 -46.5t52 -71.5t19 -91.5q0 -51 -16.5 -95.5t-44.5 -82.5q-11 -14 -22.5 -27.5t-22.5 -26.5l-222 -256h-147zM326 341
q31 0 56 11.5t43 31t27.5 46t9.5 55.5q0 25 -8.5 47t-23.5 38t-36 25.5t-47 9.5q-65 0 -101.5 -40.5t-36.5 -105.5q0 -51 31.5 -84.5t85.5 -33.5z" />
    <glyph glyph-name="colon" unicode=":" horiz-adv-x="251" 
d="M68 376q0 36 22.5 60t61.5 24q30 0 50.5 -20t20.5 -51q0 -35 -23 -60t-62 -25q-31 0 -50.5 21t-19.5 51zM13 64q0 36 22.5 60t61.5 24q30 0 50.5 -20t20.5 -51q0 -35 -23 -60t-62 -25q-31 0 -50.5 21t-19.5 51z" />
    <glyph glyph-name="semicolon" unicode=";" horiz-adv-x="252" 
d="M45 136h148l-136 -265h-107zM80 376q0 36 22.5 60t61.5 24q30 0 50.5 -20t20.5 -51q0 -35 -23 -60t-62 -25q-31 0 -50.5 21t-19.5 51z" />
    <glyph glyph-name="less" unicode="&#x3c;" horiz-adv-x="573" 
d="M59 317l14 86l499 209l-21 -121l-322 -135l276 -127l-21 -121z" />
    <glyph glyph-name="equal" unicode="=" horiz-adv-x="618" 
d="M87 290h458l-19 -107h-457zM131 537h458l-19 -107h-457z" />
    <glyph glyph-name="greater" unicode="&#x3e;" horiz-adv-x="573" 
d="M555 403l-14 -86l-499 -209l22 124l321 136l-275 126l21 118z" />
    <glyph glyph-name="question" unicode="?" horiz-adv-x="500" 
d="M172 255q11 62 34 97t58 59l50 35q13 9 26.5 18.5t25 20.5t19 24t7.5 30q0 30 -25.5 48t-63.5 18q-51 0 -74 -22t-31 -64l-3 -17h-125l3 18q17 104 77 149t171 45q45 0 83 -12.5t65.5 -35t43 -53t15.5 -65.5q0 -51 -24.5 -90.5t-75.5 -72.5l-63 -40q-15 -9 -26.5 -18.5
t-21 -21.5t-16 -28t-10.5 -39l-5 -28h-122zM132 64q0 36 22.5 60t61.5 24q30 0 50.5 -20t20.5 -51q0 -35 -23 -60t-62 -25q-31 0 -50.5 21t-19.5 51z" />
    <glyph glyph-name="at" unicode="@" horiz-adv-x="932" 
d="M681 494l-39 -222q-3 -15 -3 -28q0 -36 18.5 -55t48.5 -19t50 19t32.5 48t17.5 63t5 64q0 61 -21 111.5t-60 86.5t-95.5 56t-128.5 20q-82 0 -147 -27.5t-110 -77t-68.5 -117.5t-23.5 -149q0 -67 21 -123.5t62 -98t100.5 -64.5t137.5 -23q45 0 87 4.5t87 16.5l-10 -76
q-36 -11 -84.5 -17t-90.5 -6q-94 0 -168.5 30t-126 82.5t-78.5 123t-27 151.5q0 92 29.5 173.5t86 142t139 96t189.5 35.5q91 0 163 -26.5t122 -73t77 -109.5t27 -136q0 -52 -11.5 -101t-35.5 -87t-61.5 -61t-89.5 -23q-50 0 -88 21t-49 62q-6 -13 -18.5 -25.5t-29.5 -22.5
t-38.5 -16t-45.5 -6q-34 0 -62.5 12t-49 33t-32 50t-11.5 64q0 11 0.5 19.5t2.5 18.5l6 33q14 75 57 116.5t115 41.5q40 0 69 -16t44 -41l9 53h100zM383 300q-1 -5 -2 -12t-1 -15q0 -35 18.5 -57.5t53.5 -22.5q33 0 56.5 23t31.5 68l5 28q2 10 2 24q0 33 -19 56t-57 23
q-35 0 -55.5 -24t-27.5 -62z" />
    <glyph glyph-name="A" unicode="A" horiz-adv-x="688" 
d="M349 700h143l131 -700h-136l-22 148h-269l-71 -148h-147zM251 260h198l-46 314z" />
    <glyph glyph-name="B" unicode="B" horiz-adv-x="659" 
d="M155 700h309q39 0 69.5 -12.5t52.5 -34t33.5 -50.5t11.5 -61q0 -28 -7 -55.5t-21.5 -52t-37 -44t-53.5 -32.5q54 -12 83 -48.5t29 -87.5q0 -52 -21.5 -93.5t-58 -70t-86 -43.5t-105.5 -15h-321zM365 109q58 0 89.5 30t31.5 79q0 36 -23 59.5t-66 23.5h-176l-34 -192h178z
M386 410q27 0 47 8.5t33.5 23t20 33t6.5 39.5q0 32 -19.5 54.5t-58.5 22.5h-143l-32 -181h146z" />
    <glyph glyph-name="C" unicode="C" horiz-adv-x="699" 
d="M342 -14q-66 0 -119 20t-90 55.5t-57 85t-20 109.5q0 32 6 67l17 97q26 149 103 221.5t216 72.5q57 0 107.5 -17t88 -50t60 -82.5t24.5 -113.5h-130q-2 31 -13 58t-30.5 47t-47.5 31.5t-65 11.5q-77 0 -117 -44t-57 -137l-19 -106q-2 -14 -3.5 -27.5t-1.5 -26.5
q0 -73 39.5 -115t113.5 -42q37 0 66 13t49.5 34t33.5 47.5t19 53.5h130q-9 -57 -34 -105t-64.5 -83t-91.5 -55t-113 -20z" />
    <glyph glyph-name="D" unicode="D" horiz-adv-x="703" 
d="M319 114q79 0 126 34.5t61 112.5l28 159q4 20 4 42q0 60 -34.5 92t-103.5 32h-126l-84 -472h129zM155 700h288q51 0 94.5 -15.5t75 -44.5t49 -70.5t17.5 -93.5q0 -14 -1.5 -28t-3.5 -28l-28 -159q-11 -64 -34 -113t-61.5 -82t-94 -49.5t-131.5 -16.5h-293z" />
    <glyph glyph-name="E" unicode="E" horiz-adv-x="616" 
d="M155 700h481l-20 -116h-342l-30 -171h313l-21 -116h-312l-32 -181h343l-21 -116h-482z" />
    <glyph glyph-name="F" unicode="F" horiz-adv-x="585" 
d="M155 700h471l-20 -116h-331l-33 -188h302l-20 -116h-303l-49 -280h-140z" />
    <glyph glyph-name="G" unicode="G" horiz-adv-x="706" 
d="M81 426q25 144 105 216t210 72q57 0 107.5 -15t88.5 -46t61 -78.5t25 -112.5h-131q-5 63 -45 100t-109 37q-75 0 -116.5 -43.5t-55.5 -124.5l-19 -107q-3 -16 -4.5 -34t-1.5 -33q0 -78 39 -118.5t113 -40.5q66 0 108 37.5t53 106.5l1 6h-154l20 114h293l-17 -97
q-11 -62 -36 -113.5t-64.5 -88.5t-93 -57t-120.5 -20q-65 0 -117 21t-88 58t-55.5 87.5t-19.5 108.5q0 15 1 30.5t4 31.5z" />
    <glyph glyph-name="H" unicode="H" horiz-adv-x="716" 
d="M155 700h140l-51 -286h283l50 286h140l-123 -700h-140l51 289h-282l-51 -289h-140z" />
    <glyph glyph-name="I" unicode="I" horiz-adv-x="304" 
d="M160 700h140l-123 -700h-140z" />
    <glyph glyph-name="J" unicode="J" horiz-adv-x="606" 
d="M255 -14q-47 0 -88 14t-71 39.5t-47.5 61.5t-17.5 80q0 19 3 34h129q-7 -51 22 -82t82 -31q56 0 82.5 30.5t34.5 77.5l86 490h140l-87 -498q-18 -103 -85.5 -159.5t-182.5 -56.5z" />
    <glyph glyph-name="K" unicode="K" horiz-adv-x="646" 
d="M155 700h140l-59 -336l286 336h172l-314 -355l200 -345h-161l-186 346l-61 -346h-140z" />
    <glyph glyph-name="L" unicode="L" horiz-adv-x="578" 
d="M155 700h140l-103 -584h323l-20 -116h-463z" />
    <glyph glyph-name="M" unicode="M" horiz-adv-x="806" 
d="M156 700h129l127 -391l262 391h133l-123 -700h-134l74 420l-177 -250h-114l-90 268l-77 -438h-134z" />
    <glyph glyph-name="N" unicode="N" horiz-adv-x="724" 
d="M155 700h132l218 -477l84 477h136l-123 -700h-132l-218 476l-84 -476h-136z" />
    <glyph glyph-name="O" unicode="O" horiz-adv-x="723" 
d="M352 101q78 0 122.5 50t58.5 131l18 105q2 9 3 22t1 24q0 36 -10.5 66.5t-31 52.5t-50 34.5t-66.5 12.5q-81 0 -123.5 -48.5t-57.5 -135.5l-17 -98q-2 -14 -3.5 -27.5t-1.5 -26.5q0 -73 39.5 -117.5t118.5 -44.5zM347 -14q-68 0 -122 20.5t-91 57t-56.5 87.5t-19.5 112
q0 35 6 71l16 92q25 141 104 214.5t220 73.5q64 0 117 -20.5t91.5 -57t59.5 -87.5t21 -111q0 -31 -6 -64l-16 -89q-12 -66 -38 -121t-66.5 -94.5t-95.5 -61.5t-124 -22z" />
    <glyph glyph-name="P" unicode="P" horiz-adv-x="648" 
d="M155 700h288q49 0 89.5 -16t69 -44t44.5 -67.5t16 -85.5q0 -65 -22.5 -114.5t-63 -82.5t-95.5 -50t-119 -17h-151l-39 -223h-140zM372 339q73 0 111.5 38t38.5 102q0 45 -27.5 75t-80.5 30h-139l-43 -245h140z" />
    <glyph glyph-name="Q" unicode="Q" horiz-adv-x="723" 
d="M347 -14q-68 0 -122 20.5t-91 57t-56.5 87.5t-19.5 112q0 35 6 71l16 92q25 141 104 214.5t220 73.5q64 0 117 -20.5t91.5 -57t59.5 -87.5t21 -111q0 -31 -6 -64l-16 -89q-14 -80 -48.5 -143t-90.5 -102l38 -78l-107 -50l-39 82q-38 -8 -77 -8zM352 101h10q6 0 10 1
l-43 89l106 48l41 -86q22 24 35.5 55t21.5 74l18 105q2 9 3 22t1 24q0 36 -10.5 66.5t-31 52.5t-50 34.5t-66.5 12.5q-81 0 -123.5 -48.5t-57.5 -135.5l-17 -98q-2 -14 -3.5 -27.5t-1.5 -26.5q0 -73 39.5 -117.5t118.5 -44.5z" />
    <glyph glyph-name="R" unicode="R" horiz-adv-x="696" 
d="M366 225h-155l-39 -225h-140l123 700h298q51 0 93 -15.5t72 -44t47 -68t17 -86.5q0 -89 -47.5 -152t-129.5 -91l105 -243h-153zM386 335q71 0 113.5 37.5t42.5 101.5q0 49 -32.5 81.5t-89.5 32.5h-145l-44 -253h155z" />
    <glyph glyph-name="S" unicode="S" horiz-adv-x="651" 
d="M319 -14q-49 0 -97 11.5t-86 35t-61.5 59.5t-23.5 85q0 16 3 34l2 12h132l-2 -11q-1 -5 -1.5 -10.5t-0.5 -10.5q0 -26 12 -44t32 -29.5t46 -17t54 -5.5q57 0 96 29t39 80q0 58 -61 74l-155 39q-69 17 -105.5 58t-36.5 104q0 59 21 103t58.5 73.5t87.5 44t109 14.5
q46 0 90 -12t78 -35t55 -56.5t21 -77.5q0 -9 -1 -20t-3 -17l-1 -5h-130l1 5q2 10 2 20q0 23 -10.5 39.5t-28 27.5t-40 16.5t-46.5 5.5q-25 0 -47.5 -6.5t-40 -19t-27.5 -32t-10 -45.5q0 -25 14 -40t38 -22l162 -43q66 -17 105.5 -60.5t39.5 -108.5q0 -59 -23 -104
t-61.5 -75.5t-90 -46.5t-108.5 -16z" />
    <glyph glyph-name="T" unicode="T" 
d="M279 584h-196l21 116h532l-21 -116h-195l-103 -584h-140z" />
    <glyph glyph-name="U" unicode="U" horiz-adv-x="716" 
d="M330 -14q-50 0 -97 15t-83.5 44.5t-59 71.5t-22.5 96q0 11 1 22.5t3 19.5l78 445h140l-79 -450q-3 -15 -3 -30q0 -56 36.5 -87t95.5 -31q72 0 112 39.5t52 109.5l79 449h140l-79 -449q-11 -62 -37 -111t-65.5 -83.5t-93 -52.5t-118.5 -18z" />
    <glyph glyph-name="V" unicode="V" horiz-adv-x="647" 
d="M94 700h139l70 -542l254 542h148l-347 -700h-156z" />
    <glyph glyph-name="W" unicode="W" horiz-adv-x="947" 
d="M105 700h138l12 -503l229 503h133l58 -503l188 503h140l-289 -700h-131l-55 536l-247 -536h-131z" />
    <glyph glyph-name="X" unicode="X" horiz-adv-x="661" 
d="M281 366l-158 334h137l108 -231l188 231h152l-284 -346l168 -354h-137l-118 249l-204 -249h-153z" />
    <glyph glyph-name="Y" unicode="Y" horiz-adv-x="624" 
d="M240 256l-160 444h147l104 -320l205 320h159l-318 -460l-42 -240h-140z" />
    <glyph glyph-name="Z" unicode="Z" horiz-adv-x="614" 
d="M35 116l415 468h-322l20 116h484l-21 -116l-415 -468h344l-20 -116h-505z" />
    <glyph glyph-name="bracketleft" unicode="[" horiz-adv-x="381" 
d="M168 782h281l-20 -112h-145l-122 -692h145l-19 -112h-282z" />
    <glyph glyph-name="backslash" unicode="\" horiz-adv-x="462" 
d="M115 750h128l131 -855h-128z" />
    <glyph glyph-name="bracketright" unicode="]" horiz-adv-x="381" 
d="M237 -134h-281l20 112h145l122 692h-145l19 112h282z" />
    <glyph glyph-name="asciicircum" unicode="^" horiz-adv-x="537" 
d="M282 700h116l114 -286h-131l-56 177l-119 -177h-136z" />
    <glyph glyph-name="underscore" unicode="_" horiz-adv-x="517" 
d="M-33 -64h518l-12 -72h-519z" />
    <glyph glyph-name="grave" unicode="`" horiz-adv-x="395" 
d="M141 733h165l44 -154h-129z" />
    <glyph glyph-name="a" unicode="a" 
d="M203 -12q-44 0 -77 12t-55.5 32.5t-33.5 48t-11 59.5q0 45 16.5 77.5t45 54.5t66 32.5t80.5 10.5q55 0 94.5 -14t59.5 -33l12 67q7 40 -16 65.5t-64 25.5q-35 0 -56.5 -12t-36.5 -37h-127q32 84 91 119.5t143 35.5q40 0 77 -12t65.5 -34.5t45 -54t16.5 -70.5
q0 -16 -3 -32l-58 -329h-131l8 48q-18 -26 -60.5 -43t-90.5 -17zM157 149q0 -36 28.5 -52.5t66.5 -16.5q44 0 77 19.5t39 53.5q5 32 -24.5 53.5t-77.5 21.5q-45 0 -77 -18t-32 -61z" />
    <glyph glyph-name="b" unicode="b" horiz-adv-x="608" 
d="M322 -12q-54 0 -96 21.5t-62 56.5l-13 -66h-129l129 730h136l-47 -264q22 28 57.5 47t86.5 19q43 0 78 -15t59.5 -41.5t38 -63t13.5 -79.5q0 -11 -1 -23.5t-3 -25.5l-14 -80q-17 -99 -76.5 -157.5t-156.5 -58.5zM303 98q51 0 79.5 31t38.5 87l12 68q3 16 3 32
q0 49 -27.5 77.5t-74.5 28.5q-100 0 -124 -128l-11 -60q-3 -17 -3 -32q0 -49 28.5 -76.5t78.5 -27.5z" />
    <glyph glyph-name="c" unicode="c" horiz-adv-x="567" 
d="M269 -12q-48 0 -90.5 14.5t-73.5 41.5t-49 66t-18 89q0 13 1 23t3 22l13 75q18 105 81.5 159t173.5 54q46 0 87 -13.5t71.5 -40t48 -65t17.5 -88.5h-120q-2 42 -29 70.5t-77 28.5q-53 0 -81 -31.5t-39 -90.5l-13 -74q-3 -15 -3 -30q0 -46 27 -74t77 -28q49 0 76.5 29
t37.5 68h124q-8 -45 -28.5 -82.5t-52 -65t-73 -42.5t-91.5 -15z" />
    <glyph glyph-name="d" unicode="d" horiz-adv-x="608" 
d="M229 -12q-46 0 -81.5 16t-60 43t-37.5 64t-13 79q0 12 1 23t3 25l14 80q19 104 78 159t153 55q31 0 56.5 -7.5t45 -18.5t32.5 -25.5t20 -27.5l49 277h136l-129 -730h-130l11 62q-15 -29 -55.5 -51.5t-92.5 -22.5zM276 98q54 0 83.5 35t39.5 89l11 61q3 16 3 32
q0 50 -28.5 78.5t-78.5 28.5q-51 0 -79.5 -31.5t-38.5 -90.5l-11 -62q-3 -18 -3 -35q0 -48 26 -76.5t76 -28.5z" />
    <glyph glyph-name="e" unicode="e" horiz-adv-x="561" 
d="M261 -12q-56 0 -98 17t-69.5 45.5t-41.5 66.5t-14 80q0 11 1 22t3 25l12 68q9 50 29.5 91t52 69.5t74.5 44t97 15.5q49 0 89 -14t68 -40t43.5 -63t15.5 -83q0 -9 -1 -22t-3 -26l-12 -70h-339q-3 -15 -3 -29q0 -45 26 -73t80 -28q41 0 65.5 20.5t34.5 47.5h121
q-20 -72 -79.5 -118t-151.5 -46zM185 310h214l2 13q1 5 1.5 10.5t0.5 9.5q0 41 -25.5 66.5t-72.5 25.5q-53 0 -80.5 -31t-38.5 -91z" />
    <glyph glyph-name="f" unicode="f" horiz-adv-x="363" 
d="M125 410h-66l18 110h67l10 58q14 79 55 115.5t122 36.5h96l-19 -108h-55q-30 0 -45 -11.5t-20 -43.5l-8 -47h104l-19 -110h-104l-73 -410h-136z" />
    <glyph glyph-name="g" unicode="g" horiz-adv-x="608" 
d="M241 -186q-43 0 -83 11t-72 31.5t-54 49.5t-29 66h131q10 -26 41.5 -41t70.5 -15q51 0 79.5 25t36.5 70l14 82q-16 -29 -55.5 -49t-88.5 -20q-41 0 -76 15t-60.5 41t-40 61.5t-14.5 77.5q0 20 4 43l12 67q17 99 73.5 151t157.5 52q29 0 54.5 -7t45.5 -18t35 -25t23 -28
l12 66h130l-92 -521q-17 -93 -86 -139t-169 -46zM282 132q51 0 82 31t40 86l7 41q1 5 1.5 12t0.5 15q0 48 -28.5 76.5t-79.5 28.5q-97 0 -115 -105l-9 -52q-3 -18 -3 -28q0 -49 29 -77t75 -28z" />
    <glyph glyph-name="h" unicode="h" horiz-adv-x="594" 
d="M151 730h136l-48 -271q20 29 58.5 51t90.5 22q74 0 117.5 -43.5t43.5 -116.5q0 -11 -1 -22t-3 -23l-57 -327h-136l55 312q2 10 2 21q0 37 -23 57.5t-59 20.5q-49 0 -78 -29.5t-39 -84.5l-52 -297h-136z" />
    <glyph glyph-name="i" unicode="i" horiz-adv-x="280" 
d="M119 520h136l-92 -520h-136zM132 648q0 35 22.5 61t64.5 26q30 0 50.5 -18.5t20.5 -49.5q0 -18 -6 -34t-17 -28.5t-27 -20t-37 -7.5q-30 0 -50.5 19.5t-20.5 51.5z" />
    <glyph glyph-name="j" unicode="j" horiz-adv-x="280" 
d="M-53 -69h31q20 0 30 8.5t13 27.5l98 553h136l-101 -573q-11 -62 -43.5 -91.5t-98.5 -29.5h-83zM131 648q0 35 22.5 61t64.5 26q30 0 50.5 -18.5t20.5 -49.5q0 -18 -6 -34t-17 -28.5t-27 -20t-37 -7.5q-30 0 -50.5 19.5t-20.5 51.5z" />
    <glyph glyph-name="k" unicode="k" horiz-adv-x="540" 
d="M151 730h136l-79 -446l196 236h160l-224 -268l140 -252h-148l-129 255l-45 -255h-136z" />
    <glyph glyph-name="l" unicode="l" horiz-adv-x="278" 
d="M156 730h136l-129 -730h-136z" />
    <glyph glyph-name="m" unicode="m" horiz-adv-x="916" 
d="M484 0h-136l55 312q1 5 1.5 11t0.5 11q0 36 -22 56.5t-58 20.5q-49 0 -77 -29.5t-38 -84.5l-52 -297h-136l92 520h130l-13 -69q26 40 66 60.5t91 20.5t87 -21.5t54 -59.5q31 39 74 60t103 21q37 0 67 -12t52 -33.5t34 -52t12 -67.5q0 -23 -4 -43l-57 -324h-136l55 312
q1 5 1.5 11t0.5 11q0 36 -22 56.5t-58 20.5q-49 0 -77 -30.5t-38 -85.5z" />
    <glyph glyph-name="n" unicode="n" horiz-adv-x="594" 
d="M114 520h130l-13 -69q26 40 67 60.5t92 20.5q74 0 116.5 -45t42.5 -118q0 -11 -1 -22.5t-3 -23.5l-57 -323h-136l55 312q1 5 1.5 10t0.5 11q0 37 -23 57.5t-59 20.5q-49 0 -78 -29.5t-39 -84.5l-52 -297h-136z" />
    <glyph glyph-name="o" unicode="o" horiz-adv-x="575" 
d="M274 95q50 0 78 29t37 79l16 91q3 16 3 30q0 48 -28 74.5t-78 26.5q-53 0 -79.5 -29.5t-36.5 -83.5l-16 -91q-1 -4 -2 -11.5t-1 -15.5q0 -48 29.5 -73.5t77.5 -25.5zM271 -12q-53 0 -96 15.5t-73 43.5t-46.5 67.5t-16.5 87.5q0 12 1 23t3 25l12 68q20 111 84 162.5
t165 51.5q55 0 98.5 -15t73.5 -43t46 -67t16 -87q0 -13 -1.5 -26t-3.5 -27l-11 -63q-8 -48 -28 -88t-51.5 -68.5t-74.5 -44t-97 -15.5z" />
    <glyph glyph-name="p" unicode="p" horiz-adv-x="608" 
d="M384 532q45 0 80.5 -15.5t59.5 -42t37 -63t13 -78.5q0 -9 -1.5 -24.5t-3.5 -26.5l-14 -80q-19 -104 -78 -159t-153 -55q-32 0 -57 7t-44 18t-32.5 25t-20.5 29l-42 -241h-136l122 694h130l-11 -62q7 14 22 27.5t35 24t44 16.5t50 6zM334 422q-54 0 -83 -32t-40 -92
l-11 -61q-1 -5 -2 -14t-1 -16q0 -48 28 -78.5t79 -30.5t79.5 32.5t38.5 89.5l11 62q3 18 3 35q0 48 -25.5 76.5t-76.5 28.5z" />
    <glyph glyph-name="q" unicode="q" horiz-adv-x="608" 
d="M288 532q27 0 51.5 -6.5t45 -17.5t36 -26t24.5 -32l14 70h129l-122 -694h-136l40 228q-16 -24 -55 -45t-90 -21q-44 0 -79 15t-59.5 41t-37.5 62.5t-13 78.5q0 23 5 51l14 80q9 49 27.5 89t47.5 68t68.5 43.5t89.5 15.5zM307 422q-51 0 -79.5 -31t-38.5 -87l-12 -68
q-3 -17 -3 -32q0 -49 27.5 -77.5t74.5 -28.5q100 0 124 128l11 60q3 19 3 30q0 48 -28 77t-79 29z" />
    <glyph glyph-name="r" unicode="r" horiz-adv-x="378" 
d="M114 520h128l-15 -91q20 52 61 73.5t104 21.5h14l-24 -136h-24q-60 0 -101.5 -33t-55.5 -110l-43 -245h-136z" />
    <glyph glyph-name="s" unicode="s" horiz-adv-x="518" 
d="M229 -12q-41 0 -79 9.5t-66.5 28t-45.5 45.5t-17 61q0 5 0.5 11.5t1.5 11.5l1 6h119l-1 -5q-4 -19 3 -33t21 -23t33.5 -13t41.5 -4q41 0 70 17.5t29 52.5q0 16 -8.5 27.5t-30.5 16.5l-132 30q-53 12 -80 43t-27 78q0 46 17 81t47 57.5t71.5 34t91.5 11.5q38 0 74 -8.5
t64.5 -25.5t45.5 -44t17 -64q0 -6 -0.5 -13.5t-1.5 -12.5l-1 -6h-119l1 6q6 36 -21.5 54.5t-66.5 18.5q-38 0 -63.5 -16t-25.5 -51q0 -18 10 -27.5t29 -14.5l135 -33q50 -13 77 -43.5t27 -75.5t-19 -80t-51.5 -59t-76.5 -36.5t-94 -12.5z" />
    <glyph glyph-name="t" unicode="t" horiz-adv-x="379" 
d="M205 0q-60 0 -95 30.5t-35 85.5q0 15 3 32l46 262h-74l19 110h75l25 142h136l-25 -142h111l-19 -110h-112l-44 -251q-9 -49 45 -49h52l-19 -110h-89z" />
    <glyph glyph-name="u" unicode="u" horiz-adv-x="593" 
d="M207 -12q-73 0 -116.5 44t-43.5 118q0 11 1 22.5t3 22.5l58 325h136l-56 -313q-2 -9 -2 -14v-11q0 -37 22 -56.5t58 -19.5q46 0 76 30.5t38 77.5l55 306h136l-91 -520h-130l12 64q-19 -32 -61.5 -54t-94.5 -22z" />
    <glyph glyph-name="v" unicode="v" horiz-adv-x="508" 
d="M54 520h132l47 -372l171 372h141l-266 -520h-136z" />
    <glyph glyph-name="w" unicode="w" horiz-adv-x="777" 
d="M66 520h131l15 -353l163 353h119l44 -353l137 353h132l-228 -520h-123l-46 363l-174 -363h-123z" />
    <glyph glyph-name="x" unicode="x" horiz-adv-x="536" 
d="M204 268l-127 252h132l78 -155l132 155h146l-224 -263l131 -257h-133l-81 160l-136 -160h-147z" />
    <glyph glyph-name="y" unicode="y" horiz-adv-x="508" 
d="M64 -174l87 177l-98 517h136l49 -380l168 380h139l-344 -694h-137z" />
    <glyph glyph-name="z" unicode="z" horiz-adv-x="515" 
d="M25 96l309 322h-242l17 102h400l-17 -96l-309 -322h259l-18 -102h-416z" />
    <glyph glyph-name="braceleft" unicode="{" horiz-adv-x="420" 
d="M261 -134q-77 0 -119 33.5t-42 103.5q0 13 1 24t3 23l24 137q1 5 1.5 9.5t0.5 9.5q0 31 -19 46.5t-54 15.5h-29l20 112h36q43 0 63.5 19t28.5 60l27 153q8 46 22.5 78t38.5 52.5t59.5 30t85.5 9.5h86l-19 -112h-54q-44 0 -61.5 -17t-24.5 -58l-27 -152q-11 -62 -42 -88.5
t-79 -31.5q38 -11 59.5 -35.5t21.5 -62.5q0 -8 -1 -15.5t-2 -11.5l-25 -141q-3 -15 -3 -26q0 -31 17.5 -42t49.5 -11h49l-20 -112h-73z" />
    <glyph glyph-name="bar" unicode="|" horiz-adv-x="328" 
d="M203 800h114l-167 -950h-114z" />
    <glyph glyph-name="braceright" unicode="}" horiz-adv-x="420" 
d="M188 782q77 0 119 -33.5t42 -103.5q0 -13 -1 -24t-3 -23l-24 -137q-1 -5 -1.5 -9.5t-0.5 -9.5q0 -31 19 -46.5t54 -15.5h29l-20 -112h-36q-43 0 -63.5 -19t-28.5 -60l-27 -153q-8 -46 -22.5 -78t-38.5 -52.5t-59.5 -30t-85.5 -9.5h-86l19 112h54q22 0 37 4t24.5 13t15 23
t9.5 35l27 152q11 62 42 88.5t79 31.5q-38 11 -59.5 35.5t-21.5 62.5q0 8 1 15.5t2 11.5l25 141q3 15 3 26q0 31 -17.5 42t-49.5 11h-49l20 112h73z" />
    <glyph glyph-name="asciitilde" unicode="~" horiz-adv-x="633" 
d="M606 419q-12 -31 -24.5 -60.5t-30.5 -52t-43.5 -36.5t-62.5 -14q-24 0 -51 11.5t-54 26t-52.5 26t-46.5 11.5q-30 0 -44 -23t-25 -52l-111 35q10 36 23.5 67.5t33 54.5t46.5 36.5t65 13.5q30 0 59.5 -11.5t57 -26t51 -26t40.5 -11.5q13 0 22.5 7t16 17.5t11 22.5t9.5 23z
" />
    <glyph glyph-name="uni00A0" unicode="&#xa0;" horiz-adv-x="220" 
 />
    <glyph glyph-name="exclamdown" unicode="&#xa1;" horiz-adv-x="297" 
d="M216 263l-46 -263h-142l48 274l72 224h78zM285 636q0 -36 -22.5 -60t-61.5 -24q-30 0 -50.5 20t-20.5 51q0 35 23 60t62 25q31 0 50.5 -21t19.5 -51z" />
    <glyph glyph-name="cent" unicode="&#xa2;" horiz-adv-x="568" 
d="M188 113q-61 21 -96.5 69t-35.5 113q0 10 1 21t3 19l10 56q17 94 70 144.5t134 61.5l18 103h135l-20 -111q63 -20 98 -68t34 -111h-127q-4 35 -30 58t-66 23q-48 0 -76 -27.5t-37 -78.5l-11 -61q-1 -5 -1.5 -11t-0.5 -14q0 -45 27.5 -67.5t68.5 -22.5q22 0 40 7t31 18.5
t21.5 26t13.5 29.5h126q-15 -70 -65 -122t-131 -65l-18 -103h-135z" />
    <glyph glyph-name="sterling" unicode="&#xa3;" horiz-adv-x="667" 
d="M34 106h114l31 174h-100l17 106h101l23 131q19 104 78.5 150.5t165.5 46.5q39 0 75 -11.5t64.5 -33.5t45.5 -54t17 -73q0 -17 -3 -33l-3 -17h-126l3 18q7 42 -16 67t-67 25q-41 0 -65.5 -19.5t-32.5 -66.5l-23 -130h192l-19 -106h-191l-31 -174h267l-18 -106h-517z" />
    <glyph glyph-name="currency" unicode="&#xa4;" horiz-adv-x="620" 
d="M364 148q-27 -7 -62 -7q-43 0 -80 15l-53 -68h-143l111 142q-19 35 -19 76q0 15 3 35l9 50q5 31 18 57.5t29 42.5l-54 119h133l27 -62q28 7 65 7q41 0 76 -15l52 66h139l-110 -134q10 -14 16.5 -35.5t6.5 -43.5q0 -14 -3 -30l-9 -52q-11 -62 -51 -104l57 -122h-130z
M309 235q38 0 61.5 21t29.5 56l11 62q1 5 1 8v8q0 32 -22 51t-57 19q-76 0 -88 -74l-10 -57q-1 -5 -1.5 -9.5t-0.5 -9.5q0 -34 19.5 -54.5t56.5 -20.5z" />
    <glyph glyph-name="yen" unicode="&#xa5;" horiz-adv-x="590" 
d="M96 428h87l-69 272h144l60 -310l166 310h146l-164 -272h90l-17 -100h-133l-43 -72l-3 -17h163l-17 -99h-164l-24 -140h-136l24 140h-161l17 99h162l3 17l-19 72h-130z" />
    <glyph glyph-name="brokenbar" unicode="&#xa6;" horiz-adv-x="328" 
d="M104 238h114l-68 -388h-114zM203 800h114l-69 -388h-114z" />
    <glyph glyph-name="section" unicode="&#xa7;" horiz-adv-x="602" 
d="M240 -136q-42 0 -83 12.5t-71 35.5t-45.5 57t-7.5 78l2 11h119l-1 -6q-4 -23 3 -39.5t21 -27.5t34 -16.5t43 -5.5q43 0 71.5 21t28.5 58q0 20 -12 32t-32 20l-140 51q-108 38 -108 136q0 57 28 95t70 61q-27 31 -27 78q0 98 62 148.5t172 50.5q43 0 82.5 -12t68 -36
t42.5 -59t7 -80l-1 -6h-119l1 6q7 45 -20.5 66.5t-70.5 21.5q-18 0 -36 -4t-31.5 -13.5t-22 -24t-8.5 -35.5t11 -33.5t34 -20.5l137 -51q57 -21 86.5 -55t29.5 -85q0 -48 -26 -92t-65 -75q16 -27 16 -59q0 -46 -18.5 -83.5t-51 -64t-77 -41t-95.5 -14.5zM388 187
q20 22 30.5 41t10.5 41q0 21 -11.5 37t-38.5 26l-146 55q-15 -14 -29.5 -35.5t-14.5 -47.5q0 -20 10 -34.5t34 -23.5z" />
    <glyph glyph-name="dieresis" unicode="&#xa8;" horiz-adv-x="504" 
d="M140 645q0 33 22 56.5t60 23.5q28 0 47 -17.5t19 -46.5q0 -34 -22.5 -58t-59.5 -24q-28 0 -47 18.5t-19 47.5zM346 645q0 33 22 56.5t60 23.5q28 0 47 -17.5t19 -46.5q0 -34 -22.5 -58t-59.5 -24q-28 0 -47 18.5t-19 47.5z" />
    <glyph glyph-name="copyright" unicode="&#xa9;" horiz-adv-x="840" 
d="M435 24q75 0 134.5 26.5t101 71.5t64 104t22.5 124q0 64 -22.5 123t-64 104t-101 72t-134.5 27q-74 0 -133.5 -27t-101.5 -72t-64.5 -104t-22.5 -123q0 -65 22.5 -124t64.5 -104t101.5 -71.5t133.5 -26.5zM435 -12q-81 0 -148 28.5t-115 78t-74 115t-26 140.5t26 140.5
t74 115t115 78t148 28.5q82 0 149 -28.5t114.5 -78t73.5 -115t26 -140.5t-26 -140.5t-73.5 -115t-114.5 -78t-149 -28.5zM437 169q-39 0 -68.5 12.5t-48.5 34t-28.5 49.5t-9.5 59v52q0 31 9.5 59t28.5 49.5t48.5 34t68.5 12.5q32 0 58.5 -10.5t46 -28.5t31 -42t13.5 -51h-72
q-5 28 -22 47.5t-55 19.5q-43 0 -61 -26t-18 -64v-52q0 -38 18 -64t61 -26q38 0 55 19.5t22 47.5h72q-2 -27 -13.5 -51t-31 -42t-46 -28.5t-58.5 -10.5z" />
    <glyph glyph-name="ordfeminine" unicode="&#xaa;" horiz-adv-x="428" 
d="M65 309h316l-14 -80h-316zM297 370l5 29q-11 -14 -36.5 -25.5t-57.5 -11.5q-50 0 -82.5 26.5t-32.5 71.5q0 58 36.5 86t89.5 28q32 0 58.5 -8.5t44.5 -22.5l7 41q4 23 -10 36.5t-38 13.5q-19 0 -32.5 -8t-21.5 -21h-88q41 105 154 105q28 0 54 -9.5t44 -27.5t26.5 -43.5
t2.5 -56.5l-36 -203h-87zM242 426q30 0 48.5 13.5t18.5 35.5q0 20 -21 29.5t-42 9.5q-23 0 -42.5 -9.5t-19.5 -36.5q0 -20 16 -31t42 -11z" />
    <glyph glyph-name="guillemotleft" unicode="&#xab;" horiz-adv-x="635" 
d="M15 276l195 216h163l-198 -227l121 -205h-157zM294 276l195 216h163l-198 -227l121 -205h-157z" />
    <glyph glyph-name="logicalnot" unicode="&#xac;" horiz-adv-x="580" 
d="M391 303h-334l19 114h462l-52 -299h-127z" />
    <glyph glyph-name="registered" unicode="&#xae;" horiz-adv-x="548" 
d="M312 280q-52 0 -93.5 18t-70 48t-43.5 69t-15 81q0 43 15 82t43.5 69t70 47.5t93.5 17.5t93.5 -17.5t70 -47.5t43.5 -69t15 -82q0 -42 -15 -81t-43.5 -69t-70 -48t-93.5 -18zM312 310q42 0 76.5 14.5t59 40t38 59t13.5 72.5t-13.5 73t-38 59t-59 39.5t-76.5 14.5
t-76.5 -14.5t-59 -39.5t-38 -59t-13.5 -73t13.5 -72.5t38 -59t59 -40t76.5 -14.5zM319 467h-34v-60h-44v192h88q34 0 51.5 -18.5t17.5 -47.5q0 -20 -9 -35.5t-26 -23.5l38 -67h-51zM320 502q34 0 34 31q0 14 -8.5 22t-25.5 8h-35v-61h35z" />
    <glyph glyph-name="macron" unicode="&#xaf;" horiz-adv-x="484" 
d="M148 706h329l-18 -107h-329z" />
    <glyph glyph-name="degree" unicode="&#xb0;" horiz-adv-x="399" 
d="M158 542q0 -35 22.5 -60t61.5 -25q22 0 39.5 8.5t30 23.5t19 34.5t6.5 41.5q0 35 -22 60.5t-59 25.5q-47 0 -72.5 -29t-25.5 -80zM237 398q-31 0 -58 10.5t-46.5 29t-30.5 45t-11 58.5q0 75 43.5 122t122.5 47q31 0 57.5 -10.5t46.5 -29.5t31.5 -45t11.5 -57
q0 -36 -12 -67t-34 -54t-53 -36t-68 -13z" />
    <glyph glyph-name="plusminus" unicode="&#xb1;" horiz-adv-x="610" 
d="M48 107h168l32 180h-168l20 114h168l33 185h126l-33 -185h168l-20 -114h-168l-32 -180h168l-18 -107h-462z" />
    <glyph glyph-name="twosuperior" unicode="&#xb2;" horiz-adv-x="401" 
d="M103 531l189 142q16 12 27.5 25t11.5 30t-13 27.5t-35 10.5q-23 0 -38 -11.5t-19 -35.5l-1 -6h-87l2 11q12 67 54 94.5t98 27.5q60 0 98 -30.5t38 -77.5t-24 -74t-67 -56l-103 -70h159l-14 -78h-289z" />
    <glyph glyph-name="threesuperior" unicode="&#xb3;" horiz-adv-x="401" 
d="M247 453q-31 0 -58 7.5t-46 23t-29 38.5t-8 55h80q-2 -23 13 -37.5t48 -14.5q26 0 43.5 14t17.5 38q0 20 -13.5 32t-39.5 12h-61l13 67l91 77h-137l13 72h250l-12 -72l-101 -81q16 -2 32 -9.5t29 -20t21 -29.5t8 -38q0 -29 -12 -53.5t-33 -42.5t-49 -28t-60 -10z" />
    <glyph glyph-name="acute" unicode="&#xb4;" horiz-adv-x="395" 
d="M226 733h184l-135 -154h-140z" />
    <glyph glyph-name="mu" unicode="&#xb5;" horiz-adv-x="598" 
d="M212 -12q-15 0 -29.5 1.5t-26.5 6.5l-30 -170h-136l124 694h136l-56 -313q-2 -9 -2 -14v-11q0 -37 22 -56.5t58 -19.5q46 0 76 30.5t38 77.5l55 306h136l-91 -520h-130l12 64q-19 -32 -61.5 -54t-94.5 -22z" />
    <glyph glyph-name="paragraph" unicode="&#xb6;" horiz-adv-x="607" 
d="M496 618h-109l-80 -457q-51 0 -94.5 15.5t-75 45t-49.5 71t-18 94.5q0 70 20.5 128t62 99t104 63.5t145.5 22.5h201l-154 -874h-92z" />
    <glyph glyph-name="periodcentered" unicode="&#xb7;" horiz-adv-x="254" 
d="M52 280q0 36 22.5 60t61.5 24q30 0 50.5 -20t20.5 -51q0 -35 -23 -60t-62 -25q-31 0 -50.5 21t-19.5 51z" />
    <glyph glyph-name="cedilla" unicode="&#xb8;" horiz-adv-x="336" 
d="M98 -186q-20 0 -39 1.5t-33 4.5l9 55q22 -5 44 -5q20 0 31 6t11 17t-9.5 15.5t-25.5 6.5l-33 4l29 81h64l-11 -37l19 -2q29 -3 47 -19t18 -44q0 -21 -9.5 -37t-26 -26.5t-38.5 -15.5t-47 -5z" />
    <glyph glyph-name="onesuperior" unicode="&#xb9;" horiz-adv-x="309" 
d="M204 745l-94 -28l15 83l112 37h80l-66 -377h-97z" />
    <glyph glyph-name="ordmasculine" unicode="&#xba;" horiz-adv-x="432" 
d="M257 433q35 0 53 21.5t24 55.5l7 40q1 5 1.5 9.5t0.5 8.5q0 29 -18 48t-50 19q-64 0 -77 -73l-7 -40q-2 -10 -2 -20q0 -32 18 -50.5t50 -18.5zM257 361q-33 0 -61 10t-48.5 28t-32.5 43.5t-12 57.5q0 8 1 15.5t2 12.5l8 45q11 63 52.5 98.5t110.5 35.5q31 0 58.5 -10
t48.5 -28t33 -44t12 -57q0 -8 -0.5 -15.5t-1.5 -12.5l-7 -40q-11 -60 -54 -99.5t-109 -39.5zM76 309h300l-13 -80h-301z" />
    <glyph glyph-name="guillemotright" unicode="&#xbb;" horiz-adv-x="635" 
d="M353 276l-195 -216h-163l198 227l-121 205h157zM632 276l-195 -216h-163l198 227l-121 205h157z" />
    <glyph glyph-name="onequarter" unicode="&#xbc;" horiz-adv-x="830" 
d="M207 608l-94 -28l15 83l112 37h80l-66 -377h-97zM610 73h-191l13 70l160 234h89l-154 -231h96l12 72h87l-13 -72h50l-13 -73h-50l-13 -73h-86zM603 700h103l-483 -700h-103z" />
    <glyph glyph-name="onehalf" unicode="&#xbd;" horiz-adv-x="843" 
d="M465 71l189 142q16 12 27.5 25t11.5 30t-13 27.5t-35 10.5q-23 0 -38 -11.5t-19 -35.5l-1 -6h-87l2 11q12 67 54 94.5t98 27.5q60 0 98 -30.5t38 -77.5t-24 -74t-67 -56l-103 -70h159l-14 -78h-289zM207 608l-94 -28l15 83l112 37h80l-66 -377h-97zM603 700h103
l-483 -700h-103z" />
    <glyph glyph-name="threequarters" unicode="&#xbe;" horiz-adv-x="877" 
d="M232 316q-31 0 -58 7.5t-46 23t-29 38.5t-8 55h80q-2 -23 13 -37.5t48 -14.5q26 0 43.5 14t17.5 38q0 20 -13.5 32t-39.5 12h-61l13 67l91 77h-137l13 72h250l-12 -72l-101 -81q16 -2 32 -9.5t29 -20t21 -29.5t8 -38q0 -29 -12 -53.5t-33 -42.5t-49 -28t-60 -10zM657 73
h-191l13 70l160 234h89l-154 -231h96l12 72h87l-13 -72h50l-13 -73h-50l-13 -73h-86zM650 700h103l-483 -700h-103z" />
    <glyph glyph-name="questiondown" unicode="&#xbf;" horiz-adv-x="500" 
d="M361 445q-11 -62 -34.5 -97t-57.5 -59l-50 -35q-13 -9 -26.5 -18.5t-25 -20.5t-19 -24.5t-7.5 -29.5q0 -30 25.5 -48t63.5 -18q51 0 74 22t31 64l3 17h125l-3 -18q-17 -104 -77 -149t-171 -45q-45 0 -83 12.5t-65.5 35t-43 53t-15.5 65.5q0 51 24.5 90.5t75.5 72.5l63 40
q15 9 26.5 18.5t21 21.5t16 28t10.5 39l5 28h122zM401 636q0 -36 -22.5 -60t-61.5 -24q-30 0 -50.5 20t-20.5 51q0 35 23 60t62 25q31 0 50.5 -21t19.5 -51z" />
    <glyph glyph-name="Agrave" unicode="&#xc0;" horiz-adv-x="688" 
d="M349 700h143l131 -700h-136l-22 148h-269l-71 -148h-147zM251 260h198l-46 314zM279 894h160l42 -141h-124z" />
    <glyph glyph-name="Aacute" unicode="&#xc1;" horiz-adv-x="688" 
d="M349 700h143l131 -700h-136l-22 148h-269l-71 -148h-147zM251 260h198l-46 314zM454 894h174l-124 -141h-139z" />
    <glyph glyph-name="Acircumflex" unicode="&#xc2;" horiz-adv-x="688" 
d="M349 700h143l131 -700h-136l-22 148h-269l-71 -148h-147zM251 260h198l-46 314zM384 894h132l93 -141h-123l-44 67l-67 -67h-134z" />
    <glyph glyph-name="Atilde" unicode="&#xc3;" horiz-adv-x="688" 
d="M349 700h143l131 -700h-136l-22 148h-269l-71 -148h-147zM251 260h198l-46 314zM211 776q8 28 18.5 51t26 39t37.5 25t54 9q24 0 48.5 -6.5t46.5 -13.5l42 -14q20 -7 32 -7q21 0 30.5 15t15.5 32l85 -29q-8 -28 -18.5 -50.5t-25.5 -38.5t-36 -24.5t-50 -8.5
q-20 0 -43 6.5t-46.5 14.5t-45.5 14.5t-38 6.5q-20 0 -29.5 -13.5t-17.5 -33.5z" />
    <glyph glyph-name="Adieresis" unicode="&#xc4;" horiz-adv-x="688" 
d="M349 700h143l131 -700h-136l-22 148h-269l-71 -148h-147zM251 260h198l-46 314zM256 819q0 33 22 56.5t60 23.5q28 0 47 -17.5t19 -46.5q0 -34 -22.5 -58t-59.5 -24q-28 0 -47 18.5t-19 47.5zM480 819q0 33 22 56.5t60 23.5q28 0 47 -17.5t19 -46.5q0 -34 -22.5 -58
t-59.5 -24q-28 0 -47 18.5t-19 47.5z" />
    <glyph glyph-name="Aring" unicode="&#xc5;" horiz-adv-x="688" 
d="M341 686q-16 20 -16 53q0 45 31 71.5t76 26.5q43 0 72.5 -22.5t29.5 -63.5q0 -24 -10.5 -43.5t-27.5 -33.5l127 -674h-136l-22 148h-269l-71 -148h-147zM251 260h198l-46 314zM428 700q23 0 35.5 15t12.5 34q0 17 -12 28.5t-32 11.5q-24 0 -36.5 -13t-12.5 -36
q0 -17 11.5 -28.5t33.5 -11.5z" />
    <glyph glyph-name="AE" unicode="&#xc6;" horiz-adv-x="1069" 
d="M511 148h-276l-120 -148h-160l592 700h542l-20 -116h-342l-30 -171h313l-21 -116h-312l-32 -181h343l-21 -116h-482zM530 260l57 322l-260 -322h203z" />
    <glyph glyph-name="Ccedilla" unicode="&#xc7;" horiz-adv-x="699" 
d="M294 -186q-20 0 -39 1.5t-33 4.5l9 55q22 -5 44 -5q20 0 31 6t11 17t-9.5 15.5t-25.5 6.5l-33 4l26 73q-51 9 -92 32t-69 57.5t-43 78.5t-15 96q0 32 6 67l17 97q26 149 103 221.5t216 72.5q57 0 107.5 -17t88 -50t60 -82.5t24.5 -113.5h-130q-2 31 -13 58t-30.5 47
t-47.5 31.5t-65 11.5q-77 0 -117 -44t-57 -137l-19 -106q-2 -14 -3.5 -27.5t-1.5 -26.5q0 -73 39.5 -115t113.5 -42q37 0 66 13t49.5 34t33.5 47.5t19 53.5h130q-9 -57 -34 -105t-64.5 -83t-91.5 -55t-113 -20h-4l-7 -23l19 -2q29 -3 47 -19t18 -44q0 -21 -9.5 -37
t-26 -26.5t-38.5 -15.5t-47 -5z" />
    <glyph glyph-name="Egrave" unicode="&#xc8;" horiz-adv-x="616" 
d="M155 700h481l-20 -116h-342l-30 -171h313l-21 -116h-312l-32 -181h343l-21 -116h-482zM269 894h160l42 -141h-124z" />
    <glyph glyph-name="Eacute" unicode="&#xc9;" horiz-adv-x="616" 
d="M155 700h481l-20 -116h-342l-30 -171h313l-21 -116h-312l-32 -181h343l-21 -116h-482zM413 894h174l-124 -141h-139z" />
    <glyph glyph-name="Ecircumflex" unicode="&#xca;" horiz-adv-x="616" 
d="M155 700h481l-20 -116h-342l-30 -171h313l-21 -116h-312l-32 -181h343l-21 -116h-482zM361 894h132l93 -141h-123l-44 67l-67 -67h-134z" />
    <glyph glyph-name="Edieresis" unicode="&#xcb;" horiz-adv-x="616" 
d="M155 700h481l-20 -116h-342l-30 -171h313l-21 -116h-312l-32 -181h343l-21 -116h-482zM231 819q0 33 22 56.5t60 23.5q28 0 47 -17.5t19 -46.5q0 -34 -22.5 -58t-59.5 -24q-28 0 -47 18.5t-19 47.5zM455 819q0 33 22 56.5t60 23.5q28 0 47 -17.5t19 -46.5
q0 -34 -22.5 -58t-59.5 -24q-28 0 -47 18.5t-19 47.5z" />
    <glyph glyph-name="Igrave" unicode="&#xcc;" horiz-adv-x="304" 
d="M160 700h140l-123 -700h-140zM94 894h160l42 -141h-124z" />
    <glyph glyph-name="Iacute" unicode="&#xcd;" horiz-adv-x="304" 
d="M160 700h140l-123 -700h-140zM261 894h174l-124 -141h-139z" />
    <glyph glyph-name="Icircumflex" unicode="&#xce;" horiz-adv-x="304" 
d="M160 700h140l-123 -700h-140zM195 894h132l93 -141h-123l-44 67l-67 -67h-134z" />
    <glyph glyph-name="Idieresis" unicode="&#xcf;" horiz-adv-x="304" 
d="M160 700h140l-123 -700h-140zM68 819q0 33 22 56.5t60 23.5q28 0 47 -17.5t19 -46.5q0 -34 -22.5 -58t-59.5 -24q-28 0 -47 18.5t-19 47.5zM292 819q0 33 22 56.5t60 23.5q28 0 47 -17.5t19 -46.5q0 -34 -22.5 -58t-59.5 -24q-28 0 -47 18.5t-19 47.5z" />
    <glyph glyph-name="Eth" unicode="&#xd0;" horiz-adv-x="734" 
d="M63 408h72l51 292h288q51 0 94.5 -15.5t75 -44.5t49 -70.5t17.5 -93.5q0 -14 -1.5 -28t-3.5 -28l-28 -159q-11 -64 -34 -113t-61.5 -82t-94 -49.5t-131.5 -16.5h-293l51 292h-72zM350 114q79 0 126 34.5t61 112.5l28 159q4 20 4 42q0 60 -34.5 92t-103.5 32h-126
l-32 -178h155l-20 -116h-156l-31 -178h129z" />
    <glyph glyph-name="Ntilde" unicode="&#xd1;" horiz-adv-x="724" 
d="M155 700h132l218 -477l84 477h136l-123 -700h-132l-218 476l-84 -476h-136zM233 776q8 28 18.5 51t26 39t37.5 25t54 9q24 0 48.5 -6.5t46.5 -13.5l42 -14q20 -7 32 -7q21 0 30.5 15t15.5 32l85 -29q-8 -28 -18.5 -50.5t-25.5 -38.5t-36 -24.5t-50 -8.5q-20 0 -43 6.5
t-46.5 14.5t-45.5 14.5t-38 6.5q-20 0 -29.5 -13.5t-17.5 -33.5z" />
    <glyph glyph-name="Ograve" unicode="&#xd2;" horiz-adv-x="723" 
d="M352 101q78 0 122.5 50t58.5 131l18 105q2 9 3 22t1 24q0 36 -10.5 66.5t-31 52.5t-50 34.5t-66.5 12.5q-81 0 -123.5 -48.5t-57.5 -135.5l-17 -98q-2 -14 -3.5 -27.5t-1.5 -26.5q0 -73 39.5 -117.5t118.5 -44.5zM347 -14q-68 0 -122 20.5t-91 57t-56.5 87.5t-19.5 112
q0 35 6 71l16 92q25 141 104 214.5t220 73.5q64 0 117 -20.5t91.5 -57t59.5 -87.5t21 -111q0 -31 -6 -64l-16 -89q-12 -66 -38 -121t-66.5 -94.5t-95.5 -61.5t-124 -22zM286 894h160l42 -141h-124z" />
    <glyph glyph-name="Oacute" unicode="&#xd3;" horiz-adv-x="723" 
d="M352 101q78 0 122.5 50t58.5 131l18 105q2 9 3 22t1 24q0 36 -10.5 66.5t-31 52.5t-50 34.5t-66.5 12.5q-81 0 -123.5 -48.5t-57.5 -135.5l-17 -98q-2 -14 -3.5 -27.5t-1.5 -26.5q0 -73 39.5 -117.5t118.5 -44.5zM347 -14q-68 0 -122 20.5t-91 57t-56.5 87.5t-19.5 112
q0 35 6 71l16 92q25 141 104 214.5t220 73.5q64 0 117 -20.5t91.5 -57t59.5 -87.5t21 -111q0 -31 -6 -64l-16 -89q-12 -66 -38 -121t-66.5 -94.5t-95.5 -61.5t-124 -22zM451 894h174l-124 -141h-139z" />
    <glyph glyph-name="Ocircumflex" unicode="&#xd4;" horiz-adv-x="723" 
d="M352 101q78 0 122.5 50t58.5 131l18 105q2 9 3 22t1 24q0 36 -10.5 66.5t-31 52.5t-50 34.5t-66.5 12.5q-81 0 -123.5 -48.5t-57.5 -135.5l-17 -98q-2 -14 -3.5 -27.5t-1.5 -26.5q0 -73 39.5 -117.5t118.5 -44.5zM347 -14q-68 0 -122 20.5t-91 57t-56.5 87.5t-19.5 112
q0 35 6 71l16 92q25 141 104 214.5t220 73.5q64 0 117 -20.5t91.5 -57t59.5 -87.5t21 -111q0 -31 -6 -64l-16 -89q-12 -66 -38 -121t-66.5 -94.5t-95.5 -61.5t-124 -22zM391 894h132l93 -141h-123l-44 67l-67 -67h-134z" />
    <glyph glyph-name="Otilde" unicode="&#xd5;" horiz-adv-x="723" 
d="M352 101q78 0 122.5 50t58.5 131l18 105q2 9 3 22t1 24q0 36 -10.5 66.5t-31 52.5t-50 34.5t-66.5 12.5q-81 0 -123.5 -48.5t-57.5 -135.5l-17 -98q-2 -14 -3.5 -27.5t-1.5 -26.5q0 -73 39.5 -117.5t118.5 -44.5zM347 -14q-68 0 -122 20.5t-91 57t-56.5 87.5t-19.5 112
q0 35 6 71l16 92q25 141 104 214.5t220 73.5q64 0 117 -20.5t91.5 -57t59.5 -87.5t21 -111q0 -31 -6 -64l-16 -89q-12 -66 -38 -121t-66.5 -94.5t-95.5 -61.5t-124 -22zM218 776q8 28 18.5 51t26 39t37.5 25t54 9q24 0 48.5 -6.5t46.5 -13.5l42 -14q20 -7 32 -7
q21 0 30.5 15t15.5 32l85 -29q-8 -28 -18.5 -50.5t-25.5 -38.5t-36 -24.5t-50 -8.5q-20 0 -43 6.5t-46.5 14.5t-45.5 14.5t-38 6.5q-20 0 -29.5 -13.5t-17.5 -33.5z" />
    <glyph glyph-name="Odieresis" unicode="&#xd6;" horiz-adv-x="723" 
d="M352 101q78 0 122.5 50t58.5 131l18 105q2 9 3 22t1 24q0 36 -10.5 66.5t-31 52.5t-50 34.5t-66.5 12.5q-81 0 -123.5 -48.5t-57.5 -135.5l-17 -98q-2 -14 -3.5 -27.5t-1.5 -26.5q0 -73 39.5 -117.5t118.5 -44.5zM347 -14q-68 0 -122 20.5t-91 57t-56.5 87.5t-19.5 112
q0 35 6 71l16 92q25 141 104 214.5t220 73.5q64 0 117 -20.5t91.5 -57t59.5 -87.5t21 -111q0 -31 -6 -64l-16 -89q-12 -66 -38 -121t-66.5 -94.5t-95.5 -61.5t-124 -22zM266 819q0 33 22 56.5t60 23.5q28 0 47 -17.5t19 -46.5q0 -34 -22.5 -58t-59.5 -24q-28 0 -47 18.5
t-19 47.5zM490 819q0 33 22 56.5t60 23.5q28 0 47 -17.5t19 -46.5q0 -34 -22.5 -58t-59.5 -24q-28 0 -47 18.5t-19 47.5z" />
    <glyph glyph-name="multiply" unicode="&#xd7;" horiz-adv-x="598" 
d="M405 357l129 -155l-90 -77l-130 155l-170 -144l-74 87l171 145l-126 153l90 77l127 -153l169 144l74 -87z" />
    <glyph glyph-name="Oslash" unicode="&#xd8;" horiz-adv-x="723" 
d="M347 -14q-56 0 -101.5 13t-80.5 38l-71 -87h-98l115 140q-30 42 -41.5 82t-11.5 91q0 35 6 71l16 92q25 141 104 214.5t220 73.5q52 0 97 -13.5t81 -39.5l73 89h98l-116 -141q27 -35 41.5 -78t14.5 -93q0 -15 -1.5 -32t-4.5 -32l-16 -89q-12 -66 -38 -121t-66.5 -94.5
t-95.5 -61.5t-124 -22zM352 101q78 0 122.5 50t58.5 131l18 105q2 9 3 22t1 24q0 17 -2.5 34t-7.5 31l-300 -364q17 -16 45 -24.5t62 -8.5zM194 263q0 -17 2 -32t6 -30l299 363q-41 35 -104 35q-81 0 -123.5 -48.5t-57.5 -135.5l-17 -98q-2 -14 -3.5 -27.5t-1.5 -26.5z" />
    <glyph glyph-name="Ugrave" unicode="&#xd9;" horiz-adv-x="716" 
d="M330 -14q-50 0 -97 15t-83.5 44.5t-59 71.5t-22.5 96q0 11 1 22.5t3 19.5l78 445h140l-79 -450q-3 -15 -3 -30q0 -56 36.5 -87t95.5 -31q72 0 112 39.5t52 109.5l79 449h140l-79 -449q-11 -62 -37 -111t-65.5 -83.5t-93 -52.5t-118.5 -18zM297 894h160l42 -141h-124z" />
    <glyph glyph-name="Uacute" unicode="&#xda;" horiz-adv-x="716" 
d="M330 -14q-50 0 -97 15t-83.5 44.5t-59 71.5t-22.5 96q0 11 1 22.5t3 19.5l78 445h140l-79 -450q-3 -15 -3 -30q0 -56 36.5 -87t95.5 -31q72 0 112 39.5t52 109.5l79 449h140l-79 -449q-11 -62 -37 -111t-65.5 -83.5t-93 -52.5t-118.5 -18zM443 894h174l-124 -141h-139z
" />
    <glyph glyph-name="Ucircumflex" unicode="&#xdb;" horiz-adv-x="716" 
d="M330 -14q-50 0 -97 15t-83.5 44.5t-59 71.5t-22.5 96q0 11 1 22.5t3 19.5l78 445h140l-79 -450q-3 -15 -3 -30q0 -56 36.5 -87t95.5 -31q72 0 112 39.5t52 109.5l79 449h140l-79 -449q-11 -62 -37 -111t-65.5 -83.5t-93 -52.5t-118.5 -18zM403 894h132l93 -141h-123
l-44 67l-67 -67h-134z" />
    <glyph glyph-name="Udieresis" unicode="&#xdc;" horiz-adv-x="716" 
d="M330 -14q-50 0 -97 15t-83.5 44.5t-59 71.5t-22.5 96q0 11 1 22.5t3 19.5l78 445h140l-79 -450q-3 -15 -3 -30q0 -56 36.5 -87t95.5 -31q72 0 112 39.5t52 109.5l79 449h140l-79 -449q-11 -62 -37 -111t-65.5 -83.5t-93 -52.5t-118.5 -18zM266 819q0 33 22 56.5t60 23.5
q28 0 47 -17.5t19 -46.5q0 -34 -22.5 -58t-59.5 -24q-28 0 -47 18.5t-19 47.5zM490 819q0 33 22 56.5t60 23.5q28 0 47 -17.5t19 -46.5q0 -34 -22.5 -58t-59.5 -24q-28 0 -47 18.5t-19 47.5z" />
    <glyph glyph-name="Yacute" unicode="&#xdd;" horiz-adv-x="624" 
d="M240 256l-160 444h147l104 -320l205 320h159l-318 -460l-42 -240h-140zM393 894h174l-124 -141h-139z" />
    <glyph glyph-name="Thorn" unicode="&#xde;" horiz-adv-x="651" 
d="M155 700h140l-19 -107h148q49 0 89.5 -16t69 -44t44.5 -67.5t16 -85.5q0 -65 -22.5 -114.5t-63 -82.5t-95.5 -50t-119 -17h-151l-20 -116h-140zM353 232q73 0 111.5 38t38.5 102q0 45 -27.5 75t-80.5 30h-139l-43 -245h140z" />
    <glyph glyph-name="germandbls" unicode="&#xdf;" horiz-adv-x="612" 
d="M116 532q19 107 82.5 154.5t164.5 47.5q42 0 83 -11t73 -34t51.5 -57.5t19.5 -80.5q0 -66 -35 -114t-92 -72q49 -14 80 -54t31 -95q0 -51 -19 -91.5t-53.5 -68t-83.5 -42t-108 -14.5h-49l19 108h27q60 0 96.5 27t36.5 81q0 44 -31 67t-76 23h-19l18 104q62 11 92 46.5
t30 80.5q0 39 -24.5 63.5t-69.5 24.5q-43 0 -71 -21.5t-38 -75.5l-93 -528h-136z" />
    <glyph glyph-name="agrave" unicode="&#xe0;" 
d="M203 -12q-44 0 -77 12t-55.5 32.5t-33.5 48t-11 59.5q0 45 16.5 77.5t45 54.5t66 32.5t80.5 10.5q55 0 94.5 -14t59.5 -33l12 67q7 40 -16 65.5t-64 25.5q-35 0 -56.5 -12t-36.5 -37h-127q32 84 91 119.5t143 35.5q40 0 77 -12t65.5 -34.5t45 -54t16.5 -70.5
q0 -16 -3 -32l-58 -329h-131l8 48q-18 -26 -60.5 -43t-90.5 -17zM157 149q0 -36 28.5 -52.5t66.5 -16.5q44 0 77 19.5t39 53.5q5 32 -24.5 53.5t-77.5 21.5q-45 0 -77 -18t-32 -61zM206 733h165l44 -154h-129z" />
    <glyph glyph-name="aacute" unicode="&#xe1;" 
d="M203 -12q-44 0 -77 12t-55.5 32.5t-33.5 48t-11 59.5q0 45 16.5 77.5t45 54.5t66 32.5t80.5 10.5q55 0 94.5 -14t59.5 -33l12 67q7 40 -16 65.5t-64 25.5q-35 0 -56.5 -12t-36.5 -37h-127q32 84 91 119.5t143 35.5q40 0 77 -12t65.5 -34.5t45 -54t16.5 -70.5
q0 -16 -3 -32l-58 -329h-131l8 48q-18 -26 -60.5 -43t-90.5 -17zM157 149q0 -36 28.5 -52.5t66.5 -16.5q44 0 77 19.5t39 53.5q5 32 -24.5 53.5t-77.5 21.5q-45 0 -77 -18t-32 -61zM378 733h184l-135 -154h-140z" />
    <glyph glyph-name="acircumflex" unicode="&#xe2;" 
d="M203 -12q-44 0 -77 12t-55.5 32.5t-33.5 48t-11 59.5q0 45 16.5 77.5t45 54.5t66 32.5t80.5 10.5q55 0 94.5 -14t59.5 -33l12 67q7 40 -16 65.5t-64 25.5q-35 0 -56.5 -12t-36.5 -37h-127q32 84 91 119.5t143 35.5q40 0 77 -12t65.5 -34.5t45 -54t16.5 -70.5
q0 -16 -3 -32l-58 -329h-131l8 48q-18 -26 -60.5 -43t-90.5 -17zM157 149q0 -36 28.5 -52.5t66.5 -16.5q44 0 77 19.5t39 53.5q5 32 -24.5 53.5t-77.5 21.5q-45 0 -77 -18t-32 -61zM322 733h131l84 -154h-120l-39 76l-61 -76h-131z" />
    <glyph glyph-name="atilde" unicode="&#xe3;" 
d="M203 -12q-44 0 -77 12t-55.5 32.5t-33.5 48t-11 59.5q0 45 16.5 77.5t45 54.5t66 32.5t80.5 10.5q55 0 94.5 -14t59.5 -33l12 67q7 40 -16 65.5t-64 25.5q-35 0 -56.5 -12t-36.5 -37h-127q32 84 91 119.5t143 35.5q40 0 77 -12t65.5 -34.5t45 -54t16.5 -70.5
q0 -16 -3 -32l-58 -329h-131l8 48q-18 -26 -60.5 -43t-90.5 -17zM157 149q0 -36 28.5 -52.5t66.5 -16.5q44 0 77 19.5t39 53.5q5 32 -24.5 53.5t-77.5 21.5q-45 0 -77 -18t-32 -61zM163 608q9 28 18.5 50.5t23 37.5t32.5 23t48 8q21 0 44 -6.5t44.5 -15t39 -15t28.5 -6.5
q9 0 15.5 5t11.5 12t8 14.5t6 13.5l85 -31q-8 -22 -17 -43.5t-21.5 -38t-30 -26.5t-41.5 -10q-18 0 -39.5 6.5t-44 15t-43 15t-36.5 6.5q-19 0 -26.5 -10.5t-17.5 -33.5z" />
    <glyph glyph-name="adieresis" unicode="&#xe4;" 
d="M203 -12q-44 0 -77 12t-55.5 32.5t-33.5 48t-11 59.5q0 45 16.5 77.5t45 54.5t66 32.5t80.5 10.5q55 0 94.5 -14t59.5 -33l12 67q7 40 -16 65.5t-64 25.5q-35 0 -56.5 -12t-36.5 -37h-127q32 84 91 119.5t143 35.5q40 0 77 -12t65.5 -34.5t45 -54t16.5 -70.5
q0 -16 -3 -32l-58 -329h-131l8 48q-18 -26 -60.5 -43t-90.5 -17zM157 149q0 -36 28.5 -52.5t66.5 -16.5q44 0 77 19.5t39 53.5q5 32 -24.5 53.5t-77.5 21.5q-45 0 -77 -18t-32 -61zM199 645q0 33 22 56.5t60 23.5q28 0 47 -17.5t19 -46.5q0 -34 -22.5 -58t-59.5 -24
q-28 0 -47 18.5t-19 47.5zM405 645q0 33 22 56.5t60 23.5q28 0 47 -17.5t19 -46.5q0 -34 -22.5 -58t-59.5 -24q-28 0 -47 18.5t-19 47.5z" />
    <glyph glyph-name="aring" unicode="&#xe5;" 
d="M203 -12q-44 0 -77 12t-55.5 32.5t-33.5 48t-11 59.5q0 45 16.5 77.5t45 54.5t66 32.5t80.5 10.5q55 0 94.5 -14t59.5 -33l12 67q7 40 -16 65.5t-64 25.5q-35 0 -56.5 -12t-36.5 -37h-127q32 84 91 119.5t143 35.5q40 0 77 -12t65.5 -34.5t45 -54t16.5 -70.5
q0 -16 -3 -32l-58 -329h-131l8 48q-18 -26 -60.5 -43t-90.5 -17zM157 149q0 -36 28.5 -52.5t66.5 -16.5q44 0 77 19.5t39 53.5q5 32 -24.5 53.5t-77.5 21.5q-45 0 -77 -18t-32 -61zM383 627q23 0 35.5 15t12.5 34q0 17 -12 28.5t-32 11.5q-24 0 -36.5 -13t-12.5 -36
q0 -17 11.5 -28.5t33.5 -11.5zM380 579q-46 0 -73 23t-27 64q0 45 31 71.5t76 26.5q43 0 72.5 -22.5t29.5 -63.5q0 -44 -31.5 -71.5t-77.5 -27.5z" />
    <glyph glyph-name="ae" unicode="&#xe6;" horiz-adv-x="912" 
d="M607 -12q-63 0 -110 23t-64 58q-15 -18 -38 -32.5t-50 -25.5t-57 -17t-60 -6q-49 0 -87 11.5t-63.5 32.5t-38.5 49.5t-13 61.5q0 43 15.5 75.5t43 54t65.5 32t84 10.5q55 0 91.5 -14t62.5 -33l12 67q7 40 -15.5 65t-64.5 25q-35 0 -56.5 -11.5t-36.5 -36.5h-127
q26 81 87 118t147 37q51 0 87 -15.5t65 -44.5q58 60 167 60q49 0 89 -14t68 -40t43.5 -63t15.5 -83q0 -9 -1 -22t-3 -26l-12 -70h-339q-3 -15 -3 -29q0 -45 26 -73t80 -28q41 0 65.5 20.5t34.5 47.5h121q-20 -72 -79.5 -118t-151.5 -46zM157 151q0 -35 28.5 -53t71.5 -18
q23 0 43.5 6.5t35.5 17.5t24 26t9 32q0 19 -10.5 31.5t-26.5 20t-35 11t-37 3.5q-20 0 -39 -4.5t-33 -14t-22.5 -24t-8.5 -34.5zM531 310h214l2 13q1 5 1.5 10.5t0.5 9.5q0 41 -25.5 66.5t-72.5 25.5q-53 0 -80 -29t-39 -91z" />
    <glyph glyph-name="ccedilla" unicode="&#xe7;" horiz-adv-x="567" 
d="M223 -186q-20 0 -39 1.5t-33 4.5l9 55q22 -5 44 -5q20 0 31 6t11 17t-9.5 15.5t-25.5 6.5l-33 4l27 76q-36 8 -67 25.5t-53 43.5t-34.5 60t-12.5 75q0 13 1 23t3 22l13 75q18 105 81.5 159t173.5 54q46 0 87 -13.5t71.5 -40t48 -65t17.5 -88.5h-120q-2 42 -29 70.5
t-77 28.5q-53 0 -81 -31.5t-39 -90.5l-13 -74q-3 -15 -3 -30q0 -46 27 -74t77 -28q49 0 76.5 29t37.5 68h124q-8 -45 -28.5 -82.5t-52 -65t-73.5 -42.5t-93 -15l-7 -25l19 -2q29 -3 47 -19t18 -44q0 -21 -9.5 -37t-26 -26.5t-38.5 -15.5t-47 -5z" />
    <glyph glyph-name="egrave" unicode="&#xe8;" horiz-adv-x="561" 
d="M261 -12q-56 0 -98 17t-69.5 45.5t-41.5 66.5t-14 80q0 11 1 22t3 25l12 68q9 50 29.5 91t52 69.5t74.5 44t97 15.5q49 0 89 -14t68 -40t43.5 -63t15.5 -83q0 -9 -1 -22t-3 -26l-12 -70h-339q-3 -15 -3 -29q0 -45 26 -73t80 -28q41 0 65.5 20.5t34.5 47.5h121
q-20 -72 -79.5 -118t-151.5 -46zM185 310h214l2 13q1 5 1.5 10.5t0.5 9.5q0 41 -25.5 66.5t-72.5 25.5q-53 0 -80.5 -31t-38.5 -91zM170 733h165l44 -154h-129z" />
    <glyph glyph-name="eacute" unicode="&#xe9;" horiz-adv-x="561" 
d="M261 -12q-56 0 -98 17t-69.5 45.5t-41.5 66.5t-14 80q0 11 1 22t3 25l12 68q9 50 29.5 91t52 69.5t74.5 44t97 15.5q49 0 89 -14t68 -40t43.5 -63t15.5 -83q0 -9 -1 -22t-3 -26l-12 -70h-339q-3 -15 -3 -29q0 -45 26 -73t80 -28q41 0 65.5 20.5t34.5 47.5h121
q-20 -72 -79.5 -118t-151.5 -46zM185 310h214l2 13q1 5 1.5 10.5t0.5 9.5q0 41 -25.5 66.5t-72.5 25.5q-53 0 -80.5 -31t-38.5 -91zM357 733h184l-135 -154h-140z" />
    <glyph glyph-name="ecircumflex" unicode="&#xea;" horiz-adv-x="561" 
d="M261 -12q-56 0 -98 17t-69.5 45.5t-41.5 66.5t-14 80q0 11 1 22t3 25l12 68q9 50 29.5 91t52 69.5t74.5 44t97 15.5q49 0 89 -14t68 -40t43.5 -63t15.5 -83q0 -9 -1 -22t-3 -26l-12 -70h-339q-3 -15 -3 -29q0 -45 26 -73t80 -28q41 0 65.5 20.5t34.5 47.5h121
q-20 -72 -79.5 -118t-151.5 -46zM185 310h214l2 13q1 5 1.5 10.5t0.5 9.5q0 41 -25.5 66.5t-72.5 25.5q-53 0 -80.5 -31t-38.5 -91zM287 733h131l84 -154h-120l-39 76l-61 -76h-131z" />
    <glyph glyph-name="edieresis" unicode="&#xeb;" horiz-adv-x="561" 
d="M261 -12q-56 0 -98 17t-69.5 45.5t-41.5 66.5t-14 80q0 11 1 22t3 25l12 68q9 50 29.5 91t52 69.5t74.5 44t97 15.5q49 0 89 -14t68 -40t43.5 -63t15.5 -83q0 -9 -1 -22t-3 -26l-12 -70h-339q-3 -15 -3 -29q0 -45 26 -73t80 -28q41 0 65.5 20.5t34.5 47.5h121
q-20 -72 -79.5 -118t-151.5 -46zM185 310h214l2 13q1 5 1.5 10.5t0.5 9.5q0 41 -25.5 66.5t-72.5 25.5q-53 0 -80.5 -31t-38.5 -91zM165 645q0 33 22 56.5t60 23.5q28 0 47 -17.5t19 -46.5q0 -34 -22.5 -58t-59.5 -24q-28 0 -47 18.5t-19 47.5zM371 645q0 33 22 56.5
t60 23.5q28 0 47 -17.5t19 -46.5q0 -34 -22.5 -58t-59.5 -24q-28 0 -47 18.5t-19 47.5z" />
    <glyph glyph-name="igrave" unicode="&#xec;" horiz-adv-x="280" 
d="M119 520h136l-92 -520h-136zM47 733h165l44 -154h-129z" />
    <glyph glyph-name="iacute" unicode="&#xed;" horiz-adv-x="280" 
d="M119 520h136l-92 -520h-136zM221 733h184l-135 -154h-140z" />
    <glyph glyph-name="icircumflex" unicode="&#xee;" horiz-adv-x="280" 
d="M119 520h136l-92 -520h-136zM157 733h131l84 -154h-120l-39 76l-61 -76h-131z" />
    <glyph glyph-name="idieresis" unicode="&#xef;" horiz-adv-x="280" 
d="M119 520h136l-92 -520h-136zM33 645q0 33 22 56.5t60 23.5q28 0 47 -17.5t19 -46.5q0 -34 -22.5 -58t-59.5 -24q-28 0 -47 18.5t-19 47.5zM239 645q0 33 22 56.5t60 23.5q28 0 47 -17.5t19 -46.5q0 -34 -22.5 -58t-59.5 -24q-28 0 -47 18.5t-19 47.5z" />
    <glyph glyph-name="eth" unicode="&#xf0;" horiz-adv-x="579" 
d="M196 614l93 32q-50 46 -116 84h163q16 -9 31.5 -20.5t31.5 -25.5l108 37l27 -72l-78 -27q40 -53 65.5 -120.5t25.5 -142.5q0 -35 -6 -69l-15 -85q-9 -49 -30 -89t-53.5 -69t-76 -45t-96.5 -16q-52 0 -95 15.5t-73.5 43.5t-47.5 66.5t-17 85.5q0 12 1 23t3 19l11 62
q36 206 231 206q44 0 79 -15t52 -35q-23 68 -68 126l-123 -42zM174 233q-3 -17 -3 -36q0 -51 27.5 -77.5t74.5 -26.5q55 0 83 31t36 80l13 74q1 5 1.5 12t0.5 13q0 43 -26 72t-77 29t-79.5 -24.5t-39.5 -84.5z" />
    <glyph glyph-name="ntilde" unicode="&#xf1;" horiz-adv-x="594" 
d="M114 520h130l-13 -69q26 40 67 60.5t92 20.5q74 0 116.5 -45t42.5 -118q0 -11 -1 -22.5t-3 -23.5l-57 -323h-136l55 312q1 5 1.5 10t0.5 11q0 37 -23 57.5t-59 20.5q-49 0 -78 -29.5t-39 -84.5l-52 -297h-136zM163 608q9 28 18.5 50.5t23 37.5t32.5 23t48 8q21 0 44 -6.5
t44.5 -15t39 -15t28.5 -6.5q9 0 15.5 5t11.5 12t8 14.5t6 13.5l85 -31q-8 -22 -17 -43.5t-21.5 -38t-30 -26.5t-41.5 -10q-18 0 -39.5 6.5t-44 15t-43 15t-36.5 6.5q-19 0 -26.5 -10.5t-17.5 -33.5z" />
    <glyph glyph-name="ograve" unicode="&#xf2;" horiz-adv-x="575" 
d="M274 95q50 0 78 29t37 79l16 91q3 16 3 30q0 48 -28 74.5t-78 26.5q-53 0 -79.5 -29.5t-36.5 -83.5l-16 -91q-1 -4 -2 -11.5t-1 -15.5q0 -48 29.5 -73.5t77.5 -25.5zM271 -12q-53 0 -96 15.5t-73 43.5t-46.5 67.5t-16.5 87.5q0 12 1 23t3 25l12 68q20 111 84 162.5
t165 51.5q55 0 98.5 -15t73.5 -43t46 -67t16 -87q0 -13 -1.5 -26t-3.5 -27l-11 -63q-8 -48 -28 -88t-51.5 -68.5t-74.5 -44t-97 -15.5zM178 733h165l44 -154h-129z" />
    <glyph glyph-name="oacute" unicode="&#xf3;" horiz-adv-x="575" 
d="M274 95q50 0 78 29t37 79l16 91q3 16 3 30q0 48 -28 74.5t-78 26.5q-53 0 -79.5 -29.5t-36.5 -83.5l-16 -91q-1 -4 -2 -11.5t-1 -15.5q0 -48 29.5 -73.5t77.5 -25.5zM271 -12q-53 0 -96 15.5t-73 43.5t-46.5 67.5t-16.5 87.5q0 12 1 23t3 25l12 68q20 111 84 162.5
t165 51.5q55 0 98.5 -15t73.5 -43t46 -67t16 -87q0 -13 -1.5 -26t-3.5 -27l-11 -63q-8 -48 -28 -88t-51.5 -68.5t-74.5 -44t-97 -15.5zM356 733h184l-135 -154h-140z" />
    <glyph glyph-name="ocircumflex" unicode="&#xf4;" horiz-adv-x="575" 
d="M274 95q50 0 78 29t37 79l16 91q3 16 3 30q0 48 -28 74.5t-78 26.5q-53 0 -79.5 -29.5t-36.5 -83.5l-16 -91q-1 -4 -2 -11.5t-1 -15.5q0 -48 29.5 -73.5t77.5 -25.5zM271 -12q-53 0 -96 15.5t-73 43.5t-46.5 67.5t-16.5 87.5q0 12 1 23t3 25l12 68q20 111 84 162.5
t165 51.5q55 0 98.5 -15t73.5 -43t46 -67t16 -87q0 -13 -1.5 -26t-3.5 -27l-11 -63q-8 -48 -28 -88t-51.5 -68.5t-74.5 -44t-97 -15.5zM297 733h131l84 -154h-120l-39 76l-61 -76h-131z" />
    <glyph glyph-name="otilde" unicode="&#xf5;" horiz-adv-x="575" 
d="M274 95q50 0 78 29t37 79l16 91q3 16 3 30q0 48 -28 74.5t-78 26.5q-53 0 -79.5 -29.5t-36.5 -83.5l-16 -91q-1 -4 -2 -11.5t-1 -15.5q0 -48 29.5 -73.5t77.5 -25.5zM271 -12q-53 0 -96 15.5t-73 43.5t-46.5 67.5t-16.5 87.5q0 12 1 23t3 25l12 68q20 111 84 162.5
t165 51.5q55 0 98.5 -15t73.5 -43t46 -67t16 -87q0 -13 -1.5 -26t-3.5 -27l-11 -63q-8 -48 -28 -88t-51.5 -68.5t-74.5 -44t-97 -15.5zM146 608q9 28 18.5 50.5t23 37.5t32.5 23t48 8q21 0 44 -6.5t44.5 -15t39 -15t28.5 -6.5q9 0 15.5 5t11.5 12t8 14.5t6 13.5l85 -31
q-8 -22 -17 -43.5t-21.5 -38t-30 -26.5t-41.5 -10q-18 0 -39.5 6.5t-44 15t-43 15t-36.5 6.5q-19 0 -26.5 -10.5t-17.5 -33.5z" />
    <glyph glyph-name="odieresis" unicode="&#xf6;" horiz-adv-x="575" 
d="M274 95q50 0 78 29t37 79l16 91q3 16 3 30q0 48 -28 74.5t-78 26.5q-53 0 -79.5 -29.5t-36.5 -83.5l-16 -91q-1 -4 -2 -11.5t-1 -15.5q0 -48 29.5 -73.5t77.5 -25.5zM271 -12q-53 0 -96 15.5t-73 43.5t-46.5 67.5t-16.5 87.5q0 12 1 23t3 25l12 68q20 111 84 162.5
t165 51.5q55 0 98.5 -15t73.5 -43t46 -67t16 -87q0 -13 -1.5 -26t-3.5 -27l-11 -63q-8 -48 -28 -88t-51.5 -68.5t-74.5 -44t-97 -15.5zM174 645q0 33 22 56.5t60 23.5q28 0 47 -17.5t19 -46.5q0 -34 -22.5 -58t-59.5 -24q-28 0 -47 18.5t-19 47.5zM380 645q0 33 22 56.5
t60 23.5q28 0 47 -17.5t19 -46.5q0 -34 -22.5 -58t-59.5 -24q-28 0 -47 18.5t-19 47.5z" />
    <glyph glyph-name="divide" unicode="&#xf7;" horiz-adv-x="598" 
d="M92 418h458l-21 -116h-458zM199 154q0 35 22 58.5t60 23.5q29 0 49 -19.5t20 -49.5q0 -34 -22.5 -58.5t-60.5 -24.5q-30 0 -49 20.5t-19 49.5zM270 554q0 35 22 58.5t60 23.5q29 0 49 -19.5t20 -49.5q0 -34 -22.5 -58.5t-60.5 -24.5q-30 0 -49 20.5t-19 49.5z" />
    <glyph glyph-name="oslash" unicode="&#xf8;" horiz-adv-x="575" 
d="M271 -12q-86 0 -142 38l-64 -76h-75l95 114q-25 33 -35.5 64.5t-10.5 73.5q0 12 1 23t3 25l12 68q20 111 84 162.5t165 51.5q86 0 143 -37l64 76h75l-95 -113q23 -25 35 -60.5t12 -77.5q0 -13 -1.5 -26t-3.5 -27l-11 -63q-8 -48 -28 -88t-51.5 -68.5t-74.5 -44t-97 -15.5
zM274 95q50 0 78 29t37 79l16 91q3 16 3 30q0 18 -4 30l-200 -239q28 -20 70 -20zM167 194q0 -16 3 -29l201 240q-26 20 -69 20q-53 0 -79.5 -29.5t-36.5 -83.5l-16 -91q-1 -4 -2 -11.5t-1 -15.5z" />
    <glyph glyph-name="ugrave" unicode="&#xf9;" horiz-adv-x="593" 
d="M207 -12q-73 0 -116.5 44t-43.5 118q0 11 1 22.5t3 22.5l58 325h136l-56 -313q-2 -9 -2 -14v-11q0 -37 22 -56.5t58 -19.5q46 0 76 30.5t38 77.5l55 306h136l-91 -520h-130l12 64q-19 -32 -61.5 -54t-94.5 -22zM206 733h165l44 -154h-129z" />
    <glyph glyph-name="uacute" unicode="&#xfa;" horiz-adv-x="593" 
d="M207 -12q-73 0 -116.5 44t-43.5 118q0 11 1 22.5t3 22.5l58 325h136l-56 -313q-2 -9 -2 -14v-11q0 -37 22 -56.5t58 -19.5q46 0 76 30.5t38 77.5l55 306h136l-91 -520h-130l12 64q-19 -32 -61.5 -54t-94.5 -22zM356 733h184l-135 -154h-140z" />
    <glyph glyph-name="ucircumflex" unicode="&#xfb;" horiz-adv-x="593" 
d="M207 -12q-73 0 -116.5 44t-43.5 118q0 11 1 22.5t3 22.5l58 325h136l-56 -313q-2 -9 -2 -14v-11q0 -37 22 -56.5t58 -19.5q46 0 76 30.5t38 77.5l55 306h136l-91 -520h-130l12 64q-19 -32 -61.5 -54t-94.5 -22zM312 733h131l84 -154h-120l-39 76l-61 -76h-131z" />
    <glyph glyph-name="udieresis" unicode="&#xfc;" horiz-adv-x="593" 
d="M207 -12q-73 0 -116.5 44t-43.5 118q0 11 1 22.5t3 22.5l58 325h136l-56 -313q-2 -9 -2 -14v-11q0 -37 22 -56.5t58 -19.5q46 0 76 30.5t38 77.5l55 306h136l-91 -520h-130l12 64q-19 -32 -61.5 -54t-94.5 -22zM187 645q0 33 22 56.5t60 23.5q28 0 47 -17.5t19 -46.5
q0 -34 -22.5 -58t-59.5 -24q-28 0 -47 18.5t-19 47.5zM393 645q0 33 22 56.5t60 23.5q28 0 47 -17.5t19 -46.5q0 -34 -22.5 -58t-59.5 -24q-28 0 -47 18.5t-19 47.5z" />
    <glyph glyph-name="yacute" unicode="&#xfd;" horiz-adv-x="508" 
d="M64 -174l87 177l-98 517h136l49 -380l168 380h139l-344 -694h-137zM318 733h184l-135 -154h-140z" />
    <glyph glyph-name="thorn" unicode="&#xfe;" horiz-adv-x="609" 
d="M151 730h135l-46 -260q20 25 58.5 43.5t85.5 18.5q45 0 80.5 -15.5t59.5 -42t37 -63t13 -78.5q0 -9 -1.5 -24.5t-3.5 -26.5l-14 -80q-19 -104 -78 -159t-153 -55q-32 0 -57 7t-44 18t-32.5 25t-20.5 29l-42 -241h-136zM334 422q-54 0 -83 -32t-40 -92l-11 -61
q-1 -5 -2 -14t-1 -16q0 -48 28 -78.5t79 -30.5t79.5 32.5t38.5 89.5l11 62q3 18 3 35q0 48 -25.5 76.5t-76.5 28.5z" />
    <glyph glyph-name="ydieresis" unicode="&#xff;" horiz-adv-x="508" 
d="M64 -174l87 177l-98 517h136l49 -380l168 380h139l-344 -694h-137zM143 645q0 33 22 56.5t60 23.5q28 0 47 -17.5t19 -46.5q0 -34 -22.5 -58t-59.5 -24q-28 0 -47 18.5t-19 47.5zM349 645q0 33 22 56.5t60 23.5q28 0 47 -17.5t19 -46.5q0 -34 -22.5 -58t-59.5 -24
q-28 0 -47 18.5t-19 47.5z" />
    <glyph glyph-name="Amacron" unicode="&#x100;" horiz-adv-x="688" 
d="M349 700h143l131 -700h-136l-22 148h-269l-71 -148h-147zM251 260h198l-46 314zM260 881h376l-19 -109h-376z" />
    <glyph glyph-name="amacron" unicode="&#x101;" 
d="M203 -12q-44 0 -77 12t-55.5 32.5t-33.5 48t-11 59.5q0 45 16.5 77.5t45 54.5t66 32.5t80.5 10.5q55 0 94.5 -14t59.5 -33l12 67q7 40 -16 65.5t-64 25.5q-35 0 -56.5 -12t-36.5 -37h-127q32 84 91 119.5t143 35.5q40 0 77 -12t65.5 -34.5t45 -54t16.5 -70.5
q0 -16 -3 -32l-58 -329h-131l8 48q-18 -26 -60.5 -43t-90.5 -17zM157 149q0 -36 28.5 -52.5t66.5 -16.5q44 0 77 19.5t39 53.5q5 32 -24.5 53.5t-77.5 21.5q-45 0 -77 -18t-32 -61zM224 706h329l-18 -107h-329z" />
    <glyph glyph-name="Abreve" unicode="&#x102;" horiz-adv-x="688" 
d="M349 700h143l131 -700h-136l-22 148h-269l-71 -148h-147zM251 260h198l-46 314zM435 753q-37 0 -69 9t-55 26.5t-34.5 44t-6.5 61.5h105q-4 -26 14 -44t54 -18q39 0 58 19.5t24 42.5h105q-12 -72 -64.5 -106.5t-130.5 -34.5z" />
    <glyph glyph-name="abreve" unicode="&#x103;" 
d="M203 -12q-44 0 -77 12t-55.5 32.5t-33.5 48t-11 59.5q0 45 16.5 77.5t45 54.5t66 32.5t80.5 10.5q55 0 94.5 -14t59.5 -33l12 67q7 40 -16 65.5t-64 25.5q-35 0 -56.5 -12t-36.5 -37h-127q32 84 91 119.5t143 35.5q40 0 77 -12t65.5 -34.5t45 -54t16.5 -70.5
q0 -16 -3 -32l-58 -329h-131l8 48q-18 -26 -60.5 -43t-90.5 -17zM157 149q0 -36 28.5 -52.5t66.5 -16.5q44 0 77 19.5t39 53.5q5 32 -24.5 53.5t-77.5 21.5q-45 0 -77 -18t-32 -61zM378 579q-35 0 -66 9.5t-53.5 28.5t-34.5 48t-8 68h98q-3 -32 14 -53.5t55 -21.5
q21 0 35.5 7t23.5 18t14.5 24t8.5 26h99q-11 -72 -60 -113t-126 -41z" />
    <glyph glyph-name="Aogonek" unicode="&#x104;" horiz-adv-x="688" 
d="M520 -186q-48 0 -74.5 24t-26.5 62t21.5 62.5t46.5 37.5l-22 148h-269l-71 -148h-147l371 700h143l131 -700q-13 -7 -27 -15.5t-25.5 -19t-19 -22.5t-7.5 -26q0 -24 31 -24q6 0 13.5 0.5t13.5 2.5l-13 -73q-8 -2 -28 -5.5t-41 -3.5zM251 260h198l-46 314z" />
    <glyph glyph-name="aogonek" unicode="&#x105;" 
d="M203 -12q-44 0 -77 12t-55.5 32.5t-33.5 48t-11 59.5q0 45 16.5 77.5t45 54.5t66 32.5t80.5 10.5q55 0 94.5 -14t59.5 -33l12 67q7 40 -16 65.5t-64 25.5q-35 0 -56.5 -12t-36.5 -37h-127q32 84 91 119.5t143 35.5q40 0 77 -12t65.5 -34.5t45 -54t16.5 -70.5
q0 -16 -3 -32l-58 -329q-12 -6 -25.5 -15t-25 -19.5t-18.5 -22.5t-7 -26q0 -24 31 -24q6 0 13.5 0.5t13.5 2.5l-13 -73q-8 -2 -28 -5.5t-41 -3.5q-48 0 -74.5 22.5t-26.5 60.5q0 35 21 61.5t49 41.5l8 48q-18 -26 -60.5 -43t-90.5 -17zM157 149q0 -36 28.5 -52.5t66.5 -16.5
q44 0 77 19.5t39 53.5q5 32 -24.5 53.5t-77.5 21.5q-45 0 -77 -18t-32 -61z" />
    <glyph glyph-name="Cacute" unicode="&#x106;" horiz-adv-x="699" 
d="M342 -14q-66 0 -119 20t-90 55.5t-57 85t-20 109.5q0 32 6 67l17 97q26 149 103 221.5t216 72.5q57 0 107.5 -17t88 -50t60 -82.5t24.5 -113.5h-130q-2 31 -13 58t-30.5 47t-47.5 31.5t-65 11.5q-77 0 -117 -44t-57 -137l-19 -106q-2 -14 -3.5 -27.5t-1.5 -26.5
q0 -73 39.5 -115t113.5 -42q37 0 66 13t49.5 34t33.5 47.5t19 53.5h130q-9 -57 -34 -105t-64.5 -83t-91.5 -55t-113 -20zM442 894h174l-124 -141h-139z" />
    <glyph glyph-name="cacute" unicode="&#x107;" horiz-adv-x="567" 
d="M269 -12q-48 0 -90.5 14.5t-73.5 41.5t-49 66t-18 89q0 13 1 23t3 22l13 75q18 105 81.5 159t173.5 54q46 0 87 -13.5t71.5 -40t48 -65t17.5 -88.5h-120q-2 42 -29 70.5t-77 28.5q-53 0 -81 -31.5t-39 -90.5l-13 -74q-3 -15 -3 -30q0 -46 27 -74t77 -28q49 0 76.5 29
t37.5 68h124q-8 -45 -28.5 -82.5t-52 -65t-73 -42.5t-91.5 -15zM351 733h184l-135 -154h-140z" />
    <glyph glyph-name="Ccircumflex" unicode="&#x108;" horiz-adv-x="699" 
d="M342 -14q-66 0 -119 20t-90 55.5t-57 85t-20 109.5q0 32 6 67l17 97q26 149 103 221.5t216 72.5q57 0 107.5 -17t88 -50t60 -82.5t24.5 -113.5h-130q-2 31 -13 58t-30.5 47t-47.5 31.5t-65 11.5q-77 0 -117 -44t-57 -137l-19 -106q-2 -14 -3.5 -27.5t-1.5 -26.5
q0 -73 39.5 -115t113.5 -42q37 0 66 13t49.5 34t33.5 47.5t19 53.5h130q-9 -57 -34 -105t-64.5 -83t-91.5 -55t-113 -20zM382 894h132l93 -141h-123l-44 67l-67 -67h-134z" />
    <glyph glyph-name="ccircumflex" unicode="&#x109;" horiz-adv-x="567" 
d="M269 -12q-48 0 -90.5 14.5t-73.5 41.5t-49 66t-18 89q0 13 1 23t3 22l13 75q18 105 81.5 159t173.5 54q46 0 87 -13.5t71.5 -40t48 -65t17.5 -88.5h-120q-2 42 -29 70.5t-77 28.5q-53 0 -81 -31.5t-39 -90.5l-13 -74q-3 -15 -3 -30q0 -46 27 -74t77 -28q49 0 76.5 29
t37.5 68h124q-8 -45 -28.5 -82.5t-52 -65t-73 -42.5t-91.5 -15zM297 733h131l84 -154h-120l-39 76l-61 -76h-131z" />
    <glyph glyph-name="Cdotaccent" unicode="&#x10a;" horiz-adv-x="699" 
d="M342 -14q-66 0 -119 20t-90 55.5t-57 85t-20 109.5q0 32 6 67l17 97q26 149 103 221.5t216 72.5q57 0 107.5 -17t88 -50t60 -82.5t24.5 -113.5h-130q-2 31 -13 58t-30.5 47t-47.5 31.5t-65 11.5q-77 0 -117 -44t-57 -137l-19 -106q-2 -14 -3.5 -27.5t-1.5 -26.5
q0 -73 39.5 -115t113.5 -42q37 0 66 13t49.5 34t33.5 47.5t19 53.5h130q-9 -57 -34 -105t-64.5 -83t-91.5 -55t-113 -20zM360 824q0 35 22.5 61t64.5 26q30 0 50.5 -18.5t20.5 -49.5q0 -18 -6 -34t-17 -28.5t-27 -20t-37 -7.5q-30 0 -50.5 19.5t-20.5 51.5z" />
    <glyph glyph-name="cdotaccent" unicode="&#x10b;" horiz-adv-x="567" 
d="M269 -12q-48 0 -90.5 14.5t-73.5 41.5t-49 66t-18 89q0 13 1 23t3 22l13 75q18 105 81.5 159t173.5 54q46 0 87 -13.5t71.5 -40t48 -65t17.5 -88.5h-120q-2 42 -29 70.5t-77 28.5q-53 0 -81 -31.5t-39 -90.5l-13 -74q-3 -15 -3 -30q0 -46 27 -74t77 -28q49 0 76.5 29
t37.5 68h124q-8 -45 -28.5 -82.5t-52 -65t-73 -42.5t-91.5 -15zM276 650q0 35 22.5 61t64.5 26q30 0 50.5 -18.5t20.5 -49.5q0 -18 -6 -34t-17 -28.5t-27 -20t-37 -7.5q-30 0 -50.5 19.5t-20.5 51.5z" />
    <glyph glyph-name="Ccaron" unicode="&#x10c;" horiz-adv-x="699" 
d="M342 -14q-66 0 -119 20t-90 55.5t-57 85t-20 109.5q0 32 6 67l17 97q26 149 103 221.5t216 72.5q57 0 107.5 -17t88 -50t60 -82.5t24.5 -113.5h-130q-2 31 -13 58t-30.5 47t-47.5 31.5t-65 11.5q-77 0 -117 -44t-57 -137l-19 -106q-2 -14 -3.5 -27.5t-1.5 -26.5
q0 -73 39.5 -115t113.5 -42q37 0 66 13t49.5 34t33.5 47.5t19 53.5h130q-9 -57 -34 -105t-64.5 -83t-91.5 -55t-113 -20zM270 894h122l45 -67l65 67h136l-143 -141h-132z" />
    <glyph glyph-name="ccaron" unicode="&#x10d;" horiz-adv-x="567" 
d="M269 -12q-48 0 -90.5 14.5t-73.5 41.5t-49 66t-18 89q0 13 1 23t3 22l13 75q18 105 81.5 159t173.5 54q46 0 87 -13.5t71.5 -40t48 -65t17.5 -88.5h-120q-2 42 -29 70.5t-77 28.5q-53 0 -81 -31.5t-39 -90.5l-13 -74q-3 -15 -3 -30q0 -46 27 -74t77 -28q49 0 76.5 29
t37.5 68h124q-8 -45 -28.5 -82.5t-52 -65t-73 -42.5t-91.5 -15zM402 579h-131l-84 154h120l40 -77l60 77h131z" />
    <glyph glyph-name="Dcaron" unicode="&#x10e;" horiz-adv-x="703" 
d="M319 114q79 0 126 34.5t61 112.5l28 159q4 20 4 42q0 60 -34.5 92t-103.5 32h-126l-84 -472h129zM155 700h288q51 0 94.5 -15.5t75 -44.5t49 -70.5t17.5 -93.5q0 -14 -1.5 -28t-3.5 -28l-28 -159q-11 -64 -34 -113t-61.5 -82t-94 -49.5t-131.5 -16.5h-293zM261 894h122
l45 -67l65 67h136l-143 -141h-132z" />
    <glyph glyph-name="dcaron" unicode="&#x10f;" horiz-adv-x="794" 
d="M736 730h149l-114 -223h-114zM229 -12q-46 0 -81.5 16t-60 43t-37.5 64t-13 79q0 12 1 23t3 25l14 80q19 104 78 159t153 55q31 0 56.5 -7.5t45 -18.5t32.5 -25.5t20 -27.5l49 277h136l-129 -730h-130l11 62q-15 -29 -55.5 -51.5t-92.5 -22.5zM276 98q54 0 83.5 35
t39.5 89l11 61q3 16 3 32q0 50 -28.5 78.5t-78.5 28.5q-51 0 -79.5 -31.5t-38.5 -90.5l-11 -62q-3 -18 -3 -35q0 -48 26 -76.5t76 -28.5z" />
    <glyph glyph-name="Dcroat" unicode="&#x110;" horiz-adv-x="734" 
d="M63 408h72l51 292h288q51 0 94.5 -15.5t75 -44.5t49 -70.5t17.5 -93.5q0 -14 -1.5 -28t-3.5 -28l-28 -159q-11 -64 -34 -113t-61.5 -82t-94 -49.5t-131.5 -16.5h-293l51 292h-72zM350 114q79 0 126 34.5t61 112.5l28 159q4 20 4 42q0 60 -34.5 92t-103.5 32h-126
l-32 -178h155l-20 -116h-156l-31 -178h129z" />
    <glyph glyph-name="dcroat" unicode="&#x111;" horiz-adv-x="632" 
d="M379 657h97l13 73h136l-13 -73h59l-16 -93h-60l-99 -564h-130l11 62q-15 -29 -55.5 -51.5t-92.5 -22.5q-46 0 -81.5 16t-60 43t-37.5 64t-13 79q0 12 1 23t3 25l14 80q19 104 78 159t153 55q31 0 56.5 -7.5t45 -18.5t32.5 -25.5t20 -27.5l19 111h-96zM276 98
q54 0 83.5 35t39.5 89l11 61q3 16 3 32q0 50 -28.5 78.5t-78.5 28.5q-51 0 -79.5 -31.5t-38.5 -90.5l-11 -62q-3 -18 -3 -35q0 -48 26 -76.5t76 -28.5z" />
    <glyph glyph-name="Emacron" unicode="&#x112;" horiz-adv-x="616" 
d="M155 700h481l-20 -116h-342l-30 -171h313l-21 -116h-312l-32 -181h343l-21 -116h-482zM239 881h376l-19 -109h-376z" />
    <glyph glyph-name="emacron" unicode="&#x113;" horiz-adv-x="561" 
d="M261 -12q-56 0 -98 17t-69.5 45.5t-41.5 66.5t-14 80q0 11 1 22t3 25l12 68q9 50 29.5 91t52 69.5t74.5 44t97 15.5q49 0 89 -14t68 -40t43.5 -63t15.5 -83q0 -9 -1 -22t-3 -26l-12 -70h-339q-3 -15 -3 -29q0 -45 26 -73t80 -28q41 0 65.5 20.5t34.5 47.5h121
q-20 -72 -79.5 -118t-151.5 -46zM185 310h214l2 13q1 5 1.5 10.5t0.5 9.5q0 41 -25.5 66.5t-72.5 25.5q-53 0 -80.5 -31t-38.5 -91zM190 706h329l-18 -107h-329z" />
    <glyph glyph-name="Ebreve" unicode="&#x114;" horiz-adv-x="616" 
d="M155 700h481l-20 -116h-342l-30 -171h313l-21 -116h-312l-32 -181h343l-21 -116h-482zM415 753q-37 0 -69 9t-55 26.5t-34.5 44t-6.5 61.5h105q-4 -26 14 -44t54 -18q39 0 58 19.5t24 42.5h105q-12 -72 -64.5 -106.5t-130.5 -34.5z" />
    <glyph glyph-name="ebreve" unicode="&#x115;" horiz-adv-x="561" 
d="M261 -12q-56 0 -98 17t-69.5 45.5t-41.5 66.5t-14 80q0 11 1 22t3 25l12 68q9 50 29.5 91t52 69.5t74.5 44t97 15.5q49 0 89 -14t68 -40t43.5 -63t15.5 -83q0 -9 -1 -22t-3 -26l-12 -70h-339q-3 -15 -3 -29q0 -45 26 -73t80 -28q41 0 65.5 20.5t34.5 47.5h121
q-20 -72 -79.5 -118t-151.5 -46zM185 310h214l2 13q1 5 1.5 10.5t0.5 9.5q0 41 -25.5 66.5t-72.5 25.5q-53 0 -80.5 -31t-38.5 -91zM350 579q-35 0 -66 9.5t-53.5 28.5t-34.5 48t-8 68h98q-3 -32 14 -53.5t55 -21.5q21 0 35.5 7t23.5 18t14.5 24t8.5 26h99q-11 -72 -60 -113
t-126 -41z" />
    <glyph glyph-name="Edotaccent" unicode="&#x116;" horiz-adv-x="616" 
d="M155 700h481l-20 -116h-342l-30 -171h313l-21 -116h-312l-32 -181h343l-21 -116h-482zM327 824q0 35 22.5 61t64.5 26q30 0 50.5 -18.5t20.5 -49.5q0 -18 -6 -34t-17 -28.5t-27 -20t-37 -7.5q-30 0 -50.5 19.5t-20.5 51.5z" />
    <glyph glyph-name="edotaccent" unicode="&#x117;" horiz-adv-x="561" 
d="M261 -12q-56 0 -98 17t-69.5 45.5t-41.5 66.5t-14 80q0 11 1 22t3 25l12 68q9 50 29.5 91t52 69.5t74.5 44t97 15.5q49 0 89 -14t68 -40t43.5 -63t15.5 -83q0 -9 -1 -22t-3 -26l-12 -70h-339q-3 -15 -3 -29q0 -45 26 -73t80 -28q41 0 65.5 20.5t34.5 47.5h121
q-20 -72 -79.5 -118t-151.5 -46zM185 310h214l2 13q1 5 1.5 10.5t0.5 9.5q0 41 -25.5 66.5t-72.5 25.5q-53 0 -80.5 -31t-38.5 -91zM268 650q0 35 22.5 61t64.5 26q30 0 50.5 -18.5t20.5 -49.5q0 -18 -6 -34t-17 -28.5t-27 -20t-37 -7.5q-30 0 -50.5 19.5t-20.5 51.5z" />
    <glyph glyph-name="Eogonek" unicode="&#x118;" horiz-adv-x="616" 
d="M155 700h481l-20 -116h-342l-30 -171h313l-21 -116h-312l-32 -181h343l-21 -116q-13 -7 -26.5 -15.5t-24.5 -19t-18 -22.5t-7 -26q0 -24 31 -24q6 0 13.5 0.5t13.5 2.5l-13 -73q-8 -2 -28 -5.5t-41 -3.5q-48 0 -74.5 22.5t-26.5 60.5q0 35 21.5 61.5t49.5 41.5h-352z" />
    <glyph glyph-name="eogonek" unicode="&#x119;" horiz-adv-x="561" 
d="M288 -186q-48 0 -74.5 21t-26.5 59q0 15 6.5 29.5t17 27.5t22 22.5t22.5 14.5q-54 1 -95 18t-68 45.5t-40.5 66t-13.5 79.5q0 11 1 22t3 25l12 68q9 50 29.5 91t52 69.5t74.5 44t97 15.5q49 0 89 -14t68 -40t43.5 -63t15.5 -83q0 -9 -1 -22t-3 -26l-12 -70h-339
q-3 -15 -3 -29q0 -45 26 -73t80 -28q41 0 65.5 20.5t34.5 47.5h121q-11 -37 -32 -67t-50 -53q-17 -13 -34 -26.5t-31.5 -27.5t-23.5 -29.5t-9 -32.5q0 -23 31 -23q6 0 13.5 0.5t13.5 2.5l-13 -73q-8 -2 -28 -5.5t-41 -3.5zM185 310h214l2 13q1 5 1.5 10.5t0.5 9.5
q0 41 -25.5 66.5t-72.5 25.5q-53 0 -80.5 -31t-38.5 -91z" />
    <glyph glyph-name="Ecaron" unicode="&#x11a;" horiz-adv-x="616" 
d="M155 700h481l-20 -116h-342l-30 -171h313l-21 -116h-312l-32 -181h343l-21 -116h-482zM244 894h122l45 -67l65 67h136l-143 -141h-132z" />
    <glyph glyph-name="ecaron" unicode="&#x11b;" horiz-adv-x="561" 
d="M261 -12q-56 0 -98 17t-69.5 45.5t-41.5 66.5t-14 80q0 11 1 22t3 25l12 68q9 50 29.5 91t52 69.5t74.5 44t97 15.5q49 0 89 -14t68 -40t43.5 -63t15.5 -83q0 -9 -1 -22t-3 -26l-12 -70h-339q-3 -15 -3 -29q0 -45 26 -73t80 -28q41 0 65.5 20.5t34.5 47.5h121
q-20 -72 -79.5 -118t-151.5 -46zM185 310h214l2 13q1 5 1.5 10.5t0.5 9.5q0 41 -25.5 66.5t-72.5 25.5q-53 0 -80.5 -31t-38.5 -91zM407 579h-131l-84 154h120l40 -77l60 77h131z" />
    <glyph glyph-name="Gcircumflex" unicode="&#x11c;" horiz-adv-x="706" 
d="M81 426q25 144 105 216t210 72q57 0 107.5 -15t88.5 -46t61 -78.5t25 -112.5h-131q-5 63 -45 100t-109 37q-75 0 -116.5 -43.5t-55.5 -124.5l-19 -107q-3 -16 -4.5 -34t-1.5 -33q0 -78 39 -118.5t113 -40.5q66 0 108 37.5t53 106.5l1 6h-154l20 114h293l-17 -97
q-11 -62 -36 -113.5t-64.5 -88.5t-93 -57t-120.5 -20q-65 0 -117 21t-88 58t-55.5 87.5t-19.5 108.5q0 15 1 30.5t4 31.5zM376 894h132l93 -141h-123l-44 67l-67 -67h-134z" />
    <glyph glyph-name="gcircumflex" unicode="&#x11d;" horiz-adv-x="608" 
d="M241 -186q-43 0 -83 11t-72 31.5t-54 49.5t-29 66h131q10 -26 41.5 -41t70.5 -15q51 0 79.5 25t36.5 70l14 82q-16 -29 -55.5 -49t-88.5 -20q-41 0 -76 15t-60.5 41t-40 61.5t-14.5 77.5q0 20 4 43l12 67q17 99 73.5 151t157.5 52q29 0 54.5 -7t45.5 -18t35 -25t23 -28
l12 66h130l-92 -521q-17 -93 -86 -139t-169 -46zM282 132q51 0 82 31t40 86l7 41q1 5 1.5 12t0.5 15q0 48 -28.5 76.5t-79.5 28.5q-97 0 -115 -105l-9 -52q-3 -18 -3 -28q0 -49 29 -77t75 -28zM333 733h131l84 -154h-120l-39 76l-61 -76h-131z" />
    <glyph glyph-name="Gbreve" unicode="&#x11e;" horiz-adv-x="706" 
d="M81 426q25 144 105 216t210 72q57 0 107.5 -15t88.5 -46t61 -78.5t25 -112.5h-131q-5 63 -45 100t-109 37q-75 0 -116.5 -43.5t-55.5 -124.5l-19 -107q-3 -16 -4.5 -34t-1.5 -33q0 -78 39 -118.5t113 -40.5q66 0 108 37.5t53 106.5l1 6h-154l20 114h293l-17 -97
q-11 -62 -36 -113.5t-64.5 -88.5t-93 -57t-120.5 -20q-65 0 -117 21t-88 58t-55.5 87.5t-19.5 108.5q0 15 1 30.5t4 31.5zM430 753q-37 0 -69 9t-55 26.5t-34.5 44t-6.5 61.5h105q-4 -26 14 -44t54 -18q39 0 58 19.5t24 42.5h105q-12 -72 -64.5 -106.5t-130.5 -34.5z" />
    <glyph glyph-name="gbreve" unicode="&#x11f;" horiz-adv-x="608" 
d="M241 -186q-43 0 -83 11t-72 31.5t-54 49.5t-29 66h131q10 -26 41.5 -41t70.5 -15q51 0 79.5 25t36.5 70l14 82q-16 -29 -55.5 -49t-88.5 -20q-41 0 -76 15t-60.5 41t-40 61.5t-14.5 77.5q0 20 4 43l12 67q17 99 73.5 151t157.5 52q29 0 54.5 -7t45.5 -18t35 -25t23 -28
l12 66h130l-92 -521q-17 -93 -86 -139t-169 -46zM282 132q51 0 82 31t40 86l7 41q1 5 1.5 12t0.5 15q0 48 -28.5 76.5t-79.5 28.5q-97 0 -115 -105l-9 -52q-3 -18 -3 -28q0 -49 29 -77t75 -28zM378 579q-35 0 -66 9.5t-53.5 28.5t-34.5 48t-8 68h98q-3 -32 14 -53.5
t55 -21.5q21 0 35.5 7t23.5 18t14.5 24t8.5 26h99q-11 -72 -60 -113t-126 -41z" />
    <glyph glyph-name="Gdotaccent" unicode="&#x120;" horiz-adv-x="706" 
d="M81 426q25 144 105 216t210 72q57 0 107.5 -15t88.5 -46t61 -78.5t25 -112.5h-131q-5 63 -45 100t-109 37q-75 0 -116.5 -43.5t-55.5 -124.5l-19 -107q-3 -16 -4.5 -34t-1.5 -33q0 -78 39 -118.5t113 -40.5q66 0 108 37.5t53 106.5l1 6h-154l20 114h293l-17 -97
q-11 -62 -36 -113.5t-64.5 -88.5t-93 -57t-120.5 -20q-65 0 -117 21t-88 58t-55.5 87.5t-19.5 108.5q0 15 1 30.5t4 31.5zM352 824q0 35 22.5 61t64.5 26q30 0 50.5 -18.5t20.5 -49.5q0 -18 -6 -34t-17 -28.5t-27 -20t-37 -7.5q-30 0 -50.5 19.5t-20.5 51.5z" />
    <glyph glyph-name="gdotaccent" unicode="&#x121;" horiz-adv-x="608" 
d="M241 -186q-43 0 -83 11t-72 31.5t-54 49.5t-29 66h131q10 -26 41.5 -41t70.5 -15q51 0 79.5 25t36.5 70l14 82q-16 -29 -55.5 -49t-88.5 -20q-41 0 -76 15t-60.5 41t-40 61.5t-14.5 77.5q0 20 4 43l12 67q17 99 73.5 151t157.5 52q29 0 54.5 -7t45.5 -18t35 -25t23 -28
l12 66h130l-92 -521q-17 -93 -86 -139t-169 -46zM282 132q51 0 82 31t40 86l7 41q1 5 1.5 12t0.5 15q0 48 -28.5 76.5t-79.5 28.5q-97 0 -115 -105l-9 -52q-3 -18 -3 -28q0 -49 29 -77t75 -28zM298 650q0 35 22.5 61t64.5 26q30 0 50.5 -18.5t20.5 -49.5q0 -18 -6 -34
t-17 -28.5t-27 -20t-37 -7.5q-30 0 -50.5 19.5t-20.5 51.5z" />
    <glyph glyph-name="Gcommaaccent" unicode="&#x122;" horiz-adv-x="706" 
d="M81 426q25 144 105 216t210 72q57 0 107.5 -15t88.5 -46t61 -78.5t25 -112.5h-131q-5 63 -45 100t-109 37q-75 0 -116.5 -43.5t-55.5 -124.5l-19 -107q-3 -16 -4.5 -34t-1.5 -33q0 -78 39 -118.5t113 -40.5q66 0 108 37.5t53 106.5l1 6h-154l20 114h293l-17 -97
q-11 -62 -36 -113.5t-64.5 -88.5t-93 -57t-120.5 -20q-65 0 -117 21t-88 58t-55.5 87.5t-19.5 108.5q0 15 1 30.5t4 31.5zM238 -73h152l-102 -177h-112z" />
    <glyph glyph-name="gcommaaccent" unicode="&#x123;" horiz-adv-x="608" 
d="M241 -186q-43 0 -83 11t-72 31.5t-54 49.5t-29 66h131q10 -26 41.5 -41t70.5 -15q51 0 79.5 25t36.5 70l14 82q-16 -29 -55.5 -49t-88.5 -20q-41 0 -76 15t-60.5 41t-40 61.5t-14.5 77.5q0 20 4 43l12 67q17 99 73.5 151t157.5 52q29 0 54.5 -7t45.5 -18t35 -25t23 -28
l12 66h130l-92 -521q-17 -93 -86 -139t-169 -46zM282 132q51 0 82 31t40 86l7 41q1 5 1.5 12t0.5 15q0 48 -28.5 76.5t-79.5 28.5q-97 0 -115 -105l-9 -52q-3 -18 -3 -28q0 -49 29 -77t75 -28zM386 733h134l-67 -154h-168z" />
    <glyph glyph-name="Hcircumflex" unicode="&#x124;" horiz-adv-x="716" 
d="M155 700h140l-51 -286h283l50 286h140l-123 -700h-140l51 289h-282l-51 -289h-140zM398 894h132l93 -141h-123l-44 67l-67 -67h-134z" />
    <glyph glyph-name="hcircumflex" unicode="&#x125;" horiz-adv-x="594" 
d="M151 730h136l-48 -271q20 29 58.5 51t90.5 22q74 0 117.5 -43.5t43.5 -116.5q0 -11 -1 -22t-3 -23l-57 -327h-136l55 312q2 10 2 21q0 37 -23 57.5t-59 20.5q-49 0 -78 -29.5t-39 -84.5l-52 -297h-136zM189 924h132l93 -141h-123l-44 67l-67 -67h-134z" />
    <glyph glyph-name="Hbar" unicode="&#x126;" horiz-adv-x="780" 
d="M89 591h79l19 109h140l-20 -109h283l19 109h140l-19 -109h79l-15 -85h-79l-89 -506h-140l51 289h-282l-51 -289h-140l89 506h-79zM559 414l16 92h-283l-16 -92h283z" />
    <glyph glyph-name="hbar" unicode="&#x127;" horiz-adv-x="603" 
d="M86 657h59l13 73h136l-13 -73h97l-16 -93h-98l-18 -105q20 29 58.5 51t90.5 22q74 0 117.5 -43.5t43.5 -116.5q0 -11 -1 -22t-3 -23l-57 -327h-136l55 312q2 10 2 21q0 37 -23 57.5t-59 20.5q-49 0 -78 -29.5t-39 -84.5l-52 -297h-136l99 564h-58z" />
    <glyph glyph-name="Itilde" unicode="&#x128;" horiz-adv-x="304" 
d="M160 700h140l-123 -700h-140zM28 776q8 28 18.5 51t26 39t37.5 25t54 9q24 0 48.5 -6.5t47.5 -13.5l42 -14q19 -7 31 -7q21 0 30.5 15t15.5 32l85 -29q-8 -28 -18.5 -50.5t-25.5 -38.5t-36 -24.5t-50 -8.5q-20 0 -43 6.5t-46.5 14.5t-45.5 14.5t-38 6.5
q-20 0 -29.5 -13.5t-17.5 -33.5z" />
    <glyph glyph-name="itilde" unicode="&#x129;" horiz-adv-x="280" 
d="M119 520h136l-92 -520h-136zM2 608q9 28 18.5 50.5t23 37.5t32.5 23t48 8q21 0 44 -6.5t44.5 -15t39 -15t28.5 -6.5q9 0 15.5 5t11.5 12t8 14.5t6 13.5l85 -31q-8 -22 -17 -43.5t-21.5 -38t-30 -26.5t-41.5 -10q-18 0 -39.5 6.5t-44 15t-43 15t-36.5 6.5
q-19 0 -26.5 -10.5t-17.5 -33.5z" />
    <glyph glyph-name="uni012A" unicode="&#x12a;" horiz-adv-x="304" 
d="M160 700h140l-123 -700h-140zM71 881h376l-19 -109h-376z" />
    <glyph glyph-name="imacron" unicode="&#x12b;" horiz-adv-x="280" 
d="M119 520h136l-92 -520h-136zM55 706h329l-18 -107h-329z" />
    <glyph glyph-name="Ibreve" unicode="&#x12c;" horiz-adv-x="304" 
d="M160 700h140l-123 -700h-140zM249 753q-37 0 -69 9t-55 26.5t-34.5 44t-6.5 61.5h105q-4 -26 14 -44t54 -18q39 0 58 19.5t24 42.5h105q-12 -72 -64.5 -106.5t-130.5 -34.5z" />
    <glyph glyph-name="uni012D" unicode="&#x12d;" horiz-adv-x="280" 
d="M119 520h136l-92 -520h-136zM210 579q-35 0 -66 9.5t-53.5 28.5t-34.5 48t-8 68h98q-3 -32 14 -53.5t55 -21.5q21 0 35.5 7t23.5 18t14.5 24t8.5 26h99q-11 -72 -60 -113t-126 -41z" />
    <glyph glyph-name="Iogonek" unicode="&#x12e;" horiz-adv-x="304" 
d="M160 700h140l-123 -700q-10 -8 -21 -17.5t-20.5 -20.5t-15.5 -23.5t-6 -25.5q0 -20 23 -20q8 0 18 2l-4 -73q-8 -3 -26 -5.5t-36 -2.5q-48 0 -74 24t-26 59q0 37 15.5 63t32.5 40z" />
    <glyph glyph-name="iogonek" unicode="&#x12f;" horiz-adv-x="280" 
d="M119 520h136l-92 -520q-8 -6 -19 -15.5t-20.5 -20.5t-16 -24t-6.5 -26q0 -21 23 -21q8 0 18 2l-4 -73q-11 -3 -29 -5.5t-34 -2.5q-48 0 -73.5 23.5t-25.5 58.5t15.5 61t35.5 43zM132 648q0 35 22.5 61t64.5 26q30 0 50.5 -18.5t20.5 -49.5q0 -18 -6 -34t-17 -28.5
t-27 -20t-37 -7.5q-30 0 -50.5 19.5t-20.5 51.5z" />
    <glyph glyph-name="Idotaccent" unicode="&#x130;" horiz-adv-x="304" 
d="M160 700h140l-123 -700h-140zM177 824q0 35 22.5 61t64.5 26q30 0 50.5 -18.5t20.5 -49.5q0 -18 -6 -34t-17 -28.5t-27 -20t-37 -7.5q-30 0 -50.5 19.5t-20.5 51.5z" />
    <glyph glyph-name="dotlessi" unicode="&#x131;" horiz-adv-x="280" 
d="M119 520h136l-92 -520h-136z" />
    <glyph glyph-name="IJ" unicode="&#x132;" horiz-adv-x="910" 
d="M160 700h140l-123 -700h-140zM559 -14q-47 0 -88 14t-71 39.5t-47.5 61.5t-17.5 80q0 19 3 34h129q-7 -51 22 -82t82 -31q56 0 82.5 30.5t34.5 77.5l86 490h140l-87 -498q-18 -103 -85.5 -159.5t-182.5 -56.5z" />
    <glyph glyph-name="ij" unicode="&#x133;" horiz-adv-x="560" 
d="M119 520h136l-92 -520h-136zM132 648q0 35 22.5 61t64.5 26q30 0 50.5 -18.5t20.5 -49.5q0 -18 -6 -34t-17 -28.5t-27 -20t-37 -7.5q-30 0 -50.5 19.5t-20.5 51.5zM227 -69h31q20 0 30 8.5t13 27.5l98 553h136l-101 -573q-11 -62 -43.5 -91.5t-98.5 -29.5h-83zM411 648
q0 35 22.5 61t64.5 26q30 0 50.5 -18.5t20.5 -49.5q0 -18 -6 -34t-17 -28.5t-27 -20t-37 -7.5q-30 0 -50.5 19.5t-20.5 51.5z" />
    <glyph glyph-name="Jcircumflex" unicode="&#x134;" horiz-adv-x="606" 
d="M255 -14q-47 0 -88 14t-71 39.5t-47.5 61.5t-17.5 80q0 19 3 34h129q-7 -51 22 -82t82 -31q56 0 82.5 30.5t34.5 77.5l86 490h140l-87 -498q-18 -103 -85.5 -159.5t-182.5 -56.5zM499 894h132l93 -141h-123l-44 67l-67 -67h-134z" />
    <glyph glyph-name="jcircumflex" unicode="&#x135;" horiz-adv-x="280" 
d="M-53 -69h31q20 0 30 8.5t13 27.5l98 553h136l-101 -573q-11 -62 -43.5 -91.5t-98.5 -29.5h-83zM154 733h131l84 -154h-120l-39 76l-61 -76h-131z" />
    <glyph glyph-name="Kcommaaccent" unicode="&#x136;" horiz-adv-x="646" 
d="M155 700h140l-59 -336l286 336h172l-314 -355l200 -345h-161l-186 346l-61 -346h-140zM217 -73h152l-102 -177h-112z" />
    <glyph glyph-name="kcommaaccent" unicode="&#x137;" horiz-adv-x="540" 
d="M151 730h136l-79 -446l196 236h160l-224 -268l140 -252h-148l-129 255l-45 -255h-136zM158 -73h152l-102 -177h-112z" />
    <glyph glyph-name="kgreenlandic" unicode="&#x138;" horiz-adv-x="540" 
d="M250 520l-42 -236l196 236h160l-224 -268l140 -252h-148l-129 255l-45 -255h-136l92 520h136z" />
    <glyph glyph-name="Lacute" unicode="&#x139;" horiz-adv-x="578" 
d="M155 700h140l-103 -584h323l-20 -116h-463zM258 894h174l-124 -141h-139z" />
    <glyph glyph-name="lacute" unicode="&#x13a;" horiz-adv-x="278" 
d="M156 730h136l-129 -730h-136zM255 924h174l-124 -141h-139z" />
    <glyph glyph-name="Lcommaaccent" unicode="&#x13b;" horiz-adv-x="578" 
d="M155 700h140l-103 -584h323l-20 -116h-463zM182 -73h152l-102 -177h-112z" />
    <glyph glyph-name="lcommaaccent" unicode="&#x13c;" horiz-adv-x="278" 
d="M156 730h136l-129 -730h-136zM8 -73h152l-102 -177h-112z" />
    <glyph glyph-name="Lcaron" unicode="&#x13d;" horiz-adv-x="578" 
d="M440 701h149l-114 -223h-114zM155 700h140l-103 -584h323l-20 -116h-463z" />
    <glyph glyph-name="lcaron" unicode="&#x13e;" horiz-adv-x="454" 
d="M394 730h149l-114 -223h-114zM156 730h136l-129 -730h-136z" />
    <glyph glyph-name="Ldot" unicode="&#x13f;" horiz-adv-x="578" 
d="M155 700h140l-103 -584h323l-20 -116h-463zM321 340q0 36 22.5 60t61.5 24q30 0 50.5 -20t20.5 -51q0 -35 -23 -60t-62 -25q-31 0 -50.5 21t-19.5 51z" />
    <glyph glyph-name="ldot" unicode="&#x140;" horiz-adv-x="454" 
d="M156 730h136l-129 -730h-136zM291 287q0 36 22.5 60t61.5 24q30 0 50.5 -20t20.5 -51q0 -35 -23 -60t-62 -25q-31 0 -50.5 21t-19.5 51z" />
    <glyph glyph-name="Lslash" unicode="&#x141;" horiz-adv-x="598" 
d="M38 322l78 42l59 336h140l-44 -252l150 82l-23 -129l-150 -82l-36 -203h323l-20 -116h-463l41 234l-78 -42z" />
    <glyph glyph-name="lslash" unicode="&#x142;" horiz-adv-x="296" 
d="M38 330l59 42l63 358h136l-44 -247l66 47l-24 -132l-65 -47l-62 -351h-136l42 240l-58 -42z" />
    <glyph glyph-name="Nacute" unicode="&#x143;" horiz-adv-x="724" 
d="M155 700h132l218 -477l84 477h136l-123 -700h-132l-218 476l-84 -476h-136zM447 894h174l-124 -141h-139z" />
    <glyph glyph-name="nacute" unicode="&#x144;" horiz-adv-x="594" 
d="M114 520h130l-13 -69q26 40 67 60.5t92 20.5q74 0 116.5 -45t42.5 -118q0 -11 -1 -22.5t-3 -23.5l-57 -323h-136l55 312q1 5 1.5 10t0.5 11q0 37 -23 57.5t-59 20.5q-49 0 -78 -29.5t-39 -84.5l-52 -297h-136zM365 733h184l-135 -154h-140z" />
    <glyph glyph-name="Ncommaaccent" unicode="&#x145;" horiz-adv-x="724" 
d="M155 700h132l218 -477l84 477h136l-123 -700h-132l-218 476l-84 -476h-136zM233 -73h152l-102 -177h-112z" />
    <glyph glyph-name="ncommaaccent" unicode="&#x146;" horiz-adv-x="594" 
d="M114 520h130l-13 -69q26 40 67 60.5t92 20.5q74 0 116.5 -45t42.5 -118q0 -11 -1 -22.5t-3 -23.5l-57 -323h-136l55 312q1 5 1.5 10t0.5 11q0 37 -23 57.5t-59 20.5q-49 0 -78 -29.5t-39 -84.5l-52 -297h-136zM173 -73h152l-102 -177h-112z" />
    <glyph glyph-name="Ncaron" unicode="&#x147;" horiz-adv-x="724" 
d="M155 700h132l218 -477l84 477h136l-123 -700h-132l-218 476l-84 -476h-136zM281 894h122l45 -67l65 67h136l-143 -141h-132z" />
    <glyph glyph-name="ncaron" unicode="&#x148;" horiz-adv-x="594" 
d="M114 520h130l-13 -69q26 40 67 60.5t92 20.5q74 0 116.5 -45t42.5 -118q0 -11 -1 -22.5t-3 -23.5l-57 -323h-136l55 312q1 5 1.5 10t0.5 11q0 37 -23 57.5t-59 20.5q-49 0 -78 -29.5t-39 -84.5l-52 -297h-136zM421 579h-131l-84 154h120l40 -77l60 77h131z" />
    <glyph glyph-name="napostrophe" unicode="&#x149;" horiz-adv-x="732" 
d="M124 730h149l-114 -223h-114zM252 520h130l-13 -69q26 40 67 60.5t92 20.5q74 0 116.5 -45t42.5 -118q0 -11 -1 -22.5t-3 -23.5l-57 -323h-136l55 312q1 5 1.5 10t0.5 11q0 37 -23 57.5t-59 20.5q-49 0 -78 -29.5t-39 -84.5l-52 -297h-136z" />
    <glyph glyph-name="Eng" unicode="&#x14a;" horiz-adv-x="724" 
d="M155 700h132l218 -477l84 477h136l-125 -711q-14 -83 -64 -123t-146 -40h-65l19 105h36q40 0 60 16.5t25 47.5l2 11l-215 470l-84 -476h-136z" />
    <glyph glyph-name="eng" unicode="&#x14b;" horiz-adv-x="594" 
d="M114 520h130l-13 -69q26 40 67 60.5t92 20.5q74 0 116.5 -45t42.5 -118q0 -11 -1 -22.5t-3 -23.5l-60 -340q-14 -82 -58.5 -119.5t-131.5 -37.5h-68l19 104h30q29 0 48.5 12.5t25.5 46.5l57 323q1 5 1.5 10t0.5 11q0 37 -23 57.5t-59 20.5q-49 0 -78 -29.5t-39 -84.5
l-52 -297h-136z" />
    <glyph glyph-name="Omacron" unicode="&#x14c;" horiz-adv-x="723" 
d="M352 101q78 0 122.5 50t58.5 131l18 105q2 9 3 22t1 24q0 36 -10.5 66.5t-31 52.5t-50 34.5t-66.5 12.5q-81 0 -123.5 -48.5t-57.5 -135.5l-17 -98q-2 -14 -3.5 -27.5t-1.5 -26.5q0 -73 39.5 -117.5t118.5 -44.5zM347 -14q-68 0 -122 20.5t-91 57t-56.5 87.5t-19.5 112
q0 35 6 71l16 92q25 141 104 214.5t220 73.5q64 0 117 -20.5t91.5 -57t59.5 -87.5t21 -111q0 -31 -6 -64l-16 -89q-12 -66 -38 -121t-66.5 -94.5t-95.5 -61.5t-124 -22zM269 881h376l-19 -109h-376z" />
    <glyph glyph-name="omacron" unicode="&#x14d;" horiz-adv-x="575" 
d="M274 95q50 0 78 29t37 79l16 91q3 16 3 30q0 48 -28 74.5t-78 26.5q-53 0 -79.5 -29.5t-36.5 -83.5l-16 -91q-1 -4 -2 -11.5t-1 -15.5q0 -48 29.5 -73.5t77.5 -25.5zM271 -12q-53 0 -96 15.5t-73 43.5t-46.5 67.5t-16.5 87.5q0 12 1 23t3 25l12 68q20 111 84 162.5
t165 51.5q55 0 98.5 -15t73.5 -43t46 -67t16 -87q0 -13 -1.5 -26t-3.5 -27l-11 -63q-8 -48 -28 -88t-51.5 -68.5t-74.5 -44t-97 -15.5zM201 706h329l-18 -107h-329z" />
    <glyph glyph-name="Obreve" unicode="&#x14e;" horiz-adv-x="723" 
d="M352 101q78 0 122.5 50t58.5 131l18 105q2 9 3 22t1 24q0 36 -10.5 66.5t-31 52.5t-50 34.5t-66.5 12.5q-81 0 -123.5 -48.5t-57.5 -135.5l-17 -98q-2 -14 -3.5 -27.5t-1.5 -26.5q0 -73 39.5 -117.5t118.5 -44.5zM347 -14q-68 0 -122 20.5t-91 57t-56.5 87.5t-19.5 112
q0 35 6 71l16 92q25 141 104 214.5t220 73.5q64 0 117 -20.5t91.5 -57t59.5 -87.5t21 -111q0 -31 -6 -64l-16 -89q-12 -66 -38 -121t-66.5 -94.5t-95.5 -61.5t-124 -22zM449 753q-37 0 -69 9t-55 26.5t-34.5 44t-6.5 61.5h105q-4 -26 14 -44t54 -18q39 0 58 19.5t24 42.5
h105q-12 -72 -64.5 -106.5t-130.5 -34.5z" />
    <glyph glyph-name="obreve" unicode="&#x14f;" horiz-adv-x="575" 
d="M274 95q50 0 78 29t37 79l16 91q3 16 3 30q0 48 -28 74.5t-78 26.5q-53 0 -79.5 -29.5t-36.5 -83.5l-16 -91q-1 -4 -2 -11.5t-1 -15.5q0 -48 29.5 -73.5t77.5 -25.5zM271 -12q-53 0 -96 15.5t-73 43.5t-46.5 67.5t-16.5 87.5q0 12 1 23t3 25l12 68q20 111 84 162.5
t165 51.5q55 0 98.5 -15t73.5 -43t46 -67t16 -87q0 -13 -1.5 -26t-3.5 -27l-11 -63q-8 -48 -28 -88t-51.5 -68.5t-74.5 -44t-97 -15.5zM350 579q-35 0 -66 9.5t-53.5 28.5t-34.5 48t-8 68h98q-3 -32 14 -53.5t55 -21.5q21 0 35.5 7t23.5 18t14.5 24t8.5 26h99
q-11 -72 -60 -113t-126 -41z" />
    <glyph glyph-name="Ohungarumlaut" unicode="&#x150;" horiz-adv-x="723" 
d="M352 101q78 0 122.5 50t58.5 131l18 105q2 9 3 22t1 24q0 36 -10.5 66.5t-31 52.5t-50 34.5t-66.5 12.5q-81 0 -123.5 -48.5t-57.5 -135.5l-17 -98q-2 -14 -3.5 -27.5t-1.5 -26.5q0 -73 39.5 -117.5t118.5 -44.5zM347 -14q-68 0 -122 20.5t-91 57t-56.5 87.5t-19.5 112
q0 35 6 71l16 92q25 141 104 214.5t220 73.5q64 0 117 -20.5t91.5 -57t59.5 -87.5t21 -111q0 -31 -6 -64l-16 -89q-12 -66 -38 -121t-66.5 -94.5t-95.5 -61.5t-124 -22zM347 894h146l-89 -141h-125zM556 894h146l-89 -141h-125z" />
    <glyph glyph-name="ohungarumlaut" unicode="&#x151;" horiz-adv-x="575" 
d="M274 95q50 0 78 29t37 79l16 91q3 16 3 30q0 48 -28 74.5t-78 26.5q-53 0 -79.5 -29.5t-36.5 -83.5l-16 -91q-1 -4 -2 -11.5t-1 -15.5q0 -48 29.5 -73.5t77.5 -25.5zM271 -12q-53 0 -96 15.5t-73 43.5t-46.5 67.5t-16.5 87.5q0 12 1 23t3 25l12 68q20 111 84 162.5
t165 51.5q55 0 98.5 -15t73.5 -43t46 -67t16 -87q0 -13 -1.5 -26t-3.5 -27l-11 -63q-8 -48 -28 -88t-51.5 -68.5t-74.5 -44t-97 -15.5zM255 733h147l-100 -154h-124zM458 733h147l-100 -154h-124z" />
    <glyph glyph-name="OE" unicode="&#x152;" horiz-adv-x="1046" 
d="M359 0q-72 0 -127.5 19.5t-94 55t-58.5 85.5t-20 112q0 19 1.5 34.5t4.5 32.5l12 68q14 79 43.5 134.5t75 90.5t107 51.5t140.5 16.5h623l-20 -116h-342l-30 -171h313l-21 -116h-312l-32 -181h343l-21 -116h-585zM203 327q-2 -14 -3.5 -26.5t-1.5 -24.5q0 -75 43 -117.5
t131 -42.5h110l82 468h-130q-52 0 -89.5 -12t-63.5 -35.5t-42 -59t-24 -82.5z" />
    <glyph glyph-name="oe" unicode="&#x153;" horiz-adv-x="920" 
d="M615 -12q-57 0 -101.5 18t-70.5 51q-25 -27 -70.5 -48t-101.5 -21q-112 0 -172 57t-60 157q0 12 1 23t3 25l12 68q20 111 84 162.5t165 51.5q59 0 102 -17t77 -52q35 39 78 54t100 15q49 0 89 -14t68 -40t43.5 -63t15.5 -83q0 -9 -1 -22t-3 -26l-12 -70h-339
q-3 -15 -3 -29q0 -45 26 -73t80 -28q41 0 65.5 20.5t34.5 47.5h121q-20 -72 -79.5 -118t-151.5 -46zM274 95q50 0 78.5 30t36.5 78l18 103q1 5 1 10v8q0 48 -27.5 74.5t-78.5 26.5q-53 0 -79.5 -29.5t-36.5 -83.5l-16 -91q-1 -4 -2 -11.5t-1 -15.5q0 -48 27.5 -73.5
t79.5 -25.5zM539 310h214l2 13q1 5 1.5 10.5t0.5 9.5q0 41 -25.5 66.5t-72.5 25.5q-53 0 -80.5 -31t-38.5 -91z" />
    <glyph glyph-name="Racute" unicode="&#x154;" horiz-adv-x="696" 
d="M366 225h-155l-39 -225h-140l123 700h298q51 0 93 -15.5t72 -44t47 -68t17 -86.5q0 -89 -47.5 -152t-129.5 -91l105 -243h-153zM386 335q71 0 113.5 37.5t42.5 101.5q0 49 -32.5 81.5t-89.5 32.5h-145l-44 -253h155zM418 894h174l-124 -141h-139z" />
    <glyph glyph-name="racute" unicode="&#x155;" horiz-adv-x="378" 
d="M114 520h128l-15 -91q20 52 61 73.5t104 21.5h14l-24 -136h-24q-60 0 -101.5 -33t-55.5 -110l-43 -245h-136zM281 733h184l-135 -154h-140z" />
    <glyph glyph-name="Rcommaaccent" unicode="&#x156;" horiz-adv-x="696" 
d="M366 225h-155l-39 -225h-140l123 700h298q51 0 93 -15.5t72 -44t47 -68t17 -86.5q0 -89 -47.5 -152t-129.5 -91l105 -243h-153zM386 335q71 0 113.5 37.5t42.5 101.5q0 49 -32.5 81.5t-89.5 32.5h-145l-44 -253h155zM229 -73h152l-102 -177h-112z" />
    <glyph glyph-name="rcommaaccent" unicode="&#x157;" horiz-adv-x="378" 
d="M114 520h128l-15 -91q20 52 61 73.5t104 21.5h14l-24 -136h-24q-60 0 -101.5 -33t-55.5 -110l-43 -245h-136zM4 -73h152l-102 -177h-112z" />
    <glyph glyph-name="Rcaron" unicode="&#x158;" horiz-adv-x="696" 
d="M366 225h-155l-39 -225h-140l123 700h298q51 0 93 -15.5t72 -44t47 -68t17 -86.5q0 -89 -47.5 -152t-129.5 -91l105 -243h-153zM386 335q71 0 113.5 37.5t42.5 101.5q0 49 -32.5 81.5t-89.5 32.5h-145l-44 -253h155zM250 894h122l45 -67l65 67h136l-143 -141h-132z" />
    <glyph glyph-name="rcaron" unicode="&#x159;" horiz-adv-x="378" 
d="M114 520h128l-15 -91q20 52 61 73.5t104 21.5h14l-24 -136h-24q-60 0 -101.5 -33t-55.5 -110l-43 -245h-136zM336 579h-131l-84 154h120l40 -77l60 77h131z" />
    <glyph glyph-name="Sacute" unicode="&#x15a;" horiz-adv-x="651" 
d="M319 -14q-49 0 -97 11.5t-86 35t-61.5 59.5t-23.5 85q0 16 3 34l2 12h132l-2 -11q-1 -5 -1.5 -10.5t-0.5 -10.5q0 -26 12 -44t32 -29.5t46 -17t54 -5.5q57 0 96 29t39 80q0 58 -61 74l-155 39q-69 17 -105.5 58t-36.5 104q0 59 21 103t58.5 73.5t87.5 44t109 14.5
q46 0 90 -12t78 -35t55 -56.5t21 -77.5q0 -9 -1 -20t-3 -17l-1 -5h-130l1 5q2 10 2 20q0 23 -10.5 39.5t-28 27.5t-40 16.5t-46.5 5.5q-25 0 -47.5 -6.5t-40 -19t-27.5 -32t-10 -45.5q0 -25 14 -40t38 -22l162 -43q66 -17 105.5 -60.5t39.5 -108.5q0 -59 -23 -104
t-61.5 -75.5t-90 -46.5t-108.5 -16zM413 894h174l-124 -141h-139z" />
    <glyph glyph-name="sacute" unicode="&#x15b;" horiz-adv-x="518" 
d="M229 -12q-41 0 -79 9.5t-66.5 28t-45.5 45.5t-17 61q0 5 0.5 11.5t1.5 11.5l1 6h119l-1 -5q-4 -19 3 -33t21 -23t33.5 -13t41.5 -4q41 0 70 17.5t29 52.5q0 16 -8.5 27.5t-30.5 16.5l-132 30q-53 12 -80 43t-27 78q0 46 17 81t47 57.5t71.5 34t91.5 11.5q38 0 74 -8.5
t64.5 -25.5t45.5 -44t17 -64q0 -6 -0.5 -13.5t-1.5 -12.5l-1 -6h-119l1 6q6 36 -21.5 54.5t-66.5 18.5q-38 0 -63.5 -16t-25.5 -51q0 -18 10 -27.5t29 -14.5l135 -33q50 -13 77 -43.5t27 -75.5t-19 -80t-51.5 -59t-76.5 -36.5t-94 -12.5zM328 733h184l-135 -154h-140z" />
    <glyph glyph-name="Scircumflex" unicode="&#x15c;" horiz-adv-x="651" 
d="M319 -14q-49 0 -97 11.5t-86 35t-61.5 59.5t-23.5 85q0 16 3 34l2 12h132l-2 -11q-1 -5 -1.5 -10.5t-0.5 -10.5q0 -26 12 -44t32 -29.5t46 -17t54 -5.5q57 0 96 29t39 80q0 58 -61 74l-155 39q-69 17 -105.5 58t-36.5 104q0 59 21 103t58.5 73.5t87.5 44t109 14.5
q46 0 90 -12t78 -35t55 -56.5t21 -77.5q0 -9 -1 -20t-3 -17l-1 -5h-130l1 5q2 10 2 20q0 23 -10.5 39.5t-28 27.5t-40 16.5t-46.5 5.5q-25 0 -47.5 -6.5t-40 -19t-27.5 -32t-10 -45.5q0 -25 14 -40t38 -22l162 -43q66 -17 105.5 -60.5t39.5 -108.5q0 -59 -23 -104
t-61.5 -75.5t-90 -46.5t-108.5 -16zM359 894h132l93 -141h-123l-44 67l-67 -67h-134z" />
    <glyph glyph-name="scircumflex" unicode="&#x15d;" horiz-adv-x="518" 
d="M229 -12q-41 0 -79 9.5t-66.5 28t-45.5 45.5t-17 61q0 5 0.5 11.5t1.5 11.5l1 6h119l-1 -5q-4 -19 3 -33t21 -23t33.5 -13t41.5 -4q41 0 70 17.5t29 52.5q0 16 -8.5 27.5t-30.5 16.5l-132 30q-53 12 -80 43t-27 78q0 46 17 81t47 57.5t71.5 34t91.5 11.5q38 0 74 -8.5
t64.5 -25.5t45.5 -44t17 -64q0 -6 -0.5 -13.5t-1.5 -12.5l-1 -6h-119l1 6q6 36 -21.5 54.5t-66.5 18.5q-38 0 -63.5 -16t-25.5 -51q0 -18 10 -27.5t29 -14.5l135 -33q50 -13 77 -43.5t27 -75.5t-19 -80t-51.5 -59t-76.5 -36.5t-94 -12.5zM271 733h131l84 -154h-120l-39 76
l-61 -76h-131z" />
    <glyph glyph-name="Scedilla" unicode="&#x15e;" horiz-adv-x="651" 
d="M289 -186q-20 0 -39 1.5t-33 4.5l9 55q22 -5 44 -5q20 0 31 6t11 17t-9.5 15.5t-25.5 6.5l-33 4l25 70q-43 5 -82.5 18.5t-69.5 37t-48 56.5t-18 76q0 16 3 34l2 12h132l-2 -11q-1 -5 -1.5 -10.5t-0.5 -10.5q0 -26 12 -44t31.5 -29.5t45.5 -17t55 -5.5q57 0 96 29t39 80
q0 58 -61 74l-155 39q-69 17 -105.5 58t-36.5 104q0 59 21 103t58.5 73.5t87.5 44t109 14.5q46 0 90 -12t78 -35t55 -56.5t21 -77.5q0 -9 -1 -20t-3 -17l-1 -5h-130l1 5q2 10 2 20q0 23 -10.5 39.5t-28 27.5t-40 16.5t-46.5 5.5q-25 0 -47.5 -6.5t-40 -19t-27.5 -32
t-10 -45.5q0 -25 14 -40t38 -22l162 -43q66 -17 105.5 -60.5t39.5 -108.5q0 -57 -21.5 -101t-58.5 -75t-85.5 -47.5t-103.5 -18.5l-7 -23l19 -2q29 -3 47 -19t18 -44q0 -21 -9.5 -37t-26 -26.5t-38.5 -15.5t-47 -5z" />
    <glyph glyph-name="scedilla" unicode="&#x15f;" horiz-adv-x="518" 
d="M209 -186q-20 0 -39 1.5t-33 4.5l9 55q22 -5 44 -5q20 0 31 6t11 17t-9.5 15.5t-25.5 6.5l-33 4l25 72q-35 4 -65.5 15t-53.5 29t-36 42.5t-13 54.5q0 5 0.5 11.5t1.5 11.5l1 6h119l-1 -5q-4 -19 3 -33t21 -23t33.5 -13t41.5 -4q41 0 70 17.5t29 52.5q0 16 -8.5 27.5
t-30.5 16.5l-132 30q-53 12 -80 43t-27 78q0 46 17 81t47 57.5t71.5 34t91.5 11.5q38 0 74 -8.5t64.5 -25.5t45.5 -44t17 -64q0 -6 -0.5 -13.5t-1.5 -12.5l-1 -6h-119l1 6q6 36 -21.5 54.5t-66.5 18.5q-38 0 -63.5 -16t-25.5 -51q0 -18 10 -27.5t29 -14.5l135 -33
q50 -13 77 -43.5t27 -75.5q0 -42 -16.5 -75.5t-46 -57t-69 -37.5t-85.5 -17l-7 -26l19 -2q29 -3 47 -19t18 -44q0 -21 -9.5 -37t-26 -26.5t-38.5 -15.5t-47 -5z" />
    <glyph glyph-name="Scaron" unicode="&#x160;" horiz-adv-x="651" 
d="M319 -14q-49 0 -97 11.5t-86 35t-61.5 59.5t-23.5 85q0 16 3 34l2 12h132l-2 -11q-1 -5 -1.5 -10.5t-0.5 -10.5q0 -26 12 -44t32 -29.5t46 -17t54 -5.5q57 0 96 29t39 80q0 58 -61 74l-155 39q-69 17 -105.5 58t-36.5 104q0 59 21 103t58.5 73.5t87.5 44t109 14.5
q46 0 90 -12t78 -35t55 -56.5t21 -77.5q0 -9 -1 -20t-3 -17l-1 -5h-130l1 5q2 10 2 20q0 23 -10.5 39.5t-28 27.5t-40 16.5t-46.5 5.5q-25 0 -47.5 -6.5t-40 -19t-27.5 -32t-10 -45.5q0 -25 14 -40t38 -22l162 -43q66 -17 105.5 -60.5t39.5 -108.5q0 -59 -23 -104
t-61.5 -75.5t-90 -46.5t-108.5 -16zM239 894h122l45 -67l65 67h136l-143 -141h-132z" />
    <glyph glyph-name="scaron" unicode="&#x161;" horiz-adv-x="518" 
d="M229 -12q-41 0 -79 9.5t-66.5 28t-45.5 45.5t-17 61q0 5 0.5 11.5t1.5 11.5l1 6h119l-1 -5q-4 -19 3 -33t21 -23t33.5 -13t41.5 -4q41 0 70 17.5t29 52.5q0 16 -8.5 27.5t-30.5 16.5l-132 30q-53 12 -80 43t-27 78q0 46 17 81t47 57.5t71.5 34t91.5 11.5q38 0 74 -8.5
t64.5 -25.5t45.5 -44t17 -64q0 -6 -0.5 -13.5t-1.5 -12.5l-1 -6h-119l1 6q6 36 -21.5 54.5t-66.5 18.5q-38 0 -63.5 -16t-25.5 -51q0 -18 10 -27.5t29 -14.5l135 -33q50 -13 77 -43.5t27 -75.5t-19 -80t-51.5 -59t-76.5 -36.5t-94 -12.5zM374 579h-131l-84 154h120l40 -77
l60 77h131z" />
    <glyph glyph-name="Tcommaaccent" unicode="&#x162;" 
d="M279 584h-196l21 116h532l-21 -116h-195l-103 -584h-140zM159 -73h152l-102 -177h-112z" />
    <glyph glyph-name="tcommaaccent" unicode="&#x163;" horiz-adv-x="379" 
d="M205 0q-60 0 -95 30.5t-35 85.5q0 15 3 32l46 262h-74l19 110h75l25 142h136l-25 -142h111l-19 -110h-112l-44 -251q-9 -49 45 -49h52l-19 -110h-89zM87 -73h152l-102 -177h-112z" />
    <glyph glyph-name="Tcaron" unicode="&#x164;" 
d="M279 584h-196l21 116h532l-21 -116h-195l-103 -584h-140zM216 894h122l45 -67l65 67h136l-143 -141h-132z" />
    <glyph glyph-name="tcaron" unicode="&#x165;" horiz-adv-x="432" 
d="M391 730h137l-77 -153h-108zM205 0q-60 0 -95 30.5t-35 85.5q0 15 3 32l46 262h-74l19 110h75l25 142h136l-25 -142h111l-19 -110h-112l-44 -251q-9 -49 45 -49h52l-19 -110h-89z" />
    <glyph glyph-name="Tbar" unicode="&#x166;" 
d="M116 383h128l35 201h-196l21 116h532l-21 -116h-195l-36 -201h129l-20 -112h-128l-48 -271h-140l47 271h-128z" />
    <glyph glyph-name="tbar" unicode="&#x167;" horiz-adv-x="379" 
d="M34 317h73l17 93h-74l19 110h75l25 142h136l-25 -142h111l-19 -110h-112l-17 -93h92l-18 -103h-92l-9 -55q-9 -49 45 -49h52l-19 -110h-89q-60 0 -95 30.5t-35 85.5q0 15 3 32l11 66h-73z" />
    <glyph glyph-name="Utilde" unicode="&#x168;" horiz-adv-x="716" 
d="M330 -14q-50 0 -97 15t-83.5 44.5t-59 71.5t-22.5 96q0 11 1 22.5t3 19.5l78 445h140l-79 -450q-3 -15 -3 -30q0 -56 36.5 -87t95.5 -31q72 0 112 39.5t52 109.5l79 449h140l-79 -449q-11 -62 -37 -111t-65.5 -83.5t-93 -52.5t-118.5 -18zM230 776q8 28 18.5 51t26 39
t37.5 25t54 9q24 0 48.5 -6.5t46.5 -13.5l42 -14q20 -7 32 -7q21 0 30.5 15t15.5 32l85 -29q-8 -28 -18.5 -50.5t-25.5 -38.5t-36 -24.5t-50 -8.5q-20 0 -43 6.5t-46.5 14.5t-45.5 14.5t-38 6.5q-20 0 -29.5 -13.5t-17.5 -33.5z" />
    <glyph glyph-name="utilde" unicode="&#x169;" horiz-adv-x="593" 
d="M207 -12q-73 0 -116.5 44t-43.5 118q0 11 1 22.5t3 22.5l58 325h136l-56 -313q-2 -9 -2 -14v-11q0 -37 22 -56.5t58 -19.5q46 0 76 30.5t38 77.5l55 306h136l-91 -520h-130l12 64q-19 -32 -61.5 -54t-94.5 -22zM170 608q9 28 18.5 50.5t23 37.5t32.5 23t48 8
q21 0 44 -6.5t44.5 -15t39 -15t28.5 -6.5q9 0 15.5 5t11.5 12t8 14.5t6 13.5l85 -31q-8 -22 -17 -43.5t-21.5 -38t-30 -26.5t-41.5 -10q-18 0 -39.5 6.5t-44 15t-43 15t-36.5 6.5q-19 0 -26.5 -10.5t-17.5 -33.5z" />
    <glyph glyph-name="Umacron" unicode="&#x16a;" horiz-adv-x="716" 
d="M330 -14q-50 0 -97 15t-83.5 44.5t-59 71.5t-22.5 96q0 11 1 22.5t3 19.5l78 445h140l-79 -450q-3 -15 -3 -30q0 -56 36.5 -87t95.5 -31q72 0 112 39.5t52 109.5l79 449h140l-79 -449q-11 -62 -37 -111t-65.5 -83.5t-93 -52.5t-118.5 -18zM279 881h376l-19 -109h-376z
" />
    <glyph glyph-name="umacron" unicode="&#x16b;" horiz-adv-x="593" 
d="M207 -12q-73 0 -116.5 44t-43.5 118q0 11 1 22.5t3 22.5l58 325h136l-56 -313q-2 -9 -2 -14v-11q0 -37 22 -56.5t58 -19.5q46 0 76 30.5t38 77.5l55 306h136l-91 -520h-130l12 64q-19 -32 -61.5 -54t-94.5 -22zM213 706h329l-18 -107h-329z" />
    <glyph glyph-name="Ubreve" unicode="&#x16c;" horiz-adv-x="716" 
d="M330 -14q-50 0 -97 15t-83.5 44.5t-59 71.5t-22.5 96q0 11 1 22.5t3 19.5l78 445h140l-79 -450q-3 -15 -3 -30q0 -56 36.5 -87t95.5 -31q72 0 112 39.5t52 109.5l79 449h140l-79 -449q-11 -62 -37 -111t-65.5 -83.5t-93 -52.5t-118.5 -18zM450 753q-37 0 -69 9t-55 26.5
t-34.5 44t-6.5 61.5h105q-4 -26 14 -44t54 -18q39 0 58 19.5t24 42.5h105q-12 -72 -64.5 -106.5t-130.5 -34.5z" />
    <glyph glyph-name="ubreve" unicode="&#x16d;" horiz-adv-x="593" 
d="M207 -12q-73 0 -116.5 44t-43.5 118q0 11 1 22.5t3 22.5l58 325h136l-56 -313q-2 -9 -2 -14v-11q0 -37 22 -56.5t58 -19.5q46 0 76 30.5t38 77.5l55 306h136l-91 -520h-130l12 64q-19 -32 -61.5 -54t-94.5 -22zM371 579q-35 0 -66 9.5t-53.5 28.5t-34.5 48t-8 68h98
q-3 -32 14 -53.5t55 -21.5q21 0 35.5 7t23.5 18t14.5 24t8.5 26h99q-11 -72 -60 -113t-126 -41z" />
    <glyph glyph-name="Uring" unicode="&#x16e;" horiz-adv-x="716" 
d="M330 -14q-50 0 -97 15t-83.5 44.5t-59 71.5t-22.5 96q0 11 1 22.5t3 19.5l78 445h140l-79 -450q-3 -15 -3 -30q0 -56 36.5 -87t95.5 -31q72 0 112 39.5t52 109.5l79 449h140l-79 -449q-11 -62 -37 -111t-65.5 -83.5t-93 -52.5t-118.5 -18zM452 801q24 0 36 15.5t12 33.5
q0 17 -12 28.5t-32 11.5q-24 0 -36.5 -13.5t-12.5 -35.5q0 -17 12 -28.5t33 -11.5zM449 753q-46 0 -73 23t-27 64q0 45 30.5 71.5t76.5 26.5q43 0 72.5 -22.5t29.5 -63.5q0 -44 -31.5 -71.5t-77.5 -27.5z" />
    <glyph glyph-name="uring" unicode="&#x16f;" horiz-adv-x="593" 
d="M207 -12q-73 0 -116.5 44t-43.5 118q0 11 1 22.5t3 22.5l58 325h136l-56 -313q-2 -9 -2 -14v-11q0 -37 22 -56.5t58 -19.5q46 0 76 30.5t38 77.5l55 306h136l-91 -520h-130l12 64q-19 -32 -61.5 -54t-94.5 -22zM371 627q23 0 35.5 15t12.5 34q0 17 -12 28.5t-32 11.5
q-24 0 -36.5 -13t-12.5 -36q0 -17 11.5 -28.5t33.5 -11.5zM368 579q-46 0 -73 23t-27 64q0 45 31 71.5t76 26.5q43 0 72.5 -22.5t29.5 -63.5q0 -44 -31.5 -71.5t-77.5 -27.5z" />
    <glyph glyph-name="Uhungarumlaut" unicode="&#x170;" horiz-adv-x="716" 
d="M330 -14q-50 0 -97 15t-83.5 44.5t-59 71.5t-22.5 96q0 11 1 22.5t3 19.5l78 445h140l-79 -450q-3 -15 -3 -30q0 -56 36.5 -87t95.5 -31q72 0 112 39.5t52 109.5l79 449h140l-79 -449q-11 -62 -37 -111t-65.5 -83.5t-93 -52.5t-118.5 -18zM325 894h146l-89 -141h-125z
M534 894h146l-89 -141h-125z" />
    <glyph glyph-name="uhungarumlaut" unicode="&#x171;" horiz-adv-x="593" 
d="M207 -12q-73 0 -116.5 44t-43.5 118q0 11 1 22.5t3 22.5l58 325h136l-56 -313q-2 -9 -2 -14v-11q0 -37 22 -56.5t58 -19.5q46 0 76 30.5t38 77.5l55 306h136l-91 -520h-130l12 64q-19 -32 -61.5 -54t-94.5 -22zM261 733h147l-100 -154h-124zM464 733h147l-100 -154h-124z
" />
    <glyph glyph-name="Uogonek" unicode="&#x172;" horiz-adv-x="716" 
d="M355 -186q-48 0 -74.5 22.5t-26.5 60.5q0 28 16.5 51.5t38.5 38.5q-47 3 -90 19.5t-77 45t-54 69.5t-20 92q0 11 1 22.5t3 19.5l78 445h140l-79 -450q-3 -15 -3 -30q0 -56 36.5 -87t95.5 -31q72 0 112 39.5t52 109.5l79 449h140l-79 -449q-14 -82 -54.5 -139.5
t-105.5 -92.5q-46 -24 -75.5 -48t-29.5 -54q0 -24 31 -24q6 0 13.5 0.5t13.5 2.5l-13 -73q-8 -2 -28 -5.5t-41 -3.5z" />
    <glyph glyph-name="uogonek" unicode="&#x173;" horiz-adv-x="593" 
d="M207 -12q-73 0 -116.5 44t-43.5 118q0 11 1 22.5t3 22.5l58 325h136l-56 -313q-2 -9 -2 -14v-11q0 -37 22 -56.5t58 -19.5q46 0 76 30.5t38 77.5l55 306h136l-91 -520q-13 -7 -26.5 -15.5t-24.5 -19t-18 -22.5t-7 -26q0 -24 31 -24q6 0 13.5 0.5t13.5 2.5l-13 -73
q-8 -2 -28 -5.5t-41 -3.5q-48 0 -74.5 22.5t-26.5 60.5q0 37 21 60t50 43l12 64q-19 -32 -61.5 -54t-94.5 -22z" />
    <glyph glyph-name="Wcircumflex" unicode="&#x174;" horiz-adv-x="947" 
d="M105 700h138l12 -503l229 503h133l58 -503l188 503h140l-289 -700h-131l-55 536l-247 -536h-131zM518 894h132l93 -141h-123l-44 67l-67 -67h-134z" />
    <glyph glyph-name="wcircumflex" unicode="&#x175;" horiz-adv-x="777" 
d="M66 520h131l15 -353l163 353h119l44 -353l137 353h132l-228 -520h-123l-46 363l-174 -363h-123zM402 733h131l84 -154h-120l-39 76l-61 -76h-131z" />
    <glyph glyph-name="Ycircumflex" unicode="&#x176;" horiz-adv-x="624" 
d="M240 256l-160 444h147l104 -320l205 320h159l-318 -460l-42 -240h-140zM340 894h132l93 -141h-123l-44 67l-67 -67h-134z" />
    <glyph glyph-name="ycircumflex" unicode="&#x177;" horiz-adv-x="508" 
d="M64 -174l87 177l-98 517h136l49 -380l168 380h139l-344 -694h-137zM264 733h131l84 -154h-120l-39 76l-61 -76h-131z" />
    <glyph glyph-name="Ydieresis" unicode="&#x178;" horiz-adv-x="624" 
d="M240 256l-160 444h147l104 -320l205 320h159l-318 -460l-42 -240h-140zM216 819q0 33 22 56.5t60 23.5q28 0 47 -17.5t19 -46.5q0 -34 -22.5 -58t-59.5 -24q-28 0 -47 18.5t-19 47.5zM440 819q0 33 22 56.5t60 23.5q28 0 47 -17.5t19 -46.5q0 -34 -22.5 -58t-59.5 -24
q-28 0 -47 18.5t-19 47.5z" />
    <glyph glyph-name="Zacute" unicode="&#x179;" horiz-adv-x="614" 
d="M35 116l415 468h-322l20 116h484l-21 -116l-415 -468h344l-20 -116h-505zM399 894h174l-124 -141h-139z" />
    <glyph glyph-name="zacute" unicode="&#x17a;" horiz-adv-x="515" 
d="M25 96l309 322h-242l17 102h400l-17 -96l-309 -322h259l-18 -102h-416zM330 733h184l-135 -154h-140z" />
    <glyph glyph-name="Zdotaccent" unicode="&#x17b;" horiz-adv-x="614" 
d="M35 116l415 468h-322l20 116h484l-21 -116l-415 -468h344l-20 -116h-505zM321 824q0 35 22.5 61t64.5 26q30 0 50.5 -18.5t20.5 -49.5q0 -18 -6 -34t-17 -28.5t-27 -20t-37 -7.5q-30 0 -50.5 19.5t-20.5 51.5z" />
    <glyph glyph-name="zdotaccent" unicode="&#x17c;" horiz-adv-x="515" 
d="M25 96l309 322h-242l17 102h400l-17 -96l-309 -322h259l-18 -102h-416zM251 650q0 35 22.5 61t64.5 26q30 0 50.5 -18.5t20.5 -49.5q0 -18 -6 -34t-17 -28.5t-27 -20t-37 -7.5q-30 0 -50.5 19.5t-20.5 51.5z" />
    <glyph glyph-name="Zcaron" unicode="&#x17d;" horiz-adv-x="614" 
d="M35 116l415 468h-322l20 116h484l-21 -116l-415 -468h344l-20 -116h-505zM245 894h122l45 -67l65 67h136l-143 -141h-132z" />
    <glyph glyph-name="zcaron" unicode="&#x17e;" horiz-adv-x="515" 
d="M25 96l309 322h-242l17 102h400l-17 -96l-309 -322h259l-18 -102h-416zM395 579h-131l-84 154h120l40 -77l60 77h131z" />
    <glyph glyph-name="florin" unicode="&#x192;" horiz-adv-x="463" 
d="M-33 -63h47q29 0 44 13.5t21 36.5l90 339h-81l20 111h91l33 125q20 74 58.5 106t108.5 32h104l-19 -111h-61q-27 0 -39.5 -10.5t-19.5 -36.5l-28 -105h92l-20 -111h-101l-98 -365q-18 -66 -58.5 -100.5t-117.5 -34.5h-85z" />
    <glyph glyph-name="Aringacute" unicode="&#x1fa;" horiz-adv-x="688" 
d="M341 684q-17 22 -17 51q0 42 30.5 68t76.5 26q43 0 72.5 -22t29.5 -60q0 -23 -10 -41t-27 -31l127 -675h-136l-22 148h-269l-71 -148h-147zM251 260h198l-45 319zM452 965h168l-97 -110h-139zM427 700q24 0 36 14t12 31q0 15 -12 25.5t-32 10.5q-24 0 -36.5 -12.5
t-12.5 -32.5q0 -15 12 -25.5t33 -10.5z" />
    <glyph glyph-name="aringacute" unicode="&#x1fb;" 
d="M376 615q23 0 36.5 13.5t13.5 31.5q0 20 -13.5 30t-33.5 10q-24 0 -37.5 -13t-13.5 -33q0 -17 12 -28t36 -11zM373 569q-44 0 -72.5 22t-28.5 61q0 42 29.5 68t78.5 26q44 0 72.5 -21.5t28.5 -60.5q0 -42 -31.5 -68.5t-76.5 -26.5zM404 887h169l-97 -110h-137zM203 -12
q-44 0 -77 12t-55.5 32.5t-33.5 48t-11 59.5q0 45 16.5 77.5t45 54.5t66 32.5t80.5 10.5q55 0 94.5 -14t59.5 -33l12 67q7 40 -16 65.5t-64 25.5q-35 0 -56.5 -12t-36.5 -37h-127q32 84 91 119.5t143 35.5q40 0 77 -12t65.5 -34.5t45 -54t16.5 -70.5q0 -16 -3 -32l-58 -329
h-131l8 48q-18 -26 -60.5 -43t-90.5 -17zM157 149q0 -36 28.5 -52.5t66.5 -16.5q44 0 77 19.5t39 53.5q5 32 -24.5 53.5t-77.5 21.5q-45 0 -77 -18t-32 -61z" />
    <glyph glyph-name="AEacute" unicode="&#x1fc;" horiz-adv-x="1069" 
d="M693 894h174l-124 -141h-139zM511 148h-276l-120 -148h-160l592 700h542l-20 -116h-342l-30 -171h313l-21 -116h-312l-32 -181h343l-21 -116h-482zM530 260l57 322l-260 -322h203z" />
    <glyph glyph-name="aeacute" unicode="&#x1fd;" horiz-adv-x="912" 
d="M523 733h184l-135 -154h-140zM607 -12q-63 0 -110 23t-64 58q-15 -18 -38 -32.5t-50 -25.5t-57 -17t-60 -6q-49 0 -87 11.5t-63.5 32.5t-38.5 49.5t-13 61.5q0 43 15.5 75.5t43 54t65.5 32t84 10.5q55 0 91.5 -14t62.5 -33l12 67q7 40 -15.5 65t-64.5 25
q-35 0 -56.5 -11.5t-36.5 -36.5h-127q26 81 87 118t147 37q51 0 87 -15.5t65 -44.5q58 60 167 60q49 0 89 -14t68 -40t43.5 -63t15.5 -83q0 -9 -1 -22t-3 -26l-12 -70h-339q-3 -15 -3 -29q0 -45 26 -73t80 -28q41 0 65.5 20.5t34.5 47.5h121q-20 -72 -79.5 -118t-151.5 -46z
M157 151q0 -35 28.5 -53t71.5 -18q23 0 43.5 6.5t35.5 17.5t24 26t9 32q0 19 -10.5 31.5t-26.5 20t-35 11t-37 3.5q-20 0 -39 -4.5t-33 -14t-22.5 -24t-8.5 -34.5zM531 310h214l2 13q1 5 1.5 10.5t0.5 9.5q0 41 -25.5 66.5t-72.5 25.5q-53 0 -80 -29t-39 -91z" />
    <glyph glyph-name="Oslashacute" unicode="&#x1fe;" horiz-adv-x="725" 
d="M439 894h174l-124 -141h-139zM347 -14q-56 0 -101.5 13t-80.5 38l-71 -87h-98l115 140q-30 42 -41.5 82t-11.5 91q0 35 6 71l16 92q25 141 104 214.5t220 73.5q52 0 97 -13.5t81 -39.5l73 89h98l-116 -141q27 -35 41.5 -78t14.5 -93q0 -15 -1.5 -32t-4.5 -32l-16 -89
q-12 -66 -38 -121t-66.5 -94.5t-95.5 -61.5t-124 -22zM352 101q78 0 122.5 50t58.5 131l18 105q2 9 3 22t1 24q0 17 -2.5 34t-7.5 31l-300 -364q17 -16 45 -24.5t62 -8.5zM194 263q0 -17 2 -32t6 -30l299 363q-41 35 -104 35q-81 0 -123.5 -48.5t-57.5 -135.5l-17 -98
q-2 -14 -3.5 -27.5t-1.5 -26.5z" />
    <glyph glyph-name="oslashacute" unicode="&#x1ff;" horiz-adv-x="575" 
d="M346 733h184l-135 -154h-140zM271 -12q-86 0 -142 38l-64 -76h-75l95 114q-25 33 -35.5 64.5t-10.5 73.5q0 12 1 23t3 25l12 68q20 111 84 162.5t165 51.5q86 0 143 -37l64 76h75l-95 -113q23 -25 35 -60.5t12 -77.5q0 -13 -1.5 -26t-3.5 -27l-11 -63q-8 -48 -28 -88
t-51.5 -68.5t-74.5 -44t-97 -15.5zM274 95q50 0 78 29t37 79l16 91q3 16 3 30q0 18 -4 30l-200 -239q28 -20 70 -20zM167 194q0 -16 3 -29l201 240q-26 20 -69 20q-53 0 -79.5 -29.5t-36.5 -83.5l-16 -91q-1 -4 -2 -11.5t-1 -15.5z" />
    <glyph glyph-name="Scommaaccent" unicode="&#x218;" horiz-adv-x="651" 
d="M319 -14q-49 0 -97 11.5t-86 35t-61.5 59.5t-23.5 85q0 16 3 34l2 12h132l-2 -11q-1 -5 -1.5 -10.5t-0.5 -10.5q0 -26 12 -44t32 -29.5t46 -17t54 -5.5q57 0 96 29t39 80q0 58 -61 74l-155 39q-69 17 -105.5 58t-36.5 104q0 59 21 103t58.5 73.5t87.5 44t109 14.5
q46 0 90 -12t78 -35t55 -56.5t21 -77.5q0 -9 -1 -20t-3 -17l-1 -5h-130l1 5q2 10 2 20q0 23 -10.5 39.5t-28 27.5t-40 16.5t-46.5 5.5q-25 0 -47.5 -6.5t-40 -19t-27.5 -32t-10 -45.5q0 -25 14 -40t38 -22l162 -43q66 -17 105.5 -60.5t39.5 -108.5q0 -59 -23 -104
t-61.5 -75.5t-90 -46.5t-108.5 -16zM227 -73h152l-102 -177h-112z" />
    <glyph glyph-name="scommaaccent" unicode="&#x219;" horiz-adv-x="518" 
d="M229 -12q-41 0 -79 9.5t-66.5 28t-45.5 45.5t-17 61q0 5 0.5 11.5t1.5 11.5l1 6h119l-1 -5q-4 -19 3 -33t21 -23t33.5 -13t41.5 -4q41 0 70 17.5t29 52.5q0 16 -8.5 27.5t-30.5 16.5l-132 30q-53 12 -80 43t-27 78q0 46 17 81t47 57.5t71.5 34t91.5 11.5q38 0 74 -8.5
t64.5 -25.5t45.5 -44t17 -64q0 -6 -0.5 -13.5t-1.5 -12.5l-1 -6h-119l1 6q6 36 -21.5 54.5t-66.5 18.5q-38 0 -63.5 -16t-25.5 -51q0 -18 10 -27.5t29 -14.5l135 -33q50 -13 77 -43.5t27 -75.5t-19 -80t-51.5 -59t-76.5 -36.5t-94 -12.5zM140 -73h152l-102 -177h-112z" />
    <glyph glyph-name="circumflex" unicode="&#x2c6;" horiz-adv-x="510" 
d="M268 733h131l84 -154h-120l-39 76l-61 -76h-131z" />
    <glyph glyph-name="caron" unicode="&#x2c7;" horiz-adv-x="510" 
d="M373 579h-131l-84 154h120l40 -77l60 77h131z" />
    <glyph glyph-name="breve" unicode="&#x2d8;" horiz-adv-x="508" 
d="M313 579q-35 0 -66 9.5t-53.5 28.5t-34.5 48t-8 68h98q-3 -32 14 -53.5t55 -21.5q21 0 35.5 7t23.5 18t14.5 24t8.5 26h99q-11 -72 -60 -113t-126 -41z" />
    <glyph glyph-name="dotaccent" unicode="&#x2d9;" horiz-adv-x="312" 
d="M133 650q0 35 22.5 61t64.5 26q30 0 50.5 -18.5t20.5 -49.5q0 -18 -6 -34t-17 -28.5t-27 -20t-37 -7.5q-30 0 -50.5 19.5t-20.5 51.5z" />
    <glyph glyph-name="ring" unicode="&#x2da;" horiz-adv-x="364" 
d="M244 627q23 0 35.5 15t12.5 34q0 17 -12 28.5t-32 11.5q-24 0 -36.5 -13t-12.5 -36q0 -17 11.5 -28.5t33.5 -11.5zM241 579q-46 0 -73 23t-27 64q0 45 31 71.5t76 26.5q43 0 72.5 -22.5t29.5 -63.5q0 -44 -31.5 -71.5t-77.5 -27.5z" />
    <glyph glyph-name="ogonek" unicode="&#x2db;" horiz-adv-x="336" 
d="M109 -186q-48 0 -74.5 22.5t-26.5 60.5q0 35 21.5 61.5t49.5 41.5h130q-13 -7 -26.5 -15.5t-24.5 -19t-18 -22.5t-7 -26q0 -24 31 -24q6 0 13.5 0.5t13.5 2.5l-13 -73q-8 -2 -28 -5.5t-41 -3.5z" />
    <glyph glyph-name="tilde" unicode="&#x2dc;" horiz-adv-x="552" 
d="M143 608q9 28 18.5 50.5t23 37.5t32.5 23t48 8q21 0 44 -6.5t44.5 -15t39 -15t28.5 -6.5q9 0 15.5 5t11.5 12t8 14.5t6 13.5l85 -31q-8 -22 -17 -43.5t-21.5 -38t-30 -26.5t-41.5 -10q-18 0 -39.5 6.5t-44 15t-43 15t-36.5 6.5q-19 0 -26.5 -10.5t-17.5 -33.5z" />
    <glyph glyph-name="hungarumlaut" unicode="&#x2dd;" horiz-adv-x="552" 
d="M223 733h147l-100 -154h-124zM426 733h147l-100 -154h-124z" />
    <glyph glyph-name="uni0312" unicode="&#x312;" horiz-adv-x="363" 
d="M214 733h134l-67 -154h-168z" />
    <glyph glyph-name="uni0315" unicode="&#x315;" horiz-adv-x="342" 
d="M203 730h149l-114 -223h-114z" />
    <glyph glyph-name="uni0326" unicode="&#x326;" horiz-adv-x="340" 
d="M67 -73h152l-102 -177h-112z" />
    <glyph glyph-name="Omega" unicode="&#x3a9;" horiz-adv-x="737" 
d="M37 111h92q-23 45 -38.5 96t-15.5 114q0 80 21 151.5t64.5 125t110 85t156.5 31.5q61 0 112.5 -20t88 -56t57 -87t20.5 -112q0 -45 -10 -90.5t-29 -88t-45 -81t-57 -68.5h84l-20 -111h-227l19 111q33 28 60 64.5t46 78t29 86t10 89.5q0 75 -36 122t-115 47q-57 0 -96 -26
t-62 -67t-33 -93t-10 -104q0 -104 52 -197l-19 -111h-228z" />
    <glyph glyph-name="pi" unicode="&#x3c0;" horiz-adv-x="722" 
d="M170 413h-100l19 107h637l-19 -107h-119l-44 -249q-5 -26 6 -40.5t41 -14.5h57l-19 -109h-92q-62 0 -97.5 32t-35.5 90q0 18 3 35l45 256h-146l-73 -413h-136z" />
    <glyph glyph-name="Wgrave" unicode="&#x1e80;" horiz-adv-x="947" 
d="M105 700h138l12 -503l229 503h133l58 -503l188 503h140l-289 -700h-131l-55 536l-247 -536h-131zM411 894h160l42 -141h-124z" />
    <glyph glyph-name="wgrave" unicode="&#x1e81;" horiz-adv-x="777" 
d="M66 520h131l15 -353l163 353h119l44 -353l137 353h132l-228 -520h-123l-46 363l-174 -363h-123zM286 733h165l44 -154h-129z" />
    <glyph glyph-name="Wacute" unicode="&#x1e82;" horiz-adv-x="947" 
d="M105 700h138l12 -503l229 503h133l58 -503l188 503h140l-289 -700h-131l-55 536l-247 -536h-131zM586 894h174l-124 -141h-139z" />
    <glyph glyph-name="wacute" unicode="&#x1e83;" horiz-adv-x="777" 
d="M66 520h131l15 -353l163 353h119l44 -353l137 353h132l-228 -520h-123l-46 363l-174 -363h-123zM469 733h184l-135 -154h-140z" />
    <glyph glyph-name="Wdieresis" unicode="&#x1e84;" horiz-adv-x="947" 
d="M105 700h138l12 -503l229 503h133l58 -503l188 503h140l-289 -700h-131l-55 536l-247 -536h-131zM389 819q0 33 22 56.5t60 23.5q28 0 47 -17.5t19 -46.5q0 -34 -22.5 -58t-59.5 -24q-28 0 -47 18.5t-19 47.5zM613 819q0 33 22 56.5t60 23.5q28 0 47 -17.5t19 -46.5
q0 -34 -22.5 -58t-59.5 -24q-28 0 -47 18.5t-19 47.5z" />
    <glyph glyph-name="wdieresis" unicode="&#x1e85;" horiz-adv-x="777" 
d="M66 520h131l15 -353l163 353h119l44 -353l137 353h132l-228 -520h-123l-46 363l-174 -363h-123zM278 645q0 33 22 56.5t60 23.5q28 0 47 -17.5t19 -46.5q0 -34 -22.5 -58t-59.5 -24q-28 0 -47 18.5t-19 47.5zM484 645q0 33 22 56.5t60 23.5q28 0 47 -17.5t19 -46.5
q0 -34 -22.5 -58t-59.5 -24q-28 0 -47 18.5t-19 47.5z" />
    <glyph glyph-name="Ygrave" unicode="&#x1ef2;" horiz-adv-x="624" 
d="M240 256l-160 444h147l104 -320l205 320h159l-318 -460l-42 -240h-140zM239 894h160l42 -141h-124z" />
    <glyph glyph-name="ygrave" unicode="&#x1ef3;" horiz-adv-x="508" 
d="M64 -174l87 177l-98 517h136l49 -380l168 380h139l-344 -694h-137zM156 733h165l44 -154h-129z" />
    <glyph glyph-name="endash" unicode="&#x2013;" horiz-adv-x="613" 
d="M74 380h504l-22 -122h-504z" />
    <glyph glyph-name="emdash" unicode="&#x2014;" horiz-adv-x="912" 
d="M74 380h803l-22 -122h-803z" />
    <glyph glyph-name="quoteleft" unicode="&#x2018;" horiz-adv-x="237" 
d="M204 435h-153l137 265h113z" />
    <glyph glyph-name="quoteright" unicode="&#x2019;" horiz-adv-x="237" 
d="M148 700h153l-137 -265h-113z" />
    <glyph glyph-name="quotesinglbase" unicode="&#x201a;" horiz-adv-x="259" 
d="M47 136h153l-137 -265h-113z" />
    <glyph glyph-name="quotedblleft" unicode="&#x201c;" horiz-adv-x="470" 
d="M204 435h-153l137 265h113zM437 435h-153l137 265h113z" />
    <glyph glyph-name="quotedblright" unicode="&#x201d;" horiz-adv-x="470" 
d="M148 700h153l-137 -265h-113zM381 700h153l-137 -265h-113z" />
    <glyph glyph-name="quotedblbase" unicode="&#x201e;" horiz-adv-x="492" 
d="M47 136h153l-137 -265h-113zM280 136h153l-137 -265h-113z" />
    <glyph glyph-name="dagger" unicode="&#x2020;" horiz-adv-x="482" 
d="M218 439h-130l17 93h129l30 168h110l-29 -168h129l-16 -93h-130l-95 -539h-110z" />
    <glyph glyph-name="daggerdbl" unicode="&#x2021;" horiz-adv-x="482" 
d="M122 -100l30 168h-130l17 93h130l49 278h-130l17 93h129l30 168h110l-29 -168h129l-16 -93h-130l-49 -278h129l-16 -93h-130l-30 -168h-110z" />
    <glyph glyph-name="bullet" unicode="&#x2022;" horiz-adv-x="406" 
d="M211 222q-28 0 -52 10t-42 28t-28 41.5t-10 50.5q0 29 9.5 54t27.5 44t44 29.5t58 10.5q27 0 51 -9.5t42.5 -26.5t29.5 -40t11 -51t-10 -53.5t-29 -45t-45 -31t-57 -11.5z" />
    <glyph glyph-name="ellipsis" unicode="&#x2026;" horiz-adv-x="753" 
d="M515 64q0 36 22.5 60t61.5 24q30 0 50.5 -20t20.5 -51q0 -35 -23 -60t-62 -25q-31 0 -50.5 21t-19.5 51zM264 64q0 36 22.5 60t61.5 24q30 0 50.5 -20t20.5 -51q0 -35 -23 -60t-62 -25q-31 0 -50.5 21t-19.5 51zM13 64q0 36 22.5 60t61.5 24q30 0 50.5 -20t20.5 -51
q0 -35 -23 -60t-62 -25q-31 0 -50.5 21t-19.5 51z" />
    <glyph glyph-name="perthousand" unicode="&#x2030;" horiz-adv-x="1271" 
d="M237 395q59 0 71 71l15 85q1 5 1.5 9.5t0.5 8.5q0 26 -16.5 43.5t-50.5 17.5q-32 0 -48 -18t-22 -51l-16 -90q-1 -5 -1 -9v-5q0 -29 18.5 -45.5t47.5 -16.5zM233 315q-33 0 -61.5 10.5t-49.5 29.5t-33 45t-12 58q0 14 3 29l14 81q13 73 55.5 107.5t116.5 34.5
q68 0 110.5 -38t42.5 -101q0 -6 -0.5 -15t-2.5 -17l-14 -79q-12 -69 -56 -107t-113 -38zM649 700h103l-483 -700h-103zM661 70q59 0 71 71l15 85q1 5 1.5 9.5t0.5 8.5q0 26 -16.5 43.5t-50.5 17.5q-32 0 -48 -18t-22 -51l-16 -90q-1 -5 -1 -9v-5q0 -29 18.5 -45.5
t47.5 -16.5zM657 -10q-33 0 -61.5 10.5t-49.5 29.5t-33 45t-12 58q0 14 3 29l14 81q13 73 55.5 107.5t116.5 34.5q68 0 110.5 -38t42.5 -101q0 -6 -0.5 -15t-2.5 -17l-14 -79q-12 -69 -56 -107t-113 -38zM1051 70q59 0 71 71l15 85q1 5 1.5 9.5t0.5 8.5q0 26 -16.5 43.5
t-50.5 17.5q-32 0 -48 -18t-22 -51l-16 -90q-1 -5 -1 -9v-5q0 -29 18.5 -45.5t47.5 -16.5zM1047 -10q-33 0 -61.5 10.5t-49.5 29.5t-33 45t-12 58q0 14 3 29l14 81q13 73 55.5 107.5t116.5 34.5q68 0 110.5 -38t42.5 -101q0 -6 -0.5 -15t-2.5 -17l-14 -79q-12 -69 -56 -107
t-113 -38z" />
    <glyph glyph-name="guilsinglleft" unicode="&#x2039;" horiz-adv-x="356" 
d="M15 276l195 216h163l-198 -227l121 -205h-157z" />
    <glyph glyph-name="guilsinglright" unicode="&#x203a;" horiz-adv-x="356" 
d="M353 276l-195 -216h-163l198 227l-121 205h157z" />
    <glyph glyph-name="fraction" unicode="&#x2044;" horiz-adv-x="393" 
d="M406 700h103l-483 -700h-103z" />
    <glyph glyph-name="Euro" unicode="&#x20ac;" horiz-adv-x="656" 
d="M80 481h75q20 112 87 172.5t174 60.5q52 0 96 -14.5t75.5 -43.5t49.5 -71.5t19 -97.5h-123q-2 25 -9 46.5t-21 37.5t-35 25.5t-49 9.5q-54 0 -86 -32t-43 -92v-1h149l-17 -92h-149l-13 -78h149l-16 -92h-149q-8 -58 21.5 -91.5t86.5 -33.5q30 0 52 11t38 28t26.5 38
t16.5 42h123q-9 -46 -30.5 -87t-54.5 -72t-77.5 -49.5t-100.5 -18.5q-59 0 -104.5 19t-76 51t-45 74t-10.5 89h-74l16 92h74l14 78h-74z" />
    <glyph glyph-name="published" unicode="&#x2117;" horiz-adv-x="840" 
d="M317 526h150q60 0 96 -33.5t36 -87.5q0 -55 -36 -89.5t-96 -34.5h-74v-109h-76v354zM458 345q32 0 48.5 17.5t16.5 42.5t-16.5 41t-48.5 16h-65v-117h65zM435 24q75 0 134.5 26.5t101 71.5t64 104t22.5 124q0 64 -22.5 123t-64 104t-101 72t-134.5 27q-74 0 -133.5 -27
t-101.5 -72t-64.5 -104t-22.5 -123q0 -65 22.5 -124t64.5 -104t101.5 -71.5t133.5 -26.5zM435 -12q-81 0 -148 28.5t-115 78t-74 115t-26 140.5t26 140.5t74 115t115 78t148 28.5q82 0 149 -28.5t114.5 -78t73.5 -115t26 -140.5t-26 -140.5t-73.5 -115t-114.5 -78
t-149 -28.5z" />
    <glyph glyph-name="trademark" unicode="&#x2122;" horiz-adv-x="650" 
d="M385 700h56l55 -172l114 172h57l-52 -296h-59l30 170l-72 -102h-55l-35 112l-32 -180h-59zM176 647h-88l10 53h237l-10 -53h-88l-43 -243h-61z" />
    <glyph glyph-name="arrowleft" unicode="&#x2190;" horiz-adv-x="1074" 
d="M67 350l350 350h164l-350 -350l350 -350h-164zM437 407h560v-114h-560v114z" />
    <glyph glyph-name="arrowup" unicode="&#x2191;" horiz-adv-x="875" 
d="M97 364l350 350l350 -350v-164l-350 350l-350 -350v164zM384 341h126v-504h-126v504z" />
    <glyph glyph-name="arrowright" unicode="&#x2192;" horiz-adv-x="1074" 
d="M853 350l-350 350h164l350 -350l-350 -350h-164zM87 407h560v-114h-560v114z" />
    <glyph glyph-name="arrowdown" unicode="&#x2193;" horiz-adv-x="875" 
d="M97 175v164l350 -350l350 350v-164l-350 -350zM384 700h126v-502h-126v502z" />
    <glyph glyph-name="uni2196" unicode="&#x2196;" horiz-adv-x="887" 
d="M127 205v495h503l116 -116h-495v-495zM355 392l88 89l367 -368l-88 -88z" />
    <glyph glyph-name="uni2197" unicode="&#x2197;" horiz-adv-x="887" 
d="M656 584h-495l116 116h503v-495l-124 -116v495zM97 113l367 368l88 -89l-367 -367z" />
    <glyph glyph-name="uni2198" unicode="&#x2198;" horiz-adv-x="887" 
d="M161 116h495v495l124 -116v-495h-503zM97 587l88 88l367 -367l-88 -89z" />
    <glyph glyph-name="uni2199" unicode="&#x2199;" horiz-adv-x="887" 
d="M127 495l124 116v-495h495l-116 -116h-503v495zM355 308l367 367l88 -88l-367 -368z" />
    <glyph glyph-name="partialdiff" unicode="&#x2202;" 
d="M260 -14q-51 0 -91.5 17t-69 46.5t-44 70t-15.5 87.5q0 55 16 103t46 84t74 56.5t100 20.5q54 0 95.5 -21t58.5 -47q-8 47 -26 81.5t-47.5 57.5t-72 34t-100.5 11h-20l20 113h26q164 0 252 -85t88 -243q0 -78 -16.5 -148t-51.5 -123t-90 -84t-132 -31zM274 94
q34 0 58.5 15.5t40 39t23 52t7.5 55.5q0 49 -28 80.5t-79 31.5q-32 0 -55.5 -14t-38.5 -36t-22 -50.5t-7 -56.5q0 -48 24.5 -82.5t76.5 -34.5z" />
    <glyph glyph-name="Delta" unicode="&#x2206;" horiz-adv-x="682" 
d="M21 108l337 592h124l127 -592l-19 -108h-588zM479 116l-81 443l-235 -443h316z" />
    <glyph glyph-name="product" unicode="&#x220f;" horiz-adv-x="824" 
d="M232 589h-131l19 111h740l-19 -111h-131l-135 -763h-134l135 763h-210l-135 -763h-134z" />
    <glyph glyph-name="summation" unicode="&#x2211;" horiz-adv-x="605" 
d="M6 -63l269 326l-153 326l19 111h490l-19 -111h-342l153 -336l-263 -316h337l-20 -111h-490z" />
    <glyph glyph-name="minus" unicode="&#x2212;" horiz-adv-x="587" 
d="M87 417h458l-20 -114h-458z" />
    <glyph glyph-name="radical" unicode="&#x221a;" horiz-adv-x="737" 
d="M180 237h-128l21 118h210l54 -324l298 719h138l-371 -850h-157z" />
    <glyph glyph-name="infinity" unicode="&#x221e;" horiz-adv-x="909" 
d="M239 165q-39 0 -71 12.5t-54.5 35t-35 53.5t-12.5 69q0 49 14.5 89.5t43.5 69.5t71 45t98 16q37 0 66.5 -8.5t52.5 -23.5t40.5 -34.5t29.5 -41.5q39 47 91.5 77.5t118.5 30.5q42 0 75 -13.5t55.5 -36.5t34.5 -54t12 -66q0 -45 -16.5 -85t-46 -70t-70.5 -47.5t-91 -17.5
q-69 0 -115 30t-73 72q-16 -19 -38.5 -37.5t-50 -32.5t-60.5 -23t-69 -9zM269 271q26 0 48 8t39.5 20.5t31 28.5t23.5 32q-8 17 -18 33t-24 28.5t-32.5 20t-43.5 7.5q-50 0 -77 -27t-27 -73q0 -35 21.5 -56.5t58.5 -21.5zM642 271q48 0 76 28.5t28 73.5q0 35 -22 55.5
t-58 20.5q-49 0 -83 -27t-60 -63q9 -17 20 -33t25 -28t32 -19.5t42 -7.5z" />
    <glyph glyph-name="integral" unicode="&#x222b;" horiz-adv-x="426" 
d="M-16 -62h42q35 0 48.5 12.5t19.5 44.5l97 549q7 39 20 68.5t34 49t52 29t73 9.5h90l-20 -112h-52q-29 0 -43.5 -14.5t-20.5 -46.5l-97 -550q-14 -78 -56.5 -114.5t-122.5 -36.5h-83z" />
    <glyph glyph-name="approxequal" unicode="&#x2248;" horiz-adv-x="620" 
d="M418 162q-28 0 -54.5 11t-51.5 24t-48.5 24t-45.5 11q-29 0 -49.5 -15t-41.5 -37l-66 64q16 21 33 38t36.5 29.5t43 19t53.5 6.5q29 0 55 -10.5t50 -23t46.5 -23t45.5 -10.5q25 0 44 10t37 27l59 -70q-26 -31 -64 -53t-82 -22zM452 382q-28 0 -54.5 11t-51.5 24t-48.5 24
t-45.5 11q-29 0 -49.5 -15t-41.5 -37l-66 64q16 21 33 38t36.5 29.5t43 19t53.5 6.5q29 0 55 -10.5t50 -23t46.5 -23t45.5 -10.5q25 0 44 10t37 27l59 -70q-26 -31 -64 -53t-82 -22z" />
    <glyph glyph-name="notequal" unicode="&#x2260;" horiz-adv-x="628" 
d="M132 537h252l70 108h120l-70 -108h86l-19 -107h-137l-90 -140h202l-19 -107h-252l-70 -108h-120l70 108h-85l18 107h136l90 140h-200z" />
    <glyph glyph-name="lessequal" unicode="&#x2264;" horiz-adv-x="597" 
d="M73 331l20 110l490 161l-21 -119l-321 -101l287 -93l-21 -119zM35 114h462l-20 -114h-462z" />
    <glyph glyph-name="greaterequal" unicode="&#x2265;" horiz-adv-x="597" 
d="M81 290l320 97l-286 96l21 119l433 -167l-20 -110l-489 -155zM50 114h462l-20 -114h-462z" />
    <glyph glyph-name="lozenge" unicode="&#x25ca;" horiz-adv-x="637" 
d="M49 354l277 346h120l170 -351l-278 -349h-122zM475 351l-102 236l-182 -243l100 -227z" />
    <glyph glyph-name="acute.case" unicode="&#xe160;" horiz-adv-x="390" 
d="M258 894h174l-124 -141h-139z" />
    <glyph glyph-name="breve.case" unicode="&#xe161;" horiz-adv-x="514" 
d="M337 753q-37 0 -69 9t-55 26.5t-34.5 44t-6.5 61.5h105q-4 -26 14 -44t54 -18q39 0 58 19.5t24 42.5h105q-12 -72 -64.5 -106.5t-130.5 -34.5z" />
    <glyph glyph-name="caron.case" unicode="&#xe162;" horiz-adv-x="523" 
d="M175 894h122l45 -67l65 67h136l-143 -141h-132z" />
    <glyph glyph-name="circumflex.case" unicode="&#xe163;" horiz-adv-x="523" 
d="M304 894h132l93 -141h-123l-44 67l-67 -67h-134z" />
    <glyph glyph-name="dieresis.case" unicode="&#xe164;" horiz-adv-x="505" 
d="M157 819q0 33 22 56.5t60 23.5q28 0 47 -17.5t19 -46.5q0 -34 -22.5 -58t-59.5 -24q-28 0 -47 18.5t-19 47.5zM381 819q0 33 22 56.5t60 23.5q28 0 47 -17.5t19 -46.5q0 -34 -22.5 -58t-59.5 -24q-28 0 -47 18.5t-19 47.5z" />
    <glyph glyph-name="dotaccent.case" unicode="&#xe165;" horiz-adv-x="291" 
d="M156 824q0 35 22.5 61t64.5 26q30 0 50.5 -18.5t20.5 -49.5q0 -18 -6 -34t-17 -28.5t-27 -20t-37 -7.5q-30 0 -50.5 19.5t-20.5 51.5z" />
    <glyph glyph-name="grave.case" unicode="&#xe166;" horiz-adv-x="390" 
d="M129 894h160l42 -141h-124z" />
    <glyph glyph-name="hungarumlaut.case" unicode="&#xe167;" horiz-adv-x="579" 
d="M245 894h146l-89 -141h-125zM454 894h146l-89 -141h-125z" />
    <glyph glyph-name="macron.case" unicode="&#xe168;" horiz-adv-x="503" 
d="M168 881h376l-19 -109h-376z" />
    <glyph glyph-name="ring.case" unicode="&#xe169;" horiz-adv-x="364" 
d="M264 801q24 0 36 15.5t12 33.5q0 17 -12 28.5t-32 11.5q-24 0 -36.5 -13.5t-12.5 -35.5q0 -17 12 -28.5t33 -11.5zM261 753q-46 0 -73 23t-27 64q0 45 30.5 71.5t76.5 26.5q43 0 72.5 -22.5t29.5 -63.5q0 -44 -31.5 -71.5t-77.5 -27.5z" />
    <glyph glyph-name="tilde.case" unicode="&#xe16a;" horiz-adv-x="563" 
d="M155 776q8 28 18.5 51t26 39t37.5 25t54 9q24 0 48.5 -6.5t46.5 -13.5l42 -14q20 -7 32 -7q21 0 30.5 15t15.5 32l85 -29q-8 -28 -18.5 -50.5t-25.5 -38.5t-36 -24.5t-50 -8.5q-20 0 -43 6.5t-46.5 14.5t-45.5 14.5t-38 6.5q-20 0 -29.5 -13.5t-17.5 -33.5z" />
    <glyph glyph-name="J.salt" unicode="&#xe56b;" horiz-adv-x="612" 
d="M261 -14q-53 0 -97 17t-74.5 47t-44.5 72t-6 93h129q-7 -51 22 -82t82 -31q56 0 82.5 30t34.5 73l67 379h-292l20 116h432l-88 -500q-17 -100 -85.5 -157t-181.5 -57z" />
    <glyph glyph-name="IJ.salt" unicode="&#xe56c;" horiz-adv-x="916" 
d="M160 700h140l-123 -700h-140zM565 -14q-53 0 -97 17t-74.5 47t-44.5 72t-6 93h129q-7 -51 22 -82t82 -31q56 0 82.5 30t34.5 73l67 379h-292l20 116h432l-88 -500q-17 -100 -85.5 -157t-181.5 -57z" />
    <glyph glyph-name="Jcircumflex.salt" unicode="&#xe57b;" horiz-adv-x="612" 
d="M372 894h132l93 -141h-123l-44 67l-67 -67h-134zM261 -14q-53 0 -97 17t-74.5 47t-44.5 72t-6 93h129q-7 -51 22 -82t82 -31q56 0 82.5 30t34.5 73l67 379h-292l20 116h432l-88 -500q-17 -100 -85.5 -157t-181.5 -57z" />
    <glyph glyph-name="ornm17.ornm" unicode="&#xe610;" horiz-adv-x="739" 
d="M150 0q0 57 1 117q0 60 5 116q-13 7 -21.5 16t-13.5 25q6 8 15 12t11 16q3 12 2 23t-4.5 22t-7.5 22t-6 24q-3 28 0 59.5t-2 63.5q-2 20 -11.5 39t-11.5 36q-1 16 1 31t3 29t-0.5 26.5t-9.5 22.5q46 2 90.5 -1t84.5 -1q5 8 3.5 20t-1.5 24h21q7 -6 10.5 -16t6 -21.5
t3.5 -22.5t3 -18q9 -5 20 -7.5t22.5 -5t21.5 -6.5t17 -10q18 16 44.5 14t46.5 -10q-5 -8 -3.5 -10t13.5 -2q0 -7 2 -13t4 -10q3 1 4.5 4t3.5 6t5 5t10 -1q11 -11 25 -18.5t24 -18.5q20 0 30 10t26 15q3 -12 13.5 -13.5t23.5 -1t25 -0.5t19 -10q7 0 19.5 2t18.5 -2
q-10 -11 -21.5 -17.5t-24.5 -11t-25.5 -9.5t-23.5 -12q-23 -14 -35 -33t-29 -37q-20 -19 -41.5 -33t-32.5 -35q0 -17 3.5 -32.5t1.5 -34.5q-7 -7 -15.5 -12t-16 -11t-12.5 -13.5t-6 -19.5q6 -7 12 -12.5t8 -13.5q-7 -9 -8.5 -19t-1.5 -21t0.5 -22t-2.5 -23q26 -20 55 -38
t46 -46q6 7 13.5 7.5t14 -3.5t11.5 -10t7 -11q-3 -14 -3.5 -28.5t1.5 -29.5h-481z" />
    <glyph glyph-name="ornm18.ornm" unicode="&#xe611;" horiz-adv-x="895" 
d="M149 -2q-6 0 -10 3.5t-9 10.5q-1 1 -1 7v14q0 8 0.5 16t0.5 14q0 8 1 15t1 18q0 14 0.5 23t1.5 15q-28 -20 -58 -23q-7 -1 -8.5 4.5t3.5 8.5q18 5 35.5 14t30.5 20l16 15q10 14 16.5 26.5t11.5 25.5q5 14 9.5 26.5t6.5 23.5q-1 15 -1 26v18q0 8 -1 14q-1 9 -2 19t-1 22
q0 33 13 55.5t31 37t37 22.5t30 13q27 9 60 16t78 7q13 0 32.5 -1t36.5 -3q13 -2 24 -3t19 -1q10 -1 17 0h6q3 0 6.5 0.5t8.5 1.5q9 2 16.5 12t13 22.5t9 24t5.5 16.5q5 18 14.5 33.5t26.5 34.5q1 2 1.5 7t1 11t1.5 11.5t3 8.5q5 1 15.5 0.5t12.5 -2.5q2 0 11 -1.5t17 -3.5
q5 0 8.5 -0.5t5.5 -2.5q3 -2 4.5 -5t5.5 -6q7 -2 12 -6q1 -2 5.5 -7t7.5 -8q2 -2 5 -7.5t3 -8.5q0 -4 9.5 -10.5t15.5 -10.5q9 -7 17 -11.5t19 -11.5q17 -8 14 -18q-2 -4 -8 -7t-13.5 -5.5t-14.5 -4t-11 -1.5q-2 0 -11 1t-13 2q-12 3 -30.5 4t-24.5 -3q-3 -1 -8.5 -13
t-6.5 -17q0 -4 -1 -11t-2 -14.5t-2 -14.5t-2 -10q-8 -29 -15.5 -53t-9.5 -35q-2 -12 -4 -27.5t-7 -30.5q-8 -13 -12.5 -21t-6.5 -13q-3 -4 -6.5 -21.5t-7 -38.5t-6 -40.5t-3.5 -27.5q-2 -22 -3 -51.5t0 -57.5q0 -4 2.5 -9.5t6.5 -10.5t9 -8.5t9 -2.5q5 0 7.5 -1t4.5 -2
q2 -2 4 -3q2 -2 1.5 -8.5t-3.5 -8.5l-4 -2l-20 1l4 -4q3 -3 2 -6q-1 -1 -1.5 -2t-2.5 -2h-42q-5 2 -7.5 7t-4.5 8q0 1 -1.5 6t-3 11.5t-2.5 13t-2 9.5q-2 6 -5.5 7t-4.5 5q0 6 1.5 13t1.5 24q0 3 -2.5 4.5t-5.5 7.5q-1 3 -1 16v29v32q0 15 -1 24q0 3 -0.5 9.5t-1.5 14.5
t-2 16.5t-1 14.5q-2 11 0.5 15t2.5 9q-2 7 -11.5 5.5t-18.5 -1.5q-14 0 -41.5 7.5t-53.5 26.5q-12 9 -21.5 19.5t-18 20t-17 16t-17.5 6.5q-11 0 -22.5 -4.5t-18.5 -12.5q-8 -7 -11 -17t-5 -18q-1 -4 -1 -21q-2 -16 -5 -29t-5 -19q-2 -7 -6.5 -21t-7.5 -22q-5 -12 -14 -24
q-5 -7 -11 -14q-8 -10 -16 -17.5t-9 -12.5q-3 -4 -4.5 -8.5t-3.5 -9.5t-2 -11v-28q0 -11 -0.5 -21t0.5 -13q0 -8 1.5 -11t1.5 -5q5 -2 7 -4.5t7 -5.5q3 -1 7.5 -1.5t5.5 -4.5t0 -8.5t-4 -5.5h-26q-7 2 -14 7l-10 9q-1 1 -2 10.5t-2 21t-2 21.5t-1 12v6q-1 5 -1.5 13t-0.5 17
t1 17q0 9 -3 9q-2 0 -5 -5q-5 -7 -9 -12l-8 -10q-1 -2 -4.5 -12t-6.5 -22l-7 -24q-4 -12 -4 -16q-1 -3 -0.5 -9.5t0.5 -13.5v-18l8 -8q2 0 4 -2q4 -4 4 -8q0 -5 -3 -8l-4 -4h-19z" />
    <glyph glyph-name="apple" unicode="&#xf8ff;" horiz-adv-x="820" 
d="M300 -12q-37 0 -69 13.5t-55.5 37t-37 55.5t-13.5 69v362q0 37 13.5 69t37 55.5t55.5 37t69 13.5h350q37 0 69 -13.5t55.5 -36.5t37 -55t13.5 -69t-13.5 -69t-37 -55t-55.5 -36.5t-69 -13.5h-175v-189q0 -37 -13.5 -69t-37 -55.5t-55.5 -37t-69 -13.5z" />
    <glyph glyph-name="fi" unicode="&#xfb01;" horiz-adv-x="643" 
d="M482 520h136l-92 -520h-136zM495 648q0 35 22.5 61t64.5 26q30 0 50.5 -18.5t20.5 -49.5q0 -18 -6 -34t-17 -28.5t-27 -20t-37 -7.5q-30 0 -50.5 19.5t-20.5 51.5zM125 410h-66l18 110h67l10 58q14 79 55 115.5t122 36.5h96l-19 -108h-55q-30 0 -45 -11.5t-20 -43.5
l-8 -47h104l-19 -110h-104l-73 -410h-136z" />
    <glyph glyph-name="fl" unicode="&#xfb02;" horiz-adv-x="641" 
d="M519 730h136l-129 -730h-136zM125 410h-66l18 110h67l10 58q14 79 55 115.5t122 36.5h96l-19 -108h-55q-30 0 -45 -11.5t-20 -43.5l-8 -47h104l-19 -110h-104l-73 -410h-136z" />
    </font>
</defs>
</svg>
