<?xml version="1.0" standalone="no"?>
<!DOCTYPE svg PUBLIC "-//W3C//DTD SVG 1.1//EN" "http://www.w3.org/Graphics/SVG/1.1/DTD/svg11.dtd" >
<svg>
<metadata>
Created by FontForge 20110222 at Mon Jun 16 15:27:09 2014
 By Orthosie Webhosting
Copyright (c) 2012 by Process Type Foundry, LLC. All rights reserved.
</metadata>
<defs>
<font id="ColfaxWebBoldItalic" horiz-adv-x="731" >
  <font-face 
    font-family="ColfaxWebBoldItalic"
    font-weight="700"
    font-style="italic"
    font-stretch="normal"
    units-per-em="1000"
    panose-1="2 0 0 0 0 0 0 0 0 0"
    ascent="750"
    descent="-250"
    x-height="524"
    cap-height="700"
    bbox="-86 -250 1268 969"
    underline-thickness="90"
    underline-position="-10"
    unicode-range="U+0020-FB02"
  />
<missing-glyph horiz-adv-x="696" 
d="M95 700h506v-700h-506v700zM582 18v664h-468v-664h468zM402 350l84 -83l-54 -54l-84 84l-83 -84l-54 54l84 83l-84 85l53 53l84 -84l85 84l53 -53z" />
    <glyph glyph-name=".notdef" horiz-adv-x="696" 
d="M95 700h506v-700h-506v700zM582 18v664h-468v-664h468zM402 350l84 -83l-54 -54l-84 84l-83 -84l-54 54l84 83l-84 85l53 53l84 -84l85 84l53 -53z" />
    <glyph glyph-name=".null" horiz-adv-x="0" 
 />
    <glyph glyph-name="nonmarkingreturn" horiz-adv-x="220" 
 />
    <glyph glyph-name="space" unicode=" " horiz-adv-x="220" 
 />
    <glyph glyph-name="exclam" unicode="!" horiz-adv-x="316" 
d="M201 225h-96l-4 205l48 270h176l-48 -270zM39 80q0 42 26.5 70t71.5 28q40 0 65 -24.5t25 -60.5q0 -42 -25.5 -71.5t-70.5 -29.5q-38 0 -65 23.5t-27 64.5z" />
    <glyph glyph-name="quotedbl" unicode="&#x22;" horiz-adv-x="510" 
d="M147 700h145l-51 -288h-145zM367 700h145l-51 -288h-145z" />
    <glyph glyph-name="numbersign" unicode="#" horiz-adv-x="681" 
d="M376 182h-125l-51 -182h-127l51 182h-97l20 113h109l34 121h-102l21 113h113l49 171h127l-49 -171h125l49 171h127l-49 -171h93l-21 -113h-104l-34 -121h97l-20 -113h-109l-51 -182h-127zM283 295h125l34 121h-125z" />
    <glyph glyph-name="dollar" unicode="$" horiz-adv-x="598" 
d="M555 249q0 -46 -15.5 -86.5t-44 -72t-67.5 -53.5t-85 -31l-21 -116h-165l22 121q-67 18 -104 61.5t-37 103.5q0 19 4 39l3 16h162l-3 -16q-2 -10 -2 -16q0 -33 25 -50.5t64 -17.5q42 0 67.5 22t25.5 60q0 20 -10 34.5t-31 22.5l-114 41q-65 23 -99.5 59.5t-34.5 96.5
q0 93 53.5 153.5t146.5 73.5l20 116h165l-21 -124q56 -19 91.5 -59t35.5 -98q0 -16 -3 -32l-3 -17h-160l3 15q7 34 -17 52.5t-63 18.5q-32 0 -55.5 -16t-23.5 -51q0 -18 11 -28t31 -18l107 -40q29 -11 55 -25t45.5 -33.5t30.5 -45.5t11 -60z" />
    <glyph glyph-name="percent" unicode="%" horiz-adv-x="911" 
d="M239 311q-34 0 -63.5 10.5t-52 30t-35.5 47t-13 60.5q0 12 3 29l14 79q14 75 57.5 109t121.5 34q72 0 116 -39.5t44 -104.5q0 -16 -3 -32l-14 -79q-12 -69 -57.5 -106.5t-117.5 -37.5zM191 465q-5 -26 10.5 -41t40.5 -15q47 0 56 52l16 90q5 25 -8.5 43t-43.5 18
q-24 0 -36.5 -12.5t-17.5 -37.5zM653 700h124l-482 -700h-124zM683 -10q-34 0 -63.5 10.5t-52 30t-35.5 47t-13 60.5q0 12 3 29l14 79q14 75 57.5 109t121.5 34q72 0 116 -39.5t44 -104.5q0 -16 -3 -32l-14 -79q-12 -69 -57.5 -106.5t-117.5 -37.5zM635 144q-5 -26 10.5 -41
t40.5 -15q47 0 56 52l16 90q5 25 -8.5 43t-43.5 18q-24 0 -36.5 -12.5t-17.5 -37.5z" />
    <glyph glyph-name="ampersand" unicode="&#x26;" horiz-adv-x="696" 
d="M549 -14l-53 61q-81 -61 -204 -61q-59 0 -107 15.5t-82 43.5t-52.5 67t-18.5 87q0 42 12.5 75t33.5 58.5t49.5 44t60.5 30.5q-19 26 -27 52.5t-8 57.5q0 47 17 84t47.5 62t71.5 38t89 13q36 0 72 -9t65 -27.5t47 -46.5t18 -67q0 -5 -0.5 -13.5t-2.5 -15.5l-6 -34h-140
l5 29q5 31 -11.5 51t-51.5 20q-30 0 -51.5 -15.5t-21.5 -51.5q0 -19 7.5 -33t16.5 -25l171 -201l14 80h126l-14 -81q-5 -30 -13 -57t-19 -52l71 -83zM310 99q71 0 114 32l-166 193q-14 -8 -28 -18t-25 -24t-17.5 -32.5t-6.5 -42.5q0 -49 35 -78.5t94 -29.5z" />
    <glyph glyph-name="quotesingle" unicode="'" horiz-adv-x="290" 
d="M147 700h145l-51 -288h-145z" />
    <glyph glyph-name="parenleft" unicode="(" horiz-adv-x="355" 
d="M429 782q-92 -130 -147.5 -281t-55.5 -318q0 -72 10 -149.5t30 -167.5h-161q-24 82 -36.5 166t-12.5 165q0 76 13 155t39.5 155t66 146t93.5 129h161z" />
    <glyph glyph-name="parenright" unicode=")" horiz-adv-x="355" 
d="M-55 -134q92 130 147.5 281t55.5 318q0 72 -10 149.5t-30 167.5h161q24 -82 36.5 -166t12.5 -165q0 -76 -13 -155t-39.5 -155t-66 -146t-93.5 -129h-161z" />
    <glyph glyph-name="asterisk" unicode="*" horiz-adv-x="455" 
d="M138 644l105 -68l22 124h68l-22 -123l114 60l27 -57l-118 -62l99 -63l-38 -56l-103 66l-22 -124h-68l21 118l-110 -57l-26 57l118 62l-102 66z" />
    <glyph glyph-name="plus" unicode="+" horiz-adv-x="600" 
d="M386 289l-30 -175h-158l30 175h-157l25 142h157l31 175h158l-31 -175h155l-25 -142h-155z" />
    <glyph glyph-name="comma" unicode="," horiz-adv-x="288" 
d="M48 150h193l-152 -287h-142z" />
    <glyph glyph-name="hyphen" unicode="-" horiz-adv-x="406" 
d="M47 249l27 150h310l-27 -150h-310z" />
    <glyph glyph-name="period" unicode="." horiz-adv-x="278" 
d="M13 80q0 42 26.5 70t71.5 28q40 0 65 -24.5t25 -60.5q0 -42 -25.5 -71.5t-70.5 -29.5q-38 0 -65 23.5t-27 64.5z" />
    <glyph glyph-name="slash" unicode="/" horiz-adv-x="513" 
d="M405 750h171l-433 -855h-171z" />
    <glyph glyph-name="zero" unicode="0" horiz-adv-x="644" 
d="M592 233q-10 -56 -33.5 -101.5t-59.5 -77.5t-84.5 -50t-107.5 -18q-54 0 -101.5 17.5t-83.5 48t-56.5 73.5t-20.5 94q0 23 4 43l38 214q22 123 94.5 180.5t189.5 57.5q53 0 100.5 -16t83.5 -45t57 -70.5t21 -93.5q0 -11 -1 -24t-3 -21zM462 458q2 10 2 21
q0 41 -26.5 68.5t-71.5 27.5q-92 0 -111 -109l-39 -222q-1 -5 -1.5 -11.5t-0.5 -11.5q0 -43 26.5 -69.5t71.5 -26.5q52 0 77 30.5t34 82.5z" />
    <glyph glyph-name="one" unicode="1" horiz-adv-x="420" 
d="M130 0l93 529l-161 -49l27 150l193 70h141l-123 -700h-170z" />
    <glyph glyph-name="two" unicode="2" horiz-adv-x="611" 
d="M99 477l3 17q20 110 86 165t186 55q42 0 82 -12.5t72 -36.5t51.5 -59.5t19.5 -80.5t-13.5 -79.5t-37 -64t-55 -55t-66.5 -52.5l-176 -135h276l-24 -139h-494l22 129l321 264q33 27 55 54.5t22 65.5q0 29 -19.5 45.5t-51.5 16.5q-43 0 -64 -22.5t-29 -64.5l-2 -11h-164z
" />
    <glyph glyph-name="three" unicode="3" horiz-adv-x="618" 
d="M162 700h462l-24 -137l-178 -153q64 -16 105.5 -60t41.5 -115q0 -60 -22.5 -106.5t-62 -78t-93 -48t-115.5 -16.5q-48 0 -92.5 14t-77.5 42.5t-51.5 71t-13.5 99.5h156q-4 -21 2 -37.5t19 -28.5t31.5 -18.5t39.5 -6.5t41 6t35.5 17.5t24.5 28.5t9 40q0 34 -25 55.5
t-63 21.5h-102l23 131l155 141h-249z" />
    <glyph glyph-name="four" unicode="4" horiz-adv-x="617" 
d="M477 700l-270 -434h144l25 141h156l-25 -141h84l-22 -128h-85l-24 -138h-156l24 138h-309l22 123l282 439h154z" />
    <glyph glyph-name="five" unicode="5" horiz-adv-x="626" 
d="M586 264q0 -62 -22.5 -113.5t-62.5 -88t-94.5 -56.5t-118.5 -20q-45 0 -88.5 14t-77.5 40.5t-55 65t-22 88.5h162q6 -32 31 -51t63 -19q28 0 49.5 9.5t36 26t21.5 37.5t7 44q0 38 -24.5 66.5t-70.5 28.5q-34 0 -57 -13.5t-36 -36.5h-156l140 414h388l-24 -135h-254
l-42 -121q23 16 50.5 22.5t58.5 6.5q40 0 76 -15t63 -42.5t43 -66t16 -85.5z" />
    <glyph glyph-name="six" unicode="6" horiz-adv-x="620" 
d="M547 700l-208 -239q10 5 24 7t28 2q41 0 76 -15.5t61 -43.5t41 -66t15 -83q0 -59 -22 -109t-61 -87.5t-93.5 -58.5t-119.5 -21q-50 0 -95 16.5t-79 46.5t-54 72t-20 94q0 76 29.5 131.5t74.5 105.5l221 248h182zM301 121q27 0 48.5 10t36 27t22.5 39.5t8 46.5
q0 41 -26 69t-71 28q-27 0 -48 -10t-35.5 -26.5t-22.5 -38.5t-8 -47q0 -42 27.5 -70t68.5 -28z" />
    <glyph glyph-name="seven" unicode="7" horiz-adv-x="569" 
d="M583 579l-376 -579h-175l370 561h-291l25 139h468z" />
    <glyph glyph-name="eight" unicode="8" horiz-adv-x="631" 
d="M283 -14q-47 0 -90 14t-76 40t-52.5 62.5t-19.5 81.5q0 66 35.5 119t101.5 77q-20 17 -36.5 47t-16.5 72q0 50 19.5 90t53.5 67.5t81 42.5t101 15q40 0 79 -12t70 -35t49.5 -57t18.5 -77q0 -54 -25.5 -100.5t-79.5 -77.5q13 -6 27.5 -17.5t26.5 -27.5t19.5 -37.5
t7.5 -48.5q0 -55 -22.5 -99t-62 -75t-93 -47.5t-116.5 -16.5zM323 291q-49 0 -81.5 -24.5t-32.5 -74.5q0 -34 24.5 -55.5t66.5 -21.5q47 0 79 27t32 74q0 34 -24.5 54.5t-63.5 20.5zM371 585q-42 0 -64 -27t-22 -68q0 -29 17.5 -49.5t50.5 -20.5q22 0 38.5 8t27 21.5t16 31
t5.5 35.5q0 29 -17.5 49t-51.5 20z" />
    <glyph glyph-name="nine" unicode="9" horiz-adv-x="621" 
d="M106 0l208 239q-10 -5 -24 -7t-28 -2q-36 0 -70.5 16.5t-61.5 45t-43.5 67.5t-16.5 84q0 58 21.5 108t60 86t93 56.5t120.5 20.5q50 0 95 -16.5t79 -46.5t54 -72t20 -94q0 -71 -28 -127t-76 -110l-221 -248h-182zM351 579q-26 0 -47 -10t-36 -26.5t-23 -39t-8 -47.5
q0 -41 26 -69t71 -28q24 0 44.5 10t35.5 26.5t23.5 38.5t8.5 47q0 42 -26 70t-69 28z" />
    <glyph glyph-name="colon" unicode=":" horiz-adv-x="278" 
d="M64 371q0 42 26.5 70t71.5 28q40 0 65 -24.5t25 -60.5q0 -42 -25.5 -71.5t-70.5 -29.5q-38 0 -65 23.5t-27 64.5zM13 80q0 42 26.5 70t71.5 28q40 0 65 -24.5t25 -60.5q0 -42 -25.5 -71.5t-70.5 -29.5q-38 0 -65 23.5t-27 64.5z" />
    <glyph glyph-name="semicolon" unicode=";" horiz-adv-x="288" 
d="M37 150h193l-152 -287h-142zM74 371q0 42 26.5 70t71.5 28q40 0 65 -24.5t25 -60.5q0 -42 -25.5 -71.5t-70.5 -29.5q-38 0 -65 23.5t-27 64.5z" />
    <glyph glyph-name="less" unicode="&#x3c;" horiz-adv-x="584" 
d="M583 616l-26 -149l-285 -110l247 -104l-26 -149l-434 203l18 106z" />
    <glyph glyph-name="equal" unicode="=" horiz-adv-x="620" 
d="M105 420l23 132h470l-23 -132h-470zM60 168l23 132h470l-23 -132h-470z" />
    <glyph glyph-name="greater" unicode="&#x3e;" horiz-adv-x="585" 
d="M39 104l26 149l283 110l-245 104l26 149l434 -203l-18 -106z" />
    <glyph glyph-name="question" unicode="?" horiz-adv-x="537" 
d="M182 278q11 58 33.5 91.5t54.5 55.5l59 40q26 18 42 32t16 35q0 23 -20 36t-51 13q-40 0 -62 -17t-28 -55l-1 -6h-153l2 12q17 105 82.5 152t172.5 47q50 0 91.5 -12.5t71.5 -35t46.5 -54.5t16.5 -70q0 -58 -25.5 -96t-73.5 -67l-63 -39q-29 -18 -44.5 -37t-22.5 -54
l-4 -21h-149zM137 80q0 42 26.5 70t71.5 28q40 0 65 -24.5t25 -60.5q0 -42 -25.5 -71.5t-70.5 -29.5q-38 0 -65 23.5t-27 64.5z" />
    <glyph glyph-name="at" unicode="@" horiz-adv-x="934" 
d="M688 491l-39 -219q-3 -17 -3 -27q0 -30 15 -49t44 -19q27 0 45 18t29 45.5t16 60.5t5 62q0 57 -20.5 105t-58.5 83t-92 54.5t-122 19.5q-72 0 -135 -22.5t-110 -66.5t-74 -110.5t-27 -154.5q0 -65 21.5 -120t62 -95t98.5 -63t132 -23q51 0 100 7t91 19l-14 -90
q-36 -11 -88 -18.5t-101 -7.5q-94 0 -169.5 30.5t-128.5 83.5t-81.5 124t-28.5 151q0 103 32.5 185t92.5 140t144.5 89t188.5 31q92 0 164.5 -28t123 -76t77 -111.5t26.5 -134.5q0 -48 -12 -96t-38 -86.5t-66 -63t-96 -24.5q-47 0 -82.5 22.5t-46.5 61.5q-5 -11 -16 -23.5
t-28.5 -23t-40 -17.5t-50.5 -7q-35 0 -64 11.5t-50 31.5t-32.5 47.5t-11.5 59.5q0 15 3 32l9 51q14 78 59 117.5t114 39.5q44 0 70.5 -16.5t38.5 -33.5l8 44h116zM396 284q-1 -5 -1.5 -9t-0.5 -9q0 -28 16 -45t45 -17q30 0 48 20.5t23 52.5l8 46q1 5 1.5 9t0.5 8
q0 26 -16 43.5t-45 17.5q-32 0 -48.5 -18.5t-22.5 -53.5z" />
    <glyph glyph-name="A" unicode="A" horiz-adv-x="714" 
d="M466 130h-247l-60 -130h-181l368 700h176l129 -700h-168zM284 268h164l-36 275z" />
    <glyph glyph-name="B" unicode="B" horiz-adv-x="681" 
d="M639 227q0 -54 -22.5 -96t-60.5 -71t-88 -44.5t-106 -15.5h-337l123 700h333q41 0 73 -12.5t53.5 -33.5t33 -49.5t11.5 -60.5q0 -58 -32 -107t-91 -75q48 -14 79 -47.5t31 -87.5zM379 135q45 0 68 24.5t23 62.5q0 27 -17 46t-50 19h-160l-27 -152h163zM392 421
q41 0 62.5 23.5t21.5 60.5q0 26 -15.5 43t-44.5 17h-124l-25 -144h125z" />
    <glyph glyph-name="C" unicode="C" horiz-adv-x="701" 
d="M528 442q0 25 -9 48.5t-26 41.5t-42 29t-59 11q-63 0 -98.5 -37t-50.5 -121l-18 -103q-2 -12 -3 -23.5t-1 -22.5q0 -64 34.5 -100.5t98.5 -36.5q33 0 58 11.5t42.5 30t28 42t15.5 46.5h160q-8 -60 -33.5 -110t-66 -86t-94 -56t-117.5 -20q-66 0 -120.5 20.5t-93.5 58
t-61 89t-22 113.5q0 31 6 63l16 90q27 153 106 223.5t222 70.5q57 0 109 -17.5t92 -51.5t63.5 -85t23.5 -118h-160z" />
    <glyph glyph-name="D" unicode="D" horiz-adv-x="708" 
d="M148 700h306q55 0 99 -16t75 -45.5t48 -70.5t17 -91q0 -14 -1.5 -28t-3.5 -28l-28 -159q-47 -262 -326 -262h-309zM515 414q2 9 3 19t1 19q0 51 -29.5 79t-90.5 28h-105l-74 -418h105q70 0 111 29.5t53 96.5z" />
    <glyph glyph-name="E" unicode="E" horiz-adv-x="625" 
d="M148 700h495l-25 -143h-323l-23 -131h294l-26 -143h-294l-24 -140h324l-25 -143h-496z" />
    <glyph glyph-name="F" unicode="F" horiz-adv-x="594" 
d="M25 0l123 700h485l-25 -143h-313l-27 -151h277l-25 -143h-277l-46 -263h-172z" />
    <glyph glyph-name="G" unicode="G" horiz-adv-x="711" 
d="M527 458q-1 52 -37.5 83t-95.5 31q-65 0 -100.5 -37.5t-48.5 -108.5l-19 -108q-3 -17 -4.5 -30.5t-1.5 -27.5q0 -68 34.5 -102t100.5 -34q54 0 89 30t43 81h-133l24 139h305l-18 -103q-11 -65 -38 -117.5t-68 -90t-96.5 -57.5t-123.5 -20q-64 0 -117 20.5t-91 57.5
t-59 88t-21 112q0 14 1 28t4 31l18 101q26 148 109.5 219t214.5 71q58 0 110.5 -15t92 -46.5t63.5 -79.5t26 -115h-163z" />
    <glyph glyph-name="H" unicode="H" horiz-adv-x="722" 
d="M435 0l48 274h-238l-48 -274h-172l123 700h172l-48 -272h238l48 272h172l-123 -700h-172z" />
    <glyph glyph-name="I" unicode="I" horiz-adv-x="322" 
d="M202 0h-172l123 700h172z" />
    <glyph glyph-name="J" unicode="J" horiz-adv-x="618" 
d="M629 700l-87 -490q-18 -104 -89.5 -164t-191.5 -60q-50 0 -92.5 14.5t-73.5 40.5t-48.5 63t-17.5 81q0 21 4 41h160q-1 -5 -1.5 -10t-0.5 -10q0 -34 22 -55.5t62 -21.5q42 0 65.5 24.5t30.5 61.5l86 485h172z" />
    <glyph glyph-name="K" unicode="K" horiz-adv-x="668" 
d="M25 0l123 700h172l-58 -331l246 331h209l-279 -356l163 -344h-199l-145 341l-60 -341h-172z" />
    <glyph glyph-name="L" unicode="L" horiz-adv-x="585" 
d="M320 700l-98 -557h306l-25 -143h-478l123 700h172z" />
    <glyph glyph-name="M" unicode="M" horiz-adv-x="823" 
d="M669 700h162l-123 -700h-165l62 351l-140 -205h-138l-71 225l-65 -371h-166l124 700h158l118 -369z" />
    <glyph glyph-name="N" unicode="N" 
d="M452 0l-187 408l-72 -408h-168l123 700h163l188 -406l72 406h168l-123 -700h-164z" />
    <glyph glyph-name="O" unicode="O" 
d="M686 283q-11 -65 -38.5 -119.5t-69.5 -94t-98 -61.5t-126 -22q-69 0 -124.5 21t-95.5 58.5t-61.5 89t-21.5 113.5q0 17 1.5 33t4.5 33l16 89q26 143 108.5 217t225.5 74q65 0 120 -19.5t95 -56t62.5 -88t22.5 -115.5q0 -31 -6 -65zM532 386q2 11 3 22.5t1 19.5
q0 64 -36 103.5t-101 39.5q-70 0 -105.5 -41t-49.5 -118l-17 -95q-5 -28 -5 -50q0 -65 35.5 -101.5t102.5 -36.5q66 0 104.5 43.5t50.5 115.5z" />
    <glyph glyph-name="P" unicode="P" horiz-adv-x="663" 
d="M235 207l-37 -207h-173l123 700h297q50 0 92.5 -16.5t73 -45t47.5 -68t17 -85.5q0 -66 -22 -117.5t-63 -87.5t-98.5 -54.5t-129.5 -18.5h-127zM375 350q63 0 95 33.5t32 85.5q0 35 -22 61.5t-70 26.5h-114l-36 -207h115z" />
    <glyph glyph-name="Q" unicode="Q" 
d="M686 283q-14 -80 -50.5 -142.5t-95.5 -101.5l37 -79l-135 -59l-40 88q-24 -3 -48 -3q-69 0 -124.5 21t-95.5 58.5t-61.5 89t-21.5 113.5q0 17 1.5 33t4.5 33l16 89q26 143 108.5 217t225.5 74q65 0 120 -19.5t95 -56t62.5 -88t22.5 -115.5q0 -31 -6 -65zM532 386
q2 11 3 22.5t1 19.5q0 64 -36 103.5t-101 39.5q-70 0 -105.5 -41t-49.5 -118l-17 -95q-5 -28 -5 -50q0 -61 31 -96.5t90 -40.5l-29 69l127 53l31 -71q17 17 27.5 46t15.5 61z" />
    <glyph glyph-name="R" unicode="R" horiz-adv-x="711" 
d="M352 208h-119l-36 -208h-172l123 700h326q50 0 90.5 -17t69.5 -46.5t44.5 -69.5t15.5 -86q0 -92 -44 -156t-123 -94l102 -231h-193zM392 344q60 0 95.5 34t35.5 92q0 41 -24.5 66.5t-67.5 25.5h-135l-39 -218h135z" />
    <glyph glyph-name="S" unicode="S" horiz-adv-x="655" 
d="M613 244q0 -59 -23 -107t-63.5 -81.5t-97 -51.5t-122.5 -18q-57 0 -109 15t-89 43.5t-55 70.5t-8 95l3 16h164l-2 -11q-5 -25 3 -43t24 -29t38 -16.5t46 -5.5q23 0 45 5.5t38.5 16.5t26.5 27.5t10 39.5q0 20 -12.5 35t-35.5 20l-149 36q-72 17 -110.5 55t-38.5 106
q0 124 75.5 188t215.5 64q52 0 100.5 -14t83 -42t51.5 -69.5t6 -95.5l-1 -5h-162l1 5q4 22 -2.5 38.5t-20.5 27t-33.5 15.5t-40.5 5q-18 0 -36.5 -4t-33.5 -13t-24.5 -24.5t-9.5 -39.5q0 -19 10 -29.5t30 -15.5l160 -41q72 -19 110 -62t38 -106z" />
    <glyph glyph-name="T" unicode="T" horiz-adv-x="600" 
d="M651 700l-26 -145h-187l-97 -555h-172l97 555h-187l26 145h546z" />
    <glyph glyph-name="U" unicode="U" horiz-adv-x="723" 
d="M564 700h172l-77 -439q-11 -63 -38.5 -113.5t-69 -86.5t-96.5 -55.5t-121 -19.5q-52 0 -101 15t-87 44t-61 72.5t-23 99.5q0 13 1 23t3 21l77 439h172l-78 -444q-1 -5 -1.5 -11.5t-0.5 -14.5q0 -46 28.5 -73.5t82.5 -27.5t92 34.5t49 97.5z" />
    <glyph glyph-name="V" unicode="V" horiz-adv-x="673" 
d="M390 0h-191l-103 700h180l52 -504l223 504h186z" />
    <glyph glyph-name="W" unicode="W" horiz-adv-x="981" 
d="M696 244l164 456h172l-290 -700h-161l-49 486l-220 -486h-161l-45 700h170l6 -456l201 456h163z" />
    <glyph glyph-name="X" unicode="X" horiz-adv-x="693" 
d="M457 355l164 -355h-171l-102 221l-179 -221h-186l297 367l-153 333h171l91 -202l161 202h186z" />
    <glyph glyph-name="Y" unicode="Y" horiz-adv-x="650" 
d="M405 233l-41 -233h-172l44 250l-154 450h185l82 -294l179 294h192z" />
    <glyph glyph-name="Z" unicode="Z" horiz-adv-x="650" 
d="M152 700h497l-25 -143l-378 -414h316l-25 -143h-516l25 143l374 414h-293z" />
    <glyph glyph-name="bracketleft" unicode="[" horiz-adv-x="394" 
d="M-4 -134l162 916h304l-24 -138h-137l-113 -640h137l-24 -138h-305z" />
    <glyph glyph-name="backslash" unicode="\" horiz-adv-x="508" 
d="M409 -105h-161l-131 855h161z" />
    <glyph glyph-name="bracketright" unicode="]" horiz-adv-x="395" 
d="M423 782l-162 -916h-304l24 138h137l113 640h-137l24 138h305z" />
    <glyph glyph-name="asciicircum" unicode="^" horiz-adv-x="566" 
d="M541 410h-162l-46 155l-100 -155h-166l214 290h144z" />
    <glyph glyph-name="underscore" unicode="_" horiz-adv-x="529" 
d="M-46 -144l16 88h530l-16 -88h-530z" />
    <glyph glyph-name="grave" unicode="`" horiz-adv-x="416" 
d="M217 578l-83 160h205l39 -160h-161z" />
    <glyph glyph-name="a" unicode="a" horiz-adv-x="602" 
d="M341 0l8 45q-17 -23 -58.5 -40t-91.5 -17q-36 0 -68 10t-56.5 30t-39 48.5t-14.5 66.5q0 44 15 77t42.5 54.5t65.5 32.5t84 11q58 0 95 -14t59 -31l11 63q5 31 -14 50.5t-54 19.5q-27 0 -44.5 -10t-31.5 -29h-154q32 88 94.5 128.5t150.5 40.5q48 0 88.5 -14t70 -38.5
t46 -58t16.5 -73.5q0 -18 -3 -34l-56 -318h-161zM263 94q16 0 33 4t31.5 12t24 20t9.5 29q0 15 -8.5 25.5t-22.5 18t-31 11t-33 3.5q-17 0 -32.5 -3.5t-28 -11t-20 -19.5t-7.5 -30q0 -27 23.5 -43t61.5 -16z" />
    <glyph glyph-name="b" unicode="b" horiz-adv-x="617" 
d="M268 489q23 21 54.5 34t79.5 13q43 0 78 -15t59 -41.5t37 -63t13 -79.5q0 -13 -1.5 -26t-3.5 -27l-14 -80q-18 -102 -78 -159t-159 -57q-45 0 -87 19t-61 48l-11 -55h-159l128 730h168zM417 284q1 5 1.5 12t0.5 13q0 40 -22 64.5t-62 24.5q-45 0 -68.5 -25.5t-32.5 -76.5
l-10 -58q-8 -48 12 -80t72 -32q44 0 67.5 26t31.5 74z" />
    <glyph glyph-name="c" unicode="c" horiz-adv-x="575" 
d="M399 322q0 32 -22 56.5t-65 24.5q-45 0 -67.5 -26t-31.5 -76l-13 -74q-1 -5 -1.5 -11t-0.5 -11q0 -37 23 -60.5t62 -23.5q42 0 64.5 24.5t30.5 56.5h152q-7 -48 -28.5 -87t-55 -67.5t-77 -44t-95.5 -15.5q-49 0 -93 15.5t-77 43.5t-52 68t-19 90q0 11 1 20.5t3 23.5
l12 68q19 106 86.5 162.5t180.5 56.5q48 0 90.5 -13.5t74 -40.5t49.5 -67t18 -93h-149z" />
    <glyph glyph-name="d" unicode="d" horiz-adv-x="619" 
d="M354 0l9 55q-8 -14 -22.5 -26t-33.5 -21t-42 -14.5t-47 -5.5q-44 0 -79 15.5t-59 42t-37 63t-13 78.5q0 23 5 51l14 80q19 106 79.5 162t156.5 56q59 0 94.5 -20.5t50.5 -41.5l45 256h168l-129 -730h-160zM203 240q-1 -5 -2 -13t-1 -14q0 -39 22.5 -63t62.5 -24
q45 0 68.5 25.5t32.5 76.5l10 58q2 9 2 16v11q0 41 -22.5 63t-63.5 22q-44 0 -67.5 -26.5t-31.5 -74.5z" />
    <glyph glyph-name="e" unicode="e" horiz-adv-x="571" 
d="M193 209q-1 -5 -1.5 -11t-0.5 -12q0 -38 22 -59t64 -21q33 0 53 15.5t27 34.5h148q-11 -37 -31.5 -67.5t-51.5 -53t-70.5 -35t-87.5 -12.5q-50 0 -92 14.5t-73 42.5t-48.5 67.5t-17.5 89.5q0 13 1.5 28t3.5 26l11 61q19 106 83.5 162.5t177.5 56.5q52 0 94 -14.5
t71.5 -41t45 -63.5t15.5 -83q0 -11 -1.5 -24.5t-3.5 -24.5l-13 -76h-325zM210 307h171l2 10q1 5 1.5 12t0.5 12q0 35 -20.5 55t-55.5 20q-45 0 -67.5 -27t-30.5 -76z" />
    <glyph glyph-name="f" unicode="f" horiz-adv-x="372" 
d="M44 0l69 394h-61l23 130h61l7 41q15 88 61 126.5t135 38.5h99l-23 -132h-54q-26 0 -36.5 -10.5t-15.5 -35.5l-5 -28h92l-23 -130h-92l-69 -394h-168z" />
    <glyph glyph-name="g" unicode="g" horiz-adv-x="617" 
d="M513 7q-8 -45 -31 -80.5t-58.5 -60.5t-81.5 -38.5t-100 -13.5q-49 0 -92.5 12t-76.5 34.5t-53 54.5t-23 71h162q5 -23 31.5 -34.5t58.5 -11.5q43 0 68 22.5t31 59.5l11 64q-17 -27 -54 -43.5t-82 -16.5q-39 0 -73.5 14.5t-60 40t-40 61t-14.5 77.5q0 12 1 22.5t3 19.5
l12 68q17 100 75 153.5t161 53.5q51 0 88.5 -20t58.5 -48l10 56h160zM206 266q-1 -5 -1.5 -11.5t-0.5 -11.5q0 -42 25.5 -63t60.5 -21q43 0 67.5 27.5t31.5 68.5l7 41q2 10 2 20q0 36 -23.5 60t-65.5 24t-64.5 -23.5t-30.5 -65.5z" />
    <glyph glyph-name="h" unicode="h" horiz-adv-x="604" 
d="M15 0l128 730h168l-45 -253q26 30 62 44.5t80 14.5q75 0 116.5 -44t41.5 -116q0 -11 -1 -22t-3 -25l-58 -329h-168l54 306q2 10 2 19q0 28 -16.5 44.5t-48.5 16.5q-34 0 -58 -18.5t-32 -61.5l-54 -306h-168z" />
    <glyph glyph-name="i" unicode="i" horiz-adv-x="296" 
d="M20 0l92 524h168l-92 -524h-168zM127 651q0 42 27.5 68t72.5 26q38 0 62 -22.5t24 -57.5q0 -40 -26.5 -67t-71.5 -27q-35 0 -61.5 21t-26.5 59z" />
    <glyph glyph-name="j" unicode="j" horiz-adv-x="298" 
d="M280 524l-99 -563q-11 -66 -47 -100.5t-102 -34.5h-97l22 127h27q28 0 32 25l96 546h168zM127 651q0 42 27.5 68t72.5 26q38 0 62 -22.5t24 -57.5q0 -40 -26.5 -67t-71.5 -27q-35 0 -61.5 21t-26.5 59z" />
    <glyph glyph-name="k" unicode="k" horiz-adv-x="563" 
d="M15 0l128 730h168l-77 -440l164 234h193l-196 -275l109 -249h-180l-97 249l-44 -249h-168z" />
    <glyph glyph-name="l" unicode="l" horiz-adv-x="298" 
d="M20 0l128 730h168l-128 -730h-168z" />
    <glyph glyph-name="m" unicode="m" horiz-adv-x="915" 
d="M15 0l92 524h161l-11 -59q25 36 62.5 53.5t83.5 17.5q49 0 84 -19t54 -54q26 34 70 53.5t99 19.5q76 0 121.5 -43t45.5 -119q0 -11 -1 -22t-3 -23l-58 -329h-168l54 306q2 10 2 19q0 28 -16.5 44.5t-48.5 16.5t-54.5 -19.5t-30.5 -60.5l-54 -306h-168l54 306q2 10 2 19
q0 28 -16.5 44.5t-48.5 16.5t-54.5 -19.5t-30.5 -60.5l-54 -306h-168z" />
    <glyph glyph-name="n" unicode="n" horiz-adv-x="604" 
d="M15 0l92 524h161l-11 -59q26 36 64.5 53.5t86.5 17.5q75 0 116.5 -44t41.5 -116q0 -10 -1 -22.5t-3 -24.5l-58 -329h-168l54 306q2 10 2 19q0 28 -16.5 44.5t-48.5 16.5q-34 0 -58 -18.5t-32 -61.5l-54 -306h-168z" />
    <glyph glyph-name="o" unicode="o" horiz-adv-x="580" 
d="M533 204q-8 -48 -30 -88t-55 -68.5t-77 -44t-96 -15.5q-53 0 -97.5 16t-76.5 45t-49.5 69.5t-17.5 88.5q0 26 4 49l12 67q20 109 85.5 161.5t169.5 51.5q56 0 101 -16.5t76.5 -46t48.5 -69.5t17 -88q0 -12 -1 -25t-3 -24zM386 294q1 5 1.5 12t0.5 15q0 39 -22 60.5
t-63 21.5q-44 0 -64 -23.5t-28 -67.5l-16 -90q-2 -10 -2 -21q0 -36 23 -58t62 -22q40 0 62.5 22.5t29.5 61.5z" />
    <glyph glyph-name="p" unicode="p" horiz-adv-x="619" 
d="M267 524l-9 -55q7 14 22 26t34 21t42 14.5t47 5.5q45 0 80 -15.5t59 -42t36.5 -63t12.5 -78.5q0 -23 -5 -51l-14 -80q-19 -106 -79.5 -162t-156.5 -56q-51 0 -88.5 18.5t-55.5 44.5l-39 -225h-168l122 698h160zM418 284q1 5 1.5 12t0.5 14q0 39 -22 63.5t-62 24.5
q-45 0 -68.5 -25.5t-32.5 -76.5l-10 -58q-2 -10 -2 -15v-12q0 -41 22.5 -63t63.5 -22q44 0 67.5 26.5t31.5 74.5z" />
    <glyph glyph-name="q" unicode="q" horiz-adv-x="617" 
d="M351 35q-23 -21 -54.5 -34t-79.5 -13q-44 0 -78.5 15t-58.5 41.5t-37 63t-13 79.5q0 13 1.5 26t3.5 27l14 80q18 102 78 159t159 57q45 0 87 -19t61 -48l11 55h159l-123 -698h-168zM202 240q-1 -5 -1.5 -11t-0.5 -14q0 -40 22 -64.5t62 -24.5q45 0 68.5 25.5t32.5 76.5
l10 58q1 5 1.5 12.5t0.5 14.5q0 38 -20.5 61.5t-65.5 23.5q-44 0 -67.5 -26t-31.5 -74z" />
    <glyph glyph-name="r" unicode="r" horiz-adv-x="392" 
d="M384 363h-22q-60 0 -92 -26.5t-44 -92.5l-43 -244h-168l92 524h159l-14 -80q19 50 57.5 67t94.5 17h9z" />
    <glyph glyph-name="s" unicode="s" horiz-adv-x="518" 
d="M480 187q0 -48 -21 -85t-56 -62.5t-81 -38.5t-96 -13q-41 0 -80 8.5t-69 26t-48 44t-18 62.5q0 6 0.5 12.5t1.5 11.5l2 12h148l-1 -5q-3 -16 3.5 -26.5t18 -17t26.5 -9t30 -2.5q13 0 27 2.5t26 8.5t19.5 16t7.5 25q0 24 -29 31l-133 29q-54 12 -80 43.5t-26 79.5
q0 50 18 87t50 61t76 36t96 12q38 0 76.5 -9.5t68.5 -29.5t47 -52t12 -78l-1 -9h-147l1 10q3 28 -18 39.5t-49 11.5q-26 0 -48.5 -11t-22.5 -39q0 -22 28 -28l135 -32q52 -13 79 -45t27 -77z" />
    <glyph glyph-name="t" unicode="t" horiz-adv-x="392" 
d="M330 665l-25 -141h101l-23 -130h-101l-39 -224q-6 -34 31 -34h55l-23 -136h-104q-63 0 -98 32t-35 89q0 16 3 34l42 239h-68l23 130h68l25 141h168z" />
    <glyph glyph-name="u" unicode="u" horiz-adv-x="601" 
d="M588 524l-92 -524h-161l11 59q-8 -14 -23 -26.5t-35 -22.5t-43 -16t-47 -6q-75 0 -116.5 44t-41.5 116q0 14 1 25t3 22l58 329h168l-55 -314q-2 -10 -2 -18q0 -29 16.5 -45.5t48.5 -16.5q34 0 57 20t30 60l55 314h168z" />
    <glyph glyph-name="v" unicode="v" horiz-adv-x="529" 
d="M141 0l-84 524h165l31 -339l146 339h172l-264 -524h-166z" />
    <glyph glyph-name="w" unicode="w" horiz-adv-x="805" 
d="M561 206l115 318h163l-227 -524h-151l-46 317l-155 -317h-152l-43 524h161l5 -318l147 318h144z" />
    <glyph glyph-name="x" unicode="x" horiz-adv-x="566" 
d="M374 258l130 -258h-168l-67 134l-113 -134h-181l228 268l-127 256h166l66 -133l113 133h179z" />
    <glyph glyph-name="y" unicode="y" horiz-adv-x="530" 
d="M61 -175l86 180l-93 519h167l35 -353l142 353h170l-338 -698z" />
    <glyph glyph-name="z" unicode="z" horiz-adv-x="524" 
d="M5 0l20 117l271 282h-212l22 125h414l-21 -117l-273 -282h231l-22 -125h-430z" />
    <glyph glyph-name="braceleft" unicode="{" horiz-adv-x="440" 
d="M330 447q-10 -55 -43 -85.5t-82 -37.5q39 -7 61.5 -32.5t22.5 -65.5q0 -8 -1 -15.5t-2 -11.5l-22 -124q-1 -5 -1.5 -10.5t-0.5 -13.5q0 -47 59 -47h45l-24 -138h-79q-92 0 -133.5 34.5t-41.5 104.5q0 26 6 58l21 120q2 10 2 18q0 29 -18.5 41.5t-50.5 12.5h-28l25 138h37
q37 0 56.5 17t26.5 55l23 130q9 50 24.5 85.5t41.5 58t64.5 33t92.5 10.5h92l-24 -138h-47q-38 0 -55 -14t-24 -52z" />
    <glyph glyph-name="bar" unicode="|" horiz-adv-x="341" 
d="M29 -150l167 950h141l-167 -950h-141z" />
    <glyph glyph-name="braceright" unicode="}" horiz-adv-x="440" 
d="M135 201q10 55 43 85.5t82 37.5q-39 7 -61.5 32.5t-22.5 65.5q0 8 1 15.5t2 11.5l22 124q1 5 1.5 10.5t0.5 13.5q0 47 -59 47h-45l24 138h79q92 0 133.5 -34.5t41.5 -104.5q0 -27 -6 -58l-21 -120q-2 -10 -2 -18q0 -29 18.5 -41.5t50.5 -12.5h28l-25 -138h-37
q-37 0 -56.5 -17t-26.5 -55l-23 -130q-9 -50 -24.5 -85.5t-41.5 -58t-64.5 -33t-92.5 -10.5h-92l24 138h47q38 0 55 14t24 52z" />
    <glyph glyph-name="asciitilde" unicode="~" horiz-adv-x="652" 
d="M622 420q-11 -34 -25.5 -66t-36 -57.5t-50.5 -41t-68 -15.5q-29 0 -55.5 11t-51 24.5t-46.5 24.5t-43 11q-29 0 -41.5 -20.5t-24.5 -51.5l-138 49q14 49 31 85.5t39.5 60.5t52.5 36t72 12q30 0 59.5 -11t55 -24.5t46.5 -24.5t34 -11t22 5.5t15.5 14.5t11.5 20.5t11 23.5z
" />
    <glyph glyph-name="uni00A0" unicode="&#xa0;" horiz-adv-x="220" 
 />
    <glyph glyph-name="exclamdown" unicode="&#xa1;" horiz-adv-x="316" 
d="M149 475h96l4 -205l-48 -270h-176l48 270zM311 620q0 -42 -26.5 -70t-71.5 -28q-40 0 -65 24.5t-25 60.5q0 42 25.5 71.5t70.5 29.5q38 0 65 -23.5t27 -64.5z" />
    <glyph glyph-name="cent" unicode="&#xa2;" horiz-adv-x="581" 
d="M397 399q-2 30 -23 48.5t-53 18.5q-40 0 -62 -22.5t-30 -64.5l-9 -50q-1 -5 -1.5 -10.5t-0.5 -10.5q0 -35 20 -54.5t55 -19.5q37 0 58.5 21.5t28.5 45.5h156q-6 -35 -22 -67t-40.5 -57.5t-57.5 -43.5t-73 -27l-18 -106h-166l20 116q-58 22 -91.5 68.5t-33.5 109.5
q0 10 1 20.5t3 20.5l9 51q17 97 69.5 148t126.5 60l19 106h166l-21 -113q63 -23 96 -74t30 -114h-156z" />
    <glyph glyph-name="sterling" unicode="&#xa3;" horiz-adv-x="678" 
d="M541 398l-22 -131h-178l-24 -136h252l-22 -131h-531l22 131h111l24 136h-97l22 131h98l21 119q19 107 85 152t176 45q45 0 83 -12t66 -34.5t43.5 -54.5t15.5 -71q0 -18 -3 -37l-4 -22h-155l4 23q1 4 1 8v5q0 27 -18.5 42t-48.5 15q-32 0 -52 -15t-26 -50l-20 -113h177z
" />
    <glyph glyph-name="currency" unicode="&#xa4;" horiz-adv-x="640" 
d="M538 313q-11 -61 -49 -104l56 -124h-164l-23 56q-12 -2 -24.5 -3t-25.5 -1q-32 0 -66 8l-46 -60h-175l113 139q-18 31 -18 76q0 10 0.5 17.5t2.5 16.5l8 46q10 62 46 104l-56 125h165l22 -56q11 2 24.5 3t27.5 1q17 0 33.5 -2.5t33.5 -7.5l47 62h172l-113 -140
q9 -17 14.5 -36.5t5.5 -42.5q0 -17 -3 -33zM405 373q1 5 1 11q0 25 -17 41t-46 16q-32 0 -49.5 -16t-22.5 -45l-10 -57q-1 -5 -1 -13q0 -26 17.5 -41.5t45.5 -15.5q30 0 48 15.5t23 44.5z" />
    <glyph glyph-name="yen" unicode="&#xa5;" horiz-adv-x="636" 
d="M77 246h155l-17 70h-126l22 124h74l-61 260h179l42 -289l141 289h181l-153 -260h77l-22 -124h-128l-41 -70h157l-22 -122h-156l-22 -124h-168l22 124h-156z" />
    <glyph glyph-name="brokenbar" unicode="&#xa6;" horiz-adv-x="341" 
d="M267 405h-141l70 395h141zM29 -150l68 385h141l-68 -385h-141z" />
    <glyph glyph-name="section" unicode="&#xa7;" horiz-adv-x="629" 
d="M584 306q0 -49 -24 -91t-65 -77q7 -12 11 -26t4 -31q0 -50 -20 -90.5t-55.5 -69.5t-82.5 -45t-101 -16q-40 0 -79 10.5t-70 31.5t-50 51.5t-19 70.5q0 5 0.5 11.5t1.5 12.5l2 14h147l-1 -7q-5 -37 21 -55t63 -18q16 0 31.5 3.5t27.5 11t19.5 19.5t7.5 28t-10.5 24
t-28.5 14l-145 50q-110 39 -110 139q0 53 24 93.5t68 71.5q-18 28 -18 68q0 52 17.5 91t50 65.5t78.5 40t102 13.5q37 0 76 -9t71 -28.5t52 -49.5t20 -73q0 -14 -3 -30l-2 -12h-145l2 14q3 17 -3 29.5t-18 20.5t-28.5 12t-34.5 4q-14 0 -28.5 -2.5t-25.5 -9t-18 -17.5
t-7 -29q0 -29 38 -42l140 -49q56 -20 86.5 -52.5t30.5 -84.5zM246 369q-11 -11 -20.5 -29t-9.5 -38q0 -34 37 -47l140 -49q14 11 23 26t9 37q0 18 -9.5 30.5t-32.5 20.5z" />
    <glyph glyph-name="dieresis" unicode="&#xa8;" horiz-adv-x="510" 
d="M131 652q0 37 24.5 60t62.5 23q32 0 54.5 -19.5t22.5 -51.5q0 -34 -23 -59.5t-65 -25.5q-32 0 -54 20.5t-22 52.5zM337 652q0 37 24.5 60t62.5 23q32 0 54.5 -19.5t22.5 -51.5q0 -34 -23 -59.5t-65 -25.5q-32 0 -54 20.5t-22 52.5z" />
    <glyph glyph-name="copyright" unicode="&#xa9;" horiz-adv-x="829" 
d="M70 350q0 75 26.5 141t74.5 115t115 77.5t148 28.5q82 0 149 -28.5t115 -77.5t74.5 -115t26.5 -141t-26.5 -141t-74.5 -115t-115 -77.5t-149 -28.5q-81 0 -148 28.5t-115 77.5t-74.5 115t-26.5 141zM751 350q0 63 -22 121t-63 102.5t-100 71t-132 26.5t-131.5 -26.5
t-99.5 -71t-63 -102.5t-22 -121t22 -121t63 -102.5t99.5 -71t131.5 -26.5t132 26.5t100 71t63 102.5t22 121zM505 392q-4 25 -19 43t-49 18q-38 0 -53 -23t-15 -55v-50q0 -32 15 -55t53 -23q34 0 49 18t19 43h86q-2 -29 -13.5 -54.5t-31.5 -44.5t-48 -29.5t-61 -10.5
q-41 0 -71 13t-50 34.5t-29.5 50t-9.5 59.5v48q0 31 9.5 59.5t29.5 50t50 34.5t71 13q33 0 61 -11t48 -29.5t31.5 -44t13.5 -54.5h-86z" />
    <glyph glyph-name="ordfeminine" unicode="&#xaa;" horiz-adv-x="429" 
d="M60 310h329l-17 -98h-329zM285 364l5 31q-11 -14 -37 -26t-61 -12q-54 0 -82.5 29t-28.5 70q0 59 39 87.5t96 28.5q33 0 57.5 -8.5t38.5 -18.5l6 34q4 20 -8 31.5t-33 11.5q-29 0 -47 -20h-100q23 59 64.5 83.5t97.5 24.5q63 0 101 -33.5t38 -84.5q0 -5 -0.5 -10.5
t-1.5 -10.5l-36 -207h-108zM243 432q23 0 39.5 11t16.5 31q0 14 -14 23t-39 9q-20 0 -37 -8.5t-17 -31.5q0 -17 15 -25.5t36 -8.5z" />
    <glyph glyph-name="guillemotleft" unicode="&#xab;" horiz-adv-x="716" 
d="M218 265l115 -205h-195l-119 218l190 218h201zM530 265l115 -205h-195l-119 218l190 218h201z" />
    <glyph glyph-name="logicalnot" unicode="&#xac;" horiz-adv-x="580" 
d="M76 431h470l-55 -317h-158l30 175h-312z" />
    <glyph glyph-name="registered" unicode="&#xae;" horiz-adv-x="538" 
d="M85 494q0 44 15 83.5t44 69.5t70.5 47.5t94.5 17.5t94.5 -17.5t70.5 -47.5t44 -69.5t15 -83.5q0 -43 -15 -82.5t-44 -69.5t-70.5 -48t-94.5 -18t-94.5 18t-70.5 48t-44 69.5t-15 82.5zM126 494q0 -38 13 -71.5t37 -58.5t58 -39t75 -14t75 14t58 39t37 58.5t13 71.5
q0 39 -13 72t-37 58t-58 39t-75 14t-75 -14t-58 -39t-37 -58t-13 -72zM312 462h-25v-57h-51v192h88q35 0 53.5 -19t18.5 -49q0 -20 -9 -35t-24 -23l38 -66h-59zM345 529q0 26 -30 26h-28v-53h28q15 0 22.5 7.5t7.5 19.5z" />
    <glyph glyph-name="macron" unicode="&#xaf;" horiz-adv-x="483" 
d="M120 598l22 127h343l-22 -127h-343z" />
    <glyph glyph-name="degree" unicode="&#xb0;" horiz-adv-x="426" 
d="M280 710q30 0 56 -10.5t45.5 -29.5t30.5 -45t11 -57q0 -34 -11.5 -66t-34.5 -57t-56.5 -40t-77.5 -15q-31 0 -57.5 11t-45.5 30.5t-30 46t-11 57.5q0 38 12 70t35.5 55.5t57 36.5t76.5 13zM252 464q42 0 65.5 29.5t23.5 68.5q0 29 -17 51.5t-52 22.5q-43 0 -67 -27.5
t-24 -71.5q0 -32 19 -52.5t52 -20.5z" />
    <glyph glyph-name="plusminus" unicode="&#xb1;" horiz-adv-x="610" 
d="M25 0l23 132h157l27 157h-157l25 142h157l31 175h158l-31 -175h155l-25 -142h-155l-27 -157h155l-23 -132h-470z" />
    <glyph glyph-name="twosuperior" unicode="&#xb2;" horiz-adv-x="417" 
d="M137 715l2 12q11 64 52.5 92t104.5 28q31 0 57.5 -8.5t46 -23.5t30 -35.5t10.5 -45.5q0 -47 -28 -77.5t-77 -59.5l-75 -45h148l-17 -94h-303l15 86l184 132q13 9 24.5 20t11.5 26q0 13 -10 21t-27 8q-18 0 -29 -6.5t-14 -23.5l-1 -6h-105z" />
    <glyph glyph-name="threesuperior" unicode="&#xb3;" horiz-adv-x="417" 
d="M172 837h262l-15 -87l-87 -63q16 -4 30.5 -12t25.5 -19.5t18 -27.5t7 -37q0 -32 -13.5 -58t-36.5 -44t-53.5 -28t-65.5 -10q-32 0 -59.5 8.5t-47 25t-28.5 40.5t-4 55h97q-4 -22 10 -32.5t34 -10.5t37 9.5t17 32.5q0 14 -9 23.5t-27 9.5h-72l15 80l76 58h-126z" />
    <glyph glyph-name="acute" unicode="&#xb4;" horiz-adv-x="416" 
d="M128 578l86 160h222l-141 -160h-167z" />
    <glyph glyph-name="mu" unicode="&#xb5;" horiz-adv-x="606" 
d="M593 524l-92 -524h-161l11 59q-8 -14 -23 -26.5t-35 -22.5t-43 -16t-47 -6h-11q-6 0 -11 1l-29 -163h-168l123 698h168l-55 -314q-2 -10 -2 -18q0 -29 16.5 -45.5t48.5 -16.5q34 0 57 20t30 60l55 314h168z" />
    <glyph glyph-name="paragraph" unicode="&#xb6;" horiz-adv-x="625" 
d="M361 -174l136 773h-106l-80 -454q-53 0 -98 15.5t-78 45t-51.5 72t-18.5 97.5q0 72 22 131.5t65.5 102.5t108 67t148.5 24h219l-154 -874h-113z" />
    <glyph glyph-name="periodcentered" unicode="&#xb7;" horiz-adv-x="288" 
d="M57 281q0 42 26.5 70t71.5 28q40 0 65 -24.5t25 -60.5q0 -42 -25.5 -71.5t-70.5 -29.5q-38 0 -65 23.5t-27 64.5z" />
    <glyph glyph-name="cedilla" unicode="&#xb8;" horiz-adv-x="334" 
d="M223 -98q0 -45 -38 -66.5t-92 -21.5q-20 0 -41 1.5t-36 4.5l11 61q8 -2 19 -3t20 -1q17 0 27.5 4.5t10.5 15.5q0 17 -31 20l-27 3l30 80h74l-10 -33l18 -2q31 -4 48 -20t17 -43z" />
    <glyph glyph-name="onesuperior" unicode="&#xb9;" horiz-adv-x="328" 
d="M204 727l-96 -24l18 98l118 36h96l-67 -379h-117z" />
    <glyph glyph-name="ordmasculine" unicode="&#xba;" horiz-adv-x="432" 
d="M425 494q-11 -63 -54 -100.5t-113 -37.5q-33 0 -62 10t-51.5 28t-35.5 44.5t-13 59.5q0 12 3 29l8 45q24 134 169 134q31 0 60 -9.5t51 -27.5t35 -43.5t13 -58.5v-13q0 -6 -2 -15zM70 310h313l-17 -98h-313zM328 551q1 5 1 9v5q0 24 -14.5 38.5t-40.5 14.5q-27 0 -42 -15
t-21 -47l-7 -40q-1 -5 -1.5 -9t-0.5 -7q0 -26 15 -41t41 -15q29 0 43 17t19 44z" />
    <glyph glyph-name="guillemotright" unicode="&#xbb;" horiz-adv-x="716" 
d="M202 291l-115 205h195l119 -218l-190 -218h-201zM505 291l-115 205h195l119 -218l-190 -218h-201z" />
    <glyph glyph-name="onequarter" unicode="&#xbc;" horiz-adv-x="850" 
d="M696 379l-150 -227h76l12 72h105l-12 -72h49l-16 -85h-48l-12 -67h-105l12 67h-191l15 81l158 231h107zM593 700h124l-482 -700h-124zM194 590l-96 -24l18 98l118 36h96l-67 -379h-117z" />
    <glyph glyph-name="onehalf" unicode="&#xbd;" horiz-adv-x="863" 
d="M593 700h124l-482 -700h-124zM194 590l-96 -24l18 98l118 36h96l-67 -379h-117zM500 257l2 12q11 64 52.5 92t104.5 28q31 0 57.5 -8.5t46 -23.5t30 -35.5t10.5 -45.5q0 -47 -28 -77.5t-77 -59.5l-75 -45h148l-17 -94h-303l15 86l184 132q13 9 24.5 20t11.5 26
q0 13 -10 21t-27 8q-18 0 -29 -6.5t-14 -23.5l-1 -6h-105z" />
    <glyph glyph-name="threequarters" unicode="&#xbe;" horiz-adv-x="900" 
d="M746 379l-150 -227h76l12 72h105l-12 -72h49l-16 -85h-48l-12 -67h-105l12 67h-191l15 81l158 231h107zM643 700h124l-482 -700h-124zM153 700h262l-15 -87l-87 -63q16 -4 30.5 -12t25.5 -19.5t18 -27.5t7 -37q0 -32 -13.5 -58t-36.5 -44t-53.5 -28t-65.5 -10
q-32 0 -59.5 8.5t-47 25t-28.5 40.5t-4 55h97q-4 -22 10 -32.5t34 -10.5t37 9.5t17 32.5q0 14 -9 23.5t-27 9.5h-72l15 80l76 58h-126z" />
    <glyph glyph-name="questiondown" unicode="&#xbf;" horiz-adv-x="541" 
d="M392 422q-11 -58 -33.5 -91.5t-54.5 -55.5l-59 -40q-26 -18 -42 -32t-16 -35q0 -23 20 -36t51 -13q40 0 62 17t28 55l1 6h153l-2 -12q-17 -105 -83 -152t-172 -47q-50 0 -91.5 12.5t-71.5 35t-46.5 54.5t-16.5 70q0 58 25.5 96t73.5 67l63 39q29 18 44.5 37t22.5 54l4 21
h149zM437 620q0 -42 -26.5 -70t-71.5 -28q-40 0 -65 24.5t-25 60.5q0 42 25.5 71.5t70.5 29.5q38 0 65 -23.5t27 -64.5z" />
    <glyph glyph-name="Agrave" unicode="&#xc0;" horiz-adv-x="714" 
d="M466 130h-247l-60 -130h-181l368 700h176l129 -700h-168zM284 268h164l-36 275zM351 750l-77 148h196l41 -148h-160z" />
    <glyph glyph-name="Aacute" unicode="&#xc1;" horiz-adv-x="714" 
d="M466 130h-247l-60 -130h-181l368 700h176l129 -700h-168zM284 268h164l-36 275zM362 750l93 148h208l-129 -148h-172z" />
    <glyph glyph-name="Acircumflex" unicode="&#xc2;" horiz-adv-x="714" 
d="M466 130h-247l-60 -130h-181l368 700h176l129 -700h-168zM284 268h164l-36 275zM636 750h-151l-35 58l-54 -58h-163l146 148h163z" />
    <glyph glyph-name="Atilde" unicode="&#xc3;" horiz-adv-x="714" 
d="M466 130h-247l-60 -130h-181l368 700h176l129 -700h-168zM284 268h164l-36 275zM528 750q-20 0 -43 5t-46 10.5t-44.5 10.5t-37.5 5q-17 0 -26.5 -10.5t-14.5 -26.5l-95 28q8 31 19 56.5t28 43.5t41.5 28t58.5 10q23 0 47.5 -5t47 -10.5t41 -10.5t30.5 -5q20 0 28.5 12
t14.5 26l95 -31q-10 -33 -21.5 -58.5t-28 -42.5t-39.5 -26t-55 -9z" />
    <glyph glyph-name="Adieresis" unicode="&#xc4;" horiz-adv-x="714" 
d="M466 130h-247l-60 -130h-181l368 700h176l129 -700h-168zM284 268h164l-36 275zM262 823q0 37 24.5 60t62.5 23q32 0 54.5 -19.5t22.5 -51.5q0 -34 -23 -59.5t-65 -25.5q-32 0 -54 20.5t-22 52.5zM490 823q0 37 24.5 60t62.5 23q32 0 54.5 -19.5t22.5 -51.5
q0 -34 -23 -59.5t-65 -25.5q-32 0 -54 20.5t-22 52.5z" />
    <glyph glyph-name="Aring" unicode="&#xc5;" horiz-adv-x="714" 
d="M551 746q0 -20 -7 -36t-19 -30l126 -680h-168l-17 130h-247l-60 -130h-181l362 690q-12 21 -12 45q0 46 31.5 74.5t82.5 28.5q21 0 40.5 -6t35 -18t24.5 -29t9 -39zM284 268h164l-36 275zM442 782q-22 0 -34.5 -11.5t-12.5 -32.5q0 -18 13 -28t31 -10q21 0 33.5 12
t12.5 31q0 17 -12 28t-31 11z" />
    <glyph glyph-name="AE" unicode="&#xc6;" horiz-adv-x="1088" 
d="M511 130h-264l-104 -130h-188l587 700h564l-25 -143h-323l-23 -131h294l-26 -143h-294l-24 -140h324l-25 -143h-496zM535 268l50 286l-227 -286h177z" />
    <glyph glyph-name="Ccedilla" unicode="&#xc7;" horiz-adv-x="701" 
d="M421 -98q0 -45 -38 -66.5t-92 -21.5q-20 0 -41 1.5t-36 4.5l11 61q8 -2 19 -3t20 -1q17 0 27.5 4.5t10.5 15.5q0 17 -31 20l-27 3l27 74q-50 10 -90.5 34.5t-69.5 60t-45 80.5t-16 98q0 31 6 63l16 90q27 153 106 223.5t222 70.5q57 0 109 -17.5t92 -51.5t63.5 -85
t23.5 -118h-160q0 25 -9 48.5t-26 41.5t-42 29t-59 11q-63 0 -98.5 -37t-50.5 -121l-18 -103q-2 -12 -3 -23.5t-1 -22.5q0 -64 34.5 -100.5t98.5 -36.5q33 0 58 11.5t42.5 30t28 42t15.5 46.5h160q-8 -60 -33.5 -110t-66 -86t-94 -56t-117.5 -20h-3l-6 -19l18 -2
q31 -4 48 -20t17 -43z" />
    <glyph glyph-name="Egrave" unicode="&#xc8;" horiz-adv-x="625" 
d="M148 700h495l-25 -143h-323l-23 -131h294l-26 -143h-294l-24 -140h324l-25 -143h-496zM331 750l-77 148h196l41 -148h-160z" />
    <glyph glyph-name="Eacute" unicode="&#xc9;" horiz-adv-x="625" 
d="M148 700h495l-25 -143h-323l-23 -131h294l-26 -143h-294l-24 -140h324l-25 -143h-496zM309 750l93 148h208l-129 -148h-172z" />
    <glyph glyph-name="Ecircumflex" unicode="&#xca;" horiz-adv-x="625" 
d="M148 700h495l-25 -143h-323l-23 -131h294l-26 -143h-294l-24 -140h324l-25 -143h-496zM604 750h-151l-35 58l-54 -58h-163l146 148h163z" />
    <glyph glyph-name="Edieresis" unicode="&#xcb;" horiz-adv-x="625" 
d="M148 700h495l-25 -143h-323l-23 -131h294l-26 -143h-294l-24 -140h324l-25 -143h-496zM227 823q0 37 24.5 60t62.5 23q32 0 54.5 -19.5t22.5 -51.5q0 -34 -23 -59.5t-65 -25.5q-32 0 -54 20.5t-22 52.5zM455 823q0 37 24.5 60t62.5 23q32 0 54.5 -19.5t22.5 -51.5
q0 -34 -23 -59.5t-65 -25.5q-32 0 -54 20.5t-22 52.5z" />
    <glyph glyph-name="Igrave" unicode="&#xcc;" horiz-adv-x="322" 
d="M202 0h-172l123 700h172zM167 750l-77 148h196l41 -148h-160z" />
    <glyph glyph-name="Iacute" unicode="&#xcd;" horiz-adv-x="322" 
d="M202 0h-172l123 700h172zM163 750l93 148h208l-129 -148h-172z" />
    <glyph glyph-name="Icircumflex" unicode="&#xce;" horiz-adv-x="322" 
d="M202 0h-172l123 700h172zM449 750h-151l-35 58l-54 -58h-163l146 148h163z" />
    <glyph glyph-name="Idieresis" unicode="&#xcf;" horiz-adv-x="322" 
d="M202 0h-172l123 700h172zM73 823q0 37 24.5 60t62.5 23q32 0 54.5 -19.5t22.5 -51.5q0 -34 -23 -59.5t-65 -25.5q-32 0 -54 20.5t-22 52.5zM301 823q0 37 24.5 60t62.5 23q32 0 54.5 -19.5t22.5 -51.5q0 -34 -23 -59.5t-65 -25.5q-32 0 -54 20.5t-22 52.5z" />
    <glyph glyph-name="Eth" unicode="&#xd0;" horiz-adv-x="733" 
d="M64 422h66l49 278h306q55 0 99 -16t75 -45.5t48 -70.5t17 -91q0 -14 -1.5 -28t-3.5 -28l-28 -159q-47 -262 -326 -262h-309l49 279h-66zM546 414q2 9 3 19t1 19q0 51 -29.5 79t-90.5 28h-105l-24 -137h140l-25 -143h-141l-24 -138h105q70 0 111 29.5t53 96.5z" />
    <glyph glyph-name="Ntilde" unicode="&#xd1;" 
d="M452 0l-187 408l-72 -408h-168l123 700h163l188 -406l72 406h168l-123 -700h-164zM532 750q-20 0 -43 5t-46 10.5t-44.5 10.5t-37.5 5q-17 0 -26.5 -10.5t-14.5 -26.5l-95 28q8 31 19 56.5t28 43.5t41.5 28t58.5 10q23 0 47.5 -5t47 -10.5t41 -10.5t30.5 -5q20 0 28.5 12
t14.5 26l95 -31q-10 -33 -21.5 -58.5t-28 -42.5t-39.5 -26t-55 -9z" />
    <glyph glyph-name="Ograve" unicode="&#xd2;" 
d="M686 283q-11 -65 -38.5 -119.5t-69.5 -94t-98 -61.5t-126 -22q-69 0 -124.5 21t-95.5 58.5t-61.5 89t-21.5 113.5q0 17 1.5 33t4.5 33l16 89q26 143 108.5 217t225.5 74q65 0 120 -19.5t95 -56t62.5 -88t22.5 -115.5q0 -31 -6 -65zM532 386q2 11 3 22.5t1 19.5
q0 64 -36 103.5t-101 39.5q-70 0 -105.5 -41t-49.5 -118l-17 -95q-5 -28 -5 -50q0 -65 35.5 -101.5t102.5 -36.5q66 0 104.5 43.5t50.5 115.5zM338 750l-77 148h196l41 -148h-160z" />
    <glyph glyph-name="Oacute" unicode="&#xd3;" 
d="M686 283q-11 -65 -38.5 -119.5t-69.5 -94t-98 -61.5t-126 -22q-69 0 -124.5 21t-95.5 58.5t-61.5 89t-21.5 113.5q0 17 1.5 33t4.5 33l16 89q26 143 108.5 217t225.5 74q65 0 120 -19.5t95 -56t62.5 -88t22.5 -115.5q0 -31 -6 -65zM532 386q2 11 3 22.5t1 19.5
q0 64 -36 103.5t-101 39.5q-70 0 -105.5 -41t-49.5 -118l-17 -95q-5 -28 -5 -50q0 -65 35.5 -101.5t102.5 -36.5q66 0 104.5 43.5t50.5 115.5zM352 750l93 148h208l-129 -148h-172z" />
    <glyph glyph-name="Ocircumflex" unicode="&#xd4;" 
d="M686 283q-11 -65 -38.5 -119.5t-69.5 -94t-98 -61.5t-126 -22q-69 0 -124.5 21t-95.5 58.5t-61.5 89t-21.5 113.5q0 17 1.5 33t4.5 33l16 89q26 143 108.5 217t225.5 74q65 0 120 -19.5t95 -56t62.5 -88t22.5 -115.5q0 -31 -6 -65zM532 386q2 11 3 22.5t1 19.5
q0 64 -36 103.5t-101 39.5q-70 0 -105.5 -41t-49.5 -118l-17 -95q-5 -28 -5 -50q0 -65 35.5 -101.5t102.5 -36.5q66 0 104.5 43.5t50.5 115.5zM640 750h-151l-35 58l-54 -58h-163l146 148h163z" />
    <glyph glyph-name="Otilde" unicode="&#xd5;" 
d="M686 283q-11 -65 -38.5 -119.5t-69.5 -94t-98 -61.5t-126 -22q-69 0 -124.5 21t-95.5 58.5t-61.5 89t-21.5 113.5q0 17 1.5 33t4.5 33l16 89q26 143 108.5 217t225.5 74q65 0 120 -19.5t95 -56t62.5 -88t22.5 -115.5q0 -31 -6 -65zM532 386q2 11 3 22.5t1 19.5
q0 64 -36 103.5t-101 39.5q-70 0 -105.5 -41t-49.5 -118l-17 -95q-5 -28 -5 -50q0 -65 35.5 -101.5t102.5 -36.5q66 0 104.5 43.5t50.5 115.5zM525 750q-20 0 -43 5t-46 10.5t-44.5 10.5t-37.5 5q-17 0 -26.5 -10.5t-14.5 -26.5l-95 28q8 31 19 56.5t28 43.5t41.5 28
t58.5 10q23 0 47.5 -5t47 -10.5t41 -10.5t30.5 -5q20 0 28.5 12t14.5 26l95 -31q-10 -33 -21.5 -58.5t-28 -42.5t-39.5 -26t-55 -9z" />
    <glyph glyph-name="Odieresis" unicode="&#xd6;" 
d="M686 283q-11 -65 -38.5 -119.5t-69.5 -94t-98 -61.5t-126 -22q-69 0 -124.5 21t-95.5 58.5t-61.5 89t-21.5 113.5q0 17 1.5 33t4.5 33l16 89q26 143 108.5 217t225.5 74q65 0 120 -19.5t95 -56t62.5 -88t22.5 -115.5q0 -31 -6 -65zM532 386q2 11 3 22.5t1 19.5
q0 64 -36 103.5t-101 39.5q-70 0 -105.5 -41t-49.5 -118l-17 -95q-5 -28 -5 -50q0 -65 35.5 -101.5t102.5 -36.5q66 0 104.5 43.5t50.5 115.5zM264 823q0 37 24.5 60t62.5 23q32 0 54.5 -19.5t22.5 -51.5q0 -34 -23 -59.5t-65 -25.5q-32 0 -54 20.5t-22 52.5zM492 823
q0 37 24.5 60t62.5 23q32 0 54.5 -19.5t22.5 -51.5q0 -34 -23 -59.5t-65 -25.5q-32 0 -54 20.5t-22 52.5z" />
    <glyph glyph-name="multiply" unicode="&#xd7;" horiz-adv-x="623" 
d="M229 363l-116 141l119 101l116 -141l166 141l93 -113l-166 -141l127 -154l-119 -101l-127 154l-171 -146l-93 113z" />
    <glyph glyph-name="Oslash" unicode="&#xd8;" 
d="M686 283q-11 -65 -38.5 -119.5t-69.5 -94t-98 -61.5t-126 -22q-104 0 -178 46l-67 -82h-120l118 144q-27 35 -41.5 79t-14.5 95q0 17 1.5 33t4.5 33l16 89q26 143 108.5 217t225.5 74q100 0 174 -45l67 81h120l-117 -142q26 -35 41 -78t15 -95q0 -31 -6 -65zM532 386
q2 14 3 24t1 18q0 9 -1 18.5t-3 17.5l-257 -313q34 -22 85 -22q66 0 104.5 43.5t50.5 115.5zM222 267q0 -8 0.5 -16t1.5 -15l257 311q-14 11 -36 17.5t-46 6.5q-70 0 -105.5 -41t-49.5 -118l-17 -95q-5 -28 -5 -50z" />
    <glyph glyph-name="Ugrave" unicode="&#xd9;" horiz-adv-x="723" 
d="M564 700h172l-77 -439q-11 -63 -38.5 -113.5t-69 -86.5t-96.5 -55.5t-121 -19.5q-52 0 -101 15t-87 44t-61 72.5t-23 99.5q0 13 1 23t3 21l77 439h172l-78 -444q-1 -5 -1.5 -11.5t-0.5 -14.5q0 -46 28.5 -73.5t82.5 -27.5t92 34.5t49 97.5zM361 750l-77 148h196l41 -148
h-160z" />
    <glyph glyph-name="Uacute" unicode="&#xda;" horiz-adv-x="723" 
d="M564 700h172l-77 -439q-11 -63 -38.5 -113.5t-69 -86.5t-96.5 -55.5t-121 -19.5q-52 0 -101 15t-87 44t-61 72.5t-23 99.5q0 13 1 23t3 21l77 439h172l-78 -444q-1 -5 -1.5 -11.5t-0.5 -14.5q0 -46 28.5 -73.5t82.5 -27.5t92 34.5t49 97.5zM350 750l93 148h208l-129 -148
h-172z" />
    <glyph glyph-name="Ucircumflex" unicode="&#xdb;" horiz-adv-x="723" 
d="M564 700h172l-77 -439q-11 -63 -38.5 -113.5t-69 -86.5t-96.5 -55.5t-121 -19.5q-52 0 -101 15t-87 44t-61 72.5t-23 99.5q0 13 1 23t3 21l77 439h172l-78 -444q-1 -5 -1.5 -11.5t-0.5 -14.5q0 -46 28.5 -73.5t82.5 -27.5t92 34.5t49 97.5zM646 750h-151l-35 58l-54 -58
h-163l146 148h163z" />
    <glyph glyph-name="Udieresis" unicode="&#xdc;" horiz-adv-x="723" 
d="M564 700h172l-77 -439q-11 -63 -38.5 -113.5t-69 -86.5t-96.5 -55.5t-121 -19.5q-52 0 -101 15t-87 44t-61 72.5t-23 99.5q0 13 1 23t3 21l77 439h172l-78 -444q-1 -5 -1.5 -11.5t-0.5 -14.5q0 -46 28.5 -73.5t82.5 -27.5t92 34.5t49 97.5zM265 823q0 37 24.5 60t62.5 23
q32 0 54.5 -19.5t22.5 -51.5q0 -34 -23 -59.5t-65 -25.5q-32 0 -54 20.5t-22 52.5zM493 823q0 37 24.5 60t62.5 23q32 0 54.5 -19.5t22.5 -51.5q0 -34 -23 -59.5t-65 -25.5q-32 0 -54 20.5t-22 52.5z" />
    <glyph glyph-name="Yacute" unicode="&#xdd;" horiz-adv-x="652" 
d="M405 233l-41 -233h-172l44 250l-154 450h185l82 -294l179 294h192zM310 750l93 148h208l-129 -148h-172z" />
    <glyph glyph-name="Thorn" unicode="&#xde;" horiz-adv-x="665" 
d="M216 106l-19 -106h-172l123 700h172l-18 -101h125q51 0 93.5 -16.5t72.5 -45.5t46.5 -68t16.5 -85q0 -63 -20.5 -114.5t-60 -87.5t-97.5 -56t-133 -20h-129zM358 249q64 0 94.5 34t30.5 83q0 38 -24.5 64t-66.5 26h-114l-37 -207h117z" />
    <glyph glyph-name="germandbls" unicode="&#xdf;" horiz-adv-x="626" 
d="M339 418q40 4 69.5 32t29.5 76q0 31 -19 52t-56 21q-35 0 -58 -18t-31 -64l-91 -517h-168l92 521q20 114 89.5 163.5t183.5 49.5q48 0 90 -13.5t72.5 -37.5t48.5 -58t18 -75q0 -59 -30 -105t-87 -75q41 -14 70 -52t29 -95q0 -54 -21 -95.5t-57.5 -70t-86 -43
t-107.5 -14.5h-52l23 133h25q24 0 44 4.5t35 15t23.5 27.5t8.5 42q0 32 -22.5 50.5t-57.5 18.5h-29z" />
    <glyph glyph-name="agrave" unicode="&#xe0;" horiz-adv-x="602" 
d="M341 0l8 45q-17 -23 -58.5 -40t-91.5 -17q-36 0 -68 10t-56.5 30t-39 48.5t-14.5 66.5q0 44 15 77t42.5 54.5t65.5 32.5t84 11q58 0 95 -14t59 -31l11 63q5 31 -14 50.5t-54 19.5q-27 0 -44.5 -10t-31.5 -29h-154q32 88 94.5 128.5t150.5 40.5q48 0 88.5 -14t70 -38.5
t46 -58t16.5 -73.5q0 -18 -3 -34l-56 -318h-161zM263 94q16 0 33 4t31.5 12t24 20t9.5 29q0 15 -8.5 25.5t-22.5 18t-31 11t-33 3.5q-17 0 -32.5 -3.5t-28 -11t-20 -19.5t-7.5 -30q0 -27 23.5 -43t61.5 -16zM282 578l-83 160h205l39 -160h-161z" />
    <glyph glyph-name="aacute" unicode="&#xe1;" horiz-adv-x="602" 
d="M341 0l8 45q-17 -23 -58.5 -40t-91.5 -17q-36 0 -68 10t-56.5 30t-39 48.5t-14.5 66.5q0 44 15 77t42.5 54.5t65.5 32.5t84 11q58 0 95 -14t59 -31l11 63q5 31 -14 50.5t-54 19.5q-27 0 -44.5 -10t-31.5 -29h-154q32 88 94.5 128.5t150.5 40.5q48 0 88.5 -14t70 -38.5
t46 -58t16.5 -73.5q0 -18 -3 -34l-56 -318h-161zM263 94q16 0 33 4t31.5 12t24 20t9.5 29q0 15 -8.5 25.5t-22.5 18t-31 11t-33 3.5q-17 0 -32.5 -3.5t-28 -11t-20 -19.5t-7.5 -30q0 -27 23.5 -43t61.5 -16zM277 578l86 160h222l-141 -160h-167z" />
    <glyph glyph-name="acircumflex" unicode="&#xe2;" horiz-adv-x="602" 
d="M341 0l8 45q-17 -23 -58.5 -40t-91.5 -17q-36 0 -68 10t-56.5 30t-39 48.5t-14.5 66.5q0 44 15 77t42.5 54.5t65.5 32.5t84 11q58 0 95 -14t59 -31l11 63q5 31 -14 50.5t-54 19.5q-27 0 -44.5 -10t-31.5 -29h-154q32 88 94.5 128.5t150.5 40.5q48 0 88.5 -14t70 -38.5
t46 -58t16.5 -73.5q0 -18 -3 -34l-56 -318h-161zM263 94q16 0 33 4t31.5 12t24 20t9.5 29q0 15 -8.5 25.5t-22.5 18t-31 11t-33 3.5q-17 0 -32.5 -3.5t-28 -11t-20 -19.5t-7.5 -30q0 -27 23.5 -43t61.5 -16zM570 578h-150l-30 65l-54 -65h-154l142 160h162z" />
    <glyph glyph-name="atilde" unicode="&#xe3;" horiz-adv-x="602" 
d="M341 0l8 45q-17 -23 -58.5 -40t-91.5 -17q-36 0 -68 10t-56.5 30t-39 48.5t-14.5 66.5q0 44 15 77t42.5 54.5t65.5 32.5t84 11q58 0 95 -14t59 -31l11 63q5 31 -14 50.5t-54 19.5q-27 0 -44.5 -10t-31.5 -29h-154q32 88 94.5 128.5t150.5 40.5q48 0 88.5 -14t70 -38.5
t46 -58t16.5 -73.5q0 -18 -3 -34l-56 -318h-161zM263 94q16 0 33 4t31.5 12t24 20t9.5 29q0 15 -8.5 25.5t-22.5 18t-31 11t-33 3.5q-17 0 -32.5 -3.5t-28 -11t-20 -19.5t-7.5 -30q0 -27 23.5 -43t61.5 -16zM460 578q-18 0 -38 5t-39.5 11t-39 11t-35.5 5q-17 0 -27 -10.5
t-18 -27.5l-90 34q17 64 47.5 98t92.5 34q21 0 43 -5t42 -11t36.5 -11t27.5 -5q19 0 28 11.5t17 26.5l89 -38q-8 -27 -20 -50.5t-28.5 -40.5t-38 -27t-49.5 -10z" />
    <glyph glyph-name="adieresis" unicode="&#xe4;" horiz-adv-x="602" 
d="M341 0l8 45q-17 -23 -58.5 -40t-91.5 -17q-36 0 -68 10t-56.5 30t-39 48.5t-14.5 66.5q0 44 15 77t42.5 54.5t65.5 32.5t84 11q58 0 95 -14t59 -31l11 63q5 31 -14 50.5t-54 19.5q-27 0 -44.5 -10t-31.5 -29h-154q32 88 94.5 128.5t150.5 40.5q48 0 88.5 -14t70 -38.5
t46 -58t16.5 -73.5q0 -18 -3 -34l-56 -318h-161zM263 94q16 0 33 4t31.5 12t24 20t9.5 29q0 15 -8.5 25.5t-22.5 18t-31 11t-33 3.5q-17 0 -32.5 -3.5t-28 -11t-20 -19.5t-7.5 -30q0 -27 23.5 -43t61.5 -16zM201 652q0 37 24.5 60t62.5 23q32 0 54.5 -19.5t22.5 -51.5
q0 -34 -23 -59.5t-65 -25.5q-32 0 -54 20.5t-22 52.5zM407 652q0 37 24.5 60t62.5 23q32 0 54.5 -19.5t22.5 -51.5q0 -34 -23 -59.5t-65 -25.5q-32 0 -54 20.5t-22 52.5z" />
    <glyph glyph-name="aring" unicode="&#xe5;" horiz-adv-x="602" 
d="M341 0l8 45q-17 -23 -58.5 -40t-91.5 -17q-36 0 -68 10t-56.5 30t-39 48.5t-14.5 66.5q0 44 15 77t42.5 54.5t65.5 32.5t84 11q58 0 95 -14t59 -31l11 63q5 31 -14 50.5t-54 19.5q-27 0 -44.5 -10t-31.5 -29h-154q32 88 94.5 128.5t150.5 40.5q48 0 88.5 -14t70 -38.5
t46 -58t16.5 -73.5q0 -18 -3 -34l-56 -318h-161zM263 94q16 0 33 4t31.5 12t24 20t9.5 29q0 15 -8.5 25.5t-22.5 18t-31 11t-33 3.5q-17 0 -32.5 -3.5t-28 -11t-20 -19.5t-7.5 -30q0 -27 23.5 -43t61.5 -16zM500 680q0 -24 -9.5 -42.5t-25.5 -32t-37 -20.5t-44 -7
q-21 0 -40 6t-34 18t-24 29t-9 38q0 46 31.5 74.5t82.5 28.5q21 0 40.5 -6t35 -18t24.5 -29t9 -39zM391 716q-22 0 -34.5 -11.5t-12.5 -32.5q0 -18 13 -28t31 -10q21 0 33.5 12t12.5 31q0 17 -12 28t-31 11z" />
    <glyph glyph-name="ae" unicode="&#xe6;" horiz-adv-x="917" 
d="M539 209q-1 -5 -1.5 -11t-0.5 -12q0 -38 22 -59t64 -21q33 0 53 15.5t27 34.5h148q-11 -37 -31.5 -67.5t-51.5 -53t-70.5 -35t-87.5 -12.5q-56 0 -102 18.5t-73 56.5q-29 -28 -83.5 -51.5t-127.5 -23.5q-48 0 -86 12.5t-64 34t-39.5 50.5t-13.5 63q0 42 15 74t42.5 53.5
t65.5 32.5t84 11q58 0 95 -14.5t59 -31.5l11 63q5 31 -14 50.5t-54 19.5q-27 0 -44.5 -10t-31.5 -29h-154q33 87 95 128t150 41q45 0 83.5 -14t67.5 -37q29 24 71.5 37.5t93.5 13.5q52 0 94 -14.5t71.5 -41t45 -63.5t15.5 -83q0 -11 -1.5 -24.5t-3.5 -24.5l-13 -76h-325z
M263 93q16 0 33 4t31.5 12.5t24 21t9.5 29.5q0 26 -24.5 42t-59.5 16q-41 0 -70 -15t-29 -51q0 -26 23 -42.5t62 -16.5zM556 307h171l2 10q1 5 1.5 12t0.5 12q0 35 -20.5 55t-55.5 20q-45 0 -67.5 -27t-30.5 -76z" />
    <glyph glyph-name="ccedilla" unicode="&#xe7;" horiz-adv-x="575" 
d="M350 -98q0 -45 -38 -66.5t-92 -21.5q-20 0 -41 1.5t-36 4.5l11 61q8 -2 19 -3t20 -1q17 0 27.5 4.5t10.5 15.5q0 17 -31 20l-27 3l29 77q-36 9 -67 28t-53.5 45.5t-35.5 60.5t-13 74q0 11 1 20.5t3 23.5l12 68q19 106 86.5 162.5t180.5 56.5q48 0 90.5 -13.5t74 -40.5
t49.5 -67t18 -93h-149q0 32 -22 56.5t-65 24.5q-45 0 -67.5 -26t-31.5 -76l-13 -74q-1 -5 -1.5 -11t-0.5 -11q0 -37 23 -60.5t62 -23.5q42 0 64.5 24.5t30.5 56.5h152q-7 -48 -28.5 -87t-55 -67.5t-77.5 -44t-96 -15.5l-6 -21l18 -2q31 -4 48 -20t17 -43z" />
    <glyph glyph-name="egrave" unicode="&#xe8;" horiz-adv-x="571" 
d="M193 209q-1 -5 -1.5 -11t-0.5 -12q0 -38 22 -59t64 -21q33 0 53 15.5t27 34.5h148q-11 -37 -31.5 -67.5t-51.5 -53t-70.5 -35t-87.5 -12.5q-50 0 -92 14.5t-73 42.5t-48.5 67.5t-17.5 89.5q0 13 1.5 28t3.5 26l11 61q19 106 83.5 162.5t177.5 56.5q52 0 94 -14.5
t71.5 -41t45 -63.5t15.5 -83q0 -11 -1.5 -24.5t-3.5 -24.5l-13 -76h-325zM210 307h171l2 10q1 5 1.5 12t0.5 12q0 35 -20.5 55t-55.5 20q-45 0 -67.5 -27t-30.5 -76zM243 578l-83 160h205l39 -160h-161z" />
    <glyph glyph-name="eacute" unicode="&#xe9;" horiz-adv-x="571" 
d="M193 209q-1 -5 -1.5 -11t-0.5 -12q0 -38 22 -59t64 -21q33 0 53 15.5t27 34.5h148q-11 -37 -31.5 -67.5t-51.5 -53t-70.5 -35t-87.5 -12.5q-50 0 -92 14.5t-73 42.5t-48.5 67.5t-17.5 89.5q0 13 1.5 28t3.5 26l11 61q19 106 83.5 162.5t177.5 56.5q52 0 94 -14.5
t71.5 -41t45 -63.5t15.5 -83q0 -11 -1.5 -24.5t-3.5 -24.5l-13 -76h-325zM210 307h171l2 10q1 5 1.5 12t0.5 12q0 35 -20.5 55t-55.5 20q-45 0 -67.5 -27t-30.5 -76zM256 578l86 160h222l-141 -160h-167z" />
    <glyph glyph-name="ecircumflex" unicode="&#xea;" horiz-adv-x="571" 
d="M193 209q-1 -5 -1.5 -11t-0.5 -12q0 -38 22 -59t64 -21q33 0 53 15.5t27 34.5h148q-11 -37 -31.5 -67.5t-51.5 -53t-70.5 -35t-87.5 -12.5q-50 0 -92 14.5t-73 42.5t-48.5 67.5t-17.5 89.5q0 13 1.5 28t3.5 26l11 61q19 106 83.5 162.5t177.5 56.5q52 0 94 -14.5
t71.5 -41t45 -63.5t15.5 -83q0 -11 -1.5 -24.5t-3.5 -24.5l-13 -76h-325zM210 307h171l2 10q1 5 1.5 12t0.5 12q0 35 -20.5 55t-55.5 20q-45 0 -67.5 -27t-30.5 -76zM532 578h-150l-30 65l-54 -65h-154l142 160h162z" />
    <glyph glyph-name="edieresis" unicode="&#xeb;" horiz-adv-x="571" 
d="M193 209q-1 -5 -1.5 -11t-0.5 -12q0 -38 22 -59t64 -21q33 0 53 15.5t27 34.5h148q-11 -37 -31.5 -67.5t-51.5 -53t-70.5 -35t-87.5 -12.5q-50 0 -92 14.5t-73 42.5t-48.5 67.5t-17.5 89.5q0 13 1.5 28t3.5 26l11 61q19 106 83.5 162.5t177.5 56.5q52 0 94 -14.5
t71.5 -41t45 -63.5t15.5 -83q0 -11 -1.5 -24.5t-3.5 -24.5l-13 -76h-325zM210 307h171l2 10q1 5 1.5 12t0.5 12q0 35 -20.5 55t-55.5 20q-45 0 -67.5 -27t-30.5 -76zM169 652q0 37 24.5 60t62.5 23q32 0 54.5 -19.5t22.5 -51.5q0 -34 -23 -59.5t-65 -25.5q-32 0 -54 20.5
t-22 52.5zM375 652q0 37 24.5 60t62.5 23q32 0 54.5 -19.5t22.5 -51.5q0 -34 -23 -59.5t-65 -25.5q-32 0 -54 20.5t-22 52.5z" />
    <glyph glyph-name="igrave" unicode="&#xec;" horiz-adv-x="298" 
d="M20 0l92 524h168l-92 -524h-168zM124 578l-83 160h205l39 -160h-161z" />
    <glyph glyph-name="iacute" unicode="&#xed;" horiz-adv-x="298" 
d="M20 0l92 524h168l-92 -524h-168zM125 578l86 160h222l-141 -160h-167z" />
    <glyph glyph-name="icircumflex" unicode="&#xee;" horiz-adv-x="298" 
d="M20 0l92 524h168l-92 -524h-168zM400 578h-150l-30 65l-54 -65h-154l142 160h162z" />
    <glyph glyph-name="idieresis" unicode="&#xef;" horiz-adv-x="298" 
d="M20 0l92 524h168l-92 -524h-168zM36 652q0 37 24.5 60t62.5 23q32 0 54.5 -19.5t22.5 -51.5q0 -34 -23 -59.5t-65 -25.5q-32 0 -54 20.5t-22 52.5zM242 652q0 37 24.5 60t62.5 23q32 0 54.5 -19.5t22.5 -51.5q0 -34 -23 -59.5t-65 -25.5q-32 0 -54 20.5t-22 52.5z" />
    <glyph glyph-name="eth" unicode="&#xf0;" horiz-adv-x="585" 
d="M185 616l76 27q-26 23 -55.5 44.5t-60.5 42.5h207q27 -16 50 -36l106 38l32 -84l-70 -26q39 -52 64.5 -117.5t25.5 -140.5q0 -34 -6 -68l-14 -81q-19 -108 -91 -168.5t-181 -60.5q-49 0 -92 15.5t-75 44t-50.5 68.5t-18.5 88q0 22 4 42l11 63q10 56 31 94.5t51.5 62.5
t70.5 35t88 11q38 0 67 -10t45 -24q-26 51 -66 96l-117 -42zM388 285q4 21 0 39.5t-14.5 32.5t-27.5 22t-41 8q-42 0 -64 -22t-31 -71l-14 -78q-1 -5 -1.5 -10t-0.5 -10q0 -33 22.5 -56.5t60.5 -23.5q44 0 66.5 24t30.5 66z" />
    <glyph glyph-name="ntilde" unicode="&#xf1;" horiz-adv-x="604" 
d="M15 0l92 524h161l-11 -59q26 36 64.5 53.5t86.5 17.5q75 0 116.5 -44t41.5 -116q0 -10 -1 -22.5t-3 -24.5l-58 -329h-168l54 306q2 10 2 19q0 28 -16.5 44.5t-48.5 16.5q-34 0 -58 -18.5t-32 -61.5l-54 -306h-168zM446 578q-18 0 -38 5t-39.5 11t-39 11t-35.5 5
q-17 0 -27 -10.5t-18 -27.5l-90 34q17 64 47.5 98t92.5 34q21 0 43 -5t42 -11t36.5 -11t27.5 -5q19 0 28 11.5t17 26.5l89 -38q-8 -27 -20 -50.5t-28.5 -40.5t-38 -27t-49.5 -10z" />
    <glyph glyph-name="ograve" unicode="&#xf2;" horiz-adv-x="580" 
d="M533 204q-8 -48 -30 -88t-55 -68.5t-77 -44t-96 -15.5q-53 0 -97.5 16t-76.5 45t-49.5 69.5t-17.5 88.5q0 26 4 49l12 67q20 109 85.5 161.5t169.5 51.5q56 0 101 -16.5t76.5 -46t48.5 -69.5t17 -88q0 -12 -1 -25t-3 -24zM386 294q1 5 1.5 12t0.5 15q0 39 -22 60.5
t-63 21.5q-44 0 -64 -23.5t-28 -67.5l-16 -90q-2 -10 -2 -21q0 -36 23 -58t62 -22q40 0 62.5 22.5t29.5 61.5zM243 578l-83 160h205l39 -160h-161z" />
    <glyph glyph-name="oacute" unicode="&#xf3;" horiz-adv-x="580" 
d="M533 204q-8 -48 -30 -88t-55 -68.5t-77 -44t-96 -15.5q-53 0 -97.5 16t-76.5 45t-49.5 69.5t-17.5 88.5q0 26 4 49l12 67q20 109 85.5 161.5t169.5 51.5q56 0 101 -16.5t76.5 -46t48.5 -69.5t17 -88q0 -12 -1 -25t-3 -24zM386 294q1 5 1.5 12t0.5 15q0 39 -22 60.5
t-63 21.5q-44 0 -64 -23.5t-28 -67.5l-16 -90q-2 -10 -2 -21q0 -36 23 -58t62 -22q40 0 62.5 22.5t29.5 61.5zM259 578l86 160h222l-141 -160h-167z" />
    <glyph glyph-name="ocircumflex" unicode="&#xf4;" horiz-adv-x="580" 
d="M533 204q-8 -48 -30 -88t-55 -68.5t-77 -44t-96 -15.5q-53 0 -97.5 16t-76.5 45t-49.5 69.5t-17.5 88.5q0 26 4 49l12 67q20 109 85.5 161.5t169.5 51.5q56 0 101 -16.5t76.5 -46t48.5 -69.5t17 -88q0 -12 -1 -25t-3 -24zM386 294q1 5 1.5 12t0.5 15q0 39 -22 60.5
t-63 21.5q-44 0 -64 -23.5t-28 -67.5l-16 -90q-2 -10 -2 -21q0 -36 23 -58t62 -22q40 0 62.5 22.5t29.5 61.5zM529 578h-150l-30 65l-54 -65h-154l142 160h162z" />
    <glyph glyph-name="otilde" unicode="&#xf5;" horiz-adv-x="580" 
d="M533 204q-8 -48 -30 -88t-55 -68.5t-77 -44t-96 -15.5q-53 0 -97.5 16t-76.5 45t-49.5 69.5t-17.5 88.5q0 26 4 49l12 67q20 109 85.5 161.5t169.5 51.5q56 0 101 -16.5t76.5 -46t48.5 -69.5t17 -88q0 -12 -1 -25t-3 -24zM386 294q1 5 1.5 12t0.5 15q0 39 -22 60.5
t-63 21.5q-44 0 -64 -23.5t-28 -67.5l-16 -90q-2 -10 -2 -21q0 -36 23 -58t62 -22q40 0 62.5 22.5t29.5 61.5zM424 578q-18 0 -38 5t-39.5 11t-39 11t-35.5 5q-17 0 -27 -10.5t-18 -27.5l-90 34q17 64 47.5 98t92.5 34q21 0 43 -5t42 -11t36.5 -11t27.5 -5q19 0 28 11.5
t17 26.5l89 -38q-8 -27 -20 -50.5t-28.5 -40.5t-38 -27t-49.5 -10z" />
    <glyph glyph-name="odieresis" unicode="&#xf6;" horiz-adv-x="580" 
d="M533 204q-8 -48 -30 -88t-55 -68.5t-77 -44t-96 -15.5q-53 0 -97.5 16t-76.5 45t-49.5 69.5t-17.5 88.5q0 26 4 49l12 67q20 109 85.5 161.5t169.5 51.5q56 0 101 -16.5t76.5 -46t48.5 -69.5t17 -88q0 -12 -1 -25t-3 -24zM386 294q1 5 1.5 12t0.5 15q0 39 -22 60.5
t-63 21.5q-44 0 -64 -23.5t-28 -67.5l-16 -90q-2 -10 -2 -21q0 -36 23 -58t62 -22q40 0 62.5 22.5t29.5 61.5zM178 652q0 37 24.5 60t62.5 23q32 0 54.5 -19.5t22.5 -51.5q0 -34 -23 -59.5t-65 -25.5q-32 0 -54 20.5t-22 52.5zM384 652q0 37 24.5 60t62.5 23
q32 0 54.5 -19.5t22.5 -51.5q0 -34 -23 -59.5t-65 -25.5q-32 0 -54 20.5t-22 52.5z" />
    <glyph glyph-name="divide" unicode="&#xf7;" horiz-adv-x="600" 
d="M87 431h470l-25 -142h-470zM187 147q0 40 26.5 65.5t67.5 25.5q32 0 55.5 -21.5t23.5 -54.5q0 -39 -25 -66.5t-67 -27.5q-34 0 -57.5 22t-23.5 57zM260 561q0 40 26.5 65.5t67.5 25.5q32 0 55.5 -21.5t23.5 -54.5q0 -39 -25 -66.5t-67 -27.5q-34 0 -57.5 22t-23.5 57z
" />
    <glyph glyph-name="oslash" unicode="&#xf8;" horiz-adv-x="580" 
d="M533 204q-8 -48 -30 -88t-55 -68.5t-77 -44t-96 -15.5q-82 0 -142 37l-63 -75h-86l99 117q-23 28 -36 63t-13 77q0 26 4 49l12 67q20 109 84 161t168 52q36 0 73 -8.5t73 -28.5l65 76h85l-100 -118q24 -28 37 -63.5t13 -77.5q0 -12 -1 -25t-3 -24zM386 294q2 7 2 17v15
l-162 -191q22 -14 52 -14q40 0 62.5 22.5t29.5 61.5zM356 389q-22 14 -53 14q-44 0 -64 -23.5t-28 -67.5l-16 -90q-1 -4 -1.5 -11.5t-0.5 -13.5z" />
    <glyph glyph-name="ugrave" unicode="&#xf9;" horiz-adv-x="601" 
d="M588 524l-92 -524h-161l11 59q-8 -14 -23 -26.5t-35 -22.5t-43 -16t-47 -6q-75 0 -116.5 44t-41.5 116q0 14 1 25t3 22l58 329h168l-55 -314q-2 -10 -2 -18q0 -29 16.5 -45.5t48.5 -16.5q34 0 57 20t30 60l55 314h168zM276 578l-83 160h205l39 -160h-161z" />
    <glyph glyph-name="uacute" unicode="&#xfa;" horiz-adv-x="601" 
d="M588 524l-92 -524h-161l11 59q-8 -14 -23 -26.5t-35 -22.5t-43 -16t-47 -6q-75 0 -116.5 44t-41.5 116q0 14 1 25t3 22l58 329h168l-55 -314q-2 -10 -2 -18q0 -29 16.5 -45.5t48.5 -16.5q34 0 57 20t30 60l55 314h168zM266 578l86 160h222l-141 -160h-167z" />
    <glyph glyph-name="ucircumflex" unicode="&#xfb;" horiz-adv-x="601" 
d="M588 524l-92 -524h-161l11 59q-8 -14 -23 -26.5t-35 -22.5t-43 -16t-47 -6q-75 0 -116.5 44t-41.5 116q0 14 1 25t3 22l58 329h168l-55 -314q-2 -10 -2 -18q0 -29 16.5 -45.5t48.5 -16.5q34 0 57 20t30 60l55 314h168zM553 578h-150l-30 65l-54 -65h-154l142 160h162z
" />
    <glyph glyph-name="udieresis" unicode="&#xfc;" horiz-adv-x="601" 
d="M588 524l-92 -524h-161l11 59q-8 -14 -23 -26.5t-35 -22.5t-43 -16t-47 -6q-75 0 -116.5 44t-41.5 116q0 14 1 25t3 22l58 329h168l-55 -314q-2 -10 -2 -18q0 -29 16.5 -45.5t48.5 -16.5q34 0 57 20t30 60l55 314h168zM191 652q0 37 24.5 60t62.5 23q32 0 54.5 -19.5
t22.5 -51.5q0 -34 -23 -59.5t-65 -25.5q-32 0 -54 20.5t-22 52.5zM397 652q0 37 24.5 60t62.5 23q32 0 54.5 -19.5t22.5 -51.5q0 -34 -23 -59.5t-65 -25.5q-32 0 -54 20.5t-22 52.5z" />
    <glyph glyph-name="yacute" unicode="&#xfd;" horiz-adv-x="530" 
d="M61 -175l86 180l-93 519h167l35 -353l142 353h170l-338 -698zM230 578l86 160h222l-141 -160h-167z" />
    <glyph glyph-name="thorn" unicode="&#xfe;" horiz-adv-x="619" 
d="M143 730h168l-44 -247q20 23 57 38t79 15q45 0 80 -15.5t59 -42t36.5 -63t12.5 -78.5q0 -23 -5 -51l-14 -80q-19 -106 -79.5 -162t-156.5 -56q-51 0 -88.5 18.5t-55.5 44.5l-39 -225h-168zM418 284q1 5 1.5 12t0.5 14q0 39 -22 63.5t-62 24.5q-45 0 -68.5 -25.5
t-32.5 -76.5l-10 -58q-2 -10 -2 -15v-12q0 -41 22.5 -63t63.5 -22q44 0 67.5 26.5t31.5 74.5z" />
    <glyph glyph-name="ydieresis" unicode="&#xff;" horiz-adv-x="530" 
d="M61 -175l86 180l-93 519h167l35 -353l142 353h170l-338 -698zM152 652q0 37 24.5 60t62.5 23q32 0 54.5 -19.5t22.5 -51.5q0 -34 -23 -59.5t-65 -25.5q-32 0 -54 20.5t-22 52.5zM358 652q0 37 24.5 60t62.5 23q32 0 54.5 -19.5t22.5 -51.5q0 -34 -23 -59.5t-65 -25.5
q-32 0 -54 20.5t-22 52.5z" />
    <glyph glyph-name="Amacron" unicode="&#x100;" horiz-adv-x="714" 
d="M466 130h-247l-60 -130h-181l368 700h176l129 -700h-168zM284 268h164l-36 275zM256 759l23 130h369l-23 -130h-369z" />
    <glyph glyph-name="amacron" unicode="&#x101;" horiz-adv-x="602" 
d="M341 0l8 45q-17 -23 -58.5 -40t-91.5 -17q-36 0 -68 10t-56.5 30t-39 48.5t-14.5 66.5q0 44 15 77t42.5 54.5t65.5 32.5t84 11q58 0 95 -14t59 -31l11 63q5 31 -14 50.5t-54 19.5q-27 0 -44.5 -10t-31.5 -29h-154q32 88 94.5 128.5t150.5 40.5q48 0 88.5 -14t70 -38.5
t46 -58t16.5 -73.5q0 -18 -3 -34l-56 -318h-161zM263 94q16 0 33 4t31.5 12t24 20t9.5 29q0 15 -8.5 25.5t-22.5 18t-31 11t-33 3.5q-17 0 -32.5 -3.5t-28 -11t-20 -19.5t-7.5 -30q0 -27 23.5 -43t61.5 -16zM210 598l22 127h343l-22 -127h-343z" />
    <glyph glyph-name="Abreve" unicode="&#x102;" horiz-adv-x="714" 
d="M466 130h-247l-60 -130h-181l368 700h176l129 -700h-168zM284 268h164l-36 275zM659 898q-6 -38 -24 -66t-45.5 -46t-63.5 -27t-76 -9q-38 0 -71.5 9t-57.5 27.5t-36 46t-6 65.5h129q-3 -24 11.5 -38t42.5 -14q29 0 46.5 14.5t21.5 37.5h129z" />
    <glyph glyph-name="abreve" unicode="&#x103;" horiz-adv-x="602" 
d="M341 0l8 45q-17 -23 -58.5 -40t-91.5 -17q-36 0 -68 10t-56.5 30t-39 48.5t-14.5 66.5q0 44 15 77t42.5 54.5t65.5 32.5t84 11q58 0 95 -14t59 -31l11 63q5 31 -14 50.5t-54 19.5q-27 0 -44.5 -10t-31.5 -29h-154q32 88 94.5 128.5t150.5 40.5q48 0 88.5 -14t70 -38.5
t46 -58t16.5 -73.5q0 -18 -3 -34l-56 -318h-161zM263 94q16 0 33 4t31.5 12t24 20t9.5 29q0 15 -8.5 25.5t-22.5 18t-31 11t-33 3.5q-17 0 -32.5 -3.5t-28 -11t-20 -19.5t-7.5 -30q0 -27 23.5 -43t61.5 -16zM586 738q-6 -38 -23 -68t-42.5 -50.5t-59 -31t-72.5 -10.5
q-36 0 -68.5 9.5t-56.5 29t-37 49.5t-10 72h120q-4 -27 10.5 -45.5t48.5 -18.5q33 0 48.5 19t19.5 45h122z" />
    <glyph glyph-name="Aogonek" unicode="&#x104;" horiz-adv-x="714" 
d="M609 -175q-16 -6 -35.5 -8.5t-39.5 -2.5q-52 0 -80.5 24.5t-28.5 63.5q0 31 16 56t42 42l-17 130h-247l-60 -130h-181l368 700h176l129 -700q-11 -6 -24 -13.5t-23.5 -17t-17.5 -20.5t-7 -23q0 -19 23 -19q10 0 21 3zM284 268h164l-36 275z" />
    <glyph glyph-name="aogonek" unicode="&#x105;" horiz-adv-x="602" 
d="M502 0q-8 -5 -19 -13t-21 -17.5t-17 -20.5t-7 -23q0 -19 23 -19q10 0 21 3l-14 -84q-7 -3 -29 -7.5t-46 -4.5q-52 0 -80.5 24.5t-28.5 63.5q0 31 16.5 56.5t40.5 41.5l8 45q-17 -23 -58.5 -40t-91.5 -17q-36 0 -68 10t-56.5 30t-39 48.5t-14.5 66.5q0 44 15 77t42.5 54.5
t65.5 32.5t84 11q58 0 95 -14t59 -31l11 63q5 31 -14 50.5t-54 19.5q-27 0 -44.5 -10t-31.5 -29h-154q32 88 94.5 128.5t150.5 40.5q48 0 88.5 -14t70 -38.5t46 -58t16.5 -73.5q0 -18 -3 -34zM263 94q16 0 33 4t31.5 12t24 20t9.5 29q0 15 -8.5 25.5t-22.5 18t-31 11
t-33 3.5q-17 0 -32.5 -3.5t-28 -11t-20 -19.5t-7.5 -30q0 -27 23.5 -43t61.5 -16z" />
    <glyph glyph-name="Cacute" unicode="&#x106;" horiz-adv-x="701" 
d="M528 442q0 25 -9 48.5t-26 41.5t-42 29t-59 11q-63 0 -98.5 -37t-50.5 -121l-18 -103q-2 -12 -3 -23.5t-1 -22.5q0 -64 34.5 -100.5t98.5 -36.5q33 0 58 11.5t42.5 30t28 42t15.5 46.5h160q-8 -60 -33.5 -110t-66 -86t-94 -56t-117.5 -20q-66 0 -120.5 20.5t-93.5 58
t-61 89t-22 113.5q0 31 6 63l16 90q27 153 106 223.5t222 70.5q57 0 109 -17.5t92 -51.5t63.5 -85t23.5 -118h-160zM333 750l93 148h208l-129 -148h-172z" />
    <glyph glyph-name="cacute" unicode="&#x107;" horiz-adv-x="575" 
d="M399 322q0 32 -22 56.5t-65 24.5q-45 0 -67.5 -26t-31.5 -76l-13 -74q-1 -5 -1.5 -11t-0.5 -11q0 -37 23 -60.5t62 -23.5q42 0 64.5 24.5t30.5 56.5h152q-7 -48 -28.5 -87t-55 -67.5t-77 -44t-95.5 -15.5q-49 0 -93 15.5t-77 43.5t-52 68t-19 90q0 11 1 20.5t3 23.5
l12 68q19 106 86.5 162.5t180.5 56.5q48 0 90.5 -13.5t74 -40.5t49.5 -67t18 -93h-149zM251 578l86 160h222l-141 -160h-167z" />
    <glyph glyph-name="Ccircumflex" unicode="&#x108;" horiz-adv-x="701" 
d="M528 442q0 25 -9 48.5t-26 41.5t-42 29t-59 11q-63 0 -98.5 -37t-50.5 -121l-18 -103q-2 -12 -3 -23.5t-1 -22.5q0 -64 34.5 -100.5t98.5 -36.5q33 0 58 11.5t42.5 30t28 42t15.5 46.5h160q-8 -60 -33.5 -110t-66 -86t-94 -56t-117.5 -20q-66 0 -120.5 20.5t-93.5 58
t-61 89t-22 113.5q0 31 6 63l16 90q27 153 106 223.5t222 70.5q57 0 109 -17.5t92 -51.5t63.5 -85t23.5 -118h-160zM630 750h-151l-35 58l-54 -58h-163l146 148h163z" />
    <glyph glyph-name="ccircumflex" unicode="&#x109;" horiz-adv-x="575" 
d="M399 322q0 32 -22 56.5t-65 24.5q-45 0 -67.5 -26t-31.5 -76l-13 -74q-1 -5 -1.5 -11t-0.5 -11q0 -37 23 -60.5t62 -23.5q42 0 64.5 24.5t30.5 56.5h152q-7 -48 -28.5 -87t-55 -67.5t-77 -44t-95.5 -15.5q-49 0 -93 15.5t-77 43.5t-52 68t-19 90q0 11 1 20.5t3 23.5
l12 68q19 106 86.5 162.5t180.5 56.5q48 0 90.5 -13.5t74 -40.5t49.5 -67t18 -93h-149zM538 578h-150l-30 65l-54 -65h-154l142 160h162z" />
    <glyph glyph-name="Cdotaccent" unicode="&#x10a;" horiz-adv-x="701" 
d="M528 442q0 25 -9 48.5t-26 41.5t-42 29t-59 11q-63 0 -98.5 -37t-50.5 -121l-18 -103q-2 -12 -3 -23.5t-1 -22.5q0 -64 34.5 -100.5t98.5 -36.5q33 0 58 11.5t42.5 30t28 42t15.5 46.5h160q-8 -60 -33.5 -110t-66 -86t-94 -56t-117.5 -20q-66 0 -120.5 20.5t-93.5 58
t-61 89t-22 113.5q0 31 6 63l16 90q27 153 106 223.5t222 70.5q57 0 109 -17.5t92 -51.5t63.5 -85t23.5 -118h-160zM362 830q0 42 27.5 68t72.5 26q38 0 62 -22.5t24 -57.5q0 -40 -26.5 -67t-71.5 -27q-35 0 -61.5 21t-26.5 59z" />
    <glyph glyph-name="cdotaccent" unicode="&#x10b;" horiz-adv-x="575" 
d="M399 322q0 32 -22 56.5t-65 24.5q-45 0 -67.5 -26t-31.5 -76l-13 -74q-1 -5 -1.5 -11t-0.5 -11q0 -37 23 -60.5t62 -23.5q42 0 64.5 24.5t30.5 56.5h152q-7 -48 -28.5 -87t-55 -67.5t-77 -44t-95.5 -15.5q-49 0 -93 15.5t-77 43.5t-52 68t-19 90q0 11 1 20.5t3 23.5
l12 68q19 106 86.5 162.5t180.5 56.5q48 0 90.5 -13.5t74 -40.5t49.5 -67t18 -93h-149zM267 651q0 42 27.5 68t72.5 26q38 0 62 -22.5t24 -57.5q0 -40 -26.5 -67t-71.5 -27q-35 0 -61.5 21t-26.5 59z" />
    <glyph glyph-name="Ccaron" unicode="&#x10c;" horiz-adv-x="701" 
d="M528 442q0 25 -9 48.5t-26 41.5t-42 29t-59 11q-63 0 -98.5 -37t-50.5 -121l-18 -103q-2 -12 -3 -23.5t-1 -22.5q0 -64 34.5 -100.5t98.5 -36.5q33 0 58 11.5t42.5 30t28 42t15.5 46.5h160q-8 -60 -33.5 -110t-66 -86t-94 -56t-117.5 -20q-66 0 -120.5 20.5t-93.5 58
t-61 89t-22 113.5q0 31 6 63l16 90q27 153 106 223.5t222 70.5q57 0 109 -17.5t92 -51.5t63.5 -85t23.5 -118h-160zM256 898h153l35 -58l53 58h162l-146 -148h-163z" />
    <glyph glyph-name="ccaron" unicode="&#x10d;" horiz-adv-x="575" 
d="M399 322q0 32 -22 56.5t-65 24.5q-45 0 -67.5 -26t-31.5 -76l-13 -74q-1 -5 -1.5 -11t-0.5 -11q0 -37 23 -60.5t62 -23.5q42 0 64.5 24.5t30.5 56.5h152q-7 -48 -28.5 -87t-55 -67.5t-77 -44t-95.5 -15.5q-49 0 -93 15.5t-77 43.5t-52 68t-19 90q0 11 1 20.5t3 23.5
l12 68q19 106 86.5 162.5t180.5 56.5q48 0 90.5 -13.5t74 -40.5t49.5 -67t18 -93h-149zM426 578h-162l-84 160h150l31 -67l51 67h156z" />
    <glyph glyph-name="Dcaron" unicode="&#x10e;" horiz-adv-x="708" 
d="M148 700h306q55 0 99 -16t75 -45.5t48 -70.5t17 -91q0 -14 -1.5 -28t-3.5 -28l-28 -159q-47 -262 -326 -262h-309zM515 414q2 9 3 19t1 19q0 51 -29.5 79t-90.5 28h-105l-74 -418h105q70 0 111 29.5t53 96.5zM253 898h153l35 -58l53 58h162l-146 -148h-163z" />
    <glyph glyph-name="dcaron" unicode="&#x10f;" horiz-adv-x="823" 
d="M354 0l9 55q-8 -14 -22.5 -26t-33.5 -21t-42 -14.5t-47 -5.5q-44 0 -79 15.5t-59 42t-37 63t-13 78.5q0 23 5 51l14 80q19 106 79.5 162t156.5 56q59 0 94.5 -20.5t50.5 -41.5l45 256h168l-129 -730h-160zM203 240q-1 -5 -2 -13t-1 -14q0 -39 22.5 -63t62.5 -24
q45 0 68.5 25.5t32.5 76.5l10 58q2 9 2 16v11q0 41 -22.5 63t-63.5 22q-44 0 -67.5 -26.5t-31.5 -74.5zM743 730h182l-129 -238h-135z" />
    <glyph glyph-name="Dcroat" unicode="&#x110;" horiz-adv-x="733" 
d="M64 422h66l49 278h306q55 0 99 -16t75 -45.5t48 -70.5t17 -91q0 -14 -1.5 -28t-3.5 -28l-28 -159q-47 -262 -326 -262h-309l49 279h-66zM546 414q2 9 3 19t1 19q0 51 -29.5 79t-90.5 28h-105l-24 -137h140l-25 -143h-141l-24 -138h105q70 0 111 29.5t53 96.5z" />
    <glyph glyph-name="dcroat" unicode="&#x111;" horiz-adv-x="644" 
d="M354 0l9 55q-8 -14 -22.5 -26t-33.5 -21t-42 -14.5t-47 -5.5q-44 0 -79 15.5t-59 42t-37 63t-13 78.5q0 23 5 51l14 80q19 106 79.5 162t156.5 56q59 0 94.5 -20.5t50.5 -41.5l14 79h-84l20 112h83l12 65h168l-12 -65h50l-20 -112h-50l-97 -553h-160zM203 240
q-1 -5 -2 -13t-1 -14q0 -39 22.5 -63t62.5 -24q45 0 68.5 25.5t32.5 76.5l10 58q2 9 2 16v11q0 41 -22.5 63t-63.5 22q-44 0 -67.5 -26.5t-31.5 -74.5z" />
    <glyph glyph-name="Emacron" unicode="&#x112;" horiz-adv-x="625" 
d="M148 700h495l-25 -143h-323l-23 -131h294l-26 -143h-294l-24 -140h324l-25 -143h-496zM216 759l23 130h369l-23 -130h-369z" />
    <glyph glyph-name="emacron" unicode="&#x113;" horiz-adv-x="571" 
d="M193 209q-1 -5 -1.5 -11t-0.5 -12q0 -38 22 -59t64 -21q33 0 53 15.5t27 34.5h148q-11 -37 -31.5 -67.5t-51.5 -53t-70.5 -35t-87.5 -12.5q-50 0 -92 14.5t-73 42.5t-48.5 67.5t-17.5 89.5q0 13 1.5 28t3.5 26l11 61q19 106 83.5 162.5t177.5 56.5q52 0 94 -14.5
t71.5 -41t45 -63.5t15.5 -83q0 -11 -1.5 -24.5t-3.5 -24.5l-13 -76h-325zM210 307h171l2 10q1 5 1.5 12t0.5 12q0 35 -20.5 55t-55.5 20q-45 0 -67.5 -27t-30.5 -76zM167 598l22 127h343l-22 -127h-343z" />
    <glyph glyph-name="Ebreve" unicode="&#x114;" horiz-adv-x="625" 
d="M148 700h495l-25 -143h-323l-23 -131h294l-26 -143h-294l-24 -140h324l-25 -143h-496zM621 898q-6 -38 -24 -66t-45.5 -46t-63.5 -27t-76 -9q-38 0 -71.5 9t-57.5 27.5t-36 46t-6 65.5h129q-3 -24 11.5 -38t42.5 -14q29 0 46.5 14.5t21.5 37.5h129z" />
    <glyph glyph-name="ebreve" unicode="&#x115;" horiz-adv-x="571" 
d="M193 209q-1 -5 -1.5 -11t-0.5 -12q0 -38 22 -59t64 -21q33 0 53 15.5t27 34.5h148q-11 -37 -31.5 -67.5t-51.5 -53t-70.5 -35t-87.5 -12.5q-50 0 -92 14.5t-73 42.5t-48.5 67.5t-17.5 89.5q0 13 1.5 28t3.5 26l11 61q19 106 83.5 162.5t177.5 56.5q52 0 94 -14.5
t71.5 -41t45 -63.5t15.5 -83q0 -11 -1.5 -24.5t-3.5 -24.5l-13 -76h-325zM210 307h171l2 10q1 5 1.5 12t0.5 12q0 35 -20.5 55t-55.5 20q-45 0 -67.5 -27t-30.5 -76zM544 738q-6 -38 -23 -68t-42.5 -50.5t-59 -31t-72.5 -10.5q-36 0 -68.5 9.5t-56.5 29t-37 49.5t-10 72h120
q-4 -27 10.5 -45.5t48.5 -18.5q33 0 48.5 19t19.5 45h122z" />
    <glyph glyph-name="Edotaccent" unicode="&#x116;" horiz-adv-x="625" 
d="M148 700h495l-25 -143h-323l-23 -131h294l-26 -143h-294l-24 -140h324l-25 -143h-496zM324 830q0 42 27.5 68t72.5 26q38 0 62 -22.5t24 -57.5q0 -40 -26.5 -67t-71.5 -27q-35 0 -61.5 21t-26.5 59z" />
    <glyph glyph-name="edotaccent" unicode="&#x117;" horiz-adv-x="571" 
d="M193 209q-1 -5 -1.5 -11t-0.5 -12q0 -38 22 -59t64 -21q33 0 53 15.5t27 34.5h148q-11 -37 -31.5 -67.5t-51.5 -53t-70.5 -35t-87.5 -12.5q-50 0 -92 14.5t-73 42.5t-48.5 67.5t-17.5 89.5q0 13 1.5 28t3.5 26l11 61q19 106 83.5 162.5t177.5 56.5q52 0 94 -14.5
t71.5 -41t45 -63.5t15.5 -83q0 -11 -1.5 -24.5t-3.5 -24.5l-13 -76h-325zM210 307h171l2 10q1 5 1.5 12t0.5 12q0 35 -20.5 55t-55.5 20q-45 0 -67.5 -27t-30.5 -76zM256 651q0 42 27.5 68t72.5 26q38 0 62 -22.5t24 -57.5q0 -40 -26.5 -67t-71.5 -27q-35 0 -61.5 21
t-26.5 59z" />
    <glyph glyph-name="Eogonek" unicode="&#x118;" horiz-adv-x="625" 
d="M148 700h495l-25 -143h-323l-23 -131h294l-26 -143h-294l-24 -140h324l-25 -143q-10 -6 -21.5 -14t-21 -17.5t-15.5 -20t-6 -22.5q0 -19 23 -19q10 0 21 3l-14 -84q-7 -3 -29 -7.5t-46 -4.5q-52 0 -80.5 24.5t-28.5 63.5q0 31 17.5 57.5t40.5 40.5h-336z" />
    <glyph glyph-name="eogonek" unicode="&#x119;" horiz-adv-x="571" 
d="M352 -174q-7 -3 -29 -7.5t-46 -4.5q-52 0 -80.5 24.5t-28.5 63.5q0 29 19.5 52t43.5 36q-43 4 -79.5 21t-62.5 44t-41 64t-15 83q0 13 1.5 28t3.5 26l11 61q19 106 83.5 162.5t177.5 56.5q52 0 94 -14.5t71.5 -41t45 -63.5t15.5 -83q0 -11 -1.5 -24.5t-3.5 -24.5l-13 -76
h-325q-1 -5 -1.5 -11t-0.5 -12q0 -38 22 -59t64 -21q33 0 53 15.5t27 34.5h148q-13 -44 -40 -76t-67 -60q-33 -23 -54.5 -44t-21.5 -50q0 -19 23 -19q10 0 21 3zM210 307h171l2 10q1 5 1.5 12t0.5 12q0 35 -20.5 55t-55.5 20q-45 0 -67.5 -27t-30.5 -76z" />
    <glyph glyph-name="Ecaron" unicode="&#x11a;" horiz-adv-x="625" 
d="M148 700h495l-25 -143h-323l-23 -131h294l-26 -143h-294l-24 -140h324l-25 -143h-496zM230 898h153l35 -58l53 58h162l-146 -148h-163z" />
    <glyph glyph-name="ecaron" unicode="&#x11b;" horiz-adv-x="571" 
d="M193 209q-1 -5 -1.5 -11t-0.5 -12q0 -38 22 -59t64 -21q33 0 53 15.5t27 34.5h148q-11 -37 -31.5 -67.5t-51.5 -53t-70.5 -35t-87.5 -12.5q-50 0 -92 14.5t-73 42.5t-48.5 67.5t-17.5 89.5q0 13 1.5 28t3.5 26l11 61q19 106 83.5 162.5t177.5 56.5q52 0 94 -14.5
t71.5 -41t45 -63.5t15.5 -83q0 -11 -1.5 -24.5t-3.5 -24.5l-13 -76h-325zM210 307h171l2 10q1 5 1.5 12t0.5 12q0 35 -20.5 55t-55.5 20q-45 0 -67.5 -27t-30.5 -76zM423 578h-162l-84 160h150l31 -67l51 67h156z" />
    <glyph glyph-name="Gcircumflex" unicode="&#x11c;" horiz-adv-x="711" 
d="M527 458q-1 52 -37.5 83t-95.5 31q-65 0 -100.5 -37.5t-48.5 -108.5l-19 -108q-3 -17 -4.5 -30.5t-1.5 -27.5q0 -68 34.5 -102t100.5 -34q54 0 89 30t43 81h-133l24 139h305l-18 -103q-11 -65 -38 -117.5t-68 -90t-96.5 -57.5t-123.5 -20q-64 0 -117 20.5t-91 57.5
t-59 88t-21 112q0 14 1 28t4 31l18 101q26 148 109.5 219t214.5 71q58 0 110.5 -15t92 -46.5t63.5 -79.5t26 -115h-163zM627 750h-151l-35 58l-54 -58h-163l146 148h163z" />
    <glyph glyph-name="gcircumflex" unicode="&#x11d;" horiz-adv-x="617" 
d="M513 7q-8 -45 -31 -80.5t-58.5 -60.5t-81.5 -38.5t-100 -13.5q-49 0 -92.5 12t-76.5 34.5t-53 54.5t-23 71h162q5 -23 31.5 -34.5t58.5 -11.5q43 0 68 22.5t31 59.5l11 64q-17 -27 -54 -43.5t-82 -16.5q-39 0 -73.5 14.5t-60 40t-40 61t-14.5 77.5q0 12 1 22.5t3 19.5
l12 68q17 100 75 153.5t161 53.5q51 0 88.5 -20t58.5 -48l10 56h160zM206 266q-1 -5 -1.5 -11.5t-0.5 -11.5q0 -42 25.5 -63t60.5 -21q43 0 67.5 27.5t31.5 68.5l7 41q2 10 2 20q0 36 -23.5 60t-65.5 24t-64.5 -23.5t-30.5 -65.5zM567 578h-150l-30 65l-54 -65h-154l142 160
h162z" />
    <glyph glyph-name="Gbreve" unicode="&#x11e;" horiz-adv-x="711" 
d="M527 458q-1 52 -37.5 83t-95.5 31q-65 0 -100.5 -37.5t-48.5 -108.5l-19 -108q-3 -17 -4.5 -30.5t-1.5 -27.5q0 -68 34.5 -102t100.5 -34q54 0 89 30t43 81h-133l24 139h305l-18 -103q-11 -65 -38 -117.5t-68 -90t-96.5 -57.5t-123.5 -20q-64 0 -117 20.5t-91 57.5
t-59 88t-21 112q0 14 1 28t4 31l18 101q26 148 109.5 219t214.5 71q58 0 110.5 -15t92 -46.5t63.5 -79.5t26 -115h-163zM638 898q-6 -38 -24 -66t-45.5 -46t-63.5 -27t-76 -9q-38 0 -71.5 9t-57.5 27.5t-36 46t-6 65.5h129q-3 -24 11.5 -38t42.5 -14q29 0 46.5 14.5
t21.5 37.5h129z" />
    <glyph glyph-name="gbreve" unicode="&#x11f;" horiz-adv-x="617" 
d="M513 7q-8 -45 -31 -80.5t-58.5 -60.5t-81.5 -38.5t-100 -13.5q-49 0 -92.5 12t-76.5 34.5t-53 54.5t-23 71h162q5 -23 31.5 -34.5t58.5 -11.5q43 0 68 22.5t31 59.5l11 64q-17 -27 -54 -43.5t-82 -16.5q-39 0 -73.5 14.5t-60 40t-40 61t-14.5 77.5q0 12 1 22.5t3 19.5
l12 68q17 100 75 153.5t161 53.5q51 0 88.5 -20t58.5 -48l10 56h160zM206 266q-1 -5 -1.5 -11.5t-0.5 -11.5q0 -42 25.5 -63t60.5 -21q43 0 67.5 27.5t31.5 68.5l7 41q2 10 2 20q0 36 -23.5 60t-65.5 24t-64.5 -23.5t-30.5 -65.5zM578 738q-6 -38 -23 -68t-42.5 -50.5
t-59 -31t-72.5 -10.5q-36 0 -68.5 9.5t-56.5 29t-37 49.5t-10 72h120q-4 -27 10.5 -45.5t48.5 -18.5q33 0 48.5 19t19.5 45h122z" />
    <glyph glyph-name="Gdotaccent" unicode="&#x120;" horiz-adv-x="711" 
d="M527 458q-1 52 -37.5 83t-95.5 31q-65 0 -100.5 -37.5t-48.5 -108.5l-19 -108q-3 -17 -4.5 -30.5t-1.5 -27.5q0 -68 34.5 -102t100.5 -34q54 0 89 30t43 81h-133l24 139h305l-18 -103q-11 -65 -38 -117.5t-68 -90t-96.5 -57.5t-123.5 -20q-64 0 -117 20.5t-91 57.5
t-59 88t-21 112q0 14 1 28t4 31l18 101q26 148 109.5 219t214.5 71q58 0 110.5 -15t92 -46.5t63.5 -79.5t26 -115h-163zM345 830q0 42 27.5 68t72.5 26q38 0 62 -22.5t24 -57.5q0 -40 -26.5 -67t-71.5 -27q-35 0 -61.5 21t-26.5 59z" />
    <glyph glyph-name="gdotaccent" unicode="&#x121;" horiz-adv-x="617" 
d="M513 7q-8 -45 -31 -80.5t-58.5 -60.5t-81.5 -38.5t-100 -13.5q-49 0 -92.5 12t-76.5 34.5t-53 54.5t-23 71h162q5 -23 31.5 -34.5t58.5 -11.5q43 0 68 22.5t31 59.5l11 64q-17 -27 -54 -43.5t-82 -16.5q-39 0 -73.5 14.5t-60 40t-40 61t-14.5 77.5q0 12 1 22.5t3 19.5
l12 68q17 100 75 153.5t161 53.5q51 0 88.5 -20t58.5 -48l10 56h160zM206 266q-1 -5 -1.5 -11.5t-0.5 -11.5q0 -42 25.5 -63t60.5 -21q43 0 67.5 27.5t31.5 68.5l7 41q2 10 2 20q0 36 -23.5 60t-65.5 24t-64.5 -23.5t-30.5 -65.5zM283 651q0 42 27.5 68t72.5 26
q38 0 62 -22.5t24 -57.5q0 -40 -26.5 -67t-71.5 -27q-35 0 -61.5 21t-26.5 59z" />
    <glyph glyph-name="Gcommaaccent" unicode="&#x122;" horiz-adv-x="711" 
d="M527 458q-1 52 -37.5 83t-95.5 31q-65 0 -100.5 -37.5t-48.5 -108.5l-19 -108q-3 -17 -4.5 -30.5t-1.5 -27.5q0 -68 34.5 -102t100.5 -34q54 0 89 30t43 81h-133l24 139h305l-18 -103q-11 -65 -38 -117.5t-68 -90t-96.5 -57.5t-123.5 -20q-64 0 -117 20.5t-91 57.5
t-59 88t-21 112q0 14 1 28t4 31l18 101q26 148 109.5 219t214.5 71q58 0 110.5 -15t92 -46.5t63.5 -79.5t26 -115h-163zM213 -70h191l-108 -180h-141z" />
    <glyph glyph-name="gcommaaccent" unicode="&#x123;" horiz-adv-x="617" 
d="M513 7q-8 -45 -31 -80.5t-58.5 -60.5t-81.5 -38.5t-100 -13.5q-49 0 -92.5 12t-76.5 34.5t-53 54.5t-23 71h162q5 -23 31.5 -34.5t58.5 -11.5q43 0 68 22.5t31 59.5l11 64q-17 -27 -54 -43.5t-82 -16.5q-39 0 -73.5 14.5t-60 40t-40 61t-14.5 77.5q0 12 1 22.5t3 19.5
l12 68q17 100 75 153.5t161 53.5q51 0 88.5 -20t58.5 -48l10 56h160zM206 266q-1 -5 -1.5 -11.5t-0.5 -11.5q0 -42 25.5 -63t60.5 -21q43 0 67.5 27.5t31.5 68.5l7 41q2 10 2 20q0 36 -23.5 60t-65.5 24t-64.5 -23.5t-30.5 -65.5zM550 738l-72 -160h-208l113 160h167z" />
    <glyph glyph-name="Hcircumflex" unicode="&#x124;" horiz-adv-x="722" 
d="M435 0l48 274h-238l-48 -274h-172l123 700h172l-48 -272h238l48 272h172l-123 -700h-172zM642 750h-151l-35 58l-54 -58h-163l146 148h163z" />
    <glyph glyph-name="hcircumflex" unicode="&#x125;" horiz-adv-x="604" 
d="M15 0l128 730h168l-45 -253q26 30 62 44.5t80 14.5q75 0 116.5 -44t41.5 -116q0 -11 -1 -22t-3 -25l-58 -329h-168l54 306q2 10 2 19q0 28 -16.5 44.5t-48.5 16.5q-34 0 -58 -18.5t-32 -61.5l-54 -306h-168zM436 781h-151l-35 58l-54 -58h-163l146 148h163z" />
    <glyph glyph-name="Hbar" unicode="&#x126;" horiz-adv-x="788" 
d="M468 0l48 274h-238l-48 -274h-172l88 502h-76l18 103h76l17 95h172l-17 -95h238l17 95h172l-17 -95h76l-18 -103h-76l-88 -502h-172zM543 428l13 74h-238l-13 -74h238z" />
    <glyph glyph-name="hbar" unicode="&#x127;" horiz-adv-x="629" 
d="M40 0l97 553h-50l20 112h49l12 65h168l-12 -65h72l-20 -112h-72l-13 -76q26 30 62 44.5t80 14.5q75 0 116.5 -44t41.5 -116q0 -11 -1 -22t-3 -25l-58 -329h-168l54 306q2 10 2 19q0 28 -16.5 44.5t-48.5 16.5q-34 0 -58 -18.5t-32 -61.5l-54 -306h-168z" />
    <glyph glyph-name="Itilde" unicode="&#x128;" horiz-adv-x="322" 
d="M202 0h-172l123 700h172zM336 750q-20 0 -43 5t-46 10.5t-44.5 10.5t-37.5 5q-17 0 -26.5 -10.5t-14.5 -26.5l-95 28q8 31 19 56.5t28 43.5t41.5 28t58.5 10q23 0 47.5 -5t47 -10.5t41 -10.5t30.5 -5q20 0 28.5 12t14.5 26l95 -31q-10 -33 -21.5 -58.5t-28 -42.5
t-39.5 -26t-55 -9z" />
    <glyph glyph-name="itilde" unicode="&#x129;" horiz-adv-x="298" 
d="M20 0l92 524h168l-92 -524h-168zM291 578q-18 0 -38 5t-39.5 11t-39 11t-35.5 5q-17 0 -27 -10.5t-18 -27.5l-90 34q17 64 47.5 98t92.5 34q21 0 43 -5t42 -11t36.5 -11t27.5 -5q19 0 28 11.5t17 26.5l89 -38q-8 -27 -20 -50.5t-28.5 -40.5t-38 -27t-49.5 -10z" />
    <glyph glyph-name="uni012A" unicode="&#x12a;" horiz-adv-x="322" 
d="M202 0h-172l123 700h172zM63 759l23 130h369l-23 -130h-369z" />
    <glyph glyph-name="imacron" unicode="&#x12b;" horiz-adv-x="298" 
d="M20 0l92 524h168l-92 -524h-168zM40 598l22 127h343l-22 -127h-343z" />
    <glyph glyph-name="Ibreve" unicode="&#x12c;" horiz-adv-x="322" 
d="M202 0h-172l123 700h172zM465 898q-6 -38 -24 -66t-45.5 -46t-63.5 -27t-76 -9q-38 0 -71.5 9t-57.5 27.5t-36 46t-6 65.5h129q-3 -24 11.5 -38t42.5 -14q29 0 46.5 14.5t21.5 37.5h129z" />
    <glyph glyph-name="uni012D" unicode="&#x12d;" horiz-adv-x="298" 
d="M20 0l92 524h168l-92 -524h-168zM416 738q-6 -38 -23 -68t-42.5 -50.5t-59 -31t-72.5 -10.5q-36 0 -68.5 9.5t-56.5 29t-37 49.5t-10 72h120q-4 -27 10.5 -45.5t48.5 -18.5q33 0 48.5 19t19.5 45h122z" />
    <glyph glyph-name="Iogonek" unicode="&#x12e;" horiz-adv-x="322" 
d="M202 0q-8 -6 -17 -14t-17 -17.5t-13.5 -20.5t-5.5 -23q0 -18 17 -18q8 0 16 2l-9 -85q-11 -3 -30 -6.5t-37 -3.5q-54 0 -83 26t-29 64q0 35 10.5 56t25.5 40l123 700h172z" />
    <glyph glyph-name="iogonek" unicode="&#x12f;" horiz-adv-x="298" 
d="M188 0q-8 -6 -17 -14t-17 -17.5t-13.5 -20.5t-5.5 -23q0 -18 17 -18q8 0 16 2l-13 -86q-11 -3 -28 -6t-35 -3q-54 0 -83 24.5t-29 62.5q0 32 11.5 56.5t28.5 42.5l92 524h168zM127 651q0 42 27.5 68t72.5 26q38 0 62 -22.5t24 -57.5q0 -40 -26.5 -67t-71.5 -27
q-35 0 -61.5 21t-26.5 59z" />
    <glyph glyph-name="Idotaccent" unicode="&#x130;" horiz-adv-x="322" 
d="M202 0h-172l123 700h172zM170 830q0 42 27.5 68t72.5 26q38 0 62 -22.5t24 -57.5q0 -40 -26.5 -67t-71.5 -27q-35 0 -61.5 21t-26.5 59z" />
    <glyph glyph-name="dotlessi" unicode="&#x131;" horiz-adv-x="298" 
d="M20 0l92 524h168l-92 -524h-168z" />
    <glyph glyph-name="IJ" unicode="&#x132;" horiz-adv-x="940" 
d="M202 0h-172l123 700h172zM951 700l-87 -490q-18 -104 -89.5 -164t-191.5 -60q-50 0 -92.5 14.5t-73.5 40.5t-48.5 63t-17.5 81q0 21 4 41h160q-1 -5 -1.5 -10t-0.5 -10q0 -34 22 -55.5t62 -21.5q42 0 65.5 24.5t30.5 61.5l86 485h172z" />
    <glyph glyph-name="ij" unicode="&#x133;" horiz-adv-x="596" 
d="M20 0l92 524h168l-92 -524h-168zM127 651q0 42 27.5 68t72.5 26q38 0 62 -22.5t24 -57.5q0 -40 -26.5 -67t-71.5 -27q-35 0 -61.5 21t-26.5 59zM578 524l-99 -563q-11 -66 -47 -100.5t-102 -34.5h-97l22 127h27q28 0 32 25l96 546h168zM425 651q0 42 27.5 68t72.5 26
q38 0 62 -22.5t24 -57.5q0 -40 -26.5 -67t-71.5 -27q-35 0 -61.5 21t-26.5 59z" />
    <glyph glyph-name="Jcircumflex" unicode="&#x134;" horiz-adv-x="618" 
d="M629 700l-87 -490q-18 -104 -89.5 -164t-191.5 -60q-50 0 -92.5 14.5t-73.5 40.5t-48.5 63t-17.5 81q0 21 4 41h160q-1 -5 -1.5 -10t-0.5 -10q0 -34 22 -55.5t62 -21.5q42 0 65.5 24.5t30.5 61.5l86 485h172zM742 750h-151l-35 58l-54 -58h-163l146 148h163z" />
    <glyph glyph-name="jcircumflex" unicode="&#x135;" horiz-adv-x="298" 
d="M280 524l-99 -563q-11 -66 -47 -100.5t-102 -34.5h-97l22 127h27q28 0 32 25l96 546h168zM395 578h-150l-30 65l-54 -65h-154l142 160h162z" />
    <glyph glyph-name="Kcommaaccent" unicode="&#x136;" horiz-adv-x="668" 
d="M25 0l123 700h172l-58 -331l246 331h209l-279 -356l163 -344h-199l-145 341l-60 -341h-172zM202 -70h191l-108 -180h-141z" />
    <glyph glyph-name="kcommaaccent" unicode="&#x137;" horiz-adv-x="563" 
d="M15 0l128 730h168l-77 -440l164 234h193l-196 -275l109 -249h-180l-97 249l-44 -249h-168zM150 -70h191l-108 -180h-141z" />
    <glyph glyph-name="kgreenlandic" unicode="&#x138;" horiz-adv-x="563" 
d="M15 0l92 524h168l-41 -234l164 234h193l-196 -275l109 -249h-180l-97 249l-44 -249h-168z" />
    <glyph glyph-name="Lacute" unicode="&#x139;" horiz-adv-x="585" 
d="M320 700l-98 -557h306l-25 -143h-478l123 700h172zM159 750l93 148h208l-129 -148h-172z" />
    <glyph glyph-name="lacute" unicode="&#x13a;" horiz-adv-x="298" 
d="M162 784l79 138h199l-120 -138h-158zM20 0l128 730h168l-128 -730h-168z" />
    <glyph glyph-name="Lcommaaccent" unicode="&#x13b;" horiz-adv-x="585" 
d="M320 700l-98 -557h306l-25 -143h-478l123 700h172zM160 -70h191l-108 -180h-141z" />
    <glyph glyph-name="lcommaaccent" unicode="&#x13c;" horiz-adv-x="298" 
d="M20 0l128 730h168l-128 -730h-168zM-2 -70h191l-108 -180h-141z" />
    <glyph glyph-name="Lcaron" unicode="&#x13d;" horiz-adv-x="585" 
d="M320 700l-98 -557h306l-25 -143h-478l123 700h172zM441 701h182l-129 -238h-135z" />
    <glyph glyph-name="lcaron" unicode="&#x13e;" horiz-adv-x="477" 
d="M20 0l128 730h168l-128 -730h-168zM422 730h182l-129 -238h-135z" />
    <glyph glyph-name="Ldot" unicode="&#x13f;" horiz-adv-x="585" 
d="M320 700l-98 -557h306l-25 -143h-478l123 700h172zM333 350q0 42 26.5 70t71.5 28q40 0 65 -24.5t25 -60.5q0 -42 -25.5 -71.5t-70.5 -29.5q-38 0 -65 23.5t-27 64.5z" />
    <glyph glyph-name="ldot" unicode="&#x140;" horiz-adv-x="468" 
d="M20 0l128 730h168l-128 -730h-168zM289 286q0 42 26.5 70t71.5 28q40 0 65 -24.5t25 -60.5q0 -42 -25.5 -71.5t-70.5 -29.5q-38 0 -65 23.5t-27 64.5z" />
    <glyph glyph-name="Lslash" unicode="&#x141;" horiz-adv-x="603" 
d="M342 700l-42 -237l131 71l-27 -153l-131 -71l-29 -167h306l-25 -143h-478l36 207l-71 -38l27 153l71 38l60 340h172z" />
    <glyph glyph-name="lslash" unicode="&#x142;" horiz-adv-x="315" 
d="M24 0l35 203l-51 -36l27 155l51 36l66 372h168l-42 -238l60 42l-28 -155l-59 -42l-59 -337h-168z" />
    <glyph glyph-name="Nacute" unicode="&#x143;" 
d="M452 0l-187 408l-72 -408h-168l123 700h163l188 -406l72 406h168l-123 -700h-164zM345 750l93 148h208l-129 -148h-172z" />
    <glyph glyph-name="nacute" unicode="&#x144;" horiz-adv-x="604" 
d="M15 0l92 524h161l-11 -59q26 36 64.5 53.5t86.5 17.5q75 0 116.5 -44t41.5 -116q0 -10 -1 -22.5t-3 -24.5l-58 -329h-168l54 306q2 10 2 19q0 28 -16.5 44.5t-48.5 16.5q-34 0 -58 -18.5t-32 -61.5l-54 -306h-168zM276 578l86 160h222l-141 -160h-167z" />
    <glyph glyph-name="Ncommaaccent" unicode="&#x145;" 
d="M452 0l-187 408l-72 -408h-168l123 700h163l188 -406l72 406h168l-123 -700h-164zM220 -70h191l-108 -180h-141z" />
    <glyph glyph-name="ncommaaccent" unicode="&#x146;" horiz-adv-x="604" 
d="M15 0l92 524h161l-11 -59q26 36 64.5 53.5t86.5 17.5q75 0 116.5 -44t41.5 -116q0 -10 -1 -22.5t-3 -24.5l-58 -329h-168l54 306q2 10 2 19q0 28 -16.5 44.5t-48.5 16.5q-34 0 -58 -18.5t-32 -61.5l-54 -306h-168zM156 -70h191l-108 -180h-141z" />
    <glyph glyph-name="Ncaron" unicode="&#x147;" 
d="M452 0l-187 408l-72 -408h-168l123 700h163l188 -406l72 406h168l-123 -700h-164zM263 898h153l35 -58l53 58h162l-146 -148h-163z" />
    <glyph glyph-name="ncaron" unicode="&#x148;" horiz-adv-x="604" 
d="M15 0l92 524h161l-11 -59q26 36 64.5 53.5t86.5 17.5q75 0 116.5 -44t41.5 -116q0 -10 -1 -22.5t-3 -24.5l-58 -329h-168l54 306q2 10 2 19q0 28 -16.5 44.5t-48.5 16.5q-34 0 -58 -18.5t-32 -61.5l-54 -306h-168zM433 578h-162l-84 160h150l31 -67l51 67h156z" />
    <glyph glyph-name="napostrophe" unicode="&#x149;" horiz-adv-x="780" 
d="M191 0l92 524h161l-11 -59q26 36 64.5 53.5t86.5 17.5q75 0 116.5 -44t41.5 -116q0 -10 -1 -22.5t-3 -24.5l-58 -329h-168l54 306q2 10 2 19q0 28 -16.5 44.5t-48.5 16.5q-34 0 -58 -18.5t-32 -61.5l-54 -306h-168zM130 730h182l-129 -238h-135z" />
    <glyph glyph-name="Eng" unicode="&#x14a;" 
d="M616 0q-9 -51 -27 -84.5t-45 -53.5t-64 -28t-84 -8h-71l22 127h42q24 0 39.5 10t19.5 32l1 10l-184 403l-72 -408h-168l123 700h163l188 -406l72 406h168z" />
    <glyph glyph-name="eng" unicode="&#x14b;" horiz-adv-x="604" 
d="M15 0l92 524h161l-11 -59q26 36 64.5 53.5t86.5 17.5q75 0 116.5 -44t41.5 -116q0 -10 -1 -22.5t-3 -24.5l-61 -346q-15 -85 -65 -121t-150 -36h-60l22 127h33q23 0 36.5 8.5t17.5 31.5l55 313q2 10 2 19q0 28 -16.5 44.5t-48.5 16.5q-34 0 -58 -18.5t-32 -61.5l-54 -306
h-168z" />
    <glyph glyph-name="Omacron" unicode="&#x14c;" 
d="M686 283q-11 -65 -38.5 -119.5t-69.5 -94t-98 -61.5t-126 -22q-69 0 -124.5 21t-95.5 58.5t-61.5 89t-21.5 113.5q0 17 1.5 33t4.5 33l16 89q26 143 108.5 217t225.5 74q65 0 120 -19.5t95 -56t62.5 -88t22.5 -115.5q0 -31 -6 -65zM532 386q2 11 3 22.5t1 19.5
q0 64 -36 103.5t-101 39.5q-70 0 -105.5 -41t-49.5 -118l-17 -95q-5 -28 -5 -50q0 -65 35.5 -101.5t102.5 -36.5q66 0 104.5 43.5t50.5 115.5zM259 759l23 130h369l-23 -130h-369z" />
    <glyph glyph-name="omacron" unicode="&#x14d;" horiz-adv-x="580" 
d="M533 204q-8 -48 -30 -88t-55 -68.5t-77 -44t-96 -15.5q-53 0 -97.5 16t-76.5 45t-49.5 69.5t-17.5 88.5q0 26 4 49l12 67q20 109 85.5 161.5t169.5 51.5q56 0 101 -16.5t76.5 -46t48.5 -69.5t17 -88q0 -12 -1 -25t-3 -24zM386 294q1 5 1.5 12t0.5 15q0 39 -22 60.5
t-63 21.5q-44 0 -64 -23.5t-28 -67.5l-16 -90q-2 -10 -2 -21q0 -36 23 -58t62 -22q40 0 62.5 22.5t29.5 61.5zM171 598l22 127h343l-22 -127h-343z" />
    <glyph glyph-name="Obreve" unicode="&#x14e;" 
d="M686 283q-11 -65 -38.5 -119.5t-69.5 -94t-98 -61.5t-126 -22q-69 0 -124.5 21t-95.5 58.5t-61.5 89t-21.5 113.5q0 17 1.5 33t4.5 33l16 89q26 143 108.5 217t225.5 74q65 0 120 -19.5t95 -56t62.5 -88t22.5 -115.5q0 -31 -6 -65zM532 386q2 11 3 22.5t1 19.5
q0 64 -36 103.5t-101 39.5q-70 0 -105.5 -41t-49.5 -118l-17 -95q-5 -28 -5 -50q0 -65 35.5 -101.5t102.5 -36.5q66 0 104.5 43.5t50.5 115.5zM662 898q-6 -38 -24 -66t-45.5 -46t-63.5 -27t-76 -9q-38 0 -71.5 9t-57.5 27.5t-36 46t-6 65.5h129q-3 -24 11.5 -38t42.5 -14
q29 0 46.5 14.5t21.5 37.5h129z" />
    <glyph glyph-name="obreve" unicode="&#x14f;" horiz-adv-x="580" 
d="M533 204q-8 -48 -30 -88t-55 -68.5t-77 -44t-96 -15.5q-53 0 -97.5 16t-76.5 45t-49.5 69.5t-17.5 88.5q0 26 4 49l12 67q20 109 85.5 161.5t169.5 51.5q56 0 101 -16.5t76.5 -46t48.5 -69.5t17 -88q0 -12 -1 -25t-3 -24zM386 294q1 5 1.5 12t0.5 15q0 39 -22 60.5
t-63 21.5q-44 0 -64 -23.5t-28 -67.5l-16 -90q-2 -10 -2 -21q0 -36 23 -58t62 -22q40 0 62.5 22.5t29.5 61.5zM549 738q-6 -38 -23 -68t-42.5 -50.5t-59 -31t-72.5 -10.5q-36 0 -68.5 9.5t-56.5 29t-37 49.5t-10 72h120q-4 -27 10.5 -45.5t48.5 -18.5q33 0 48.5 19t19.5 45
h122z" />
    <glyph glyph-name="Ohungarumlaut" unicode="&#x150;" 
d="M686 283q-11 -65 -38.5 -119.5t-69.5 -94t-98 -61.5t-126 -22q-69 0 -124.5 21t-95.5 58.5t-61.5 89t-21.5 113.5q0 17 1.5 33t4.5 33l16 89q26 143 108.5 217t225.5 74q65 0 120 -19.5t95 -56t62.5 -88t22.5 -115.5q0 -31 -6 -65zM532 386q2 11 3 22.5t1 19.5
q0 64 -36 103.5t-101 39.5q-70 0 -105.5 -41t-49.5 -118l-17 -95q-5 -28 -5 -50q0 -65 35.5 -101.5t102.5 -36.5q66 0 104.5 43.5t50.5 115.5zM633 750h-158l82 148h191zM413 750h-152l64 148h177z" />
    <glyph glyph-name="ohungarumlaut" unicode="&#x151;" horiz-adv-x="580" 
d="M533 204q-8 -48 -30 -88t-55 -68.5t-77 -44t-96 -15.5q-53 0 -97.5 16t-76.5 45t-49.5 69.5t-17.5 88.5q0 26 4 49l12 67q20 109 85.5 161.5t169.5 51.5q56 0 101 -16.5t76.5 -46t48.5 -69.5t17 -88q0 -12 -1 -25t-3 -24zM386 294q1 5 1.5 12t0.5 15q0 39 -22 60.5
t-63 21.5q-44 0 -64 -23.5t-28 -67.5l-16 -90q-2 -10 -2 -21q0 -36 23 -58t62 -22q40 0 62.5 22.5t29.5 61.5zM524 578h-157l86 160h194zM309 578h-152l72 160h181z" />
    <glyph glyph-name="OE" unicode="&#x152;" horiz-adv-x="1053" 
d="M356 0q-82 0 -143.5 25.5t-100 71t-52.5 108.5t-1 138l10 57q14 81 44.5 138t77.5 93t110 52.5t142 16.5h628l-25 -143h-323l-23 -131h294l-26 -143h-294l-24 -140h324l-25 -143h-593zM229 329q-8 -46 -1.5 -81t25.5 -58t49.5 -35t69.5 -12h106l73 414h-119
q-46 0 -79 -11.5t-56 -33t-37 -53.5t-21 -74z" />
    <glyph glyph-name="oe" unicode="&#x153;" horiz-adv-x="914" 
d="M534 209q-1 -5 -1.5 -11t-0.5 -12q0 -38 22 -59t64 -21q33 0 53 15.5t27 34.5h148q-11 -37 -31.5 -67.5t-51.5 -53t-70.5 -35t-87.5 -12.5q-50 0 -94 16t-66 42q-24 -25 -68.5 -41.5t-101.5 -16.5q-53 0 -97.5 15.5t-76.5 44t-49.5 69t-17.5 90.5q0 26 4 49l12 67
q20 109 85.5 161.5t169.5 51.5q53 -1 97.5 -17.5t72.5 -43.5q33 28 72 44.5t104 16.5q52 0 94 -14.5t71.5 -41t45 -63.5t15.5 -83q0 -11 -1.5 -24.5t-3.5 -24.5l-13 -76h-325zM386 294q1 5 1.5 12t0.5 15q0 39 -22 60.5t-63 21.5q-44 0 -64 -23.5t-28 -67.5l-16 -90
q-2 -10 -2 -21q0 -36 23 -58t62 -22q40 0 62.5 22.5t29.5 61.5zM551 307h171l2 10q1 5 1.5 12t0.5 12q0 35 -20.5 55t-55.5 20q-45 0 -67.5 -27t-30.5 -76z" />
    <glyph glyph-name="Racute" unicode="&#x154;" horiz-adv-x="711" 
d="M352 208h-119l-36 -208h-172l123 700h326q50 0 90.5 -17t69.5 -46.5t44.5 -69.5t15.5 -86q0 -92 -44 -156t-123 -94l102 -231h-193zM392 344q60 0 95.5 34t35.5 92q0 41 -24.5 66.5t-67.5 25.5h-135l-39 -218h135zM309 750l93 148h208l-129 -148h-172z" />
    <glyph glyph-name="racute" unicode="&#x155;" horiz-adv-x="392" 
d="M384 363h-22q-60 0 -92 -26.5t-44 -92.5l-43 -244h-168l92 524h159l-14 -80q19 50 57.5 67t94.5 17h9zM176 578l86 160h222l-141 -160h-167z" />
    <glyph glyph-name="Rcommaaccent" unicode="&#x156;" horiz-adv-x="711" 
d="M352 208h-119l-36 -208h-172l123 700h326q50 0 90.5 -17t69.5 -46.5t44.5 -69.5t15.5 -86q0 -92 -44 -156t-123 -94l102 -231h-193zM392 344q60 0 95.5 34t35.5 92q0 41 -24.5 66.5t-67.5 25.5h-135l-39 -218h135zM224 -70h191l-108 -180h-141z" />
    <glyph glyph-name="rcommaaccent" unicode="&#x157;" horiz-adv-x="392" 
d="M384 363h-22q-60 0 -92 -26.5t-44 -92.5l-43 -244h-168l92 524h159l-14 -80q19 50 57.5 67t94.5 17h9zM-5 -70h191l-108 -180h-141z" />
    <glyph glyph-name="Rcaron" unicode="&#x158;" horiz-adv-x="711" 
d="M352 208h-119l-36 -208h-172l123 700h326q50 0 90.5 -17t69.5 -46.5t44.5 -69.5t15.5 -86q0 -92 -44 -156t-123 -94l102 -231h-193zM392 344q60 0 95.5 34t35.5 92q0 41 -24.5 66.5t-67.5 25.5h-135l-39 -218h135zM241 898h153l35 -58l53 58h162l-146 -148h-163z" />
    <glyph glyph-name="rcaron" unicode="&#x159;" horiz-adv-x="392" 
d="M384 363h-22q-60 0 -92 -26.5t-44 -92.5l-43 -244h-168l92 524h159l-14 -80q19 50 57.5 67t94.5 17h9zM353 578h-162l-84 160h150l31 -67l51 67h156z" />
    <glyph glyph-name="Sacute" unicode="&#x15a;" horiz-adv-x="655" 
d="M613 244q0 -59 -23 -107t-63.5 -81.5t-97 -51.5t-122.5 -18q-57 0 -109 15t-89 43.5t-55 70.5t-8 95l3 16h164l-2 -11q-5 -25 3 -43t24 -29t38 -16.5t46 -5.5q23 0 45 5.5t38.5 16.5t26.5 27.5t10 39.5q0 20 -12.5 35t-35.5 20l-149 36q-72 17 -110.5 55t-38.5 106
q0 124 75.5 188t215.5 64q52 0 100.5 -14t83 -42t51.5 -69.5t6 -95.5l-1 -5h-162l1 5q4 22 -2.5 38.5t-20.5 27t-33.5 15.5t-40.5 5q-18 0 -36.5 -4t-33.5 -13t-24.5 -24.5t-9.5 -39.5q0 -19 10 -29.5t30 -15.5l160 -41q72 -19 110 -62t38 -106zM311 750l93 148h208
l-129 -148h-172z" />
    <glyph glyph-name="sacute" unicode="&#x15b;" horiz-adv-x="518" 
d="M480 187q0 -48 -21 -85t-56 -62.5t-81 -38.5t-96 -13q-41 0 -80 8.5t-69 26t-48 44t-18 62.5q0 6 0.5 12.5t1.5 11.5l2 12h148l-1 -5q-3 -16 3.5 -26.5t18 -17t26.5 -9t30 -2.5q13 0 27 2.5t26 8.5t19.5 16t7.5 25q0 24 -29 31l-133 29q-54 12 -80 43.5t-26 79.5
q0 50 18 87t50 61t76 36t96 12q38 0 76.5 -9.5t68.5 -29.5t47 -52t12 -78l-1 -9h-147l1 10q3 28 -18 39.5t-49 11.5q-26 0 -48.5 -11t-22.5 -39q0 -22 28 -28l135 -32q52 -13 79 -45t27 -77zM223 578l86 160h222l-141 -160h-167z" />
    <glyph glyph-name="Scircumflex" unicode="&#x15c;" horiz-adv-x="655" 
d="M613 244q0 -59 -23 -107t-63.5 -81.5t-97 -51.5t-122.5 -18q-57 0 -109 15t-89 43.5t-55 70.5t-8 95l3 16h164l-2 -11q-5 -25 3 -43t24 -29t38 -16.5t46 -5.5q23 0 45 5.5t38.5 16.5t26.5 27.5t10 39.5q0 20 -12.5 35t-35.5 20l-149 36q-72 17 -110.5 55t-38.5 106
q0 124 75.5 188t215.5 64q52 0 100.5 -14t83 -42t51.5 -69.5t6 -95.5l-1 -5h-162l1 5q4 22 -2.5 38.5t-20.5 27t-33.5 15.5t-40.5 5q-18 0 -36.5 -4t-33.5 -13t-24.5 -24.5t-9.5 -39.5q0 -19 10 -29.5t30 -15.5l160 -41q72 -19 110 -62t38 -106zM600 750h-151l-35 58
l-54 -58h-163l146 148h163z" />
    <glyph glyph-name="scircumflex" unicode="&#x15d;" horiz-adv-x="518" 
d="M480 187q0 -48 -21 -85t-56 -62.5t-81 -38.5t-96 -13q-41 0 -80 8.5t-69 26t-48 44t-18 62.5q0 6 0.5 12.5t1.5 11.5l2 12h148l-1 -5q-3 -16 3.5 -26.5t18 -17t26.5 -9t30 -2.5q13 0 27 2.5t26 8.5t19.5 16t7.5 25q0 24 -29 31l-133 29q-54 12 -80 43.5t-26 79.5
q0 50 18 87t50 61t76 36t96 12q38 0 76.5 -9.5t68.5 -29.5t47 -52t12 -78l-1 -9h-147l1 10q3 28 -18 39.5t-49 11.5q-26 0 -48.5 -11t-22.5 -39q0 -22 28 -28l135 -32q52 -13 79 -45t27 -77zM513 578h-150l-30 65l-54 -65h-154l142 160h162z" />
    <glyph glyph-name="Scedilla" unicode="&#x15e;" horiz-adv-x="655" 
d="M416 -98q0 -45 -38 -66.5t-92 -21.5q-20 0 -41 1.5t-36 4.5l11 61q8 -2 19 -3t20 -1q17 0 27.5 4.5t10.5 15.5q0 17 -31 20l-27 3l25 69q-50 5 -94 22t-74.5 45t-44.5 67t-5 87l3 16h164l-2 -11q-5 -25 3 -43t24 -29t38 -16.5t46 -5.5q23 0 45 5.5t38.5 16.5t26.5 27.5
t10 39.5q0 20 -12.5 35t-35.5 20l-149 36q-72 17 -110.5 55t-38.5 106q0 124 75.5 188t215.5 64q52 0 100.5 -14t83 -42t51.5 -69.5t6 -95.5l-1 -5h-162l1 5q4 22 -2.5 38.5t-20.5 27t-33.5 15.5t-40.5 5q-18 0 -36.5 -4t-33.5 -13t-24.5 -24.5t-9.5 -39.5q0 -19 10 -29.5
t30 -15.5l160 -41q72 -19 110 -62t38 -106q0 -56 -20.5 -101.5t-56.5 -78.5t-86.5 -53t-110.5 -24l-6 -20l18 -2q31 -4 48 -20t17 -43z" />
    <glyph glyph-name="scedilla" unicode="&#x15f;" horiz-adv-x="518" 
d="M338 -98q0 -45 -38 -66.5t-92 -21.5q-20 0 -41 1.5t-36 4.5l11 61q8 -2 19 -3t20 -1q17 0 27.5 4.5t10.5 15.5q0 17 -31 20l-27 3l26 70q-36 4 -68 14t-56 27.5t-38 41.5t-14 56q0 6 0.5 12.5t1.5 11.5l2 12h148l-1 -5q-3 -16 3.5 -26.5t18 -17t26.5 -9t30 -2.5
q13 0 27 2.5t26 8.5t19.5 16t7.5 25q0 24 -29 31l-133 29q-54 12 -80 43.5t-26 79.5q0 50 18 87t50 61t76 36t96 12q38 0 76.5 -9.5t68.5 -29.5t47 -52t12 -78l-1 -9h-147l1 10q3 28 -18 39.5t-49 11.5q-26 0 -48.5 -11t-22.5 -39q0 -22 28 -28l135 -32q52 -13 79 -45
t27 -77q0 -44 -17.5 -78.5t-47.5 -59.5t-69.5 -40t-83.5 -19l-7 -23l18 -2q31 -4 48 -20t17 -43z" />
    <glyph glyph-name="Scaron" unicode="&#x160;" horiz-adv-x="655" 
d="M613 244q0 -59 -23 -107t-63.5 -81.5t-97 -51.5t-122.5 -18q-57 0 -109 15t-89 43.5t-55 70.5t-8 95l3 16h164l-2 -11q-5 -25 3 -43t24 -29t38 -16.5t46 -5.5q23 0 45 5.5t38.5 16.5t26.5 27.5t10 39.5q0 20 -12.5 35t-35.5 20l-149 36q-72 17 -110.5 55t-38.5 106
q0 124 75.5 188t215.5 64q52 0 100.5 -14t83 -42t51.5 -69.5t6 -95.5l-1 -5h-162l1 5q4 22 -2.5 38.5t-20.5 27t-33.5 15.5t-40.5 5q-18 0 -36.5 -4t-33.5 -13t-24.5 -24.5t-9.5 -39.5q0 -19 10 -29.5t30 -15.5l160 -41q72 -19 110 -62t38 -106zM230 898h153l35 -58l53 58
h162l-146 -148h-163z" />
    <glyph glyph-name="scaron" unicode="&#x161;" horiz-adv-x="518" 
d="M480 187q0 -48 -21 -85t-56 -62.5t-81 -38.5t-96 -13q-41 0 -80 8.5t-69 26t-48 44t-18 62.5q0 6 0.5 12.5t1.5 11.5l2 12h148l-1 -5q-3 -16 3.5 -26.5t18 -17t26.5 -9t30 -2.5q13 0 27 2.5t26 8.5t19.5 16t7.5 25q0 24 -29 31l-133 29q-54 12 -80 43.5t-26 79.5
q0 50 18 87t50 61t76 36t96 12q38 0 76.5 -9.5t68.5 -29.5t47 -52t12 -78l-1 -9h-147l1 10q3 28 -18 39.5t-49 11.5q-26 0 -48.5 -11t-22.5 -39q0 -22 28 -28l135 -32q52 -13 79 -45t27 -77zM392 578h-162l-84 160h150l31 -67l51 67h156z" />
    <glyph glyph-name="Tcommaaccent" unicode="&#x162;" horiz-adv-x="600" 
d="M651 700l-26 -145h-187l-97 -555h-172l97 555h-187l26 145h546zM147 -70h191l-108 -180h-141z" />
    <glyph glyph-name="tcommaaccent" unicode="&#x163;" horiz-adv-x="392" 
d="M330 665l-25 -141h101l-23 -130h-101l-39 -224q-6 -34 31 -34h55l-23 -136h-104q-63 0 -98 32t-35 89q0 16 3 34l42 239h-68l23 130h68l25 141h168zM73 -70h191l-108 -180h-141z" />
    <glyph glyph-name="Tcaron" unicode="&#x164;" horiz-adv-x="600" 
d="M651 700l-26 -145h-187l-97 -555h-172l97 555h-187l26 145h546zM206 898h153l35 -58l53 58h162l-146 -148h-163z" />
    <glyph glyph-name="tcaron" unicode="&#x165;" horiz-adv-x="425" 
d="M403 740h169l-87 -170h-133zM330 665l-25 -141h101l-23 -130h-101l-39 -224q-6 -34 31 -34h55l-23 -136h-104q-63 0 -98 32t-35 89q0 16 3 34l42 239h-68l23 130h68l25 141h168z" />
    <glyph glyph-name="Tbar" unicode="&#x166;" horiz-adv-x="600" 
d="M651 700l-26 -145h-187l-29 -163h120l-25 -139h-119l-44 -253h-172l44 253h-119l25 139h118l29 163h-187l26 145h546z" />
    <glyph glyph-name="tbar" unicode="&#x167;" horiz-adv-x="392" 
d="M330 665l-25 -141h101l-23 -130h-101l-12 -66h83l-21 -122h-83l-6 -36q-6 -34 31 -34h55l-23 -136h-104q-63 0 -98 32t-35 89q0 16 3 34l9 51h-67l21 122h67l12 66h-68l23 130h68l25 141h168z" />
    <glyph glyph-name="Utilde" unicode="&#x168;" horiz-adv-x="723" 
d="M564 700h172l-77 -439q-11 -63 -38.5 -113.5t-69 -86.5t-96.5 -55.5t-121 -19.5q-52 0 -101 15t-87 44t-61 72.5t-23 99.5q0 13 1 23t3 21l77 439h172l-78 -444q-1 -5 -1.5 -11.5t-0.5 -14.5q0 -46 28.5 -73.5t82.5 -27.5t92 34.5t49 97.5zM543 750q-20 0 -43 5t-46 10.5
t-44.5 10.5t-37.5 5q-17 0 -26.5 -10.5t-14.5 -26.5l-95 28q8 31 19 56.5t28 43.5t41.5 28t58.5 10q23 0 47.5 -5t47 -10.5t41 -10.5t30.5 -5q20 0 28.5 12t14.5 26l95 -31q-10 -33 -21.5 -58.5t-28 -42.5t-39.5 -26t-55 -9z" />
    <glyph glyph-name="utilde" unicode="&#x169;" horiz-adv-x="601" 
d="M588 524l-92 -524h-161l11 59q-8 -14 -23 -26.5t-35 -22.5t-43 -16t-47 -6q-75 0 -116.5 44t-41.5 116q0 14 1 25t3 22l58 329h168l-55 -314q-2 -10 -2 -18q0 -29 16.5 -45.5t48.5 -16.5q34 0 57 20t30 60l55 314h168zM446 578q-18 0 -38 5t-39.5 11t-39 11t-35.5 5
q-17 0 -27 -10.5t-18 -27.5l-90 34q17 64 47.5 98t92.5 34q21 0 43 -5t42 -11t36.5 -11t27.5 -5q19 0 28 11.5t17 26.5l89 -38q-8 -27 -20 -50.5t-28.5 -40.5t-38 -27t-49.5 -10z" />
    <glyph glyph-name="Umacron" unicode="&#x16a;" horiz-adv-x="723" 
d="M564 700h172l-77 -439q-11 -63 -38.5 -113.5t-69 -86.5t-96.5 -55.5t-121 -19.5q-52 0 -101 15t-87 44t-61 72.5t-23 99.5q0 13 1 23t3 21l77 439h172l-78 -444q-1 -5 -1.5 -11.5t-0.5 -14.5q0 -46 28.5 -73.5t82.5 -27.5t92 34.5t49 97.5zM260 759l23 130h369l-23 -130
h-369z" />
    <glyph glyph-name="umacron" unicode="&#x16b;" horiz-adv-x="601" 
d="M588 524l-92 -524h-161l11 59q-8 -14 -23 -26.5t-35 -22.5t-43 -16t-47 -6q-75 0 -116.5 44t-41.5 116q0 14 1 25t3 22l58 329h168l-55 -314q-2 -10 -2 -18q0 -29 16.5 -45.5t48.5 -16.5q34 0 57 20t30 60l55 314h168zM196 598l22 127h343l-22 -127h-343z" />
    <glyph glyph-name="Ubreve" unicode="&#x16c;" horiz-adv-x="723" 
d="M564 700h172l-77 -439q-11 -63 -38.5 -113.5t-69 -86.5t-96.5 -55.5t-121 -19.5q-52 0 -101 15t-87 44t-61 72.5t-23 99.5q0 13 1 23t3 21l77 439h172l-78 -444q-1 -5 -1.5 -11.5t-0.5 -14.5q0 -46 28.5 -73.5t82.5 -27.5t92 34.5t49 97.5zM663 898q-6 -38 -24 -66
t-45.5 -46t-63.5 -27t-76 -9q-38 0 -71.5 9t-57.5 27.5t-36 46t-6 65.5h129q-3 -24 11.5 -38t42.5 -14q29 0 46.5 14.5t21.5 37.5h129z" />
    <glyph glyph-name="ubreve" unicode="&#x16d;" horiz-adv-x="601" 
d="M588 524l-92 -524h-161l11 59q-8 -14 -23 -26.5t-35 -22.5t-43 -16t-47 -6q-75 0 -116.5 44t-41.5 116q0 14 1 25t3 22l58 329h168l-55 -314q-2 -10 -2 -18q0 -29 16.5 -45.5t48.5 -16.5q34 0 57 20t30 60l55 314h168zM564 738q-6 -38 -23 -68t-42.5 -50.5t-59 -31
t-72.5 -10.5q-36 0 -68.5 9.5t-56.5 29t-37 49.5t-10 72h120q-4 -27 10.5 -45.5t48.5 -18.5q33 0 48.5 19t19.5 45h122z" />
    <glyph glyph-name="Uring" unicode="&#x16e;" horiz-adv-x="723" 
d="M564 700h172l-77 -439q-11 -63 -38.5 -113.5t-69 -86.5t-96.5 -55.5t-121 -19.5q-52 0 -101 15t-87 44t-61 72.5t-23 99.5q0 13 1 23t3 21l77 439h172l-78 -444q-1 -5 -1.5 -11.5t-0.5 -14.5q0 -46 28.5 -73.5t82.5 -27.5t92 34.5t49 97.5zM566 852q0 -24 -9.5 -42.5
t-25.5 -32t-37 -20.5t-44 -7q-21 0 -40 6t-34 18t-24 29t-9 38q0 46 31.5 74.5t82.5 28.5q21 0 40.5 -6t35 -18t24.5 -29t9 -39zM457 888q-22 0 -34.5 -11.5t-12.5 -32.5q0 -18 13 -28t31 -10q21 0 33.5 12t12.5 31q0 17 -12 28t-31 11z" />
    <glyph glyph-name="uring" unicode="&#x16f;" horiz-adv-x="601" 
d="M588 524l-92 -524h-161l11 59q-8 -14 -23 -26.5t-35 -22.5t-43 -16t-47 -6q-75 0 -116.5 44t-41.5 116q0 14 1 25t3 22l58 329h168l-55 -314q-2 -10 -2 -18q0 -29 16.5 -45.5t48.5 -16.5q34 0 57 20t30 60l55 314h168zM479 680q0 -24 -9.5 -42.5t-25.5 -32t-37 -20.5
t-44 -7q-21 0 -40 6t-34 18t-24 29t-9 38q0 46 31.5 74.5t82.5 28.5q21 0 40.5 -6t35 -18t24.5 -29t9 -39zM370 716q-22 0 -34.5 -11.5t-12.5 -32.5q0 -18 13 -28t31 -10q21 0 33.5 12t12.5 31q0 17 -12 28t-31 11z" />
    <glyph glyph-name="Uhungarumlaut" unicode="&#x170;" horiz-adv-x="723" 
d="M564 700h172l-77 -439q-11 -63 -38.5 -113.5t-69 -86.5t-96.5 -55.5t-121 -19.5q-52 0 -101 15t-87 44t-61 72.5t-23 99.5q0 13 1 23t3 21l77 439h172l-78 -444q-1 -5 -1.5 -11.5t-0.5 -14.5q0 -46 28.5 -73.5t82.5 -27.5t92 34.5t49 97.5zM637 750h-158l82 148h191z
M417 750h-152l64 148h177z" />
    <glyph glyph-name="uhungarumlaut" unicode="&#x171;" horiz-adv-x="601" 
d="M588 524l-92 -524h-161l11 59q-8 -14 -23 -26.5t-35 -22.5t-43 -16t-47 -6q-75 0 -116.5 44t-41.5 116q0 14 1 25t3 22l58 329h168l-55 -314q-2 -10 -2 -18q0 -29 16.5 -45.5t48.5 -16.5q34 0 57 20t30 60l55 314h168zM528 578h-157l86 160h194zM313 578h-152l72 160h181
z" />
    <glyph glyph-name="Uogonek" unicode="&#x172;" horiz-adv-x="723" 
d="M419 -174q-7 -3 -29 -7.5t-46 -4.5q-52 0 -80.5 24.5t-28.5 63.5q0 29 17 51.5t37 35.5q-45 6 -86.5 23.5t-72.5 46t-49.5 68.5t-18.5 90q0 13 1 23t3 21l77 439h172l-78 -444q-1 -5 -1.5 -11.5t-0.5 -14.5q0 -46 28.5 -73.5t82.5 -27.5t92 34.5t49 97.5l77 439h172
l-77 -439q-16 -88 -60 -147.5t-122 -99.5q-41 -21 -64.5 -42t-23.5 -46q0 -19 23 -19q10 0 21 3z" />
    <glyph glyph-name="uogonek" unicode="&#x173;" horiz-adv-x="601" 
d="M462 -174q-7 -3 -29 -7.5t-46 -4.5q-52 0 -80.5 24.5t-28.5 63.5q0 31 15.5 56t41.5 42l11 59q-8 -14 -23 -26.5t-35 -22.5t-43 -16t-47 -6q-75 0 -116.5 44t-41.5 116q0 14 1 25t3 22l58 329h168l-55 -314q-2 -10 -2 -18q0 -29 16.5 -45.5t48.5 -16.5q34 0 57 20t30 60
l55 314h168l-92 -524q-8 -5 -19 -13t-21 -17.5t-17 -20.5t-7 -23q0 -19 23 -19q10 0 21 3z" />
    <glyph glyph-name="Wcircumflex" unicode="&#x174;" horiz-adv-x="981" 
d="M696 244l164 456h172l-290 -700h-161l-49 486l-220 -486h-161l-45 700h170l6 -456l201 456h163zM773 750h-151l-35 58l-54 -58h-163l146 148h163z" />
    <glyph glyph-name="wcircumflex" unicode="&#x175;" horiz-adv-x="805" 
d="M561 206l115 318h163l-227 -524h-151l-46 317l-155 -317h-152l-43 524h161l5 -318l147 318h144zM653 578h-150l-30 65l-54 -65h-154l142 160h162z" />
    <glyph glyph-name="Ycircumflex" unicode="&#x176;" horiz-adv-x="652" 
d="M405 233l-41 -233h-172l44 250l-154 450h185l82 -294l179 294h192zM603 750h-151l-35 58l-54 -58h-163l146 148h163z" />
    <glyph glyph-name="ycircumflex" unicode="&#x177;" horiz-adv-x="530" 
d="M61 -175l86 180l-93 519h167l35 -353l142 353h170l-338 -698zM514 578h-150l-30 65l-54 -65h-154l142 160h162z" />
    <glyph glyph-name="Ydieresis" unicode="&#x178;" horiz-adv-x="652" 
d="M405 233l-41 -233h-172l44 250l-154 450h185l82 -294l179 294h192zM226 823q0 37 24.5 60t62.5 23q32 0 54.5 -19.5t22.5 -51.5q0 -34 -23 -59.5t-65 -25.5q-32 0 -54 20.5t-22 52.5zM454 823q0 37 24.5 60t62.5 23q32 0 54.5 -19.5t22.5 -51.5q0 -34 -23 -59.5
t-65 -25.5q-32 0 -54 20.5t-22 52.5z" />
    <glyph glyph-name="Zacute" unicode="&#x179;" horiz-adv-x="650" 
d="M152 700h497l-25 -143l-378 -414h316l-25 -143h-516l25 143l374 414h-293zM314 750l93 148h208l-129 -148h-172z" />
    <glyph glyph-name="zacute" unicode="&#x17a;" horiz-adv-x="524" 
d="M5 0l20 117l271 282h-212l22 125h414l-21 -117l-273 -282h231l-22 -125h-430zM233 578l86 160h222l-141 -160h-167z" />
    <glyph glyph-name="Zdotaccent" unicode="&#x17b;" horiz-adv-x="650" 
d="M152 700h497l-25 -143l-378 -414h316l-25 -143h-516l25 143l374 414h-293zM331 830q0 42 27.5 68t72.5 26q38 0 62 -22.5t24 -57.5q0 -40 -26.5 -67t-71.5 -27q-35 0 -61.5 21t-26.5 59z" />
    <glyph glyph-name="zdotaccent" unicode="&#x17c;" horiz-adv-x="524" 
d="M5 0l20 117l271 282h-212l22 125h414l-21 -117l-273 -282h231l-22 -125h-430zM246 651q0 42 27.5 68t72.5 26q38 0 62 -22.5t24 -57.5q0 -40 -26.5 -67t-71.5 -27q-35 0 -61.5 21t-26.5 59z" />
    <glyph glyph-name="Zcaron" unicode="&#x17d;" horiz-adv-x="650" 
d="M152 700h497l-25 -143l-378 -414h316l-25 -143h-516l25 143l374 414h-293zM238 898h153l35 -58l53 58h162l-146 -148h-163z" />
    <glyph glyph-name="zcaron" unicode="&#x17e;" horiz-adv-x="524" 
d="M5 0l20 117l271 282h-212l22 125h414l-21 -117l-273 -282h231l-22 -125h-430zM409 578h-162l-84 160h150l31 -67l51 67h156z" />
    <glyph glyph-name="florin" unicode="&#x192;" horiz-adv-x="485" 
d="M81 313l24 137h85l28 107q20 78 62.5 110.5t111.5 32.5h117l-24 -137h-63q-18 0 -27 -7t-14 -25l-22 -81h79l-24 -137h-91l-93 -347q-19 -71 -63 -105.5t-124 -34.5h-93l23 137h46q23 0 34 9.5t16 26.5l83 314h-71z" />
    <glyph glyph-name="Aringacute" unicode="&#x1fa;" horiz-adv-x="714" 
d="M466 130h-247l-60 -130h-181l364 693q-10 20 -10 42q0 46 31.5 74.5t82.5 28.5q21 0 40.5 -6t35 -18t24.5 -29t9 -39q0 -42 -29 -69l125 -677h-168zM284 268h164l-36 275zM382 858l62 111h208l-98 -111h-172zM446 782q-22 0 -34.5 -11.5t-12.5 -32.5q0 -18 13 -28t31 -10
q21 0 33.5 12t12.5 31q0 17 -12 28t-31 11z" />
    <glyph glyph-name="aringacute" unicode="&#x1fb;" horiz-adv-x="602" 
d="M330 782l62 111h208l-98 -111h-172zM499 668q0 -23 -9.5 -40.5t-25.5 -30.5t-37 -19.5t-44 -6.5q-46 0 -76.5 22.5t-30.5 63.5q0 44 31 71t83 27q46 0 77.5 -22t31.5 -65zM390 699q-22 0 -34.5 -10t-12.5 -29q0 -16 12 -24.5t32 -8.5q21 0 33.5 10.5t12.5 27.5
q0 16 -12 25t-31 9zM341 0l8 45q-17 -23 -58.5 -40t-91.5 -17q-36 0 -68 10t-56.5 30t-39 48.5t-14.5 66.5q0 44 15 77t42.5 54.5t65.5 32.5t84 11q58 0 95 -14t59 -31l11 63q5 31 -14 50.5t-54 19.5q-27 0 -44.5 -10t-31.5 -29h-154q32 88 94.5 128.5t150.5 40.5
q48 0 88.5 -14t70 -38.5t46 -58t16.5 -73.5q0 -18 -3 -34l-56 -318h-161zM263 94q16 0 33 4t31.5 12t24 20t9.5 29q0 15 -8.5 25.5t-22.5 18t-31 11t-33 3.5q-17 0 -32.5 -3.5t-28 -11t-20 -19.5t-7.5 -30q0 -27 23.5 -43t61.5 -16z" />
    <glyph glyph-name="AEacute" unicode="&#x1fc;" horiz-adv-x="1088" 
d="M601 750l93 148h208l-129 -148h-172zM511 130h-264l-104 -130h-188l587 700h564l-25 -143h-323l-23 -131h294l-26 -143h-294l-24 -140h324l-25 -143h-496zM535 268l50 286l-227 -286h177z" />
    <glyph glyph-name="aeacute" unicode="&#x1fd;" horiz-adv-x="917" 
d="M409 578l86 160h222l-141 -160h-167zM539 209q-1 -5 -1.5 -11t-0.5 -12q0 -38 22 -59t64 -21q33 0 53 15.5t27 34.5h148q-11 -37 -31.5 -67.5t-51.5 -53t-70.5 -35t-87.5 -12.5q-56 0 -102 18.5t-73 56.5q-29 -28 -83.5 -51.5t-127.5 -23.5q-48 0 -86 12.5t-64 34
t-39.5 50.5t-13.5 63q0 42 15 74t42.5 53.5t65.5 32.5t84 11q58 0 95 -14.5t59 -31.5l11 63q5 31 -14 50.5t-54 19.5q-27 0 -44.5 -10t-31.5 -29h-154q33 87 95 128t150 41q45 0 83.5 -14t67.5 -37q29 24 71.5 37.5t93.5 13.5q52 0 94 -14.5t71.5 -41t45 -63.5t15.5 -83
q0 -11 -1.5 -24.5t-3.5 -24.5l-13 -76h-325zM263 93q16 0 33 4t31.5 12.5t24 21t9.5 29.5q0 26 -24.5 42t-59.5 16q-41 0 -70 -15t-29 -51q0 -26 23 -42.5t62 -16.5zM556 307h171l2 10q1 5 1.5 12t0.5 12q0 35 -20.5 55t-55.5 20q-45 0 -67.5 -27t-30.5 -76z" />
    <glyph glyph-name="Oslashacute" unicode="&#x1fe;" 
d="M338 750l93 148h208l-129 -148h-172zM686 283q-11 -65 -38.5 -119.5t-69.5 -94t-98 -61.5t-126 -22q-104 0 -178 46l-67 -82h-120l118 144q-27 35 -41.5 79t-14.5 95q0 17 1.5 33t4.5 33l16 89q26 143 108.5 217t225.5 74q100 0 174 -45l67 81h120l-117 -142
q26 -35 41 -78t15 -95q0 -31 -6 -65zM532 386q2 14 3 24t1 18q0 9 -1 18.5t-3 17.5l-257 -313q34 -22 85 -22q66 0 104.5 43.5t50.5 115.5zM222 267q0 -8 0.5 -16t1.5 -15l257 311q-14 11 -36 17.5t-46 6.5q-70 0 -105.5 -41t-49.5 -118l-17 -95q-5 -28 -5 -50z" />
    <glyph glyph-name="oslashacute" unicode="&#x1ff;" horiz-adv-x="580" 
d="M246 578l86 160h222l-141 -160h-167zM533 204q-8 -48 -30 -88t-55 -68.5t-77 -44t-96 -15.5q-82 0 -142 37l-63 -75h-86l99 117q-23 28 -36 63t-13 77q0 26 4 49l12 67q20 109 84 161t168 52q36 0 73 -8.5t73 -28.5l65 76h85l-100 -118q24 -28 37 -63.5t13 -77.5
q0 -12 -1 -25t-3 -24zM386 294q2 7 2 17v15l-162 -191q22 -14 52 -14q40 0 62.5 22.5t29.5 61.5zM356 389q-22 14 -53 14q-44 0 -64 -23.5t-28 -67.5l-16 -90q-1 -4 -1.5 -11.5t-0.5 -13.5z" />
    <glyph glyph-name="Scommaaccent" unicode="&#x218;" horiz-adv-x="655" 
d="M613 244q0 -59 -23 -107t-63.5 -81.5t-97 -51.5t-122.5 -18q-57 0 -109 15t-89 43.5t-55 70.5t-8 95l3 16h164l-2 -11q-5 -25 3 -43t24 -29t38 -16.5t46 -5.5q23 0 45 5.5t38.5 16.5t26.5 27.5t10 39.5q0 20 -12.5 35t-35.5 20l-149 36q-72 17 -110.5 55t-38.5 106
q0 124 75.5 188t215.5 64q52 0 100.5 -14t83 -42t51.5 -69.5t6 -95.5l-1 -5h-162l1 5q4 22 -2.5 38.5t-20.5 27t-33.5 15.5t-40.5 5q-18 0 -36.5 -4t-33.5 -13t-24.5 -24.5t-9.5 -39.5q0 -19 10 -29.5t30 -15.5l160 -41q72 -19 110 -62t38 -106zM206 -70h191l-108 -180h-141
z" />
    <glyph glyph-name="scommaaccent" unicode="&#x219;" horiz-adv-x="518" 
d="M480 187q0 -48 -21 -85t-56 -62.5t-81 -38.5t-96 -13q-41 0 -80 8.5t-69 26t-48 44t-18 62.5q0 6 0.5 12.5t1.5 11.5l2 12h148l-1 -5q-3 -16 3.5 -26.5t18 -17t26.5 -9t30 -2.5q13 0 27 2.5t26 8.5t19.5 16t7.5 25q0 24 -29 31l-133 29q-54 12 -80 43.5t-26 79.5
q0 50 18 87t50 61t76 36t96 12q38 0 76.5 -9.5t68.5 -29.5t47 -52t12 -78l-1 -9h-147l1 10q3 28 -18 39.5t-49 11.5q-26 0 -48.5 -11t-22.5 -39q0 -22 28 -28l135 -32q52 -13 79 -45t27 -77zM117 -70h191l-108 -180h-141z" />
    <glyph glyph-name="circumflex" unicode="&#x2c6;" horiz-adv-x="528" 
d="M511 578h-150l-30 65l-54 -65h-154l142 160h162z" />
    <glyph glyph-name="caron" unicode="&#x2c7;" horiz-adv-x="528" 
d="M395 578h-162l-84 160h150l31 -67l51 67h156z" />
    <glyph glyph-name="breve" unicode="&#x2d8;" horiz-adv-x="511" 
d="M516 738q-6 -38 -23 -68t-42.5 -50.5t-59 -31t-72.5 -10.5q-36 0 -68.5 9.5t-56.5 29t-37 49.5t-10 72h120q-4 -27 10.5 -45.5t48.5 -18.5q33 0 48.5 19t19.5 45h122z" />
    <glyph glyph-name="dotaccent" unicode="&#x2d9;" horiz-adv-x="308" 
d="M121 651q0 42 27.5 68t72.5 26q38 0 62 -22.5t24 -57.5q0 -40 -26.5 -67t-71.5 -27q-35 0 -61.5 21t-26.5 59z" />
    <glyph glyph-name="ring" unicode="&#x2da;" horiz-adv-x="363" 
d="M359 680q0 -24 -9.5 -42.5t-25.5 -32t-37 -20.5t-44 -7q-21 0 -40 6t-34 18t-24 29t-9 38q0 46 31.5 74.5t82.5 28.5q21 0 40.5 -6t35 -18t24.5 -29t9 -39zM250 716q-22 0 -34.5 -11.5t-12.5 -32.5q0 -18 13 -28t31 -10q21 0 33.5 12t12.5 31q0 17 -12 28t-31 11z" />
    <glyph glyph-name="ogonek" unicode="&#x2db;" horiz-adv-x="341" 
d="M183 -174q-7 -3 -29 -7.5t-46 -4.5q-52 0 -80.5 24.5t-28.5 63.5q0 31 16 56t42 42h160q-8 -5 -19 -13t-21 -17.5t-17 -20.5t-7 -23q0 -19 23 -19q10 0 21 3z" />
    <glyph glyph-name="tilde" unicode="&#x2dc;" horiz-adv-x="543" 
d="M415 578q-18 0 -38 5t-39.5 11t-39 11t-35.5 5q-17 0 -27 -10.5t-18 -27.5l-90 34q17 64 47.5 98t92.5 34q21 0 43 -5t42 -11t36.5 -11t27.5 -5q19 0 28 11.5t17 26.5l89 -38q-8 -27 -20 -50.5t-28.5 -40.5t-38 -27t-49.5 -10z" />
    <glyph glyph-name="hungarumlaut" unicode="&#x2dd;" horiz-adv-x="602" 
d="M509 578h-157l86 160h194zM294 578h-152l72 160h181z" />
    <glyph glyph-name="uni0312" unicode="&#x312;" horiz-adv-x="391" 
d="M384 738l-72 -160h-208l113 160h167z" />
    <glyph glyph-name="uni0315" unicode="&#x315;" horiz-adv-x="362" 
d="M202 730h182l-129 -238h-135z" />
    <glyph glyph-name="uni0326" unicode="&#x326;" horiz-adv-x="358" 
d="M60 -70h191l-108 -180h-141z" />
    <glyph glyph-name="Omega" unicode="&#x3a9;" horiz-adv-x="748" 
d="M720 441q0 -82 -34 -162.5t-97 -141.5h78l-24 -137h-250l24 137q61 53 95 130.5t34 161.5q0 66 -30.5 104t-99.5 38q-51 0 -85.5 -24.5t-55 -62.5t-29.5 -84.5t-9 -91.5q0 -52 13 -94t33 -77l-24 -137h-250l24 137h81q-20 35 -33.5 83.5t-13.5 104.5q0 79 23 150
t68.5 124t114 84t159.5 31q60 0 112.5 -18t91.5 -52.5t61.5 -85.5t22.5 -117z" />
    <glyph glyph-name="pi" unicode="&#x3c0;" horiz-adv-x="735" 
d="M606 392l-38 -216q-1 -5 -1 -7v-4q0 -30 40 -30h60l-24 -135h-105q-68 0 -106 32t-38 94q0 9 1 20.5t3 19.5l40 226h-111l-69 -392h-168l69 392h-95l23 132h655l-23 -132h-113z" />
    <glyph glyph-name="Wgrave" unicode="&#x1e80;" horiz-adv-x="981" 
d="M696 244l164 456h172l-290 -700h-161l-49 486l-220 -486h-161l-45 700h170l6 -456l201 456h163zM485 750l-77 148h196l41 -148h-160z" />
    <glyph glyph-name="wgrave" unicode="&#x1e81;" horiz-adv-x="805" 
d="M561 206l115 318h163l-227 -524h-151l-46 317l-155 -317h-152l-43 524h161l5 -318l147 318h144zM365 578l-83 160h205l39 -160h-161z" />
    <glyph glyph-name="Wacute" unicode="&#x1e82;" horiz-adv-x="981" 
d="M696 244l164 456h172l-290 -700h-161l-49 486l-220 -486h-161l-45 700h170l6 -456l201 456h163zM494 750l93 148h208l-129 -148h-172z" />
    <glyph glyph-name="wacute" unicode="&#x1e83;" horiz-adv-x="805" 
d="M561 206l115 318h163l-227 -524h-151l-46 317l-155 -317h-152l-43 524h161l5 -318l147 318h144zM380 578l86 160h222l-141 -160h-167z" />
    <glyph glyph-name="Wdieresis" unicode="&#x1e84;" horiz-adv-x="981" 
d="M696 244l164 456h172l-290 -700h-161l-49 486l-220 -486h-161l-45 700h170l6 -456l201 456h163zM390 823q0 37 24.5 60t62.5 23q32 0 54.5 -19.5t22.5 -51.5q0 -34 -23 -59.5t-65 -25.5q-32 0 -54 20.5t-22 52.5zM618 823q0 37 24.5 60t62.5 23q32 0 54.5 -19.5
t22.5 -51.5q0 -34 -23 -59.5t-65 -25.5q-32 0 -54 20.5t-22 52.5z" />
    <glyph glyph-name="wdieresis" unicode="&#x1e85;" horiz-adv-x="805" 
d="M561 206l115 318h163l-227 -524h-151l-46 317l-155 -317h-152l-43 524h161l5 -318l147 318h144zM292 652q0 37 24.5 60t62.5 23q32 0 54.5 -19.5t22.5 -51.5q0 -34 -23 -59.5t-65 -25.5q-32 0 -54 20.5t-22 52.5zM498 652q0 37 24.5 60t62.5 23q32 0 54.5 -19.5
t22.5 -51.5q0 -34 -23 -59.5t-65 -25.5q-32 0 -54 20.5t-22 52.5z" />
    <glyph glyph-name="Ygrave" unicode="&#x1ef2;" horiz-adv-x="652" 
d="M405 233l-41 -233h-172l44 250l-154 450h185l82 -294l179 294h192zM317 750l-77 148h196l41 -148h-160z" />
    <glyph glyph-name="ygrave" unicode="&#x1ef3;" horiz-adv-x="530" 
d="M61 -175l86 180l-93 519h167l35 -353l142 353h170l-338 -698zM233 578l-83 160h205l39 -160h-161z" />
    <glyph glyph-name="endash" unicode="&#x2013;" horiz-adv-x="614" 
d="M47 249l27 150h518l-27 -150h-518z" />
    <glyph glyph-name="emdash" unicode="&#x2014;" horiz-adv-x="913" 
d="M47 249l27 150h817l-27 -150h-817z" />
    <glyph glyph-name="quoteleft" unicode="&#x2018;" horiz-adv-x="298" 
d="M236 413h-192l152 287h142z" />
    <glyph glyph-name="quoteright" unicode="&#x2019;" horiz-adv-x="297" 
d="M155 700h192l-152 -287h-142z" />
    <glyph glyph-name="quotesinglbase" unicode="&#x201a;" horiz-adv-x="288" 
d="M49 150h192l-152 -287h-142z" />
    <glyph glyph-name="quotedblleft" unicode="&#x201c;" horiz-adv-x="567" 
d="M236 413h-192l152 287h142zM505 413h-192l152 287h142z" />
    <glyph glyph-name="quotedblright" unicode="&#x201d;" horiz-adv-x="567" 
d="M155 700h192l-152 -287h-142zM425 700h192l-152 -287h-142z" />
    <glyph glyph-name="quotedblbase" unicode="&#x201e;" horiz-adv-x="558" 
d="M49 150h192l-152 -287h-142zM319 150h192l-152 -287h-142z" />
    <glyph glyph-name="dagger" unicode="&#x2020;" horiz-adv-x="482" 
d="M101 540h124l28 160h134l-28 -160h124l-21 -116h-124l-92 -524h-134l92 524h-124z" />
    <glyph glyph-name="daggerdbl" unicode="&#x2021;" horiz-adv-x="492" 
d="M41 176h124l43 248h-124l21 116h124l28 160h134l-28 -160h124l-21 -116h-124l-43 -248h124l-21 -116h-124l-28 -160h-134l28 160h-124z" />
    <glyph glyph-name="bullet" unicode="&#x2022;" horiz-adv-x="435" 
d="M225 500q29 0 55 -10t46 -28.5t31.5 -43.5t11.5 -55t-11 -57t-30.5 -48t-47 -33.5t-61.5 -12.5q-30 0 -56 11t-45.5 30t-30.5 44.5t-11 54.5q0 31 11 58t30.5 47t47 31.5t60.5 11.5z" />
    <glyph glyph-name="ellipsis" unicode="&#x2026;" horiz-adv-x="834" 
d="M569 80q0 42 26.5 70t71.5 28q40 0 65 -24.5t25 -60.5q0 -42 -25.5 -71.5t-70.5 -29.5q-38 0 -65 23.5t-27 64.5zM291 80q0 42 26.5 70t71.5 28q40 0 65 -24.5t25 -60.5q0 -42 -25.5 -71.5t-70.5 -29.5q-38 0 -65 23.5t-27 64.5zM13 80q0 42 26.5 70t71.5 28
q40 0 65 -24.5t25 -60.5q0 -42 -25.5 -71.5t-70.5 -29.5q-38 0 -65 23.5t-27 64.5z" />
    <glyph glyph-name="perthousand" unicode="&#x2030;" horiz-adv-x="1304" 
d="M239 311q-34 0 -63.5 10.5t-52 30t-35.5 47t-13 60.5q0 12 3 29l14 79q14 75 57.5 109t121.5 34q72 0 116 -39.5t44 -104.5q0 -16 -3 -32l-14 -79q-12 -69 -57.5 -106.5t-117.5 -37.5zM191 465q-5 -26 10.5 -41t40.5 -15q47 0 56 52l16 90q5 25 -8.5 43t-43.5 18
q-24 0 -36.5 -12.5t-17.5 -37.5zM653 700h124l-482 -700h-124zM683 -10q-34 0 -63.5 10.5t-52 30t-35.5 47t-13 60.5q0 12 3 29l14 79q14 75 57.5 109t121.5 34q72 0 116 -39.5t44 -104.5q0 -16 -3 -32l-14 -79q-12 -69 -57.5 -106.5t-117.5 -37.5zM635 144q-5 -26 10.5 -41
t40.5 -15q47 0 56 52l16 90q5 25 -8.5 43t-43.5 18q-24 0 -36.5 -12.5t-17.5 -37.5zM1076 -10q-34 0 -63.5 10.5t-52 30t-35.5 47t-13 60.5q0 12 3 29l14 79q14 75 57.5 109t121.5 34q72 0 116 -39.5t44 -104.5q0 -16 -3 -32l-14 -79q-12 -69 -57.5 -106.5t-117.5 -37.5z
M1028 144q-5 -26 10.5 -41t40.5 -15q47 0 56 52l16 90q5 25 -8.5 43t-43.5 18q-24 0 -36.5 -12.5t-17.5 -37.5z" />
    <glyph glyph-name="guilsinglleft" unicode="&#x2039;" horiz-adv-x="404" 
d="M218 265l115 -205h-195l-119 218l190 218h201z" />
    <glyph glyph-name="guilsinglright" unicode="&#x203a;" horiz-adv-x="413" 
d="M202 291l-115 205h195l119 -218l-190 -218h-201z" />
    <glyph glyph-name="fraction" unicode="&#x2044;" horiz-adv-x="404" 
d="M396 700h124l-482 -700h-124z" />
    <glyph glyph-name="Euro" unicode="&#x20ac;" horiz-adv-x="681" 
d="M522 482q0 40 -22.5 69.5t-71.5 29.5q-40 0 -66.5 -24t-35.5 -69h124l-20 -111h-124l-9 -54h123l-19 -111h-123q-5 -43 21 -68t68 -25q25 0 44 8.5t32 23t21 32t12 35.5h152q-9 -47 -30 -89t-54.5 -73.5t-79.5 -50.5t-105 -19t-105.5 18.5t-78.5 50t-48.5 72.5t-14.5 85
h-69l19 111h68l9 54h-67l20 111h67q21 111 89 168.5t177 57.5q54 0 99.5 -14.5t78.5 -44t51.5 -73t19.5 -100.5h-152z" />
    <glyph glyph-name="published" unicode="&#x2117;" horiz-adv-x="829" 
d="M70 350q0 75 26.5 141t74.5 115t115 77.5t148 28.5q82 0 149 -28.5t115 -77.5t74.5 -115t26.5 -141t-26.5 -141t-74.5 -115t-115 -77.5t-149 -28.5q-81 0 -148 28.5t-115 77.5t-74.5 115t-26.5 141zM751 350q0 63 -22 121t-63 102.5t-100 71t-132 26.5t-131.5 -26.5
t-99.5 -71t-63 -102.5t-22 -121t22 -121t63 -102.5t99.5 -71t131.5 -26.5t132 26.5t100 71t63 102.5t22 121zM402 274v-101h-92v354h156q63 0 100 -35t37 -91q0 -57 -37.5 -92t-99.5 -35h-64zM511 400q0 22 -13.5 37t-41.5 15h-54v-103h54q28 0 41.5 14.5t13.5 36.5z" />
    <glyph glyph-name="trademark" unicode="&#x2122;" horiz-adv-x="678" 
d="M350 700l-12 -65h-87l-41 -235h-74l41 235h-87l12 65h248zM537 463h-66l-28 90l-27 -153h-72l53 300h67l51 -172l111 172h69l-53 -300h-72l27 152z" />
    <glyph glyph-name="arrowleft" unicode="&#x2190;" horiz-adv-x="1090" 
d="M1020 279h-563v142h563v-142zM614 700l-350 -350l350 -350h-204l-350 350l350 350h204z" />
    <glyph glyph-name="arrowup" unicode="&#x2191;" horiz-adv-x="860" 
d="M362 -174v486h156v-486h-156zM90 364l350 350l350 -350v-204l-350 350l-350 -350v204z" />
    <glyph glyph-name="arrowright" unicode="&#x2192;" horiz-adv-x="1090" 
d="M90 421h563v-142h-563v142zM496 0l350 350l-350 350h204l350 -350l-350 -350h-204z" />
    <glyph glyph-name="arrowdown" unicode="&#x2193;" horiz-adv-x="860" 
d="M518 700v-484h-156v484h156zM90 368l350 -350l350 350v-204l-350 -350l-350 350v204z" />
    <glyph glyph-name="uni2196" unicode="&#x2196;" horiz-adv-x="900" 
d="M720 0l-361 361l110 110l361 -361zM120 205v495h505l144 -144h-495v-495z" />
    <glyph glyph-name="uni2197" unicode="&#x2197;" horiz-adv-x="900" 
d="M90 110l361 361l110 -110l-361 -361zM646 61v495h-495l144 144h505v-495z" />
    <glyph glyph-name="uni2198" unicode="&#x2198;" horiz-adv-x="900" 
d="M200 700l361 -361l-110 -110l-361 361zM800 495v-495h-505l-144 144h495v495z" />
    <glyph glyph-name="uni2199" unicode="&#x2199;" horiz-adv-x="900" 
d="M830 590l-361 -361l-110 110l361 361zM274 639v-495h495l-144 -144h-505v495z" />
    <glyph glyph-name="partialdiff" unicode="&#x2202;" horiz-adv-x="592" 
d="M262 -14q-51 0 -93 16.5t-71.5 46t-45.5 70t-16 89.5q0 57 16 105.5t47 84.5t75.5 56t101.5 20q21 0 42.5 -4t40 -11.5t33.5 -17.5t24 -21q-21 74 -78 107t-157 33h-22l25 140h30q171 0 260 -86.5t89 -241.5q0 -76 -17 -146t-53.5 -123t-93.5 -85t-137 -32zM301 348
q-28 0 -47 -12.5t-31 -32t-17.5 -43.5t-5.5 -47q0 -38 18.5 -65t60.5 -27q27 0 47 13t33 33t19.5 44t6.5 47q0 40 -21 65t-63 25z" />
    <glyph glyph-name="Delta" unicode="&#x2206;" horiz-adv-x="748" 
d="M663 0h-668l381 700h152zM424 512l-187 -376h240z" />
    <glyph glyph-name="product" unicode="&#x220f;" horiz-adv-x="837" 
d="M253 -174h-166l130 737h-128l24 137h767l-24 -137h-128l-130 -737h-166l130 737h-179z" />
    <glyph glyph-name="summation" unicode="&#x2211;" horiz-adv-x="603" 
d="M193 -37h313l-24 -137h-502l24 137l251 300l-145 300l24 137h502l-24 -137h-317l141 -300z" />
    <glyph glyph-name="minus" unicode="&#x2212;" horiz-adv-x="590" 
d="M88 431h470l-25 -142h-470z" />
    <glyph glyph-name="radical" unicode="&#x221a;" horiz-adv-x="762" 
d="M71 375h225l50 -307l283 682h171l-372 -850h-196l-63 318h-126z" />
    <glyph glyph-name="infinity" unicode="&#x221e;" horiz-adv-x="927" 
d="M458 255q-15 -19 -37 -37t-50 -32.5t-60.5 -23.5t-69.5 -9q-40 0 -73.5 12.5t-57.5 35.5t-37.5 55.5t-13.5 72.5q0 51 16 95t46.5 75.5t76 49.5t104.5 18q74 0 121 -30.5t72 -72.5q42 46 94 74.5t118 28.5q45 0 79.5 -14t58.5 -38t36 -56.5t12 -69.5q0 -49 -17.5 -92
t-49 -75t-75.5 -50.5t-97 -18.5q-70 0 -118.5 30t-77.5 72zM280 284q46 0 78 24.5t50 51.5q-14 31 -38 53.5t-68 22.5q-43 0 -67 -22.5t-24 -64.5q0 -29 18.5 -47t50.5 -18zM650 284q42 0 66.5 24.5t24.5 66.5q0 29 -18.5 45t-49.5 16q-44 0 -74.5 -23.5t-54.5 -52.5
q8 -15 17.5 -28.5t22.5 -24t29 -17t37 -6.5z" />
    <glyph glyph-name="integral" unicode="&#x222b;" horiz-adv-x="434" 
d="M175 538q14 79 58 120.5t132 41.5h102l-24 -138h-55q-23 0 -34 -11.5t-15 -34.5l-94 -533q-14 -81 -61.5 -119t-126.5 -38h-96l24 138h44q23 0 36 11t16 30z" />
    <glyph glyph-name="approxequal" unicode="&#x2248;" horiz-adv-x="631" 
d="M422 145q-29 0 -56 11t-51.5 23.5t-47 23.5t-43.5 11q-27 0 -46.5 -14.5t-41.5 -37.5l-82 80q35 46 76.5 74.5t105.5 28.5q29 0 55 -10.5t49.5 -23t45.5 -23t44 -10.5q23 0 41.5 9.5t37.5 27.5l73 -87q-28 -36 -71 -59.5t-89 -23.5zM455 375q-29 0 -56 11t-51.5 23.5
t-47 23.5t-43.5 11q-27 0 -46.5 -14.5t-41.5 -37.5l-82 80q35 46 76.5 74.5t105.5 28.5q29 0 55 -10.5t49.5 -23t45.5 -23t44 -10.5q23 0 41.5 9.5t37.5 27.5l73 -87q-28 -36 -71 -59.5t-89 -23.5z" />
    <glyph glyph-name="notequal" unicode="&#x2260;" horiz-adv-x="630" 
d="M65 168l23 132h129l76 120h-183l23 132h244l64 100h149l-64 -100h77l-23 -132h-138l-76 -120h192l-23 -132h-253l-63 -100h-149l63 100h-68z" />
    <glyph glyph-name="lessequal" unicode="&#x2264;" horiz-adv-x="595" 
d="M67 322l24 136l496 148l-26 -147l-283 -69l259 -69l-26 -147zM11 0l25 142h470l-25 -142h-470z" />
    <glyph glyph-name="greaterequal" unicode="&#x2265;" horiz-adv-x="595" 
d="M56 174l26 147l283 69l-259 69l26 147l444 -148l-24 -136zM26 0l25 142h470l-25 -142h-470z" />
    <glyph glyph-name="lozenge" unicode="&#x25ca;" horiz-adv-x="684" 
d="M652 349l-276 -349h-150l-167 355l274 345h148zM319 147l155 203l-83 203l-153 -211z" />
    <glyph glyph-name="acute.case" unicode="&#xe160;" horiz-adv-x="413" 
d="M165 750l93 148h208l-129 -148h-172z" />
    <glyph glyph-name="breve.case" unicode="&#xe161;" horiz-adv-x="520" 
d="M543 898q-6 -38 -24 -66t-45.5 -46t-63.5 -27t-76 -9q-38 0 -71.5 9t-57.5 27.5t-36 46t-6 65.5h129q-3 -24 11.5 -38t42.5 -14q29 0 46.5 14.5t21.5 37.5h129z" />
    <glyph glyph-name="caron.case" unicode="&#xe162;" horiz-adv-x="544" 
d="M171 898h153l35 -58l53 58h162l-146 -148h-163z" />
    <glyph glyph-name="circumflex.case" unicode="&#xe163;" horiz-adv-x="544" 
d="M561 750h-151l-35 58l-54 -58h-163l146 148h163z" />
    <glyph glyph-name="dieresis.case" unicode="&#xe164;" horiz-adv-x="519" 
d="M155 823q0 37 24.5 60t62.5 23q32 0 54.5 -19.5t22.5 -51.5q0 -34 -23 -59.5t-65 -25.5q-32 0 -54 20.5t-22 52.5zM383 823q0 37 24.5 60t62.5 23q32 0 54.5 -19.5t22.5 -51.5q0 -34 -23 -59.5t-65 -25.5q-32 0 -54 20.5t-22 52.5z" />
    <glyph glyph-name="dotaccent.case" unicode="&#xe165;" horiz-adv-x="308" 
d="M152 830q0 42 27.5 68t72.5 26q38 0 62 -22.5t24 -57.5q0 -40 -26.5 -67t-71.5 -27q-35 0 -61.5 21t-26.5 59z" />
    <glyph glyph-name="grave.case" unicode="&#xe166;" horiz-adv-x="413" 
d="M200 750l-77 148h196l41 -148h-160z" />
    <glyph glyph-name="hungarumlaut.case" unicode="&#xe167;" horiz-adv-x="601" 
d="M547 750h-158l82 148h191zM327 750h-152l64 148h177z" />
    <glyph glyph-name="macron.case" unicode="&#xe168;" horiz-adv-x="509" 
d="M154 759l23 130h369l-23 -130h-369z" />
    <glyph glyph-name="ring.case" unicode="&#xe169;" horiz-adv-x="363" 
d="M379 852q0 -24 -9.5 -42.5t-25.5 -32t-37 -20.5t-44 -7q-21 0 -40 6t-34 18t-24 29t-9 38q0 46 31.5 74.5t82.5 28.5q21 0 40.5 -6t35 -18t24.5 -29t9 -39zM270 888q-22 0 -34.5 -11.5t-12.5 -32.5q0 -18 13 -28t31 -10q21 0 33.5 12t12.5 31q0 17 -12 28t-31 11z" />
    <glyph glyph-name="tilde.case" unicode="&#xe16a;" horiz-adv-x="573" 
d="M464 750q-20 0 -43 5t-46 10.5t-44.5 10.5t-37.5 5q-17 0 -26.5 -10.5t-14.5 -26.5l-95 28q8 31 19 56.5t28 43.5t41.5 28t58.5 10q23 0 47.5 -5t47 -10.5t41 -10.5t30.5 -5q20 0 28.5 12t14.5 26l95 -31q-10 -33 -21.5 -58.5t-28 -42.5t-39.5 -26t-55 -9z" />
    <glyph glyph-name="J.salt" unicode="&#xe56b;" horiz-adv-x="618" 
d="M629 700l-87 -490q-18 -104 -89.5 -164t-191.5 -60q-52 0 -94.5 14.5t-73 41t-47 63.5t-16.5 82q0 19 3 39h160q-1 -5 -1.5 -10t-0.5 -10q0 -34 22 -55.5t62 -21.5q42 0 65.5 24.5t30.5 61.5l60 342h-277l25 143h450z" />
    <glyph glyph-name="IJ.salt" unicode="&#xe56c;" horiz-adv-x="940" 
d="M202 0h-172l123 700h172zM951 700l-87 -490q-18 -104 -89.5 -164t-191.5 -60q-52 0 -94.5 14.5t-73 41t-47 63.5t-16.5 82q0 19 3 39h160q-1 -5 -1.5 -10t-0.5 -10q0 -34 22 -55.5t62 -21.5q42 0 65.5 24.5t30.5 61.5l60 342h-277l25 143h450z" />
    <glyph glyph-name="Jcircumflex.salt" unicode="&#xe57b;" horiz-adv-x="618" 
d="M629 700l-87 -490q-18 -104 -89.5 -164t-191.5 -60q-52 0 -94.5 14.5t-73 41t-47 63.5t-16.5 82q0 19 3 39h160q-1 -5 -1.5 -10t-0.5 -10q0 -34 22 -55.5t62 -21.5q42 0 65.5 24.5t30.5 61.5l60 342h-277l25 143h450zM621 750h-151l-35 58l-54 -58h-163l146 148h163z" />
    <glyph glyph-name="ornm17.ornm" unicode="&#xe610;" horiz-adv-x="746" 
d="M288 742q7 -6 10.5 -16t6 -21.5t3.5 -22.5t3 -18q9 -5 20 -7.5t22.5 -5t21.5 -6.5t17 -10q18 16 44.5 14t46.5 -10q-5 -8 -3.5 -10t13.5 -2q0 -7 2 -13t4 -10q3 1 4.5 4t3.5 6t5 5t10 -1q11 -11 25 -18.5t24 -18.5q20 0 30 10t26 15q3 -12 13.5 -13.5t23.5 -1t25 -0.5
t19 -10q7 0 19.5 2t18.5 -2q-10 -11 -21.5 -17.5t-24.5 -11t-25.5 -9.5t-23.5 -12q-23 -14 -35 -33t-29 -37q-20 -19 -41.5 -33t-32.5 -35q0 -17 3.5 -32.5t1.5 -34.5q-7 -7 -15.5 -12t-16 -11t-12.5 -13.5t-6 -19.5q6 -7 12 -12.5t8 -13.5q-7 -9 -8.5 -19t-1.5 -21t0.5 -22
t-2.5 -23q26 -20 55 -38t46 -46q6 7 13.5 7.5t14 -3.5t11.5 -10t7 -11q-3 -14 -3.5 -28.5t1.5 -29.5h-481q0 57 0.5 117t5.5 116q-13 7 -21.5 16t-13.5 25q6 8 15 12t11 16q3 12 2 23t-4.5 22t-7.5 22t-6 24q-3 28 0 59.5t-2 63.5q-2 20 -11.5 39t-11.5 36q-1 16 1 31t3 29
t-0.5 26.5t-9.5 22.5q46 2 90.5 -1t84.5 -1q5 8 3.5 20t-1.5 24h21z" />
    <glyph glyph-name="ornm18.ornm" unicode="&#xe611;" horiz-adv-x="885" 
d="M69 111q-7 -1 -8.5 4.5t3.5 8.5q18 5 35.5 14t30.5 20l16 15q10 14 16.5 26.5t11.5 25.5q5 14 9.5 26.5t6.5 23.5q-1 15 -1 26v18q0 8 -1 14q-1 9 -2 19t-1 22q0 33 13 55.5t31 37t37 22.5t30 13q27 9 60 16t78 7q13 0 32.5 -1t36.5 -3q13 -2 24 -3t19 -1q10 -1 17 0h6
q3 0 6.5 0.5t8.5 1.5q9 2 16.5 12t13 22.5t9 24t5.5 16.5q5 18 14.5 33.5t26.5 34.5q1 2 1.5 7t1 11t1.5 11.5t3 8.5q5 1 15.5 0.5t12.5 -2.5q2 0 11 -1.5t17 -3.5q5 0 8.5 -0.5t5.5 -2.5q3 -2 4.5 -5t5.5 -6q7 -2 12 -6q1 -2 5.5 -7t7.5 -8q2 -2 5 -7.5t3 -8.5
q0 -4 9.5 -10.5t15.5 -10.5q9 -7 17 -11.5t19 -11.5q17 -8 14 -18q-2 -4 -8 -7t-13.5 -5.5t-14.5 -4t-11 -1.5q-2 0 -11 1t-13 2q-12 3 -30.5 4t-24.5 -3q-3 -1 -8.5 -13t-6.5 -17q0 -4 -1 -11t-2 -14.5t-2 -14.5t-2 -10q-8 -29 -15.5 -53t-9.5 -35q-2 -12 -4 -27.5
t-7 -30.5q-8 -13 -12.5 -21t-6.5 -13q-3 -4 -6.5 -21.5t-7 -38.5t-6 -40.5t-3.5 -27.5q-2 -22 -3 -51.5t0 -57.5q0 -4 2.5 -9.5t6.5 -10.5t9 -8.5t9 -2.5q5 0 7.5 -1t4.5 -2q2 -2 4 -3q2 -2 1.5 -8.5t-3.5 -8.5l-4 -2l-20 1l4 -4q3 -3 2 -6q-1 -1 -1.5 -2t-2.5 -2h-42
q-5 2 -7.5 7t-4.5 8q0 1 -1.5 6t-3 11.5t-2.5 13t-2 9.5q-2 6 -5.5 7t-4.5 5q0 6 1.5 13t1.5 24q0 3 -2.5 4.5t-5.5 7.5q-1 3 -1 16v29v32q0 15 -1 24q0 3 -0.5 9.5t-1.5 14.5t-2 16.5t-1 14.5q-2 11 0.5 15t2.5 9q-2 7 -11.5 5.5t-18.5 -1.5q-14 0 -41.5 7.5t-53.5 26.5
q-12 9 -21.5 19.5t-18 20t-17 16t-17.5 6.5q-11 0 -22.5 -4.5t-18.5 -12.5q-8 -7 -11 -17t-5 -18q-1 -4 -1 -21q-2 -16 -5 -29t-5 -19q-2 -7 -6.5 -21t-7.5 -22q-5 -12 -14 -24q-5 -7 -11 -14q-8 -10 -16 -17.5t-9 -12.5q-3 -4 -4.5 -8.5t-3.5 -9.5t-2 -11v-28
q0 -11 -0.5 -21t0.5 -13q0 -8 1.5 -11t1.5 -5q5 -2 7 -4.5t7 -5.5q3 -1 7.5 -1.5t5.5 -4.5t0 -8.5t-4 -5.5h-26q-7 2 -14 7l-10 9q-1 1 -2 10.5t-2 21t-2 21.5t-1 12v6q-1 5 -1.5 13t-0.5 17t1 17q0 9 -3 9q-2 0 -5 -5q-5 -7 -9 -12l-8 -10q-1 -2 -4.5 -12t-6.5 -22l-7 -24
q-4 -12 -4 -16q-1 -3 -0.5 -9.5t0.5 -13.5v-18l8 -8q2 0 4 -2q4 -4 4 -8q0 -5 -2 -7l-5 -5h-19q-6 0 -10 3.5t-9 10.5q-1 1 -1 7v14q0 8 0.5 16t0.5 14q0 8 1 15t1 18q0 14 0.5 23t1.5 15q-28 -20 -58 -23z" />
    <glyph glyph-name="apple" unicode="&#xf8ff;" horiz-adv-x="820" 
d="M106 525q0 37 13.5 69t37 55.5t55.5 37t69 13.5h350q37 0 69 -13.5t55.5 -36.5t37 -55t13.5 -69t-13.5 -69t-37 -55t-55.5 -36.5t-69 -13.5h-175v-189q0 -37 -13.5 -69t-37 -55.5t-55.5 -37t-69 -13.5t-69 13.5t-55.5 37t-37 55.5t-13.5 69v362z" />
    <glyph glyph-name="fi" unicode="&#xfb01;" horiz-adv-x="670" 
d="M44 0l69 394h-61l23 130h61l7 41q15 88 61 126.5t135 38.5h99l-23 -132h-54q-26 0 -36.5 -10.5t-15.5 -35.5l-5 -28h92l-23 -130h-92l-69 -394h-168zM392 0l92 524h168l-92 -524h-168zM499 651q0 42 27.5 68t72.5 26q38 0 62 -22.5t24 -57.5q0 -40 -26.5 -67t-71.5 -27
q-35 0 -61.5 21t-26.5 59z" />
    <glyph glyph-name="fl" unicode="&#xfb02;" horiz-adv-x="670" 
d="M44 0l69 394h-61l23 130h61l7 41q15 88 61 126.5t135 38.5h99l-23 -132h-54q-26 0 -36.5 -10.5t-15.5 -35.5l-5 -28h92l-23 -130h-92l-69 -394h-168zM392 0l128 730h168l-128 -730h-168z" />
    </font>
</defs>
</svg>
