<svg width="116" height="33" viewBox="0 0 116 33" fill="none" xmlns="http://www.w3.org/2000/svg">
<g clip-path="url(#clip0_113_3100)">
<path fill-rule="evenodd" clip-rule="evenodd" d="M32 0.758789H0V32.7588H32V0.758789ZM10 6.75879H6V26.7588H10V6.75879ZM18 6.75879H14V14.7588H18V6.75879ZM22 6.75879H26V26.7588H22V6.75879Z" fill="#6CDAA3"/>
<path fill-rule="evenodd" clip-rule="evenodd" d="M42 11.7588H44V21.7588H42V11.7588ZM50 11.7588H52V21.7588H50V11.7588ZM48 11.7588H46V15.7588H48V11.7588ZM64 13.7588V11.7588H58V13.7588L64 13.7588ZM54 21.7588H56H64V19.7588H56L56 17.7588L54 17.7588V21.7588ZM56 15.7588V17.7588L64 17.7588V15.7588L56 15.7588ZM76 11.7588V13.7588H72V21.7588H70V13.7588H66V11.7588H70H72H76ZM88 15.7588L86 15.7588V11.7588H88V15.7588ZM78 15.7588H80L86 15.7588V17.7588H80V21.7588H78V15.7588ZM86 21.7588H88V17.7588L86 17.7588V21.7588ZM80 11.7588V13.7588L86 13.7588V11.7588H80ZM90.0001 21.7588H92.0001V11.7588H90.0001V21.7588ZM98 13.7588L104 13.7588V11.7588H98V13.7588ZM104 17.7588H102L102 15.7588L96 15.7588V13.7588L94 13.7588V17.7588H96L102 17.7588L102 19.7588L94 19.7588V21.7588L102 21.7588H104V17.7588ZM112 11.7588H116V13.7588H112V21.7588H110V13.7588H106V11.7588H110H112Z" fill="#070707"/>
</g>
<defs>
<clipPath id="clip0_113_3100">
<rect width="116" height="32" fill="white" transform="translate(0 0.758789)"/>
</clipPath>
</defs>
</svg>
